<svg width="81" height="60" viewBox="0 0 81 60" fill="none" xmlns="http://www.w3.org/2000/svg">
<path d="M40.5003 0.52832C34.2609 0.52832 27.9875 2.90796 23.2303 7.66515C19.6924 11.203 17.5477 15.5917 16.6382 20.1682C7.40644 21.9591 0.40332 30.0216 0.40332 39.7537C0.40332 50.7951 9.41033 59.8022 20.4518 59.8022H51.4253C51.7718 59.8071 52.1159 59.7431 52.4374 59.6139C52.759 59.4846 53.0517 59.2928 53.2985 59.0495C53.5452 58.8062 53.7412 58.5163 53.8749 58.1965C54.0087 57.8768 54.0776 57.5337 54.0776 57.1872C54.0776 56.8406 54.0087 56.4975 53.8749 56.1778C53.7412 55.8581 53.5452 55.5682 53.2985 55.3249C53.0517 55.0816 52.759 54.8897 52.4374 54.7605C52.1159 54.6313 51.7718 54.5673 51.4253 54.5722H20.4518C12.237 54.5722 5.63336 47.9686 5.63336 39.7537C5.63336 31.9959 11.5333 25.6757 19.0898 24.9897C19.6825 24.9319 20.2376 24.6737 20.6636 24.2577C21.0895 23.8416 21.3608 23.2926 21.4325 22.7015C21.9136 18.5566 23.7477 14.5297 26.9349 11.3425C30.688 7.58956 35.5857 5.75836 40.5003 5.75836C45.415 5.75836 50.2818 7.58568 54.0385 11.3425C58.3797 15.6837 60.2168 21.5819 59.541 27.2233C59.4947 27.5909 59.5271 27.964 59.6359 28.3181C59.7447 28.6722 59.9274 28.9991 60.1721 29.2773C60.4168 29.5554 60.7177 29.7784 61.055 29.9315C61.3923 30.0845 61.7583 30.1642 62.1287 30.1652H63.1639C69.9698 30.1652 75.3673 35.5627 75.3673 42.3687C75.3673 49.1747 69.9698 54.5722 63.1639 54.5722H50.9604C50.6139 54.5673 50.2699 54.6313 49.9483 54.7605C49.6267 54.8897 49.334 55.0816 49.0873 55.3249C48.8405 55.5682 48.6445 55.8581 48.5108 56.1778C48.377 56.4975 48.3081 56.8406 48.3081 57.1872C48.3081 57.5337 48.377 57.8768 48.5108 58.1965C48.6445 58.5163 48.8405 58.8062 49.0873 59.0495C49.334 59.2928 49.6267 59.4846 49.9483 59.6139C50.2699 59.7431 50.6139 59.8071 50.9604 59.8022H63.1639C72.7768 59.8022 80.5973 51.9816 80.5973 42.3687C80.5973 33.2962 73.6081 25.9105 64.7438 25.0986C64.7847 18.7886 62.5435 12.4655 57.7431 7.66515C52.99 2.91184 46.7398 0.52832 40.5003 0.52832ZM40.5003 48.1024C39.6285 48.1024 39.1674 47.8218 38.7298 47.4214L29.1414 38.7047C28.0342 37.6771 28.0536 36.0095 28.9778 35C29.9022 33.9906 31.6684 33.9175 32.6825 34.8366L37.8853 39.5763V22.0877C37.8853 20.6435 39.0559 19.4727 40.5003 19.4727C41.9449 19.4727 43.1153 20.6435 43.1153 22.0877V39.5763L48.3182 34.8366C49.3324 33.9175 51.0451 34.0421 52.0228 35C53.053 36.0095 52.8643 37.7756 51.8593 38.7047L42.2709 47.4214C41.7528 47.8957 41.3722 48.1024 40.5003 48.1024Z" fill="#8E8CEE"/>
</svg>
