<svg width="32" height="33" viewBox="0 0 32 33" fill="none" xmlns="http://www.w3.org/2000/svg">
<path d="M16.0003 30.6666C23.3641 30.6666 29.3337 24.9955 29.3337 17.9999C29.3337 11.0043 23.3641 5.33325 16.0003 5.33325C8.63653 5.33325 2.66699 11.0043 2.66699 17.9999C2.66699 24.9955 8.63653 30.6666 16.0003 30.6666Z" fill="#91919C"/>
<path d="M5.33398 10.6666C5.33398 10.6666 5.33282 2.46888 11.3158 1.35357C11.6605 1.289 12.0007 1.37127 12.0007 1.70243V10.6666H5.33398Z" fill="#91919C"/>
<path d="M26.6667 10.6666C26.6667 10.6666 26.6678 2.46888 20.6851 1.35357C20.3402 1.289 20 1.37127 20 1.70243V10.6666H26.6667Z" fill="#91919C"/>
<path d="M23.0583 22.8166L18.2458 18.1353C17.6871 17.5499 17.548 16.656 17.8998 15.9152L19.7117 12.0941C19.9611 11.5688 19.968 10.9521 19.7312 10.4208L17.3099 5.40433C17.3099 5.40433 16.5111 5.33325 15.9981 5.33325C15.4852 5.33325 14.6864 5.40433 14.6864 5.40433L12.2677 10.4208C12.0308 10.9521 12.0377 11.5688 12.2872 12.0941L14.0991 15.9152C14.4509 16.656 14.3106 17.5499 13.753 18.1353L8.94057 22.8166C8.94057 22.8166 4.19136 27.0725 8.42093 31.2105C11.3337 33.3333 15.5706 31.4141 16.0006 27.9784C16.4305 31.4141 20.667 33.3333 23.5802 31.2105C27.8086 27.0713 23.0606 22.8166 23.0606 22.8166H23.0583Z" fill="#EDEDF2"/>
<path d="M9.33333 18.6667C10.0697 18.6667 10.6667 18.0697 10.6667 17.3333C10.6667 16.597 10.0697 16 9.33333 16C8.59695 16 8 16.597 8 17.3333C8 18.0697 8.59695 18.6667 9.33333 18.6667Z" fill="#4C4C53"/>
<path d="M22.6673 18.6667C23.4037 18.6667 24.0007 18.0697 24.0007 17.3333C24.0007 16.597 23.4037 16 22.6673 16C21.9309 16 21.334 16.597 21.334 17.3333C21.334 18.0697 21.9309 18.6667 22.6673 18.6667Z" fill="#4C4C53"/>
<path d="M16.0019 22.6665H17.6386C18.4293 22.6665 18.9235 23.6007 18.5282 24.3473L17.7092 25.8936L16.8902 27.4399C16.4949 28.1865 15.5064 28.1865 15.1111 27.4399L14.2921 25.8936L13.4731 24.3473C13.0778 23.6007 13.572 22.6665 14.3627 22.6665H15.9994H16.0019Z" fill="#91919C"/>
</svg>
