<svg width="80" height="80" viewBox="0 0 80 80" fill="none" xmlns="http://www.w3.org/2000/svg">
<rect width="80" height="80" rx="40" fill="#F7F7FF"/>
<g clip-path="url(#clip0_29215_23316)">
<path d="M38.6816 27.0751C38.6816 28.595 34.164 29.827 28.5913 29.827C23.0186 29.827 18.501 28.595 18.501 27.0751C18.501 25.5553 23.0186 24.3232 28.5913 24.3232C34.164 24.3232 38.6816 25.5553 38.6816 27.0751Z" fill="#B1B0F5"/>
<path d="M38.6806 33.4963C38.6806 35.0161 34.163 36.2482 28.5903 36.2482C23.0176 36.2482 18.5 35.0161 18.5 33.4963C18.5 31.9765 23.0176 30.7444 28.5903 30.7444C34.163 30.7444 38.6806 31.9765 38.6806 33.4963Z" fill="#E6E5FF"/>
<path d="M38.6806 39.9172C38.6806 41.437 34.163 42.6691 28.5903 42.6691C23.0176 42.6691 18.5 41.437 18.5 39.9172C18.5 38.3973 23.0176 37.1653 28.5903 37.1653C34.163 37.1653 38.6806 38.3973 38.6806 39.9172Z" fill="#E6E5FF"/>
<path d="M38.6806 46.3383C38.6806 47.8582 34.163 49.0902 28.5903 49.0902C23.0176 49.0902 18.5 47.8582 18.5 46.3383C18.5 44.8185 23.0176 43.5864 28.5903 43.5864C34.163 43.5864 38.6806 44.8185 38.6806 46.3383Z" fill="#E6E5FF"/>
<path fill-rule="evenodd" clip-rule="evenodd" d="M28.5903 29.8271C34.163 29.8271 38.6806 28.595 38.6806 27.0752V31.6617C38.6806 33.1815 34.163 34.4136 28.5903 34.4136C23.0176 34.4136 18.5 33.1815 18.5 31.6617V27.0752C18.5 28.595 23.0176 29.8271 28.5903 29.8271Z" fill="#8E8CEE"/>
<path fill-rule="evenodd" clip-rule="evenodd" d="M28.5903 36.248C34.163 36.248 38.6806 35.0159 38.6806 33.4961V38.0826C38.6806 39.6024 34.163 40.8345 28.5903 40.8345C23.0176 40.8345 18.5 39.6024 18.5 38.0826V33.4961C18.5 35.0159 23.0176 36.248 28.5903 36.248Z" fill="#8E8CEE"/>
<path fill-rule="evenodd" clip-rule="evenodd" d="M28.5903 42.6691C34.163 42.6691 38.6806 41.4371 38.6806 39.9172V44.5037C38.6806 46.0236 34.163 47.2556 28.5903 47.2556C23.0176 47.2556 18.5 46.0236 18.5 44.5037V39.9172C18.5 41.4371 23.0176 42.6691 28.5903 42.6691Z" fill="#8E8CEE"/>
<path fill-rule="evenodd" clip-rule="evenodd" d="M28.5903 49.0903C34.163 49.0903 38.6806 47.8582 38.6806 46.3384V50.9249C38.6806 52.4447 34.163 53.6768 28.5903 53.6768C23.0176 53.6768 18.5 52.4447 18.5 50.9249V46.3384C18.5 47.8582 23.0176 49.0903 28.5903 49.0903Z" fill="#8E8CEE"/>
<path d="M63.3963 38.9556C65.0067 47.6623 59.1307 55.8875 50.2719 57.3272C41.4132 58.7669 32.9264 52.8758 31.3161 44.1691C29.7058 35.4625 35.5818 27.2372 44.4405 25.7975C53.2992 24.3579 61.786 30.249 63.3963 38.9556Z" fill="url(#paint0_linear_29215_23316)"/>
<path fill-rule="evenodd" clip-rule="evenodd" d="M49.8164 54.864C57.2909 53.6492 62.2488 46.7092 60.8901 39.3629C59.5314 32.0167 52.3706 27.0461 44.8961 28.2608C37.4216 29.4755 32.4637 36.4156 33.8224 43.7618C35.1811 51.1081 42.3418 56.0787 49.8164 54.864ZM50.2719 57.3272C59.1307 55.8875 65.0067 47.6623 63.3963 38.9556C61.786 30.249 53.2992 24.3579 44.4405 25.7975C35.5818 27.2372 29.7058 35.4625 31.3161 44.1691C32.9264 52.8758 41.4132 58.7669 50.2719 57.3272Z" fill="url(#paint1_linear_29215_23316)"/>
<path d="M39.9373 40.5324L41.3488 40.303C41.3649 39.4072 41.4919 38.579 41.7298 37.8184C41.9738 37.0494 42.3144 36.3726 42.7515 35.788C43.1959 35.2022 43.728 34.7213 44.3475 34.3452C44.9744 33.968 45.6775 33.716 46.4568 33.5894C47.4934 33.4209 48.416 33.4756 49.2247 33.7536C50.0394 34.0231 50.7508 34.4508 51.359 35.0367L50.4867 36.3395C50.4219 36.4393 50.3521 36.5326 50.2772 36.6191C50.201 36.6985 50.0821 36.7513 49.9203 36.7776C49.7586 36.8039 49.6009 36.77 49.4471 36.6759C49.3008 36.5806 49.1267 36.4786 48.9249 36.37C48.7217 36.2542 48.4734 36.1606 48.18 36.0892C47.8866 36.0178 47.512 36.0191 47.0562 36.0932C46.2696 36.221 45.65 36.5971 45.1975 37.2214C44.7524 37.8445 44.5134 38.702 44.4806 39.794L49.8069 38.9284L49.9733 39.828C50.0054 40.0014 49.9589 40.1801 49.834 40.3642C49.715 40.5398 49.5268 40.6485 49.2695 40.6903L44.5718 41.4538C44.5845 41.5634 44.6015 41.676 44.6229 41.7916C44.6429 41.9 44.6637 42.0119 44.685 42.1276L44.7692 42.5828L49.2575 41.8534L49.4238 42.7529C49.4559 42.9264 49.4095 43.1051 49.2845 43.2891C49.1655 43.4648 48.981 43.5729 48.7311 43.6135L45.2353 44.1816C45.6463 45.2982 46.1723 46.0947 46.8132 46.5711C47.4541 47.0475 48.1679 47.2217 48.9545 47.0939C49.2853 47.0401 49.5623 46.9616 49.7856 46.8584C50.0161 46.7539 50.2073 46.641 50.359 46.5196C50.5181 46.397 50.6464 46.2719 50.744 46.1444C50.8402 46.0097 50.9275 45.8876 51.0057 45.7781C51.0912 45.6675 51.1721 45.5725 51.2483 45.4931C51.3318 45.4125 51.4324 45.3627 51.55 45.3436C51.6456 45.328 51.7255 45.3299 51.7896 45.3493C51.8598 45.3602 51.939 45.3994 52.0272 45.467L53.567 46.4225C53.2068 47.2997 52.661 48.0136 51.9298 48.5641C51.1987 49.1146 50.3074 49.4753 49.2561 49.6461C48.3886 49.7871 47.5833 49.7728 46.8401 49.6034C46.1029 49.4254 45.4326 49.1176 44.8291 48.6798C44.2256 48.242 43.6947 47.6845 43.2362 47.0073C42.7778 46.3301 42.3965 45.5584 42.0925 44.6924L40.7471 44.911L40.4464 43.2853L41.6484 43.0899C41.6264 43.0117 41.6087 42.9364 41.5953 42.8641C41.5819 42.7919 41.5679 42.716 41.5532 42.6365C41.5318 42.5209 41.5111 42.4089 41.4911 42.3005C41.4784 42.191 41.465 42.0778 41.451 41.961L40.2379 42.1581L39.9373 40.5324Z" fill="#8E8CEE"/>
</g>
<defs>
<linearGradient id="paint0_linear_29215_23316" x1="51.7312" y1="31.7171" x2="42.0761" y2="45.6265" gradientUnits="userSpaceOnUse">
<stop offset="0.78125" stop-color="#E6E5FF"/>
<stop offset="0.78135" stop-color="#D5D5FF"/>
<stop offset="1" stop-color="#D6D6FF"/>
</linearGradient>
<linearGradient id="paint1_linear_29215_23316" x1="41.6148" y1="38.4358" x2="47.2469" y2="30.322" gradientUnits="userSpaceOnUse">
<stop stop-color="#8E8CEE"/>
<stop offset="0.604167" stop-color="#8E8CEE"/>
<stop offset="0.604267" stop-color="#B1B0F5"/>
</linearGradient>
<clipPath id="clip0_29215_23316">
<rect width="48" height="48" fill="white" transform="translate(16 16)"/>
</clipPath>
</defs>
</svg>
