<svg width="24" height="24" viewBox="0 0 24 24" fill="none" xmlns="http://www.w3.org/2000/svg">
<path fill-rule="evenodd" clip-rule="evenodd" d="M1.5371 3.52875C1.5371 2.45604 2.40671 1.58643 3.47943 1.58643H11.0809C12.1536 1.58643 13.0232 2.45604 13.0232 3.52875V6.0346H13.239V7.97693H13.0232V21.0577C13.0232 22.1304 12.1536 23 11.0809 23H3.47943C2.40671 23 1.5371 22.1304 1.5371 21.0577V9.91926H1.32129V8.19274H1.5371V7.5453H1.32129V6.0346H1.5371V3.52875ZM2.67612 4.30808C2.67612 3.47375 3.35248 2.79738 4.18682 2.79738H10.3735C11.2078 2.79738 11.8842 3.47375 11.8842 4.30808V20.2783C11.8842 21.1127 11.2078 21.789 10.3735 21.789H4.18682C3.35248 21.789 2.67612 21.1127 2.67612 20.2783V4.30808Z" fill="#E6E5FF"/>
<path d="M13.0232 8.63037V21.0577C13.0232 22.1304 12.1536 23 11.0809 23H3.47944C2.40672 23 1.53711 22.1304 1.53711 21.0577V12.8567L2.67612 12.575V20.2784C2.67612 21.1127 3.35249 21.7891 4.18683 21.7891H10.3735C11.2078 21.7891 11.8842 21.1127 11.8842 20.2784V8.91213L13.0232 8.63037Z" fill="#B1B0F5"/>
<path fill-rule="evenodd" clip-rule="evenodd" d="M2.67627 4.30806C2.67627 3.47373 3.35263 2.79736 4.18697 2.79736H10.3736C11.208 2.79736 11.8843 3.47373 11.8843 4.30806V20.2783C11.8843 21.1127 11.208 21.789 10.3736 21.789H4.18697C3.35263 21.789 2.67627 21.1127 2.67627 20.2783V4.30806Z" fill="#F7F7FF"/>
<path opacity="0.5" fill-rule="evenodd" clip-rule="evenodd" d="M11.8843 8.91214V20.2784C11.8843 21.1127 11.208 21.7891 10.3736 21.7891H4.18697C3.35263 21.7891 2.67627 21.1127 2.67627 20.2784V12.575L11.8843 8.91214Z" fill="#E6E5FF"/>
<rect x="17" y="5" width="6" height="6" rx="1.5" fill="#8E8CEE"/>
<rect x="9" y="5" width="6" height="6" rx="1.5" fill="#B1B0F5"/>
<rect x="17" y="13" width="6" height="6" rx="1.5" fill="#B1B0F5"/>
<rect x="9" y="13" width="6" height="6" rx="1.5" fill="#8E8CEE"/>
</svg>
