<svg width="24" height="24" viewBox="0 0 24 24" fill="none" xmlns="http://www.w3.org/2000/svg">
<path fill-rule="evenodd" clip-rule="evenodd" d="M5.42406 10.4039C5.97634 10.4064 6.42135 10.8562 6.41802 11.4085L6.38632 17.665C6.38299 18.2172 5.93257 18.6629 5.3803 18.6603C4.82802 18.6578 4.38301 18.208 4.38634 17.6557L4.41804 11.3992C4.42137 10.8469 4.87178 10.4013 5.42406 10.4039Z" fill="#8E8CEE"/>
<path fill-rule="evenodd" clip-rule="evenodd" d="M12.0222 10.4039C12.5745 10.4064 13.0195 10.8562 13.0162 11.4085L12.9845 17.665C12.9811 18.2172 12.5307 18.6629 11.9784 18.6603C11.4262 18.6578 10.9812 18.208 10.9845 17.6557L11.0162 11.3992C11.0195 10.8469 11.4699 10.4013 12.0222 10.4039Z" fill="#8E8CEE"/>
<path fill-rule="evenodd" clip-rule="evenodd" d="M18.6199 10.4039C19.1721 10.4065 19.6172 10.8562 19.6138 11.4085L19.5821 17.665C19.5788 18.2173 19.1284 18.6629 18.5761 18.6604C18.0238 18.6578 17.5788 18.208 17.5821 17.6557L17.6138 11.3992C17.6172 10.847 18.0676 10.4013 18.6199 10.4039Z" fill="#8E8CEE"/>
<path fill-rule="evenodd" clip-rule="evenodd" d="M2.79518 20.6729C2.98506 20.439 3.27024 20.3033 3.57146 20.3033H20.2237C20.4916 20.3033 20.7484 20.4108 20.9364 20.6018L22.1066 21.7907C22.3893 22.078 22.472 22.5068 22.3163 22.8786C22.1606 23.2503 21.797 23.4922 21.3939 23.4922H2.60597C2.22024 23.4922 1.86891 23.2704 1.70309 22.9221C1.53727 22.5739 1.58653 22.1613 1.82968 21.8618L2.79518 20.6729Z" fill="#8E8CEE"/>
<path fill-rule="evenodd" clip-rule="evenodd" d="M11.4705 0.920154C11.7946 0.717737 12.2058 0.717737 12.5299 0.920154L22.1257 6.91279C22.5042 7.14912 22.6803 7.60758 22.5573 8.03648C22.4344 8.46539 22.0422 8.76097 21.596 8.76097H2.40438C1.95821 8.76097 1.56601 8.46539 1.44308 8.03648C1.32016 7.60758 1.49624 7.14912 1.87468 6.91279L11.4705 0.920154Z" fill="#8E8CEE"/>
<path fill-rule="evenodd" clip-rule="evenodd" d="M17.3278 3.91647L22.1257 6.91279C22.5042 7.14913 22.6803 7.60758 22.5573 8.03649C22.4344 8.4654 22.0422 8.76098 21.596 8.76098H2.40438C1.95821 8.76098 1.56601 8.4654 1.44308 8.03649C1.32016 7.60758 1.49624 7.14913 1.87468 6.91279L17.3278 3.91647Z" fill="#8E8CEE"/>
</svg>
