<svg width="24" height="24" viewBox="0 0 24 24" fill="none" xmlns="http://www.w3.org/2000/svg">
<path d="M0.512207 8.12741C0.512207 6.7467 1.6315 5.62741 3.01221 5.62741H19.0495C20.4302 5.62741 21.5495 6.7467 21.5495 8.12741V15.8726C21.5495 17.2534 20.4302 18.3726 19.0495 18.3726H3.01221C1.6315 18.3726 0.512207 17.2533 0.512207 15.8726V8.12741Z" fill="#8E8CEE"/>
<path d="M0.51207 9.0311V16.3726C0.51207 17.4772 1.4075 18.3726 2.51207 18.3726H19.5493C20.6539 18.3726 21.5493 17.4772 21.5493 16.3726V15.1693L0.51207 9.0311Z" fill="#B1B0F5"/>
<path d="M20.4888 10.3128C20.4888 9.76049 20.9365 9.31277 21.4888 9.31277H22.6623C23.2146 9.31277 23.6623 9.76049 23.6623 10.3128V13.6873C23.6623 14.2396 23.2146 14.6873 22.6623 14.6873H21.4888C20.9365 14.6873 20.4888 14.2396 20.4888 13.6873V10.3128Z" fill="#8E8CEE"/>
<path d="M2.41895 8.77615C2.41895 8.22387 2.86666 7.77615 3.41895 7.77615H6.5705C7.12278 7.77615 7.5705 8.22387 7.5705 8.77615V15.2239C7.5705 15.7762 7.12278 16.2239 6.5705 16.2239H3.41895C2.86666 16.2239 2.41895 15.7762 2.41895 15.2239V8.77615Z" fill="#E6E5FF"/>
<path d="M8.54932 8.77615C8.54932 8.22387 8.99703 7.77615 9.54932 7.77615H12.7009C13.2532 7.77615 13.7009 8.22387 13.7009 8.77615V15.2239C13.7009 15.7762 13.2532 16.2239 12.7009 16.2239H9.54932C8.99703 16.2239 8.54932 15.7762 8.54932 15.2239V8.77615Z" fill="#F7F7FF"/>
<path d="M14.519 8.77615C14.519 8.22387 14.9668 7.77615 15.519 7.77615H18.6706C19.2229 7.77615 19.6706 8.22387 19.6706 8.77615V15.2239C19.6706 15.7762 19.2229 16.2239 18.6706 16.2239H15.519C14.9668 16.2239 14.519 15.7762 14.519 15.2239V8.77615Z" fill="#F7F7FF"/>
</svg>
