<svg width="24" height="25" viewBox="0 0 24 25" fill="none" xmlns="http://www.w3.org/2000/svg">
<path d="M12 23C17.5228 23 22 18.7467 22 13.5C22 8.2533 17.5228 4 12 4C6.47715 4 2 8.2533 2 13.5C2 18.7467 6.47715 23 12 23Z" fill="#8E8CEE"/>
<path d="M4 8C4 8 3.99913 1.85172 8.48633 1.01524C8.74491 0.966813 9 1.02851 9 1.27688V8H4Z" fill="#8E8CEE"/>
<path d="M20 8C20 8 20.0009 1.85172 15.5138 1.01524C15.2552 0.966813 15 1.02851 15 1.27688V8H20Z" fill="#8E8CEE"/>
<path d="M17.2935 17.1125L13.6841 13.6016C13.2651 13.1625 13.1608 12.4921 13.4246 11.9365L14.7835 9.07061C14.9706 8.6767 14.9758 8.21412 14.7982 7.81568L12.9822 4.05331C12.9822 4.05331 12.3831 4 11.9984 4C11.6137 4 11.0146 4.05331 11.0146 4.05331L9.2005 7.81568C9.02288 8.21412 9.02805 8.6767 9.21516 9.07061L10.574 11.9365C10.8379 12.4921 10.7327 13.1625 10.3145 13.6016L6.70519 17.1125C6.70519 17.1125 3.14328 20.3045 6.31545 23.4079C8.5 25 11.6777 23.5606 12.0002 20.9839C12.3227 23.5606 15.5 25 17.6849 23.4079C20.8562 20.3036 17.2952 17.1125 17.2952 17.1125H17.2935Z" fill="#E6E5FF"/>
<path d="M7 14C7.55228 14 8 13.5523 8 13C8 12.4477 7.55228 12 7 12C6.44772 12 6 12.4477 6 13C6 13.5523 6.44772 14 7 14Z" fill="#E6E5FF"/>
<path d="M17 14C17.5523 14 18 13.5523 18 13C18 12.4477 17.5523 12 17 12C16.4477 12 16 12.4477 16 13C16 13.5523 16.4477 14 17 14Z" fill="#E6E5FF"/>
<path d="M12.001 17H13.2285C13.8215 17 14.1922 17.7007 13.8956 18.2606L13.2814 19.4203L12.6672 20.5801C12.3707 21.14 11.6293 21.14 11.3328 20.5801L10.7186 19.4203L10.1044 18.2606C9.80784 17.7007 10.1785 17 10.7715 17H11.999H12.001Z" fill="#8E8CEE"/>
</svg>
