<svg width="24" height="24" viewBox="0 0 24 24" fill="none" xmlns="http://www.w3.org/2000/svg">
<g clip-path="url(#clip0_4547_9720)">
<path d="M4.18408 2.59189C4.18408 1.87617 4.76429 1.29596 5.48002 1.29596C10.2587 1.29596 15.0374 1.296 19.816 1.29597C20.5318 1.29596 21.112 1.87617 21.112 2.59191V22.7041C21.112 23.4198 20.5318 24 19.816 24C15.0374 24 10.2587 24 5.48002 24C4.76429 24 4.18408 23.4198 4.18408 22.7041V2.59189Z" fill="#8E8CEE"/>
<path d="M2.88818 1.29597C2.88818 0.580239 3.4684 3.03268e-05 4.18412 3.05176e-05C8.96279 3.17917e-05 13.7415 6.76609e-05 18.5201 3.65999e-05C19.2359 3.19477e-05 19.8161 0.580246 19.8161 1.29598V21.4081C19.8161 22.1239 19.2359 22.7041 18.5201 22.7041C13.7415 22.7041 8.9628 22.7041 4.18412 22.7041C3.4684 22.7041 2.88818 22.1239 2.88818 21.4081V1.29597Z" fill="white"/>
<rect x="5.15918" y="12.981" width="12.3863" height="1.08445" rx="0.542226" fill="#E6E5FF"/>
<rect x="5.15918" y="16.0094" width="12.3863" height="1.08445" rx="0.542226" fill="#E6E5FF"/>
<path d="M6.09766 3.93076C6.09766 3.49007 6.51351 3.13281 7.0265 3.13281H16.6165C17.1295 3.13281 17.5453 3.49007 17.5453 3.93076V9.52823C17.5453 9.96892 17.1295 10.3262 16.6165 10.3262H7.0265C6.51351 10.3262 6.09766 9.96892 6.09766 9.52823V3.93076Z" fill="#F1F0FF"/>
<mask id="mask0_4547_9720" style="mask-type:alpha" maskUnits="userSpaceOnUse" x="6" y="3" width="12" height="8">
<path d="M6.09766 3.93076C6.09766 3.49007 6.51351 3.13281 7.0265 3.13281H16.6165C17.1295 3.13281 17.5453 3.49007 17.5453 3.93076V9.52823C17.5453 9.96892 17.1295 10.3262 16.6165 10.3262H7.0265C6.51351 10.3262 6.09766 9.96892 6.09766 9.52823V3.93076Z" fill="#F1F0FF"/>
</mask>
<g mask="url(#mask0_4547_9720)">
<path fill-rule="evenodd" clip-rule="evenodd" d="M10.7082 4.73611C9.64744 4.73611 8.7875 5.59605 8.7875 6.65683C8.7875 7.71762 9.64744 8.57755 10.7082 8.57755C11.769 8.57755 12.6289 7.71762 12.6289 6.65683C12.6289 5.59605 11.769 4.73611 10.7082 4.73611ZM10.7082 3.94861C9.21251 3.94861 8 5.16112 8 6.65683C8 8.15254 9.21251 9.36506 10.7082 9.36506C12.2039 9.36506 13.4164 8.15254 13.4164 6.65683C13.4164 5.16112 12.2039 3.94861 10.7082 3.94861Z" fill="#B1B0F5"/>
<path fill-rule="evenodd" clip-rule="evenodd" d="M19.4363 4.73611C18.3755 4.73611 17.5155 5.59605 17.5155 6.65683C17.5155 7.71762 18.3755 8.57755 19.4363 8.57755C20.497 8.57755 21.357 7.71762 21.357 6.65683C21.357 5.59605 20.497 4.73611 19.4363 4.73611ZM19.4363 3.94861C17.9405 3.94861 16.728 5.16112 16.728 6.65683C16.728 8.15254 17.9405 9.36506 19.4363 9.36506C20.932 9.36506 22.1445 8.15254 22.1445 6.65683C22.1445 5.16112 20.932 3.94861 19.4363 3.94861Z" fill="#B1B0F5"/>
<path fill-rule="evenodd" clip-rule="evenodd" d="M13.4488 1.2875C13.2878 1.2875 13.143 1.38553 13.0833 1.53502L12.7491 2.37032H16.5365L16.9114 1.37801C16.9883 1.17459 17.2155 1.07199 17.4189 1.14886C17.6224 1.22572 17.725 1.45294 17.6481 1.65637L17.374 2.38176C17.4778 2.40734 17.5682 2.47451 17.6223 2.56984L19.7715 6.3597C19.8406 6.48159 19.8397 6.63104 19.7692 6.75213C19.6987 6.87321 19.5691 6.94768 19.429 6.94768H15.3766C15.2473 6.94768 15.1262 6.88419 15.0527 6.77781C14.9792 6.67143 14.9625 6.53572 15.0083 6.41476L16.2389 3.15782H12.5582L11.1317 6.70099C11.0505 6.90272 10.8211 7.00041 10.6194 6.91919C10.4176 6.83798 10.3199 6.6086 10.4012 6.40688L11.927 2.61702C11.9282 2.61406 11.9294 2.61113 11.9306 2.60821C11.8906 2.51542 11.8862 2.40734 11.9266 2.30612L12.3521 1.24255C12.5315 0.794075 12.9658 0.5 13.4488 0.5H13.8508C14.0683 0.5 14.2446 0.676289 14.2446 0.893752C14.2446 1.11121 14.0683 1.2875 13.8508 1.2875H13.4488ZM17.0686 3.18996L15.9463 6.16018H18.753L17.0686 3.18996Z" fill="#8E8CEE"/>
<path fill-rule="evenodd" clip-rule="evenodd" d="M12.0226 2.42448C12.2101 2.27594 12.4825 2.30753 12.631 2.49503L15.6334 6.28489C15.7819 6.47239 15.7504 6.74481 15.5629 6.89335C15.3754 7.04189 15.1029 7.0103 14.9544 6.8228L11.952 3.03294C11.8035 2.84544 11.8351 2.57302 12.0226 2.42448Z" fill="#8E8CEE"/>
</g>
</g>
<defs>
<clipPath id="clip0_4547_9720">
<rect width="24" height="24" fill="white"/>
</clipPath>
</defs>
</svg>
