<svg width="25" height="24" viewBox="0 0 25 24" fill="none" xmlns="http://www.w3.org/2000/svg">
<path d="M1.02686 14.5301V6.39491C1.02686 5.40084 1.75317 4.56505 2.74636 4.52321C6.81875 4.35165 16.8056 4.92696 18.0555 14.5183C18.1986 15.6163 17.2849 16.5301 16.1776 16.5301H3.02686C1.92229 16.5301 1.02686 15.6347 1.02686 14.5301Z" fill="url(#paint0_linear_2061_7453)"/>
<path d="M4.75928 11.6122V7.36336C4.75928 6.84417 5.16958 6.40766 5.73064 6.38581C9.36197 6.45889 13.8389 7.77476 14.3798 11.6122C14.4606 12.1857 13.9436 12.6568 13.3181 12.6568H5.88909C5.26511 12.6568 4.75928 12.1891 4.75928 11.6122Z" fill="#E6E5FF"/>
<path d="M9.0869 16.827C9.0869 18.4382 7.7807 19.7444 6.16943 19.7444C4.55815 19.7444 3.25195 18.4382 3.25195 16.827C3.25195 15.2157 4.55815 13.9095 6.16943 13.9095C7.7807 13.9095 9.0869 15.2157 9.0869 16.827Z" fill="#F7F7FF"/>
<path fill-rule="evenodd" clip-rule="evenodd" d="M6.16943 18.7444C7.22842 18.7444 8.0869 17.8859 8.0869 16.827C8.0869 15.768 7.22842 14.9095 6.16943 14.9095C5.11043 14.9095 4.25195 15.768 4.25195 16.827C4.25195 17.8859 5.11043 18.7444 6.16943 18.7444ZM6.16943 19.7444C7.7807 19.7444 9.0869 18.4382 9.0869 16.827C9.0869 15.2157 7.7807 13.9095 6.16943 13.9095C4.55815 13.9095 3.25195 15.2157 3.25195 16.827C3.25195 18.4382 4.55815 19.7444 6.16943 19.7444Z" fill="#B1B0F5"/>
<path d="M16.8145 13.9095C16.8145 13.4999 17.1465 13.1678 17.5561 13.1678H23.8093C24.2189 13.1678 24.551 13.4999 24.551 13.9095V13.9095C24.551 14.3191 24.2189 14.6512 23.8093 14.6512H17.5561C17.1465 14.6512 16.8145 14.3191 16.8145 13.9095V13.9095Z" fill="#8E8CEE"/>
<defs>
<linearGradient id="paint0_linear_2061_7453" x1="14.8341" y1="9.22972" x2="6.05747" y2="16.9285" gradientUnits="userSpaceOnUse">
<stop stop-color="#8E8CEE"/>
<stop offset="0.608323" stop-color="#8F8DEF"/>
<stop offset="0.608628" stop-color="#ACABF4"/>
<stop offset="1" stop-color="#ACABF5"/>
</linearGradient>
</defs>
</svg>
