<svg width="24" height="24" viewBox="0 0 24 24" fill="none" xmlns="http://www.w3.org/2000/svg">
<g clip-path="url(#clip0_2127_14)">
<path fill-rule="evenodd" clip-rule="evenodd" d="M6.39713 9.97521C7.97385 10.552 8.77206 12.2646 8.17997 13.8005C7.58788 15.3365 5.82972 16.114 4.253 15.5372C2.67627 14.9605 1.87807 13.2478 2.47015 11.7119C3.06224 10.176 4.82041 9.39845 6.39713 9.97521ZM7.08494 8.19098C9.67325 9.13777 10.9836 11.9492 10.0116 14.4706C9.03965 16.9919 6.15349 18.2683 3.56519 17.3215C0.976878 16.3747 -0.333436 13.5632 0.638517 11.0419C1.61047 8.52058 4.49663 7.24418 7.08494 8.19098Z" fill="#8E8CEE"/>
<path fill-rule="evenodd" clip-rule="evenodd" d="M17.912 8.22183C18.4565 8.421 18.8104 8.9357 18.7924 9.502L18.7851 9.72966L12.954 7.59664L12.9656 6.40455C12.9699 5.96599 12.6084 5.60709 12.1581 5.60293C11.7079 5.59876 11.3395 5.95091 11.3352 6.38947L11.3283 7.09659C11.1733 7.11443 11.0241 7.17554 10.9002 7.27665L5.00781 12.0882C4.78569 12.2696 4.67913 12.5522 4.72795 12.8305C4.77676 13.1089 4.97359 13.341 5.24493 13.4402L11.7791 15.8304C12.0282 15.9216 12.3073 15.8885 12.5267 15.742C12.7462 15.5954 12.8784 15.3537 12.8809 15.0945L12.9375 9.28714L18.7177 11.4015L18.3654 16.5868C18.3407 17.0247 18.6851 17.3992 19.1347 17.4233C19.5842 17.4474 19.9687 17.1119 19.9934 16.6739L20.347 11.4663C20.3576 11.4189 20.364 11.37 20.3656 11.3197L20.3793 10.8893L20.3794 10.8858L20.422 9.55134C20.4618 8.30549 19.6831 7.17316 18.4852 6.73497L18.4158 6.70959C17.9943 6.55541 17.5243 6.76326 17.366 7.17385C17.2077 7.58443 17.4211 8.04226 17.8426 8.19645L17.912 8.22183ZM11.3096 9.01479L11.2616 13.9446L7.12534 12.4316L11.3096 9.01479Z" fill="#B1B0F5"/>
<path fill-rule="evenodd" clip-rule="evenodd" d="M14.5039 6.12697C14.6622 5.71639 14.4488 5.25856 14.0273 5.10437L10.9746 3.98769C10.5531 3.83351 10.0831 4.04137 9.92485 4.45195C9.76657 4.86254 9.97995 5.32037 10.4014 5.47455L13.4542 6.59123C13.8757 6.74541 14.3457 6.53756 14.5039 6.12697Z" fill="#8E8CEE"/>
<path fill-rule="evenodd" clip-rule="evenodd" d="M20.0519 10.9637C19.8401 10.5767 19.3463 10.4303 18.949 10.6366L11.9893 14.2511C11.592 14.4575 11.4416 14.9385 11.6534 15.3255C11.8653 15.7125 12.359 15.8589 12.7563 15.6526L19.7161 12.0381C20.1134 11.8318 20.2637 11.3508 20.0519 10.9637Z" fill="#B1B0F5"/>
</g>
<defs>
<clipPath id="clip0_2127_14">
<rect width="24" height="24" fill="white"/>
</clipPath>
</defs>
</svg>
