<svg width="24" height="24" viewBox="0 0 24 24" fill="none" xmlns="http://www.w3.org/2000/svg">
<path fill-rule="evenodd" clip-rule="evenodd" d="M15.4776 3.46789C15.5415 2.94175 15.5988 2.46937 15.294 1.97214C14.2995 0.349733 12.5911 0.123366 11.1839 0.986056C9.77657 1.84875 9.33509 3.68893 10.1978 5.09621C10.5618 5.69005 11.0045 5.84482 11.4802 6.01112C12.1318 6.23892 12.8454 6.48836 13.5033 7.91766C13.5434 7.89311 13.6669 7.8198 13.8405 7.71678C14.5423 7.30016 16.0627 6.39772 16.192 6.26949C15.2825 5.07531 15.3867 4.2171 15.4776 3.46789ZM12.821 4.6579C13.4415 4.61646 13.911 4.07982 13.8695 3.45926C13.8281 2.83871 13.2915 2.36924 12.6709 2.41068C12.0504 2.45211 11.5809 2.98876 11.6223 3.60931C11.6638 4.22986 12.2004 4.69933 12.821 4.6579Z" fill="#B1B0F5"/>
<path fill-rule="evenodd" clip-rule="evenodd" d="M13.6517 13.0904C13.3942 13.5536 13.163 13.9695 13.2579 14.545C13.5675 16.4226 15.0644 17.2762 16.6931 17.0077C18.3218 16.7391 19.4244 15.2011 19.1558 13.5725C19.0425 12.8852 18.6908 12.575 18.3129 12.2416C17.7952 11.785 17.2284 11.285 17.1577 9.71308C17.1114 9.72073 16.9693 9.74207 16.7697 9.77207C15.9626 9.89336 14.2142 10.1561 14.0461 10.2262C14.4383 11.6751 14.0183 12.4307 13.6517 13.0904ZM16.5611 12.9897C15.9707 12.7941 15.3336 13.1142 15.138 13.7046C14.9425 14.295 15.2626 14.9321 15.853 15.1277C16.4434 15.3232 17.0805 15.0031 17.276 14.4128C17.4716 13.8224 17.1515 13.1852 16.5611 12.9897Z" fill="#8E8CEE"/>
<path fill-rule="evenodd" clip-rule="evenodd" d="M2.32435 17.9457C1.72769 18.3154 1.19916 18.6429 0.924625 19.1491C0.0174229 20.8219 0.676072 22.4143 2.12709 23.2013C3.57811 23.9882 5.39232 23.4498 6.17923 21.9988C6.50349 21.4009 6.52832 20.8052 6.55538 20.1558C6.594 19.2293 6.63717 18.1937 7.56113 16.8869C6.17923 16.8869 5.19781 16.0281 4.78895 15.3835C4.20481 16.7806 3.19247 17.4079 2.32435 17.9457ZM4.48759 19.947C4.14126 19.4304 3.44173 19.2924 2.92515 19.6388C2.40857 19.9851 2.27055 20.6846 2.61688 21.2012C2.96322 21.7178 3.66275 21.8558 4.17933 21.5095C4.69591 21.1631 4.83393 20.4636 4.48759 19.947Z" fill="#B1B0F5"/>
<path fill-rule="evenodd" clip-rule="evenodd" d="M9.79586 11.2061C9.23089 10.7895 8.73042 10.4206 8.15844 10.3539C6.26826 10.1334 5.03476 11.3368 4.84354 12.9763C4.65232 14.6159 5.82643 16.1 7.46599 16.2912C8.14158 16.37 8.70386 16.1717 9.31675 15.9554C10.1912 15.6469 11.1687 15.3021 12.7253 15.6741C12.2117 14.3912 12.6441 13.1609 13.0906 12.5417C11.5765 12.5187 10.6179 11.8121 9.79586 11.2061ZM8.74173 13.958C9.09257 13.4445 8.96069 12.7438 8.44717 12.3929C7.93364 12.0421 7.23293 12.1739 6.88208 12.6875C6.53123 13.201 6.66311 13.9017 7.17664 14.2526C7.69017 14.6034 8.39088 14.4715 8.74173 13.958Z" fill="#B1B0F5"/>
<path fill-rule="evenodd" clip-rule="evenodd" d="M17.6277 7.26433C17.3203 6.98675 17.2961 6.51249 17.5737 6.20505L19.4834 4.08998C19.7609 3.78254 20.2352 3.75834 20.5426 4.03593C20.8501 4.31351 20.8743 4.78777 20.5967 5.09521L18.687 7.21028C18.4094 7.51772 17.9352 7.54192 17.6277 7.26433Z" fill="#8E8CEE"/>
<path fill-rule="evenodd" clip-rule="evenodd" d="M18.6206 8.62689C18.549 8.21891 18.8217 7.83013 19.2297 7.75851L21.8878 7.29188C22.2958 7.22026 22.6846 7.49294 22.7562 7.90091C22.8278 8.30889 22.5551 8.69767 22.1472 8.76929L19.489 9.23592C19.081 9.30753 18.6923 9.03486 18.6206 8.62689Z" fill="#8E8CEE"/>
<path fill-rule="evenodd" clip-rule="evenodd" d="M18.4936 10.5324C18.6643 10.155 19.1087 9.98747 19.4861 10.1582L21.4174 11.032C21.7948 11.2027 21.9623 11.647 21.7916 12.0244C21.6208 12.4018 21.1765 12.5693 20.7991 12.3986L18.8678 11.5248C18.4904 11.3541 18.3229 10.9098 18.4936 10.5324Z" fill="#8E8CEE"/>
</svg>
