<svg width="24" height="24" viewBox="0 0 24 24" fill="none" xmlns="http://www.w3.org/2000/svg">
<path fill-rule="evenodd" clip-rule="evenodd" d="M12.5703 2.80372L12.6108 13.1529L11.6108 13.1569L11.5703 2.80764L12.5703 2.80372Z" fill="#E6E5FF"/>
<path fill-rule="evenodd" clip-rule="evenodd" d="M8.95152 3.61634L12.6109 13.153L11.6772 13.5112L8.01789 3.97459L8.95152 3.61634Z" fill="#B1B0F5"/>
<path fill-rule="evenodd" clip-rule="evenodd" d="M3.02853 9.16553L12.2729 12.5322L11.9307 13.4718L2.68633 10.1052L3.02853 9.16553Z" fill="#B1B0F5"/>
<path fill-rule="evenodd" clip-rule="evenodd" d="M2.31221 17.2343L11.5551 12.7121L11.9946 13.6103L2.7517 18.1326L2.31221 17.2343Z" fill="#B1B0F5"/>
<path fill-rule="evenodd" clip-rule="evenodd" d="M20.0798 16.7062L11.5552 12.7121L11.9795 11.8065L20.504 15.8007L20.0798 16.7062Z" fill="#E6E5FF"/>
<path fill-rule="evenodd" clip-rule="evenodd" d="M5.51869 20.4785L11.5552 12.7121L12.3447 13.3257L6.30824 21.0921L5.51869 20.4785Z" fill="#E6E5FF"/>
<path fill-rule="evenodd" clip-rule="evenodd" d="M17.1743 4.59714L12.2728 13.7551L11.3911 13.2832L16.2927 4.12525L17.1743 4.59714Z" fill="#E6E5FF"/>
<path fill-rule="evenodd" clip-rule="evenodd" d="M20.6073 7.97832L12.2728 13.7551L11.7031 12.9332L20.0377 7.15643L20.6073 7.97832Z" fill="#B1B0F5"/>
<path fill-rule="evenodd" clip-rule="evenodd" d="M17.1746 18.7004L11.5551 13.2634L12.2505 12.5447L17.87 17.9818L17.1746 18.7004Z" fill="#B1B0F5"/>
<path fill-rule="evenodd" clip-rule="evenodd" d="M11.5554 19.0827L11.5552 13.2634L12.5552 13.2634L12.5554 19.0827L11.5554 19.0827Z" fill="#E6E5FF"/>
<path fill-rule="evenodd" clip-rule="evenodd" d="M1.67069 13.1529L12.2215 12.5322L12.2803 13.5304L1.72942 14.1512L1.67069 13.1529Z" fill="#E6E5FF"/>
<path fill-rule="evenodd" clip-rule="evenodd" d="M22.3493 13.5599H12V12.5599H22.3493V13.5599Z" fill="#E6E5FF"/>
<path fill-rule="evenodd" clip-rule="evenodd" d="M5.0342 5.4672L12.2728 12.8639L11.5581 13.5633L4.3195 6.16663L5.0342 5.4672Z" fill="#E6E5FF"/>
<path fill-rule="evenodd" clip-rule="evenodd" d="M12.0003 3.61743C6.73403 3.61743 2.46484 7.88662 2.46484 13.1529C2.46484 16.0187 3.72718 18.5879 5.73121 20.3381C5.84717 20.4394 5.91893 20.463 6.10296 20.4379C6.38276 20.3997 6.77066 20.2493 7.37579 19.9401C7.52165 19.8656 7.68585 19.7786 7.86229 19.6851C8.31761 19.4437 8.85443 19.1592 9.36767 18.9353C10.1134 18.6099 11.0112 18.3133 12.0003 18.3133C12.6313 18.3133 13.1986 18.3295 13.7256 18.3446C14.6779 18.3717 15.4984 18.3951 16.3236 18.3125C17.4822 18.1964 18.3164 17.8817 18.9903 17.167C19.454 16.6752 19.8759 16.2862 20.2163 15.9724C20.2488 15.9425 20.2805 15.9133 20.3114 15.8847C20.6848 15.5398 20.908 15.3231 21.0752 15.1091C21.3137 14.8036 21.5358 14.3987 21.5358 13.1529C21.5358 7.88662 17.2667 3.61743 12.0003 3.61743ZM21.2352 17.0733C22.3868 16.0113 23.0358 15.4127 23.0358 13.1529C23.0358 7.05819 18.0951 2.11743 12.0003 2.11743C5.90561 2.11743 0.964844 7.05819 0.964844 13.1529C0.964844 16.4698 2.42819 19.4449 4.74451 21.4679C5.86225 22.4441 7.17861 21.746 8.625 20.979C9.68887 20.4148 10.8231 19.8133 12.0003 19.8133C12.5267 19.8133 13.0459 19.8276 13.5549 19.8417C16.1065 19.9119 18.404 19.9752 20.0816 18.1961C20.5078 17.7441 20.8936 17.3883 21.2352 17.0733Z" fill="#8E8CEE"/>
<circle cx="11.9997" cy="13.1529" r="1.61736" fill="#8E8CEE"/>
</svg>
