<svg width="24" height="24" viewBox="0 0 24 24" fill="none" xmlns="http://www.w3.org/2000/svg">
<g clip-path="url(#clip0_2048_12)">
<g clip-path="url(#clip1_2048_12)">
<path fill-rule="evenodd" clip-rule="evenodd" d="M15.9225 3.64613C18.2261 4.06497 20.0032 5.91086 20.3343 8.22869C20.5765 9.92362 20.0065 11.6336 18.7958 12.8443L14.4113 17.2288L13.1108 15.9282L17.4952 11.5438C18.2966 10.7424 18.6738 9.61063 18.5136 8.48879C18.2944 6.95469 17.1182 5.73293 15.5935 5.45572L15.4851 5.43602C14.2734 5.21571 13.0307 5.60389 12.1599 6.47474L7.90858 10.726L6.60804 9.4255L10.8593 5.17419C12.157 3.87658 14.0086 3.29816 15.8141 3.62643L15.9225 3.64613Z" fill="#8E8CEE"/>
<path d="M6.82251 9.63989L7.69426 10.5116L6.415 11.7909L5.54325 10.9192L6.82251 9.63989Z" fill="#E6E5FF"/>
<path d="M13.3188 16.1363L14.2035 17.0209L12.9242 18.3002L12.0396 17.4156L13.3188 16.1363Z" fill="#E6E5FF"/>
<path d="M3.28418 10.6142C3.82379 10.0746 4.69867 10.0746 5.23828 10.6142L13.0933 18.4692C13.6329 19.0088 13.6329 19.8837 13.0933 20.4233V20.4233C12.5537 20.9629 11.6788 20.9629 11.1392 20.4233L3.28418 12.5683C2.74457 12.0287 2.74457 11.1538 3.28418 10.6142V10.6142Z" fill="#B1B0F5"/>
<path d="M7.2828 14.1946C7.85742 13.62 8.78906 13.62 9.36368 14.1946L13.5951 18.4261C14.1698 19.0007 14.1698 19.9323 13.5951 20.5069L13.177 20.9251C12.6024 21.4997 11.6707 21.4997 11.0961 20.9251L6.86467 16.6936C6.29005 16.119 6.29006 15.1874 6.86467 14.6127L7.2828 14.1946Z" fill="#8E8CEE"/>
</g>
</g>
<defs>
<clipPath id="clip0_2048_12">
<rect width="24" height="24" fill="white"/>
</clipPath>
<clipPath id="clip1_2048_12">
<rect width="17.6568" height="17.6568" fill="white" transform="translate(13.0002 -1.48529) rotate(45)"/>
</clipPath>
</defs>
</svg>
