<svg width="24" height="24" viewBox="0 0 24 24" fill="none" xmlns="http://www.w3.org/2000/svg">
<g clip-path="url(#clip0_4528_10356)">
<path fill-rule="evenodd" clip-rule="evenodd" d="M7.07799 8.1298C6.78655 8.42414 6.31168 8.42649 6.01734 8.13505L3.99238 6.13006C3.69804 5.83862 3.69568 5.36375 3.98712 5.06941C4.27856 4.77507 4.75343 4.77272 5.04777 5.06415L7.07273 7.06915C7.36707 7.36059 7.36943 7.83546 7.07799 8.1298Z" fill="#8E8CEE"/>
<path fill-rule="evenodd" clip-rule="evenodd" d="M7.73022 17.6423C8.05019 17.9053 8.09633 18.3779 7.83328 18.6979L6.02359 20.8992C5.76055 21.2191 5.28792 21.2653 4.96795 21.0022C4.64799 20.7392 4.60185 20.2666 4.86489 19.9466L6.67458 17.7453C6.93763 17.4254 7.41025 17.3792 7.73022 17.6423Z" fill="#8E8CEE"/>
<path fill-rule="evenodd" clip-rule="evenodd" d="M10.5044 18.153C10.9175 18.1826 11.2285 18.5415 11.1989 18.9546L10.9953 21.797C10.9658 22.2102 10.6069 22.5211 10.1937 22.4915C9.78054 22.4619 9.4696 22.103 9.49918 21.6899L9.70271 18.8475C9.73229 18.4343 10.0912 18.1234 10.5044 18.153Z" fill="#8E8CEE"/>
<path fill-rule="evenodd" clip-rule="evenodd" d="M20.3643 8.50482C20.52 8.88866 20.3351 9.32604 19.9512 9.48172L17.3105 10.5528C16.9267 10.7085 16.4893 10.5235 16.3336 10.1397C16.1779 9.75582 16.3629 9.31844 16.7467 9.16276L19.3874 8.0917C19.7713 7.93602 20.2087 8.12098 20.3643 8.50482Z" fill="#8E8CEE"/>
<path fill-rule="evenodd" clip-rule="evenodd" d="M16.2681 13.6816C16.3882 13.2852 16.807 13.0612 17.2034 13.1813L19.9305 14.0078C20.3269 14.1279 20.5509 14.5466 20.4308 14.9431C20.3107 15.3395 19.8919 15.5634 19.4955 15.4433L16.7683 14.6169C16.3719 14.4967 16.148 14.078 16.2681 13.6816Z" fill="#8E8CEE"/>
<path fill-rule="evenodd" clip-rule="evenodd" d="M9.90116 6.40005C9.49839 6.49673 9.0935 6.24859 8.99682 5.84582L8.36691 3.22157C8.27023 2.8188 8.51836 2.41391 8.92114 2.31723C9.32391 2.22055 9.7288 2.46869 9.82548 2.87146L10.4554 5.49571C10.5521 5.89848 10.3039 6.30337 9.90116 6.40005Z" fill="#8E8CEE"/>
</g>
<defs>
<clipPath id="clip0_4528_10356">
<rect width="24" height="24" fill="white"/>
</clipPath>
</defs>
</svg>
