<svg width="24" height="24" viewBox="0 0 24 24" fill="none" xmlns="http://www.w3.org/2000/svg">
<path fill-rule="evenodd" clip-rule="evenodd" d="M4.96021 11.6849C3.25871 11.6849 1.87937 13.0643 1.87937 14.7658C1.87937 16.4673 3.25871 17.8466 4.96021 17.8466C6.66171 17.8466 8.04105 16.4673 8.04105 14.7658C8.04105 13.0643 6.66171 11.6849 4.96021 11.6849ZM4.96021 10.4218C2.56109 10.4218 0.616211 12.3667 0.616211 14.7658C0.616211 17.1649 2.56109 19.1098 4.96021 19.1098C7.35934 19.1098 9.30421 17.1649 9.30421 14.7658C9.30421 12.3667 7.35934 10.4218 4.96021 10.4218Z" fill="#E6E5FF"/>
<path fill-rule="evenodd" clip-rule="evenodd" d="M18.9597 11.6849C17.2582 11.6849 15.8789 13.0643 15.8789 14.7658C15.8789 16.4673 17.2582 17.8466 18.9597 17.8466C20.6612 17.8466 22.0406 16.4673 22.0406 14.7658C22.0406 13.0643 20.6612 11.6849 18.9597 11.6849ZM18.9597 10.4218C16.5606 10.4218 14.6157 12.3667 14.6157 14.7658C14.6157 17.1649 16.5606 19.1098 18.9597 19.1098C21.3588 19.1098 23.3037 17.1649 23.3037 14.7658C23.3037 12.3667 21.3588 10.4218 18.9597 10.4218Z" fill="#E6E5FF"/>
<path fill-rule="evenodd" clip-rule="evenodd" d="M9.35526 6.15336C9.09701 6.15336 8.86477 6.31059 8.76886 6.55037L8.23293 7.8902H14.3078L14.9093 6.29854C15.0325 5.97224 15.397 5.80767 15.7233 5.93097C16.0496 6.05426 16.2142 6.41872 16.0909 6.74502L15.6512 7.90854C15.8177 7.94957 15.9627 8.05732 16.0495 8.21022L19.4968 14.2892C19.6076 14.4847 19.6063 14.7244 19.4931 14.9186C19.38 15.1128 19.1722 15.2323 18.9474 15.2323H12.4474C12.24 15.2323 12.0458 15.1305 11.9278 14.9598C11.8099 14.7892 11.7833 14.5715 11.8566 14.3775L13.8305 9.15336H7.92663L5.63852 14.8366C5.50825 15.1602 5.14034 15.3169 4.81677 15.1866C4.4932 15.0563 4.33649 14.6884 4.46677 14.3648L6.91419 8.2859C6.91609 8.28116 6.91806 8.27645 6.92007 8.27178C6.85592 8.12294 6.84871 7.94958 6.91366 7.78721L7.59605 6.08125C7.88379 5.36189 8.5805 4.8902 9.35526 4.8902H10.0001C10.3489 4.8902 10.6316 5.17297 10.6316 5.52178C10.6316 5.87059 10.3489 6.15336 10.0001 6.15336H9.35526ZM15.1614 9.2049L13.3612 13.9691H17.8632L15.1614 9.2049Z" fill="#E6E5FF"/>
<path fill-rule="evenodd" clip-rule="evenodd" d="M13.3052 6.02176C13.3052 5.63807 13.6162 5.32703 13.9999 5.32703L16.9999 5.32703C17.3836 5.32703 17.6946 5.63807 17.6946 6.02176C17.6946 6.40546 17.3836 6.7165 16.9999 6.7165L13.9999 6.7165C13.6162 6.7165 13.3052 6.40546 13.3052 6.02176Z" fill="#E6E5FF"/>
<path fill-rule="evenodd" clip-rule="evenodd" d="M7.06853 7.97723C7.36929 7.73897 7.80624 7.78963 8.0445 8.09038L12.8603 14.1693C13.0986 14.4701 13.0479 14.907 12.7471 15.1453C12.4464 15.3836 12.0094 15.3329 11.7712 15.0321L6.95538 8.9532C6.71712 8.65244 6.76778 8.21549 7.06853 7.97723Z" fill="#E6E5FF"/>
<path d="M11.7009 7.88983H14.3023L13.846 9.14775H11.7009V7.88983Z" fill="#8E8CEE"/>
<rect x="10.4509" y="11.1204" width="2.86306" height="1.39187" transform="rotate(51.5 10.4509 11.1204)" fill="#8E8CEE"/>
</svg>
