<svg width="24" height="24" viewBox="0 0 24 24" fill="none" xmlns="http://www.w3.org/2000/svg">
<g clip-path="url(#clip0_4313_9689)">
<path fill-rule="evenodd" clip-rule="evenodd" d="M4.95997 10.0316C3.25846 10.0316 1.87912 11.4109 1.87912 13.1124C1.87912 14.8139 3.25846 16.1933 4.95997 16.1933C6.66147 16.1933 8.04081 14.8139 8.04081 13.1124C8.04081 11.4109 6.66147 10.0316 4.95997 10.0316ZM4.95997 8.76843C2.56084 8.76843 0.615967 10.7133 0.615967 13.1124C0.615967 15.5116 2.56084 17.4564 4.95997 17.4564C7.35909 17.4564 9.30397 15.5116 9.30397 13.1124C9.30397 10.7133 7.35909 8.76843 4.95997 8.76843Z" fill="#B1B0F5"/>
<path fill-rule="evenodd" clip-rule="evenodd" d="M18.96 10.0316C17.2585 10.0316 15.8791 11.4109 15.8791 13.1124C15.8791 14.8139 17.2585 16.1933 18.96 16.1933C20.6615 16.1933 22.0408 14.8139 22.0408 13.1124C22.0408 11.4109 20.6615 10.0316 18.96 10.0316ZM18.96 8.76843C16.5608 8.76843 14.616 10.7133 14.616 13.1124C14.616 15.5116 16.5608 17.4564 18.96 17.4564C21.3591 17.4564 23.304 15.5116 23.304 13.1124C23.304 10.7133 21.3591 8.76843 18.96 8.76843Z" fill="#B1B0F5"/>
<path fill-rule="evenodd" clip-rule="evenodd" d="M9.35527 4.5C9.09701 4.5 8.86477 4.65724 8.76886 4.89702L8.23293 6.23685H14.3078L14.9093 4.64518C15.0325 4.31889 15.397 4.15432 15.7233 4.27762C16.0496 4.40091 16.2142 4.76537 16.0909 5.09167L15.6512 6.25519C15.8177 6.29622 15.9627 6.40397 16.0495 6.55687L19.4968 12.6358C19.6076 12.8313 19.6063 13.0711 19.4931 13.2653C19.38 13.4595 19.1722 13.579 18.9474 13.579H12.4474C12.24 13.579 12.0458 13.4771 11.9278 13.3065C11.8099 13.1358 11.7833 12.9182 11.8566 12.7241L13.8305 7.50001H7.92663L5.63852 13.1833C5.50825 13.5068 5.14034 13.6635 4.81677 13.5333C4.4932 13.403 4.33649 13.0351 4.46677 12.7115L6.91419 6.63255C6.9161 6.62781 6.91806 6.6231 6.92007 6.61842C6.85592 6.46959 6.84871 6.29623 6.91366 6.13386L7.59605 4.4279C7.88379 3.70854 8.5805 3.23685 9.35527 3.23685H10.0001C10.3489 3.23685 10.6316 3.51961 10.6316 3.86843C10.6316 4.21724 10.3489 4.5 10.0001 4.5H9.35527ZM15.1614 7.55155L13.3612 12.3158H17.8632L15.1614 7.55155Z" fill="#8E8CEE"/>
<path fill-rule="evenodd" clip-rule="evenodd" d="M13.3054 4.36841C13.3054 3.98472 13.6165 3.67368 14.0002 3.67368L17.0002 3.67368C17.3838 3.67368 17.6949 3.98472 17.6949 4.36841C17.6949 4.75211 17.3838 5.06315 17.0002 5.06315L14.0002 5.06315C13.6165 5.06315 13.3054 4.75211 13.3054 4.36841Z" fill="#B1B0F5"/>
<path fill-rule="evenodd" clip-rule="evenodd" d="M7.06853 6.32385C7.36929 6.08559 7.80624 6.13625 8.0445 6.437L12.8603 12.516C13.0986 12.8167 13.0479 13.2537 12.7471 13.4919C12.4464 13.7302 12.0094 13.6795 11.7712 13.3788L6.95538 7.29982C6.71712 6.99906 6.76778 6.56211 7.06853 6.32385Z" fill="#8E8CEE"/>
<path fill-rule="evenodd" clip-rule="evenodd" d="M3.78955 18.9474C3.78955 18.5986 4.07232 18.3158 4.42113 18.3158H18.9474C19.2963 18.3158 19.579 18.5986 19.579 18.9474C19.579 19.2962 19.2963 19.579 18.9474 19.579H4.42113C4.07232 19.579 3.78955 19.2962 3.78955 18.9474Z" fill="#E6E5FF"/>
<path fill-rule="evenodd" clip-rule="evenodd" d="M6.94727 20.8421C6.94727 20.4933 7.23003 20.2105 7.57884 20.2105L20.842 20.2105C21.1908 20.2105 21.4736 20.4933 21.4736 20.8421C21.4736 21.1909 21.1908 21.4737 20.842 21.4737L7.57884 21.4737C7.23003 21.4737 6.94727 21.1909 6.94727 20.8421Z" fill="#E6E5FF"/>
</g>
<defs>
<clipPath id="clip0_4313_9689">
<rect width="24" height="24" fill="white"/>
</clipPath>
</defs>
</svg>
