<svg width="24" height="24" viewBox="0 0 24 24" fill="none" xmlns="http://www.w3.org/2000/svg">
<g clip-path="url(#clip0_4528_10337)">
<path fill-rule="evenodd" clip-rule="evenodd" d="M19.0137 8.13965C20.6665 9.53566 21.2763 11.8448 20.5275 13.8723C19.9799 15.355 18.7786 16.4771 17.2849 16.9012L9.59764 19.1161L9.12941 17.4669L16.8166 15.252C17.8053 14.9713 18.6004 14.2286 18.9629 13.2473C19.4584 11.9053 19.0549 10.3769 17.9609 9.45295L17.8832 9.38728C17.0138 8.65297 15.8539 8.39683 14.7794 8.70188L9.53414 10.1911L9.06592 8.54188L14.3112 7.05268C15.9122 6.59814 17.6406 6.97981 18.936 8.07398L19.0137 8.13965Z" fill="#8E8CEE"/>
<path d="M5.2041 10.1475L6.30044 11.4916L4.89854 12.6351L3.80219 11.2911L5.2041 10.1475Z" fill="#8E8CEE"/>
<path d="M1.58553 10.7595C2.17687 10.2772 3.04728 10.3655 3.52964 10.9569L10.5512 19.5649C11.0336 20.1563 10.9453 21.0267 10.3539 21.509V21.509C9.76257 21.9914 8.89217 21.903 8.40981 21.3117L1.3882 12.7036C0.90584 12.1123 0.994189 11.2419 1.58553 10.7595V10.7595Z" fill="#B1B0F5"/>
<path d="M5.2021 14.7254C5.83181 14.2118 6.75868 14.3059 7.27234 14.9356L11.0549 19.5727C11.5685 20.2024 11.4744 21.1293 10.8447 21.6429L10.3865 22.0167C9.7568 22.5304 8.82992 22.4363 8.31627 21.8066L4.53375 17.1694C4.02009 16.5397 4.11417 15.6129 4.74388 15.0992L5.2021 14.7254Z" fill="#8E8CEE"/>
<path fill-rule="evenodd" clip-rule="evenodd" d="M4.9818 7.70234C4.69036 7.99668 4.21549 7.99903 3.92115 7.70759L1.89619 5.7026C1.60185 5.41116 1.59949 4.93629 1.89093 4.64195C2.18237 4.34761 2.65724 4.34526 2.95158 4.63669L4.97654 6.64169C5.27088 6.93313 5.27324 7.408 4.9818 7.70234Z" fill="#8E8CEE"/>
<path fill-rule="evenodd" clip-rule="evenodd" d="M7.67846 6.44092C7.26762 6.49369 6.89179 6.20342 6.83902 5.79258L6.49519 3.11578C6.44242 2.70494 6.73269 2.32911 7.14353 2.27634C7.55437 2.22357 7.9302 2.51384 7.98297 2.92468L8.3268 5.60148C8.37957 6.01232 8.0893 6.38815 7.67846 6.44092Z" fill="#8E8CEE"/>
</g>
<defs>
<clipPath id="clip0_4528_10337">
<rect width="24" height="24" fill="white"/>
</clipPath>
</defs>
</svg>
