<svg width="24" height="24" viewBox="0 0 24 24" fill="none" xmlns="http://www.w3.org/2000/svg">
<g clip-path="url(#clip0_2048_38)">
<path fill-rule="evenodd" clip-rule="evenodd" d="M5.22156 11.6768C3.67208 11.6768 2.41597 12.9329 2.41597 14.4824C2.41597 16.0319 3.67208 17.288 5.22156 17.288C6.77105 17.288 8.02716 16.0319 8.02716 14.4824C8.02716 12.9329 6.77105 11.6768 5.22156 11.6768ZM5.22156 9.8768C2.67796 9.8768 0.615967 11.9388 0.615967 14.4824C0.615967 17.026 2.67796 19.088 5.22156 19.088C7.76516 19.088 9.82716 17.026 9.82716 14.4824C9.82716 11.9388 7.76516 9.8768 5.22156 9.8768Z" fill="#B1B0F5"/>
<path fill-rule="evenodd" clip-rule="evenodd" d="M18.6984 11.6768C17.1489 11.6768 15.8928 12.9329 15.8928 14.4824C15.8928 16.0319 17.1489 17.288 18.6984 17.288C20.2479 17.288 21.504 16.0319 21.504 14.4824C21.504 12.9329 20.2479 11.6768 18.6984 11.6768ZM18.6984 9.8768C16.1548 9.8768 14.0928 11.9388 14.0928 14.4824C14.0928 17.026 16.1548 19.088 18.6984 19.088C21.242 19.088 23.304 17.026 23.304 14.4824C23.304 11.9388 21.242 9.8768 18.6984 9.8768Z" fill="#B1B0F5"/>
<path fill-rule="evenodd" clip-rule="evenodd" d="M9.71195 5.99332C9.17685 5.99332 8.70111 6.33391 8.52865 6.84045L8.45932 7.04409H14.1897L14.5755 5.98633C14.7175 5.59719 15.148 5.39679 15.5371 5.53872C15.9263 5.68065 16.1267 6.11116 15.9847 6.5003L15.7559 7.12773C15.8835 7.19365 15.9917 7.29595 16.0648 7.42539L19.5423 13.5854C19.6734 13.8176 19.6713 14.1019 19.5369 14.3322C19.4024 14.5625 19.1558 14.7041 18.8892 14.7041H12.4678C12.2231 14.7041 11.9937 14.5846 11.8533 14.384C11.713 14.1835 11.6794 13.927 11.7632 13.6971L13.6427 8.54409H7.96227L6.19255 14.1788C6.06843 14.574 5.64746 14.7937 5.25227 14.6696C4.85709 14.5455 4.63735 14.1245 4.76147 13.7293L6.53755 8.07439C6.54407 8.02908 6.55486 7.98373 6.57015 7.93882L6.70124 7.5538C6.70159 7.55276 6.70194 7.55172 6.7023 7.55068L7.10869 6.35702C7.48809 5.24262 8.53474 4.49332 9.71195 4.49332H9.78013C10.1943 4.49332 10.5301 4.8291 10.5301 5.24332C10.5301 5.65753 10.1943 5.99332 9.78013 5.99332H9.71195ZM15.1351 8.82978L13.5397 13.2041H17.6045L15.1351 8.82978Z" fill="#8E8CEE"/>
<path fill-rule="evenodd" clip-rule="evenodd" d="M13.3428 5.24329C13.3428 4.82907 13.6786 4.49329 14.0928 4.49329L17.0928 4.49329C17.507 4.49329 17.8428 4.82907 17.8428 5.24329C17.8428 5.6575 17.507 5.99329 17.0928 5.99329L14.0928 5.99329C13.6786 5.99329 13.3428 5.6575 13.3428 5.24329Z" fill="#B1B0F5"/>
<path fill-rule="evenodd" clip-rule="evenodd" d="M6.95931 7.72542C7.27024 7.45174 7.74415 7.48194 8.01783 7.79287L12.812 13.2396C13.0857 13.5506 13.0555 14.0245 12.7445 14.2981C12.4336 14.5718 11.9597 14.5416 11.686 14.2307L6.89186 8.78393C6.61819 8.473 6.64839 7.99909 6.95931 7.72542Z" fill="#8E8CEE"/>
</g>
<defs>
<clipPath id="clip0_2048_38">
<rect width="24" height="24" fill="white"/>
</clipPath>
</defs>
</svg>
