<svg width="24" height="24" viewBox="0 0 24 24" fill="none" xmlns="http://www.w3.org/2000/svg">
<g clip-path="url(#clip0_4529_10375)">
<path fill-rule="evenodd" clip-rule="evenodd" d="M6.24695 4.72899C4.69747 4.72899 3.44136 5.98509 3.44136 7.53458C3.44136 9.08407 4.69747 10.3402 6.24695 10.3402C7.79644 10.3402 9.05255 9.08407 9.05255 7.53458C9.05255 5.98509 7.79644 4.72899 6.24695 4.72899ZM6.24695 2.92899C3.70335 2.92899 1.64136 4.99098 1.64136 7.53458C1.64136 10.0782 3.70335 12.1402 6.24695 12.1402C8.79055 12.1402 10.8526 10.0782 10.8526 7.53458C10.8526 4.99098 8.79055 2.92899 6.24695 2.92899Z" fill="#B1B0F5"/>
<path fill-rule="evenodd" clip-rule="evenodd" d="M18.3937 11.8077C16.8442 11.8077 15.5881 13.0638 15.5881 14.6133C15.5881 16.1628 16.8442 17.4189 18.3937 17.4189C19.9432 17.4189 21.1993 16.1628 21.1993 14.6133C21.1993 13.0638 19.9432 11.8077 18.3937 11.8077ZM18.3937 10.0077C15.8501 10.0077 13.7881 12.0697 13.7881 14.6133C13.7881 17.1569 15.8501 19.2189 18.3937 19.2189C20.9373 19.2189 22.9993 17.1569 22.9993 14.6133C22.9993 12.0697 20.9373 10.0077 18.3937 10.0077Z" fill="#B1B0F5"/>
<path d="M17.2327 15.1748C17.3822 14.8304 17.7778 14.7433 18.173 14.8304C18.5682 14.9175 18.7879 15.2129 18.6638 15.4902L16.8877 19.4588C16.8812 19.4906 16.8704 19.5224 16.8551 19.5539L16.7241 19.8241L16.723 19.8263L16.3166 20.664C15.9372 21.4461 14.8906 21.9719 13.7133 21.9719L13.6452 21.9719C13.2309 21.9719 12.8952 21.7363 12.8952 21.4456C12.8952 21.1549 13.1628 20.825 13.577 20.825L13.6452 20.825C14.2753 20.825 14.8273 20.2846 14.8273 20.2846L17.2327 15.1748Z" fill="#8E8CEE"/>
<path fill-rule="evenodd" clip-rule="evenodd" d="M10.4058 20.1814C9.96013 20.933 9.48398 20.7341 9.48398 20.7341C9.33186 20.747 8.99079 20.6724 8.87334 20.6141L2.92582 17.4798C2.71513 17.3751 2.45021 16.9373 2.51135 16.7089C2.5725 16.4804 2.60284 16.3293 2.87519 16.2036L9.43358 13.1772C9.68359 13.0618 10.1402 13.0337 10.3499 13.1113C10.5595 13.1889 10.8436 13.529 10.834 13.7334L10.6188 18.3126L10.4058 20.1814ZM9 18.8113L9.18263 14.924L5.03106 16.8398L9 18.8113Z" fill="#8E8CEE"/>
<path fill-rule="evenodd" clip-rule="evenodd" d="M16.0634 6.83352C15.9162 6.44635 16.1107 6.01315 16.4979 5.86596L19.3021 4.79988C19.6893 4.65268 20.1225 4.84723 20.2697 5.23441C20.4169 5.62158 20.2223 6.05478 19.8352 6.20197L17.031 7.26805C16.6438 7.41525 16.2106 7.2207 16.0634 6.83352Z" fill="#B1B0F5"/>
<path fill-rule="evenodd" clip-rule="evenodd" d="M11.8998 8.42469C12.0886 8.05599 12.5405 7.91014 12.9092 8.09892L19.368 11.4059C19.7366 11.5947 19.8825 12.0466 19.6937 12.4153C19.5049 12.784 19.053 12.9299 18.6843 12.7411L12.2256 9.43408C11.8569 9.2453 11.7111 8.79338 11.8998 8.42469Z" fill="#8E8CEE"/>
</g>
<defs>
<clipPath id="clip0_4529_10375">
<rect width="24" height="24" fill="white"/>
</clipPath>
</defs>
</svg>
