<svg width="24" height="24" viewBox="0 0 24 24" fill="none" xmlns="http://www.w3.org/2000/svg">
<g clip-path="url(#clip0_17002_80008)">
<path d="M4.18408 2.59189C4.18408 1.87617 4.76429 1.29596 5.48002 1.29596C10.2587 1.29596 15.0374 1.296 19.816 1.29597C20.5318 1.29596 21.112 1.87617 21.112 2.59191V22.7041C21.112 23.4198 20.5318 24 19.816 24C15.0374 24 10.2587 24 5.48002 24C4.76429 24 4.18408 23.4198 4.18408 22.7041V2.59189Z" fill="#8E8CEE"/>
<path d="M2.88818 1.29597C2.88818 0.580239 3.4684 3.03268e-05 4.18412 3.05176e-05C8.96279 3.17917e-05 13.7415 6.76609e-05 18.5201 3.65999e-05C19.2359 3.19477e-05 19.8161 0.580246 19.8161 1.29598V21.4081C19.8161 22.1239 19.2359 22.7041 18.5201 22.7041C13.7415 22.7041 8.9628 22.7041 4.18412 22.7041C3.4684 22.7041 2.88818 22.1239 2.88818 21.4081V1.29597Z" fill="white"/>
<rect x="5.15918" y="14.981" width="12.3863" height="1.08445" rx="0.542226" fill="#E6E5FF"/>
<rect x="5.15918" y="18.0094" width="12.3863" height="1.08445" rx="0.542226" fill="#E6E5FF"/>
<path d="M6.09766 3.93076C6.09766 3.49007 6.51351 3.13281 7.0265 3.13281H16.6165C17.1295 3.13281 17.5453 3.49007 17.5453 3.93076V9.52823C17.5453 9.96892 17.1295 10.3262 16.6165 10.3262H7.0265C6.51351 10.3262 6.09766 9.96892 6.09766 9.52823V3.93076Z" fill="#F1F0FF"/>
<path d="M5 3.064C5 2.47637 5.48502 2 6.08333 2H16.9167C17.515 2 18 2.47637 18 3.064V10.936C18 11.5236 17.515 12 16.9167 12H6.08333C5.48502 12 5 11.5236 5 10.936L5 3.064Z" fill="#E6E5FF"/>
<path d="M9.04168 6.13546L9.56548 6.13639C9.62462 5.81234 9.71984 5.51942 9.85113 5.25763C9.9851 4.99314 10.1485 4.76787 10.3413 4.58183C10.5368 4.39579 10.7577 4.25301 11.004 4.15351C11.253 4.054 11.5221 4.00451 11.8113 4.00503C12.196 4.00572 12.5262 4.08059 12.8019 4.22966C13.0803 4.37603 13.3119 4.57363 13.4968 4.82249L13.104 5.24319C13.0746 5.27555 13.0438 5.30521 13.0116 5.33217C12.9794 5.35642 12.9332 5.36849 12.8732 5.36838C12.8132 5.36828 12.7582 5.34657 12.7083 5.30326C12.661 5.25995 12.6042 5.21258 12.5377 5.16113C12.4712 5.10699 12.387 5.05822 12.2852 5.01481C12.1835 4.97141 12.048 4.94956 11.8789 4.94925C11.5869 4.94873 11.3406 5.04824 11.1399 5.24778C10.942 5.44732 10.8045 5.74422 10.7277 6.13847L12.7042 6.14201L12.7107 6.47833C12.712 6.54316 12.6846 6.60525 12.6284 6.66457C12.575 6.72121 12.5005 6.74944 12.405 6.74927L10.6618 6.74615C10.6598 6.78666 10.6593 6.82853 10.6601 6.87176C10.6609 6.91228 10.6617 6.95415 10.6626 6.99737L10.6659 7.16756L12.3314 7.17054L12.338 7.50686C12.3392 7.5717 12.3118 7.63378 12.2557 7.6931C12.2022 7.74974 12.1291 7.77797 12.0364 7.7778L10.7391 7.77548C10.8212 8.20514 10.9638 8.5255 11.1671 8.73656C11.3704 8.94763 11.618 9.05342 11.9099 9.05394C12.0326 9.05416 12.1374 9.0422 12.2242 9.01804C12.3138 8.99389 12.3896 8.96431 12.4517 8.9293C12.5165 8.8943 12.5703 8.85658 12.6131 8.81614C12.6559 8.77299 12.6947 8.73389 12.7295 8.69884C12.767 8.66379 12.8019 8.63414 12.8342 8.60988C12.8692 8.58563 12.9085 8.57355 12.9521 8.57362C12.9876 8.57369 13.0164 8.57914 13.0384 8.58999C13.0631 8.59814 13.0894 8.61709 13.1172 8.64686L13.6168 9.08536C13.4344 9.38218 13.1947 9.60866 12.8976 9.7648C12.6006 9.92095 12.257 9.99867 11.8669 9.99797C11.545 9.9974 11.2548 9.9442 10.9963 9.83839C10.7405 9.72988 10.5165 9.57821 10.3245 9.38337C10.1325 9.18853 9.97376 8.95458 9.8484 8.68153C9.72303 8.40847 9.63119 8.10576 9.57287 7.7734L9.07363 7.7725L9.06177 7.16469L9.50781 7.16549C9.5045 7.13577 9.50259 7.1074 9.50206 7.08039C9.50153 7.05337 9.50098 7.02501 9.5004 6.99529C9.49955 6.95207 9.49874 6.9102 9.49795 6.86968C9.49988 6.82916 9.50179 6.78729 9.50368 6.74408L9.05354 6.74327L9.04168 6.13546Z" fill="#8E8CEE"/>
</g>
<defs>
<clipPath id="clip0_17002_80008">
<rect width="24" height="24" fill="white"/>
</clipPath>
</defs>
</svg>
