<svg width="24" height="24" viewBox="0 0 24 24" fill="none" xmlns="http://www.w3.org/2000/svg">
<path d="M16 3H22V18H15C12 18 12 20.5 12 20.5V7C12 5.93913 12.4214 4.92172 13.1716 4.17157C13.9217 3.42143 14.9391 3 16 3Z" fill="#E6E5FF"/>
<path d="M8 3H2V18H9C12 18 12 20.5 12 20.5V7C12 5.93913 11.5786 4.92172 10.8284 4.17157C10.0783 3.42143 9.06087 3 8 3Z" fill="#8E8CEE"/>
<path fill-rule="evenodd" clip-rule="evenodd" d="M14.5 7.5C14.5 7.22386 14.7239 7 15 7H19.5C19.7761 7 20 7.22386 20 7.5C20 7.77614 19.7761 8 19.5 8H15C14.7239 8 14.5 7.77614 14.5 7.5ZM14.5 9.5C14.5 9.22386 14.7239 9 15 9H19.5C19.7761 9 20 9.22386 20 9.5C20 9.77614 19.7761 10 19.5 10H15C14.7239 10 14.5 9.77614 14.5 9.5ZM15 11C14.7239 11 14.5 11.2239 14.5 11.5C14.5 11.7761 14.7239 12 15 12H19.5C19.7761 12 20 11.7761 20 11.5C20 11.2239 19.7761 11 19.5 11H15Z" fill="#8E8CEE"/>
<path fill-rule="evenodd" clip-rule="evenodd" d="M4 7.5C4 7.22386 4.22386 7 4.5 7H9C9.27614 7 9.5 7.22386 9.5 7.5C9.5 7.77614 9.27614 8 9 8H4.5C4.22386 8 4 7.77614 4 7.5ZM4 9.5C4 9.22386 4.22386 9 4.5 9H9C9.27614 9 9.5 9.22386 9.5 9.5C9.5 9.77614 9.27614 10 9 10H4.5C4.22386 10 4 9.77614 4 9.5ZM4.5 11C4.22386 11 4 11.2239 4 11.5C4 11.7761 4.22386 12 4.5 12H9C9.27614 12 9.5 11.7761 9.5 11.5C9.5 11.2239 9.27614 11 9 11H4.5Z" fill="#E6E5FF"/>
</svg>
