<svg width="24" height="24" viewBox="0 0 24 24" fill="none" xmlns="http://www.w3.org/2000/svg">
<path d="M2 8C2 7.44772 2.44772 7 3 7H21C21.5523 7 22 7.44772 22 8V20C22 21.1046 21.1046 22 20 22H4C2.89543 22 2 21.1046 2 20V8Z" fill="#B1B0F5"/>
<path fill-rule="evenodd" clip-rule="evenodd" d="M7 5C7 3.89543 7.89543 3 9 3H15C16.1046 3 17 3.89543 17 5V7H15V5H9V7H7V5Z" fill="#B1B0F5"/>
<path d="M2 8C2 7.44772 2.44772 7 3 7H21C21.5523 7 22 7.44772 22 8V9.93793C22 10.3034 21.8855 10.6598 21.6727 10.9569L18.5842 15.269C18.2555 15.7278 17.7258 16 17.1615 16H6.83854C6.27417 16 5.74445 15.7278 5.41583 15.269L2.32729 10.957C2.11445 10.6598 2 10.3034 2 9.93793V8Z" fill="#8E8CEE"/>
<rect x="8" y="14" width="2" height="3" rx="0.5" fill="#E6E5FF"/>
<rect x="14" y="14" width="2" height="3" rx="0.5" fill="#E6E5FF"/>
</svg>
