<svg width="24" height="24" viewBox="0 0 24 24" fill="none" xmlns="http://www.w3.org/2000/svg">
<path fill-rule="evenodd" clip-rule="evenodd" d="M3.85744 5C2.68806 6.76055 2 8.91628 2 11.2449C2 17.1847 6.47715 22 12 22C17.5228 22 22 17.1847 22 11.2449C22 8.91628 21.3119 6.76055 20.1426 5H3.85744Z" fill="#E6E5FF"/>
<path fill-rule="evenodd" clip-rule="evenodd" d="M2.04623 11C2.01564 11.3193 2 11.6431 2 11.9706C2 17.5096 6.47715 22 12 22C17.5228 22 22 17.5096 22 11.9706C22 11.6431 21.9844 11.3193 21.9538 11H2.04623Z" fill="#8E8CEE"/>
<path fill-rule="evenodd" clip-rule="evenodd" d="M12.3597 8.15282C12.5584 7.94906 12.8805 7.94906 13.0792 8.15282L17 12.1739L15.4738 13.7392L16.8304 15.1305L13.4389 18.6088L14.7273 20.1093C14.9259 20.3131 14.9259 20.6434 14.7273 20.8472C14.5286 21.0509 14.2065 21.0509 14.0078 20.8472L12 18.6088L15.3915 15.1305L14.0349 13.7392L15.5611 12.1739L12.3597 8.89067C12.1611 8.68692 12.1611 8.35657 12.3597 8.15282Z" fill="#E6E5FF"/>
<rect x="5" y="20" width="14" height="2" rx="1" fill="#D7D6FF"/>
<path fill-rule="evenodd" clip-rule="evenodd" d="M15.6657 4.15394C15.8646 3.94871 16.1871 3.94868 16.3859 4.15391C16.4931 4.26446 16.7087 4.23023 16.8537 4.2072C16.9779 4.18749 17.0504 4.17599 16.9586 4.27066L13.7538 7.57768L13.7984 7.53179L12.4404 8.93317L14.4433 11H13.0029L10.9999 8.93317L12.3279 7.56289L15.6657 4.15394ZM12.3279 7.56289L12.358 7.53179L12.3134 7.57768L12.3279 7.56289Z" fill="#8E8CEE"/>
<rect x="3" y="3" width="18" height="2" rx="1" fill="#D7D6FF"/>
</svg>
