<svg width="24" height="24" viewBox="0 0 24 24" fill="none" xmlns="http://www.w3.org/2000/svg">
<mask id="mask0_4673_9716" style="mask-type:alpha" maskUnits="userSpaceOnUse" x="2" y="2" width="20" height="20">
<path d="M2.00244 3C2.00244 2.44772 2.45016 2 3.00244 2H20.9976C21.5499 2 21.9976 2.44772 21.9976 3V21C21.9976 21.5523 21.5499 22 20.9976 22H3.00244C2.45016 22 2.00244 21.5523 2.00244 21V3Z" fill="#C4C4C4"/>
</mask>
<g mask="url(#mask0_4673_9716)">
<path d="M10.9854 10.9254L0.635742 0.722944L6.25419 -2.23425L10.9854 10.9254Z" fill="#B1B0F5"/>
<path d="M12.5514 12L18.6692 -4.93774L24.9102 -0.147077L12.5514 12Z" fill="#B1B0F5"/>
<path d="M8.5595 11.5733L-3.64895 9.03375L-0.974413 4.28762L8.5595 11.5733Z" fill="#B1B0F5"/>
<path d="M12.0656 15.0622L24.06 18.4723L21.0515 23.014L12.0656 15.0622Z" fill="#B1B0F5"/>
<path d="M10.6754 13.8062L13.378 25.9796L7.95202 25.4921L10.6754 13.8062Z" fill="#B1B0F5"/>
<path d="M11.7334 10.9254L8.62423 -3.27104L14.9463 -2.68482L11.7334 10.9254Z" fill="#D2D0FB"/>
<path d="M11.926 13.6501L25.4029 8.21156L25.8818 14.5426L11.926 13.6501Z" fill="#D2D0FB"/>
<path d="M9.67064 13.0165L-4.4154 16.5926L-4.03819 10.2546L9.67064 13.0165Z" fill="#D2D0FB"/>
<path d="M9.95669 13.2021L3.11419 24.3621L-0.625445 20.0351L9.95669 13.2021Z" fill="#D2D0FB"/>
</g>
</svg>
