<svg width="20" height="22" viewBox="0 0 20 22" fill="none" xmlns="http://www.w3.org/2000/svg">
<path d="M3.88921 13.3338C1.6668 16.6673 4.17918 18.8896 4.73743 19.6433C4.9131 19.8804 3.88591 20.0007 3.88591 21.1119C3.88591 21.8661 4.9704 21.8661 4.9704 21.8661H13.2125C14.6388 20.0007 10.1059 19.8281 9.41535 20.0007C10.1059 18.9649 10.505 16.4384 9.67634 15.6098C8.66565 14.5991 7.20859 15.4269 6.37841 15.8294C6.10231 15.9632 5.90823 15.7663 6.10157 15.5281C6.61839 14.8911 7.91222 14.0709 9.48507 14.4641C11.5567 14.982 11.0444 18.064 10.5265 19.4451C13.8894 19.4451 14.9711 20.5563 14.2228 21.8661H15.8153C16.8205 21.8661 16.6673 19.4451 14.445 19.4451L14.445 17.2228C14.445 17.2228 14.445 16.6673 15.0005 16.1117C16.4174 14.6948 16.6665 14.445 16.6665 11.1115C16.6665 9.40316 16.7178 9.01481 17.2202 8.88921C19.4427 8.33363 19.9983 6.62925 19.9983 6.11133L20 5.55576C20 5.55576 18.5654 4.53747 18.3333 4.4446C15.5554 3.33345 13.9258 4.4446 13.3314 4.4446C13.3314 4.4446 11.3134 3.1682 9.99791 2.77788C8.28267 2.26896 5.5533 2.2223 5.5533 2.2223C5.5533 2.2223 8.33118 6.66691 12.2202 6.66691C12.2202 6.66691 12.2248 6.93137 12.2202 7.22248C12.1849 9.44478 5.86282 10.3735 3.88921 13.3338Z" fill="url(#paint0_linear_17054_79993)"/>
<path d="M13.3338 3.33345C11.1115 2.2223 9.44478 1.66673 8.33363 1.66673L7.77806 0C10.8893 0.44446 12.7782 2.40749 13.3338 3.33345Z" fill="url(#paint1_linear_17054_79993)"/>
<path d="M4.4446 13.8894C4.4446 15.1167 3.44965 16.1117 2.2223 16.1117C0.994959 16.1117 0 15.1167 0 13.8894C0 12.662 0.994959 11.6671 2.2223 11.6671C3.44965 11.6671 4.4446 12.662 4.4446 13.8894Z" fill="url(#paint2_linear_17054_79993)"/>
<defs>
<linearGradient id="paint0_linear_17054_79993" x1="16.0604" y1="28.7676" x2="30.9557" y2="13.6177" gradientUnits="userSpaceOnUse">
<stop offset="0.484275" stop-color="#A3A2F6"/>
<stop offset="0.484375" stop-color="#8F8DEF"/>
<stop offset="1" stop-color="#8F8DEF"/>
</linearGradient>
<linearGradient id="paint1_linear_17054_79993" x1="16.0604" y1="28.7676" x2="30.9557" y2="13.6177" gradientUnits="userSpaceOnUse">
<stop offset="0.484275" stop-color="#A3A2F6"/>
<stop offset="0.484375" stop-color="#8F8DEF"/>
<stop offset="1" stop-color="#8F8DEF"/>
</linearGradient>
<linearGradient id="paint2_linear_17054_79993" x1="16.0604" y1="28.7676" x2="30.9557" y2="13.6177" gradientUnits="userSpaceOnUse">
<stop offset="0.484275" stop-color="#A3A2F6"/>
<stop offset="0.484375" stop-color="#8F8DEF"/>
<stop offset="1" stop-color="#8F8DEF"/>
</linearGradient>
</defs>
</svg>
