<svg width="24" height="24" viewBox="0 0 24 24" fill="none" xmlns="http://www.w3.org/2000/svg">
<path d="M0 5.83178C0 4.77916 0.853319 3.92584 1.90594 3.92584H22.0941C23.1467 3.92584 24 4.77916 24 5.83178V18.1665C24 19.2192 23.1467 20.0725 22.0941 20.0725H1.90594C0.853317 20.0725 0 19.2192 0 18.1665V5.83178Z" fill="white"/>
<path fill-rule="evenodd" clip-rule="evenodd" d="M22.4584 4.95359H1.54163C1.25782 4.95359 1.02775 5.18366 1.02775 5.46747V18.5308C1.02775 18.8147 1.25782 19.0447 1.54163 19.0447H22.4584C22.7422 19.0447 22.9722 18.8147 22.9722 18.5308V5.46747C22.9722 5.18366 22.7422 4.95359 22.4584 4.95359ZM1.54163 3.92584C0.69021 3.92584 0 4.61605 0 5.46747V18.5308C0 19.3823 0.69021 20.0725 1.54163 20.0725H22.4584C23.3098 20.0725 24 19.3823 24 18.5308V5.46747C24 4.61605 23.3098 3.92584 22.4584 3.92584H1.54163Z" fill="#E6E5FF"/>
<path fill-rule="evenodd" clip-rule="evenodd" d="M23.4751 8.92816C23.7589 8.92816 23.9889 9.15823 23.9889 9.44204V18.5326C23.9889 19.384 23.2987 20.0742 22.4473 20.0742H1.55261C0.701196 20.0742 0.0109863 19.384 0.0109863 18.5326V12.5461C0.0109863 12.2623 0.241056 12.0322 0.524862 12.0322C0.808668 12.0322 1.03874 12.2623 1.03874 12.5461V18.5326C1.03874 18.8164 1.26881 19.0464 1.55261 19.0464H22.4473C22.7311 19.0464 22.9612 18.8164 22.9612 18.5326V9.44204C22.9612 9.15823 23.1913 8.92816 23.4751 8.92816Z" fill="#F7F7FF"/>
<path fill-rule="evenodd" clip-rule="evenodd" d="M3.75415 7.3321C3.75415 6.99899 4.02419 6.72894 4.35731 6.72894V7.3321V7.93526C4.02419 7.93526 3.75415 7.66521 3.75415 7.3321ZM13.6658 10.1862L13.6657 10.7894H11.2075C10.5768 10.7894 10.0075 10.5548 9.51038 10.2583C9.0161 9.96351 8.54428 9.57678 8.11663 9.22496L8.09437 9.20665C7.66015 8.8494 7.27083 8.52909 6.88524 8.29165C6.49491 8.05128 6.16881 7.93526 5.87689 7.93526H4.35731V7.3321V6.72894H5.87689C6.48737 6.72894 7.03907 6.96969 7.51778 7.26447C7.97516 7.54613 8.42093 7.91305 8.83084 8.25044C8.8483 8.26481 8.86569 8.27913 8.88302 8.29338C9.32269 8.6551 9.72527 8.9819 10.1283 9.22226C10.5284 9.46091 10.8794 9.58309 11.2075 9.58309H13.6657L13.6658 10.1862ZM13.6658 10.1862L13.6657 10.7894C13.9989 10.7894 14.2689 10.5194 14.2689 10.1862C14.2689 9.85313 13.9989 9.58309 13.6657 9.58309L13.6658 10.1862Z" fill="#E6E5FF"/>
<path fill-rule="evenodd" clip-rule="evenodd" d="M3.7666 10.2077C3.7666 9.8746 4.03664 9.60455 4.36976 9.60455L13.6443 9.60456C13.9774 9.60456 14.2475 9.8746 14.2475 10.2077C14.2475 10.5408 13.9774 10.8109 13.6443 10.8109L4.36976 10.8109C4.03664 10.8109 3.7666 10.5408 3.7666 10.2077Z" fill="#8E8CEE"/>
<path fill-rule="evenodd" clip-rule="evenodd" d="M4.36903 12.3071L4.36903 12.9102L4.36903 13.5134H5.5152C6.12198 13.5134 6.70276 13.2954 7.22888 13.024C7.71191 12.7748 8.20124 12.4517 8.66584 12.1449C8.70762 12.1173 8.7492 12.0898 8.79056 12.0626C9.30582 11.723 9.79594 11.4074 10.2841 11.1743C10.7706 10.942 11.2173 10.8109 11.6395 10.8109H13.6014C13.9345 10.8109 14.2046 10.5408 14.2046 10.2077C14.2046 9.87459 13.9345 9.60455 13.6014 9.60455H11.6395C10.9705 9.60455 10.3393 9.81119 9.76442 10.0857C9.19124 10.3593 8.6365 10.7194 8.1267 11.0554C8.08837 11.0806 8.05033 11.1057 8.01255 11.1307C7.534 11.4465 7.09822 11.734 6.67581 11.9519C6.2197 12.1872 5.8413 12.3071 5.5152 12.3071H4.36903ZM3.76587 12.9102C3.76587 13.2434 4.03592 13.5134 4.36903 13.5134L4.36903 12.9102L4.36903 12.3071C4.03592 12.3071 3.76587 12.5771 3.76587 12.9102Z" fill="#8E8CEE"/>
<path fill-rule="evenodd" clip-rule="evenodd" d="M20.1239 8.94873C20.3499 9.14711 20.3724 9.49118 20.174 9.71722L18.6305 11.4758C18.4505 11.681 18.1463 11.7211 17.9192 11.5697L16.982 10.9449C16.7318 10.7781 16.6642 10.44 16.831 10.1897C16.9979 9.93951 17.336 9.87189 17.5862 10.0387L18.1265 10.399L19.3554 8.9988C19.5538 8.77276 19.8979 8.75034 20.1239 8.94873Z" fill="#8E8CEE"/>
<path fill-rule="evenodd" clip-rule="evenodd" d="M3.75415 15.7876C3.75415 15.444 4.03272 15.1654 4.37634 15.1654H13.7179C14.0615 15.1654 14.3401 15.444 14.3401 15.7876C14.3401 16.1313 14.0615 16.4098 13.7179 16.4098H4.37634C4.03272 16.4098 3.75415 16.1313 3.75415 15.7876Z" fill="#E6E5FF"/>
</svg>
