<svg width="25" height="24" viewBox="0 0 25 24" fill="none" xmlns="http://www.w3.org/2000/svg">
<path d="M0.362549 5.83178C0.362549 4.77916 1.21587 3.92584 2.26849 3.92584H22.4566C23.5092 3.92584 24.3625 4.77916 24.3625 5.83178V18.1665C24.3625 19.2192 23.5092 20.0725 22.4566 20.0725H2.26849C1.21587 20.0725 0.362549 19.2192 0.362549 18.1665V5.83178Z" fill="white"/>
<path fill-rule="evenodd" clip-rule="evenodd" d="M22.8209 4.95359H1.90418C1.62037 4.95359 1.3903 5.18366 1.3903 5.46747V18.5308C1.3903 18.8147 1.62037 19.0447 1.90418 19.0447H22.8209C23.1047 19.0447 23.3348 18.8147 23.3348 18.5308V5.46747C23.3348 5.18366 23.1047 4.95359 22.8209 4.95359ZM1.90418 3.92584C1.05276 3.92584 0.362549 4.61605 0.362549 5.46747V18.5308C0.362549 19.3823 1.05276 20.0725 1.90418 20.0725H22.8209C23.6723 20.0725 24.3626 19.3823 24.3626 18.5308V5.46747C24.3626 4.61605 23.6723 3.92584 22.8209 3.92584H1.90418Z" fill="#E6E5FF"/>
<path fill-rule="evenodd" clip-rule="evenodd" d="M23.8376 8.92816C24.1214 8.92816 24.3515 9.15823 24.3515 9.44204V18.5326C24.3515 19.384 23.6613 20.0742 22.8099 20.0742H1.91516C1.06374 20.0742 0.373535 19.384 0.373535 18.5326V12.5461C0.373535 12.2623 0.603605 12.0322 0.887411 12.0322C1.17122 12.0322 1.40129 12.2623 1.40129 12.5461V18.5326C1.40129 18.8164 1.63136 19.0464 1.91516 19.0464H22.8099C23.0937 19.0464 23.3237 18.8164 23.3237 18.5326V9.44204C23.3237 9.15823 23.5538 8.92816 23.8376 8.92816Z" fill="#F7F7FF"/>
<path fill-rule="evenodd" clip-rule="evenodd" d="M4.1167 7.3321C4.1167 6.99899 4.38674 6.72894 4.71986 6.72894V7.3321V7.93526C4.38674 7.93526 4.1167 7.66521 4.1167 7.3321ZM14.0283 10.1862L14.0283 10.7894H11.5701C10.9393 10.7894 10.3701 10.5548 9.87293 10.2583C9.37864 9.96351 8.90683 9.57678 8.47918 9.22496L8.45692 9.20665C8.0227 8.8494 7.63338 8.52909 7.24779 8.29165C6.85746 8.05128 6.53136 7.93526 6.23944 7.93526H4.71986V7.3321V6.72894H6.23944C6.84992 6.72894 7.40162 6.96969 7.88033 7.26447C8.33771 7.54613 8.78348 7.91305 9.19339 8.25044C9.21084 8.26481 9.22824 8.27913 9.24557 8.29338C9.68524 8.6551 10.0878 8.9819 10.4908 9.22226C10.891 9.46091 11.2419 9.58309 11.5701 9.58309H14.0283L14.0283 10.1862ZM14.0283 10.1862L14.0283 10.7894C14.3614 10.7894 14.6315 10.5194 14.6315 10.1862C14.6315 9.85313 14.3614 9.58309 14.0283 9.58309L14.0283 10.1862Z" fill="#E6E5FF"/>
<path fill-rule="evenodd" clip-rule="evenodd" d="M4.12915 10.2077C4.12915 9.8746 4.39919 9.60455 4.73231 9.60455L14.0069 9.60456C14.34 9.60456 14.61 9.8746 14.61 10.2077C14.61 10.5408 14.34 10.8109 14.0069 10.8109L4.73231 10.8109C4.39919 10.8109 4.12915 10.5408 4.12915 10.2077Z" fill="#E6E5FF"/>
<path fill-rule="evenodd" clip-rule="evenodd" d="M4.73158 12.3071L4.73157 12.9102L4.73158 13.5134H5.87775C6.48453 13.5134 7.06531 13.2954 7.59143 13.024C8.07446 12.7748 8.56379 12.4517 9.02839 12.1449C9.07017 12.1173 9.11175 12.0898 9.15311 12.0626C9.66837 11.723 10.1585 11.4074 10.6467 11.1743C11.1331 10.942 11.5799 10.8109 12.0021 10.8109H13.9639C14.2971 10.8109 14.5671 10.5408 14.5671 10.2077C14.5671 9.87459 14.2971 9.60455 13.9639 9.60455H12.0021C11.3331 9.60455 10.7019 9.81119 10.127 10.0857C9.55379 10.3593 8.99905 10.7194 8.48924 11.0554C8.45092 11.0806 8.41287 11.1057 8.3751 11.1307C7.89655 11.4465 7.46077 11.734 7.03836 11.9519C6.58225 12.1872 6.20385 12.3071 5.87775 12.3071H4.73158ZM4.12842 12.9102C4.12842 13.2434 4.39847 13.5134 4.73158 13.5134L4.73157 12.9102L4.73158 12.3071C4.39847 12.3071 4.12842 12.5771 4.12842 12.9102Z" fill="#8E8CEE"/>
<path fill-rule="evenodd" clip-rule="evenodd" d="M16.9438 7.37464C16.9438 7.04153 17.2139 6.77148 17.547 6.77148L20.2068 6.77148C20.54 6.77148 20.81 7.04153 20.81 7.37464C20.81 7.70775 20.54 7.9778 20.2068 7.9778L17.547 7.9778C17.2139 7.9778 16.9438 7.70775 16.9438 7.37464Z" fill="#E6E5FF"/>
<path fill-rule="evenodd" clip-rule="evenodd" d="M16.9438 13.0041C16.9438 12.671 17.2139 12.401 17.547 12.401L20.2068 12.401C20.54 12.401 20.81 12.671 20.81 13.0041C20.81 13.3372 20.54 13.6073 20.2068 13.6073L17.547 13.6073C17.2139 13.6073 16.9438 13.3372 16.9438 13.0041Z" fill="#E6E5FF"/>
<path fill-rule="evenodd" clip-rule="evenodd" d="M16.9438 10.1894C16.9438 9.85628 17.2139 9.58624 17.547 9.58624L20.2068 9.58624C20.54 9.58624 20.81 9.85628 20.81 10.1894C20.81 10.5225 20.54 10.7926 20.2068 10.7926L17.547 10.7926C17.2139 10.7926 16.9438 10.5225 16.9438 10.1894Z" fill="#8E8CEE"/>
<path fill-rule="evenodd" clip-rule="evenodd" d="M16.9438 15.8189C16.9438 15.4857 17.2139 15.2157 17.547 15.2157L20.2068 15.2157C20.54 15.2157 20.81 15.4857 20.81 15.8189C20.81 16.152 20.54 16.422 20.2068 16.422L17.547 16.422C17.2139 16.422 16.9438 16.152 16.9438 15.8189Z" fill="#E6E5FF"/>
<path fill-rule="evenodd" clip-rule="evenodd" d="M4.1167 15.7876C4.1167 15.444 4.39526 15.1654 4.73889 15.1654H14.0804C14.4241 15.1654 14.7026 15.444 14.7026 15.7876C14.7026 16.1313 14.4241 16.4098 14.0804 16.4098H4.73889C4.39526 16.4098 4.1167 16.1313 4.1167 15.7876Z" fill="#E6E5FF"/>
</svg>
