<svg width="24" height="24" viewBox="0 0 24 24" fill="none" xmlns="http://www.w3.org/2000/svg">
<path d="M20 22L4 22C2.9 22 2 20.9875 2 19.75L2 6.25C2 5.0125 2.9 4 4 4L20 4C21.1 4 22 5.0125 22 6.25L22 19.75C22 20.9875 21.1 22 20 22Z" fill="#E6E5FF"/>
<path d="M14.6415 12.3251L10.9364 16.0301L9.34216 14.4358C9.05025 14.1439 8.55625 14.1439 8.24188 14.4358C7.94997 14.7277 7.94997 15.2217 8.24188 15.5361L10.3751 17.6693C10.5323 17.8265 10.7119 17.8939 10.914 17.8939C11.1161 17.8939 11.3182 17.8265 11.4529 17.6693L15.7193 13.4029C16.0112 13.111 16.0112 12.617 15.7193 12.3026C15.4274 12.0107 14.9334 12.0107 14.6415 12.3251Z" fill="#8E8CEE"/>
<path d="M2 5C2 3.89543 2.89543 3 4 3H20C21.1046 3 22 3.89543 22 5V8H2V5Z" fill="#8E8CEE"/>
<rect x="6" y="1" width="2" height="4" rx="1" fill="#E6E5FF"/>
<rect x="11" y="1" width="2" height="4" rx="1" fill="#E6E5FF"/>
<rect x="16" y="1" width="2" height="4" rx="1" fill="#E6E5FF"/>
</svg>
