<svg width="24" height="24" viewBox="0 0 24 24" fill="none" xmlns="http://www.w3.org/2000/svg">
<path fill-rule="evenodd" clip-rule="evenodd" d="M5.08346 20.9922C5.08346 19.6253 6.10871 15.9686 10.2097 12.2777C12.6988 10.0375 13.5512 8.31344 13.684 7.15146C13.722 4.75923 14.5 2 18.4116 1V2.02524V3.05049C19 3.05049 21.4874 3.76816 21.4874 6.63884C21.6582 6.63884 22 6.74136 22 7.15146C22 7.56156 21.6582 7.66408 21.4874 7.66408C21.4874 8.1767 20.2254 9.71457 18.4116 9.71457C18.3841 9.71457 18.3553 9.71427 18.3256 9.71397C17.8036 9.70858 16.9983 9.70028 17.3864 11.2524C17.4911 11.6712 17.6214 12.071 17.7537 12.4771C18.2693 14.0594 18.8158 15.7366 18 19C17.8291 19.6835 17.6798 20.9922 18.5 20.9922C19.5252 20.9922 19.9495 21.5049 19.9495 23.0427H16C16 21.5049 15.1561 20.4796 14.3359 20.4796C14.8485 19.1126 15.3611 16.3787 13.3107 15.866C11.7219 15.4688 10.4207 16.3226 9.93116 16.9578C9.76258 17.1765 9.94127 17.3584 10.1904 17.2393C10.2585 17.2066 10.3314 17.1707 10.4082 17.1327C11.2479 16.7178 12.5664 16.0664 13.5 17C14.3202 17.8202 13.6835 19.9748 13 21C13.6835 20.8291 15 21.4023 15 23.0427H6.10871H6.08346C6.07608 23.0427 6.06871 23.0427 6.06136 23.0425C5.05613 23.0323 4.18572 22.6967 3.5456 22.0175C2.37124 20.7713 2.00773 19.7213 1.75427 18.2076C1.54787 16.975 1.89005 15.9115 2.44892 15.0358C2.99793 14.1756 3.76527 13.4798 4.45489 12.9356C4.8024 12.6614 5.14181 12.4168 5.43219 12.2078C5.73221 11.9918 5.96269 11.8257 6.12926 11.6869C7.48237 10.5596 7.85522 9.16634 7.66188 8.1994C7.5653 7.71639 7.33441 7.35241 7.03207 7.13063C6.73775 6.91473 6.31212 6.78633 5.72325 6.88446C5.21604 6.96898 4.91577 7.15085 4.72819 7.33564C4.53545 7.52552 4.41645 7.76361 4.34739 8.02296C4.27754 8.28527 4.26467 8.54886 4.27204 8.75416C4.27566 8.85479 4.28393 8.93619 4.29079 8.98964C4.29419 9.01622 4.2972 9.03548 4.29899 9.04629L4.30062 9.05576C4.38106 9.4708 4.11112 9.87334 3.696 9.95607C3.27952 10.0391 2.87462 9.76873 2.79162 9.35225L2.79131 9.35069L2.79095 9.34889L2.79011 9.34453L2.78793 9.33284C2.78626 9.32376 2.7842 9.31209 2.78186 9.29799C2.77719 9.26982 2.77138 9.23181 2.7654 9.18519C2.75349 9.09224 2.74071 8.96355 2.73517 8.80937C2.72424 8.50506 2.74068 8.08022 2.8613 7.62724C2.98271 7.1713 3.21534 6.66725 3.64892 6.24011C4.08767 5.80787 4.68842 5.49783 5.47047 5.36751C6.41918 5.20942 7.27494 5.40153 7.94167 5.89061C8.60038 6.3738 9.01021 7.09925 9.1699 7.89787C9.48909 9.49421 8.83665 11.433 7.11362 12.8685C6.90272 13.0442 6.6317 13.2392 6.35824 13.4361L6.33066 13.4559C6.03829 13.6664 5.72488 13.8924 5.40757 14.1428C4.76756 14.6479 4.15729 15.2176 3.74526 15.8632C3.34309 16.4933 3.14079 17.1759 3.27102 17.9536C3.57377 19.7617 4.43225 20.4614 5.05891 20.9722L5.08346 20.9922Z" fill="url(#paint0_linear_5233_11244)"/>
<defs>
<linearGradient id="paint0_linear_5233_11244" x1="18" y1="30" x2="33.0135" y2="14.6203" gradientUnits="userSpaceOnUse">
<stop offset="0.484275" stop-color="#A3A2F6"/>
<stop offset="0.484375" stop-color="#8F8DEF"/>
<stop offset="1" stop-color="#8F8DEF"/>
</linearGradient>
</defs>
</svg>
