<svg width="24" height="24" viewBox="0 0 24 24" fill="none" xmlns="http://www.w3.org/2000/svg">
<path fill-rule="evenodd" clip-rule="evenodd" d="M21.6485 5.20351C22.1171 5.66521 22.1171 6.41377 21.6485 6.87546L9.54866 18.7965C9.08004 19.2582 8.32025 19.2582 7.85163 18.7965L2.35171 13.3778C1.88309 12.9161 1.88309 12.1676 2.35171 11.7059C2.82033 11.2442 3.58012 11.2442 4.04874 11.7059L8.70015 16.2885L19.9515 5.20351C20.4201 4.74181 21.1799 4.74181 21.6485 5.20351Z" fill="#B1B0F5"/>
<path fill-rule="evenodd" clip-rule="evenodd" d="M18.6233 9.85568L15.5983 12.8359L9.54842 18.7964C9.0798 19.2581 8.32001 19.2581 7.85139 18.7964L2.35147 13.3778C1.88284 12.9161 1.88284 12.1675 2.35147 11.7058C2.82009 11.2441 3.57988 11.2441 4.0485 11.7058L8.6999 16.2885L11.5127 13.5173L18.6233 9.85568Z" fill="#8E8CEE"/>
</svg>
