<svg width="24" height="24" viewBox="0 0 24 24" fill="none" xmlns="http://www.w3.org/2000/svg">
<path d="M5 4.19867C5 3.53666 5.54841 3 6.2249 3C10.7416 3 15.2584 3.00003 19.7751 3.00001C20.4516 3 21 3.53667 21 4.19868V22.8013C21 23.4633 20.4516 24 19.7751 24C15.2584 24 10.7416 24 6.2249 24C5.54841 24 5 23.4633 5 22.8013V4.19867Z" fill="#8E8CEE"/>
<path d="M3 2.19867C3 1.53666 3.54841 1 4.2249 1C8.74163 1 13.2584 1.00003 17.7751 1.00001C18.4516 1 19 1.53667 19 2.19868V20.8013C19 21.4633 18.4516 22 17.7751 22C13.2584 22 8.74163 22 4.2249 22C3.54841 22 3 21.4633 3 20.8013V2.19867Z" fill="#E6E5FF"/>
<path d="M5 3.5C5 3.22386 5.22386 3 5.5 3H14.5C14.7761 3 15 3.22386 15 3.5V3.5C15 3.77614 14.7761 4 14.5 4H5.5C5.22386 4 5 3.77614 5 3.5V3.5Z" fill="#B1B0F5"/>
<path d="M7 19.5C7 19.2239 7.22386 19 7.5 19H16.5C16.7761 19 17 19.2239 17 19.5V19.5C17 19.7761 16.7761 20 16.5 20H7.5C7.22386 20 7 19.7761 7 19.5V19.5Z" fill="#B1B0F5"/>
<path d="M5 5.5C5 5.22386 5.22386 5 5.5 5H10.5C10.7761 5 11 5.22386 11 5.5V5.5C11 5.77614 10.7761 6 10.5 6H5.5C5.22386 6 5 5.77614 5 5.5V5.5Z" fill="#B1B0F5"/>
<path d="M13.6415 9.32508L9.93645 13.0301L8.34216 11.4358C8.05025 11.1439 7.55625 11.1439 7.24188 11.4358C6.94997 11.7277 6.94997 12.2217 7.24188 12.5361L9.37508 14.6693C9.53226 14.8265 9.7119 14.8939 9.91399 14.8939C10.1161 14.8939 10.3182 14.8265 10.4529 14.6693L14.7193 10.4029C15.0112 10.111 15.0112 9.617 14.7193 9.30263C14.4274 9.01072 13.9334 9.01072 13.6415 9.32508Z" fill="#8E8CEE"/>
</svg>
