<svg width="24" height="24" viewBox="0 0 24 24" fill="none" xmlns="http://www.w3.org/2000/svg">
<path fill-rule="evenodd" clip-rule="evenodd" d="M11.398 6.65099V8.81395C11.398 9.15526 11.6729 9.43194 12.012 9.43194C12.351 9.43194 12.6259 9.15526 12.6259 8.81395V6.65099H13.8538C14.1929 6.65099 14.4678 6.3743 14.4678 6.033C14.4678 5.69169 14.1929 5.41501 13.8538 5.41501H10.1701C9.83103 5.41501 9.55615 5.69169 9.55615 6.033C9.55615 6.3743 9.83103 6.65099 10.1701 6.65099H11.398Z" fill="#B1B0F5"/>
<path fill-rule="evenodd" clip-rule="evenodd" d="M12.0118 8.11447C6.8621 8.11447 3.76465 11.1147 3.76465 15.3803C3.76465 15.6775 4.01081 15.9185 4.31446 15.9185H19.7091C20.0128 15.9185 20.2589 15.6775 20.2589 15.3803C20.2589 11.1147 17.1615 8.11447 12.0118 8.11447Z" fill="#A8A6FD"/>
<path fill-rule="evenodd" clip-rule="evenodd" d="M12.0117 8.11447C10.2741 8.11447 8.77018 8.45604 7.54004 9.07253C7.54004 9.07253 17.2127 15.9185 19.709 15.9185C20.0127 15.9185 20.2588 15.6775 20.2588 15.3803C20.2588 11.1147 17.1614 8.11447 12.0117 8.11447Z" fill="#DCDBFF"/>
<path fill-rule="evenodd" clip-rule="evenodd" d="M2.66504 19.4666C2.66504 19.7639 2.9112 20.0048 3.21485 20.0048H20.8087C21.1124 20.0048 21.3586 19.7639 21.3586 19.4666C21.3586 17.2181 20.5108 16.9949 18.3346 16.9949H5.68899C3.51277 16.9949 2.66504 17.2181 2.66504 19.4666Z" fill="#8E8CEE"/>
<path fill-rule="evenodd" clip-rule="evenodd" d="M21.7178 4.96533C21.916 5.17459 21.907 5.50489 21.6977 5.70307L19.6911 7.6034C19.4818 7.80158 19.1515 7.79259 18.9533 7.58333C18.7552 7.37406 18.7641 7.04376 18.9734 6.84558L20.9801 4.94525C21.1894 4.74707 21.5196 4.75606 21.7178 4.96533Z" fill="#8E8CEE"/>
<path fill-rule="evenodd" clip-rule="evenodd" d="M18.831 2.19122C19.095 2.30679 19.2154 2.61452 19.0998 2.87855L17.9055 5.60695C17.7899 5.87098 17.4822 5.99133 17.2182 5.87575C16.9542 5.76018 16.8338 5.45246 16.9494 5.18843L18.1437 2.46002C18.2593 2.19599 18.567 2.07565 18.831 2.19122Z" fill="#8E8CEE"/>
<path fill-rule="evenodd" clip-rule="evenodd" d="M2.46479 4.96533C2.26661 5.17459 2.2756 5.50489 2.48487 5.70307L4.49154 7.6034C4.70081 7.80158 5.03111 7.79259 5.22929 7.58333C5.42746 7.37406 5.41847 7.04376 5.20921 6.84558L3.20253 4.94525C2.99327 4.74707 2.66297 4.75606 2.46479 4.96533Z" fill="#8E8CEE"/>
<path fill-rule="evenodd" clip-rule="evenodd" d="M5.3516 2.19122C5.08757 2.30679 4.96722 2.61452 5.0828 2.87855L6.2771 5.60695C6.39267 5.87098 6.7004 5.99133 6.96443 5.87575C7.22845 5.76018 7.3488 5.45246 7.23323 5.18843L6.03892 2.46002C5.92335 2.19599 5.61563 2.07565 5.3516 2.19122Z" fill="#8E8CEE"/>
</svg>
