<svg width="71" height="75" viewBox="0 0 71 75" fill="none" xmlns="http://www.w3.org/2000/svg">
<ellipse cx="46.2655" cy="29.0587" rx="0.734693" ry="0.734694" fill="#B1B0F5"/>
<rect x="35.3921" y="22.0849" width="1.57835" height="1.57835" rx="0.789176" transform="rotate(-22.7167 35.3921 22.0849)" fill="#B1B0F5"/>
<path fill-rule="evenodd" clip-rule="evenodd" d="M44.5562 29.7762C44.6447 29.9884 44.5444 30.2322 44.3322 30.3207C43.0178 30.8689 41.8414 32.1004 40.9176 33.6682C39.9977 35.2293 39.3554 37.0794 39.0847 38.7946C39.0489 39.0217 38.8357 39.1768 38.6086 39.141C38.3815 39.1051 38.2264 38.892 38.2622 38.6648C38.5486 36.8502 39.2252 34.9002 40.2002 33.2455C41.1714 31.5973 42.4657 30.197 44.0117 29.5522C44.2239 29.4637 44.4677 29.564 44.5562 29.7762Z" fill="#E6E5FF"/>
<path d="M26.7655 23.0034C26.8866 22.8873 27.0882 22.963 27.103 23.1301L27.1517 23.677C27.1577 23.7441 27.197 23.8037 27.2563 23.8355L27.7401 24.0953C27.8878 24.1747 27.8782 24.3897 27.7239 24.4555L27.2187 24.6708C27.1568 24.6972 27.1123 24.753 27.1003 24.8192L27.0027 25.3596C26.9729 25.5247 26.7654 25.5819 26.6552 25.4555L26.2943 25.0416C26.2501 24.9909 26.1832 24.9658 26.1165 24.9749L25.5724 25.0491C25.4063 25.0717 25.2877 24.892 25.3738 24.7481L25.656 24.277C25.6906 24.2193 25.6938 24.148 25.6645 24.0873L25.4258 23.5928C25.3529 23.4418 25.4872 23.2734 25.6506 23.3109L26.1859 23.4337C26.2515 23.4487 26.3203 23.4298 26.3689 23.3832L26.7655 23.0034Z" fill="#8E8CEE"/>
<path d="M42.319 22.0443C42.3705 21.8847 42.5838 21.8555 42.6763 21.9955L42.9789 22.4537C43.016 22.5098 43.0789 22.5436 43.1462 22.5434L43.6954 22.5422C43.8631 22.5418 43.9567 22.7357 43.8522 22.8669L43.51 23.2963C43.468 23.3489 43.4554 23.4192 43.4763 23.4832L43.6471 24.005C43.6993 24.1644 43.5439 24.3134 43.3869 24.2545L42.8727 24.0617C42.8096 24.0381 42.7389 24.0478 42.6846 24.0875L42.241 24.4112C42.1055 24.5101 41.9158 24.4083 41.9233 24.2407L41.9478 23.6922C41.9508 23.6249 41.9197 23.5607 41.8652 23.5212L41.4202 23.1994C41.2843 23.1011 41.3225 22.8893 41.4842 22.8446L42.0134 22.6983C42.0783 22.6804 42.1298 22.631 42.1505 22.5669L42.319 22.0443Z" fill="#8E8CEE"/>
<ellipse cx="45.3348" cy="36.2181" rx="0.734693" ry="0.734694" transform="rotate(-12.6516 45.3348 36.2181)" fill="#8E8CEE"/>
<ellipse cx="23.7347" cy="31.9974" rx="0.734694" ry="0.734694" fill="#B1B0F5"/>
<path fill-rule="evenodd" clip-rule="evenodd" d="M24.8628 32.4036C24.9294 32.212 25.1388 32.1107 25.3304 32.1774C26.476 32.576 27.6613 33.4733 28.661 34.4001C29.6676 35.3332 30.5206 36.3289 31.0022 36.9662C31.1245 37.1281 31.0924 37.3585 30.9305 37.4808C30.7686 37.6031 30.5383 37.571 30.416 37.4091C29.958 36.8029 29.1335 35.84 28.1615 34.9389C27.1825 34.0314 26.0879 33.2188 25.089 32.8713C24.8974 32.8046 24.7961 32.5953 24.8628 32.4036Z" fill="#E6E5FF"/>
<g filter="url(#filter0_d_1402_4929)">
<path d="M29.2583 28.3874C29.2583 27.8464 29.6969 27.4078 30.2379 27.4078C33.8501 27.4078 37.4622 27.4079 41.0744 27.4078C41.6154 27.4078 42.054 27.8464 42.054 28.3874V43.5901C42.054 44.1311 41.6154 44.5697 41.0744 44.5697C37.4622 44.5697 33.8501 44.5697 30.2379 44.5697C29.6969 44.5697 29.2583 44.1311 29.2583 43.5901V28.3874Z" fill="#8E8CEE"/>
<path d="M28.2793 27.4078C28.2793 26.8668 28.7179 26.4283 29.2589 26.4283C32.8711 26.4283 36.4832 26.4283 40.0954 26.4283C40.6364 26.4283 41.075 26.8668 41.075 27.4079V42.6105C41.075 43.1515 40.6364 43.5901 40.0954 43.5901C36.4832 43.5901 32.8711 43.5901 29.2589 43.5901C28.7179 43.5901 28.2793 43.1515 28.2793 42.6105V27.4078Z" fill="white"/>
<rect x="29.9956" y="31.6623" width="9.36269" height="0.819729" rx="0.409865" fill="#E6E5FF"/>
<rect x="29.9956" y="33.9514" width="9.36269" height="0.81973" rx="0.409865" fill="#E6E5FF"/>
<rect x="29.9956" y="36.2405" width="9.36269" height="0.81973" rx="0.409865" fill="#E6E5FF"/>
<rect x="29.9956" y="38.5296" width="9.36269" height="0.81973" rx="0.409865" fill="#E6E5FF"/>
<rect x="29.9956" y="28.3936" width="5.05959" height="0.81973" rx="0.409865" fill="#8E8CEE"/>
</g>
<defs>
<filter id="filter0_d_1402_4929" x="0.279297" y="0.428253" width="69.7749" height="74.1414" filterUnits="userSpaceOnUse" color-interpolation-filters="sRGB">
<feFlood flood-opacity="0" result="BackgroundImageFix"/>
<feColorMatrix in="SourceAlpha" type="matrix" values="0 0 0 0 0 0 0 0 0 0 0 0 0 0 0 0 0 0 127 0" result="hardAlpha"/>
<feOffset dy="2"/>
<feGaussianBlur stdDeviation="14"/>
<feColorMatrix type="matrix" values="0 0 0 0 0.380392 0 0 0 0 0.376471 0 0 0 0 0.635294 0 0 0 0.1 0"/>
<feBlend mode="normal" in2="BackgroundImageFix" result="effect1_dropShadow_1402_4929"/>
<feBlend mode="normal" in="SourceGraphic" in2="effect1_dropShadow_1402_4929" result="shape"/>
</filter>
</defs>
</svg>
