<svg width="24" height="24" viewBox="0 0 24 24" fill="none" xmlns="http://www.w3.org/2000/svg">
<path d="M23.4647 4.04302L21.9299 10.9402L23.6876 10.335L22.4096 12.5485L23.7689 16.2759L20.8664 15.3813L19.7184 22.6269L17.187 18.8216L13.9999 24L11.9728 19.8038L8.05908 22L8.30859 16.5603L2.76282 18.4801L6.6515 13.2957L2.65822 10.9402L8.34959 7.66138L8.05903 4.89454L13.5449 6.70225L15.5621 1.47697L16.9744 5.33061L21.3151 0.458154L20.7232 6.01927L23.4647 4.04302Z" fill="#E6E5FF"/>
<path fill-rule="evenodd" clip-rule="evenodd" d="M9.99999 22C4.47714 22 -1.1765e-05 17.5228 -1.15236e-05 12C-1.12822e-05 6.47714 4.47714 1.99998 9.99999 1.99998C15.5228 1.99998 20 6.47714 20 12C20 17.5228 15.5228 22 9.99999 22Z" fill="url(#paint0_linear_15895_79045)"/>
<path d="M9.07169 4.71233C5.04684 5.22498 2.19963 8.90336 2.71229 12.9282C3.22494 16.9531 6.90332 19.8003 10.9282 19.2876C14.953 18.775 17.8002 15.0966 17.2876 11.0717C16.7749 7.04688 13.0965 4.19967 9.07169 4.71233Z" fill="url(#paint1_linear_15895_79045)"/>
<path d="M9.70079 14.6395L7.91699 17.4936C9.67132 18.3708 11.4256 17.9322 12.3028 17.4936L10.519 14.6395C10.3301 14.3372 9.88975 14.3372 9.70079 14.6395Z" fill="#8E8CEE"/>
<path d="M10.4506 9.3605L12.2344 6.50642C10.48 5.62926 8.72572 6.06784 7.84856 6.50642L9.63236 9.3605C9.82132 9.66283 10.2616 9.66283 10.4506 9.3605Z" fill="#8E8CEE"/>
<path d="M7.59749 12.9789L4.23388 12.8611C4.3514 14.819 5.60838 16.119 6.42679 16.6594L8.00659 13.6875C8.17394 13.3727 7.95379 12.9914 7.59749 12.9789Z" fill="#8E8CEE"/>
<path d="M12.6217 11.3938L15.9428 11.4231C15.7741 9.469 14.8035 8.05266 13.9713 7.53391L12.2054 10.675C12.0256 10.995 12.2547 11.3906 12.6217 11.3938Z" fill="#8E8CEE"/>
<path d="M12.653 12.9789L16.0166 12.8611C15.8991 14.819 14.6421 16.119 13.8237 16.6594L12.2439 13.6875C12.0765 13.3727 12.2967 12.9914 12.653 12.9789Z" fill="#8E8CEE"/>
<path d="M7.34899 11.4166L4.04568 11.3593C4.2655 9.41024 5.18612 8.03072 6.03168 7.53394L7.77974 10.7011C7.959 11.0259 7.7199 11.4231 7.34899 11.4166Z" fill="#8E8CEE"/>
<path d="M10 13.5C10.8284 13.5 11.5 12.8284 11.5 12C11.5 11.1716 10.8284 10.5 10 10.5C9.17157 10.5 8.5 11.1716 8.5 12C8.5 12.8284 9.17157 13.5 10 13.5Z" fill="#8E8CEE"/>
<defs>
<linearGradient id="paint0_linear_15895_79045" x1="10.4545" y1="11.5454" x2="1.17974" y2="0.780644" gradientUnits="userSpaceOnUse">
<stop stop-color="#8D8DE7"/>
<stop offset="0.0001" stop-color="#A2A0FA"/>
</linearGradient>
<linearGradient id="paint1_linear_15895_79045" x1="9.61025" y1="12.3896" x2="1.03847" y2="2.6002" gradientUnits="userSpaceOnUse">
<stop stop-color="#E3E2FF"/>
<stop offset="0.0001" stop-color="#D2D1FF"/>
</linearGradient>
</defs>
</svg>
