<svg width="24" height="24" viewBox="0 0 24 24" fill="none" xmlns="http://www.w3.org/2000/svg">
<path d="M0 16.5H24V17.8333C24 19.3061 23.1046 20.5 22 20.5H2C0.89543 20.5 0 19.3061 0 17.8333V16.5Z" fill="#B1B0F5"/>
<path d="M9 16.5H15V17.5C15 18.0523 14.5523 18.5 14 18.5H10C9.44772 18.5 9 18.0523 9 17.5V16.5Z" fill="#8E8CEE"/>
<path d="M2 6.40385C2 5.07624 3.11929 4 4.5 4H19.5C20.8807 4 22 5.07624 22 6.40385V16.5H2V6.40385Z" fill="url(#paint0_linear_13761_63710)"/>
<path d="M3.5 6.875C3.5 6.11561 4.13426 5.5 4.91667 5.5H19.0833C19.8657 5.5 20.5 6.11561 20.5 6.875V16.5H3.5V6.875Z" fill="url(#paint1_linear_13761_63710)"/>
<path fill-rule="evenodd" clip-rule="evenodd" d="M14.8243 9.52426C15.0586 9.28995 15.0586 8.91005 14.8243 8.67574C14.5899 8.44142 14.2101 8.44142 13.9757 8.67574L12 10.6515L10.0243 8.67574C9.78995 8.44142 9.41005 8.44142 9.17574 8.67574C8.94142 8.91005 8.94142 9.28995 9.17574 9.52426L11.1515 11.5L9.17574 13.4757C8.94142 13.7101 8.94142 14.0899 9.17574 14.3243C9.41005 14.5586 9.78995 14.5586 10.0243 14.3243L12 12.3485L13.9757 14.3243C14.2101 14.5586 14.5899 14.5586 14.8243 14.3243C15.0586 14.0899 15.0586 13.7101 14.8243 13.4757L12.8485 11.5L14.8243 9.52426Z" fill="#8E8CEE"/>
<defs>
<linearGradient id="paint0_linear_13761_63710" x1="13.5169" y1="2.2629" x2="2.00835" y2="16.6932" gradientUnits="userSpaceOnUse">
<stop stop-color="#8F8DEF"/>
<stop offset="0.484375" stop-color="#8F8DEF"/>
<stop offset="0.484475" stop-color="#A3A2F6"/>
</linearGradient>
<linearGradient id="paint1_linear_13761_63710" x1="14.8333" y1="7.79167" x2="10.6989" y2="14.357" gradientUnits="userSpaceOnUse">
<stop stop-color="#D6D6FF"/>
<stop offset="0.578125" stop-color="#D5D5FF"/>
<stop offset="0.578225" stop-color="#E6E5FF"/>
</linearGradient>
</defs>
</svg>
