<svg width="24" height="24" viewBox="0 0 24 24" fill="none" xmlns="http://www.w3.org/2000/svg">
<path d="M11.9339 16.8131C13.5172 16.8526 13.7876 23.1345 15.68 23.1343C16.8779 23.1339 17.6496 21.5538 17.804 17.4849C17.9586 13.4157 20.5462 12.5068 19.6967 7.76632C18.8469 3.02567 13.3629 5.81543 11.9338 5.81543C10.5046 5.81543 5.02035 3.02571 4.17088 7.76632C3.32118 12.5068 5.90857 13.4157 6.06345 17.4849C6.21778 21.5538 6.98984 23.1339 8.18751 23.1343C10.0798 23.1345 10.3504 16.8527 11.9339 16.8131Z" fill="url(#paint0_linear_16155_79660)"/>
<path d="M3.5 16L3.99851 18.0015L6 18.5L3.99851 18.9985L3.5 21L3.00149 18.9985L1 18.5L3.00149 18.0015L3.5 16Z" fill="#8E8CEE"/>
<path d="M20.6983 0.233612L21.3173 2.71907L23.8028 3.33812L21.3173 3.95717L20.6983 6.44263L20.0792 3.95717L17.5938 3.33812L20.0792 2.71907L20.6983 0.233612Z" fill="#8E8CEE"/>
<path d="M1.5 13L1.79911 14.2009L3 14.5L1.79911 14.7991L1.5 16L1.20089 14.7991L0 14.5L1.20089 14.2009L1.5 13Z" fill="#8E8CEE"/>
<path d="M22.8668 6.44263L23.0928 7.35002L24.0002 7.57602L23.0928 7.80202L22.8668 8.70941L22.6408 7.80202L21.7334 7.57602L22.6408 7.35002L22.8668 6.44263Z" fill="#8E8CEE"/>
<defs>
<linearGradient id="paint0_linear_16155_79660" x1="11.9337" y1="12.027" x2="23.7827" y2="-1.2285" gradientUnits="userSpaceOnUse">
<stop offset="0.0001" stop-color="#D3D2FF"/>
<stop offset="0.0002" stop-color="#BCBBFF"/>
</linearGradient>
</defs>
</svg>
