<svg width="24" height="24" viewBox="0 0 24 24" fill="none" xmlns="http://www.w3.org/2000/svg">
<path d="M10.8223 13.6128V14.2361H10.5489L10.5866 13.6128H8.23022V21.4335C8.23022 21.4335 8.87352 22.4313 10.0517 21.4833L10.4782 15.44C10.5041 15.3475 10.466 15.2148 10.662 15.2148C10.858 15.2148 10.8246 15.53 10.8246 15.53V21.4335C12.0028 22.3815 12.6485 21.4833 12.6485 21.4833L13.181 13.6128H10.8246H10.8223Z" fill="#B1B1F0"/>
<path d="M14.6018 7.39169C14.4463 7.36562 14.2931 7.31585 14.1541 7.25897C13.9632 7.18314 13.7818 7.08597 13.6051 6.97932C13.4189 6.86557 13.254 6.73048 13.0749 6.60724C13.049 6.58828 13.023 6.57169 12.9948 6.55511C12.7191 6.39158 12.4198 6.42002 12.1135 6.42002H11.4089C10.94 6.42002 10.4475 6.39632 9.97152 6.39158C9.57093 6.38684 8.89465 6.28967 8.56711 6.56932C8.38567 6.72337 8.33618 6.96747 8.22072 7.16418C8.08641 7.39406 7.86726 7.57654 7.66932 7.74481C7.58921 7.81117 7.04254 8.21384 6.86108 8.31359C6.86108 8.31359 7.4926 8.74729 7.61042 9.65023C7.61042 9.65023 7.96152 9.57202 8.67315 9.16439L8.23015 13.6151C8.23015 13.6151 10.6007 15.0181 13.1786 13.6151L12.745 8.70937C13.2563 8.83497 13.7653 8.89185 14.1188 8.91555L14.6042 7.39169H14.6018Z" fill="#8D8DE7"/>
<path fill-rule="evenodd" clip-rule="evenodd" d="M3.96248 22.0307C4.75423 22.6682 5.23022 22.0307 5.23022 22.0307V16.4567H3.64673L3.96248 22.0307ZM5.23047 22.0307C6.02221 22.6682 6.49821 22.0307 6.49821 22.0307L6.81396 16.4567H5.23047V22.0307Z" fill="#B1B1F0"/>
<path d="M5.34843 17.5729H5.11279V22.09H5.34843V17.5729Z" fill="#8D8DE7"/>
<path d="M5.29624 11.9017C6.33736 11.9017 7.18135 11.0528 7.18135 10.0057C7.18135 8.95861 6.33736 8.10977 5.29624 8.10977C4.25513 8.10977 3.41113 8.95861 3.41113 10.0057C3.41113 11.0528 4.25513 11.9017 5.29624 11.9017Z" fill="#8D8DE7"/>
<path d="M8.23031 13.6127C8.17847 13.5748 8.12663 13.5322 8.0795 13.4895C7.80616 13.2501 7.57994 12.9586 7.32545 12.698C7.24062 12.6103 7.15815 12.5107 7.06154 12.4349C7.05211 12.4278 7.04269 12.4207 7.03326 12.4136C6.80469 12.2477 6.53842 12.2666 6.2745 12.2666H5.4804C5.10338 12.2666 4.724 12.2548 4.34698 12.2737C4.05243 12.2903 3.77673 12.4065 3.58115 12.634C3.36908 12.8804 3.23241 13.2193 3.2112 13.544C3.18292 13.9635 3.1735 15.9139 3.17114 16.6984C3.17114 16.9354 3.27482 17.1605 3.45627 17.3122L3.70604 17.5231L3.68248 16.5112C3.91812 16.6344 5.43563 17.3549 6.8094 16.4922L6.84239 13.8711L6.85418 13.8308L7.47155 14.4944C7.61058 14.6697 7.79202 14.8048 7.99938 14.8878L8.25858 14.992L8.23266 13.6127H8.23031Z" fill="#8D8DE7"/>
<path d="M7.06598 9.34689C6.70545 8.36337 5.62151 7.86095 4.64597 8.22355C3.81181 8.53164 3.32875 9.37059 3.42771 10.219L2.1482 10.7333C2.02802 10.7831 1.96911 10.9205 2.01624 11.0414C2.05394 11.1338 2.14113 11.1907 2.23538 11.1907C2.26366 11.1907 2.29429 11.186 2.32257 11.1741L4.51872 10.2901L7.06833 9.34452L7.06598 9.34689Z" fill="#B1B1F0"/>
<path d="M3.95084 21.9549L3.89429 22.519C3.89429 22.519 4.53522 22.9858 4.86983 23.0167C5.12668 23.0427 5.39531 22.9858 5.64508 22.9195C5.68514 22.91 5.71577 22.9005 5.74169 22.8673C5.7629 22.8413 5.77468 22.8081 5.78175 22.7749C5.79589 22.7133 5.79825 22.6375 5.76762 22.5806C5.71577 22.4787 5.61209 22.3934 5.52726 22.3199C5.43536 22.2393 5.33404 22.1658 5.23743 22.09C5.23036 22.0853 5.18794 22.0426 5.17852 22.045C5.17852 22.045 4.58471 22.1919 4.37499 22.1421C4.16527 22.0924 3.9532 21.9549 3.9532 21.9549H3.95084Z" fill="#8D8DE7"/>
<path d="M5.28716 21.8862L5.21411 22.3294C5.21411 22.3294 5.85505 22.7962 6.18966 22.8271C6.4465 22.8531 6.71513 22.7962 6.96491 22.7299C7.00497 22.7204 7.0356 22.7109 7.06152 22.6777C7.08273 22.6517 7.09451 22.6185 7.10158 22.5853C7.11572 22.5237 7.11807 22.4479 7.08744 22.391C7.0356 22.2891 6.93192 22.2038 6.84709 22.1303C6.75519 22.0497 6.65386 21.9762 6.55725 21.9004C6.55018 21.8957 6.50777 21.853 6.49834 21.8554C6.49834 21.8554 5.90453 22.0023 5.69481 21.9525C5.4851 21.9028 5.28952 21.8838 5.28952 21.8838L5.28716 21.8862Z" fill="#8D8DE7"/>
<path d="M17.1845 21.9075C17.1845 21.9075 16.4776 22.8555 15.2994 21.9075L14.8281 13.6128H17.1845V21.9075Z" fill="#8D8DE7"/>
<path d="M19.0692 21.9075C19.0692 21.9075 18.3623 22.8555 17.1841 21.9075V13.6128H19.5405L19.0692 21.9075Z" fill="#8D8DE7"/>
<path d="M15.3206 6.41766C15.3206 6.41766 14.8941 6.41766 14.7291 6.87743L13.525 10.6338C13.2587 11.2594 13.7159 11.9538 14.3921 11.9538H20.0616C20.7379 11.9538 21.195 11.2594 20.9288 10.6338L19.826 6.93431C19.694 6.62148 19.3877 6.42003 19.0484 6.42003H15.3206V6.41766Z" fill="#B1B1F0"/>
<path d="M17.1845 6.02899C18.3557 6.02899 19.3052 5.07404 19.3052 3.89606C19.3052 2.71807 18.3557 1.76312 17.1845 1.76312C16.0132 1.76312 15.0637 2.71807 15.0637 3.89606C15.0637 5.07404 16.0132 6.02899 17.1845 6.02899Z" fill="#9C9CEE"/>
<path d="M18.4805 10.2948C19.0662 10.2948 19.5409 9.81736 19.5409 9.22836C19.5409 8.63937 19.0662 8.1619 18.4805 8.1619C17.8949 8.1619 17.4202 8.63937 17.4202 9.22836C17.4202 9.81736 17.8949 10.2948 18.4805 10.2948Z" fill="white"/>
<path d="M10.5866 6.02899C11.7578 6.02899 12.7073 5.07404 12.7073 3.89606C12.7073 2.71807 11.7578 1.76312 10.5866 1.76312C9.41531 1.76312 8.46582 2.71807 8.46582 3.89606C8.46582 5.07404 9.41531 6.02899 10.5866 6.02899Z" fill="#B1B1F0"/>
<path d="M19.3051 3.89606C19.3051 2.7182 18.3554 1.76312 17.1843 1.76312C16.3054 1.76312 15.5513 2.3011 15.2285 3.06895C15.7045 3.43629 17.1843 3.42207 18.1269 3.18508C18.28 3.14716 18.3554 3.25618 18.3719 3.39363C18.3931 3.55479 18.3507 3.71594 18.3931 3.87473C18.4261 4.00507 18.4945 4.13068 18.5699 4.23969C18.7089 4.44114 18.9045 4.63784 19.133 4.73501C19.2438 4.47669 19.3051 4.19467 19.3051 3.89606V3.89606Z" fill="#7C7DE3"/>
<path d="M8.41382 3.78467C8.41382 2.60681 9.36344 1.65173 10.5346 1.65173C11.4135 1.65173 12.1675 2.18971 12.4904 2.95756C12.0144 3.3249 10.5346 3.31068 9.59201 3.07369C9.42706 3.03103 9.35637 3.16375 9.34459 3.30831C9.33281 3.45051 9.35402 3.59744 9.3281 3.73727C9.30218 3.87709 9.22913 4.00744 9.15137 4.12357C9.01234 4.32738 8.8144 4.52408 8.58583 4.62362C8.47508 4.3653 8.41382 4.08328 8.41382 3.78467V3.78467Z" fill="#7C7DE3"/>
<path d="M16.4775 9.10989H18.3626V10.2949H15.2993C15.2993 9.64076 15.8271 9.10989 16.4775 9.10989Z" fill="white"/>
<path d="M19.5409 13.8498C19.5409 13.8498 17.1845 14.7977 14.8281 13.8498V12.4278H19.5409V13.8498Z" fill="#B1B1F0"/>
<path d="M17.3023 15.2717H17.0667V22.1326H17.3023V15.2717Z" fill="#B1B1F0"/>
<path d="M17.1843 1.76312H15.7705L15.2285 3.06895L17.1843 1.76312Z" fill="#7C7DE3"/>
<path d="M8.63054 2.89594C9.1511 2.89594 9.5731 2.47152 9.5731 1.94797C9.5731 1.42442 9.1511 1 8.63054 1C8.10998 1 7.68799 1.42442 7.68799 1.94797C7.68799 2.47152 8.10998 2.89594 8.63054 2.89594Z" fill="#7C7DE3"/>
<path d="M20.7286 8.35625C21.1009 8.23775 21.3059 7.83724 21.1857 7.46279C21.0655 7.08834 20.6697 6.88216 20.2974 7.00302L20.7286 8.35625Z" fill="#8D8DE7"/>
<path d="M3.07683 9.1834C3.21586 8.72837 3.5269 8.33022 3.96047 8.08849C3.64707 7.87757 3.22057 7.95103 2.99671 8.2615C2.78935 8.55063 2.83176 8.94166 3.07683 9.1834Z" fill="#8D8DE7"/>
<path d="M19.0514 21.7504L19.1327 22.5644C19.1327 22.5644 18.2206 23.2374 17.7487 23.2859C17.3829 23.3229 17.0014 23.242 16.6492 23.1472C16.5927 23.1333 16.5476 23.1194 16.5114 23.0709C16.4821 23.0316 16.4663 22.983 16.455 22.9367C16.4369 22.8489 16.4324 22.7379 16.4753 22.6569C16.5498 22.5112 16.6943 22.3864 16.814 22.28C16.9449 22.162 17.0872 22.0557 17.2249 21.947C17.2339 21.94 17.2949 21.8776 17.3084 21.8822C17.3084 21.8822 18.1506 22.095 18.4508 22.0233C18.7511 21.9516 19.0514 21.7527 19.0514 21.7527V21.7504Z" fill="#B1B1F0"/>
<path d="M8.23253 21.3506L8.14771 22.1848C8.14771 22.1848 9.09969 22.8744 9.59217 22.9242C9.9739 22.9621 10.3721 22.8792 10.7397 22.782C10.7986 22.7678 10.8458 22.7536 10.8835 22.7038C10.9141 22.6635 10.9306 22.6137 10.9424 22.5663C10.9612 22.4763 10.9659 22.3625 10.9212 22.2796C10.8434 22.1303 10.6926 22.0023 10.5677 21.8933C10.431 21.7724 10.2826 21.6634 10.1389 21.552C10.1294 21.5449 10.0658 21.4809 10.0517 21.4856C10.0517 21.4856 9.17273 21.7037 8.85933 21.6302C8.54593 21.5567 8.23253 21.3529 8.23253 21.3529V21.3506Z" fill="#8D8DE7"/>
<path d="M10.827 21.3506L10.7422 22.1848C10.7422 22.1848 11.6942 22.8744 12.1867 22.9242C12.5684 22.9621 12.9666 22.8792 13.3342 22.782C13.3931 22.7678 13.4403 22.7536 13.478 22.7038C13.5086 22.6635 13.5251 22.6137 13.5369 22.5663C13.5557 22.4763 13.5604 22.3625 13.5157 22.2796C13.4379 22.1303 13.2871 22.0023 13.1622 21.8933C13.0255 21.7724 12.8771 21.6634 12.7333 21.552C12.7239 21.5449 12.6603 21.4809 12.6461 21.4856C12.6461 21.4856 11.7672 21.7037 11.4538 21.6302C11.1404 21.5567 10.827 21.3529 10.827 21.3529V21.3506Z" fill="#8D8DE7"/>
<path d="M17.1067 21.7882L17.2106 22.4031C17.2106 22.4031 16.2984 23.0468 15.8266 23.0932C15.4608 23.1286 15.0792 23.0512 14.727 22.9605C14.6706 22.9473 14.6254 22.934 14.5893 22.8875C14.56 22.8499 14.5442 22.8035 14.5329 22.7593C14.5148 22.6752 14.5103 22.569 14.5532 22.4916C14.6277 22.3523 14.7722 22.2328 14.8919 22.1311C15.0228 22.0183 15.165 21.9165 15.3028 21.8126C15.3118 21.8059 15.3728 21.7462 15.3863 21.7506C15.3863 21.7506 16.2284 21.9541 16.5287 21.8856C16.829 21.817 17.1044 21.7904 17.1044 21.7904L17.1067 21.7882Z" fill="#B1B1F0"/>
</svg>
