<svg width="24" height="24" viewBox="0 0 24 24" fill="none" xmlns="http://www.w3.org/2000/svg">
<g clip-path="url(#clip0_4022_9787)">
<path d="M4.18408 2.59189C4.18408 1.87617 4.76429 1.29596 5.48002 1.29596C10.2587 1.29596 15.0374 1.296 19.816 1.29597C20.5318 1.29596 21.112 1.87617 21.112 2.59191V22.7041C21.112 23.4198 20.5318 24 19.816 24C15.0374 24 10.2587 24 5.48002 24C4.76429 24 4.18408 23.4198 4.18408 22.7041V2.59189Z" fill="#8E8CEE"/>
<path d="M2.88818 1.29597C2.88818 0.580239 3.4684 3.03268e-05 4.18412 3.05176e-05C8.96279 3.17917e-05 13.7415 6.76609e-05 18.5201 3.65999e-05C19.2359 3.19477e-05 19.8161 0.580246 19.8161 1.29598V21.4081C19.8161 22.1239 19.2359 22.7041 18.5201 22.7041C13.7415 22.7041 8.9628 22.7041 4.18412 22.7041C3.4684 22.7041 2.88818 22.1239 2.88818 21.4081V1.29597Z" fill="white"/>
<rect x="5.15918" y="6.92432" width="12.3863" height="1.08445" rx="0.542226" fill="#E6E5FF"/>
<rect x="5.15918" y="9.95267" width="12.3863" height="1.08445" rx="0.542226" fill="#E6E5FF"/>
<rect x="5.15918" y="12.981" width="12.3863" height="1.08445" rx="0.542226" fill="#E6E5FF"/>
<rect x="5.15918" y="16.0094" width="12.3863" height="1.08445" rx="0.542226" fill="#E6E5FF"/>
<rect x="5.15918" y="2.60001" width="6.69353" height="1.08445" rx="0.542226" fill="#8E8CEE"/>
</g>
<defs>
<clipPath id="clip0_4022_9787">
<rect width="24" height="24" fill="white"/>
</clipPath>
</defs>
</svg>
