<svg width="24" height="24" viewBox="0 0 24 24" fill="none" xmlns="http://www.w3.org/2000/svg">
<path d="M14 2H6C5.46957 2 4.96086 2.21071 4.58579 2.58579C4.21071 2.96086 4 3.46957 4 4V20C4 20.5304 4.21071 21.0391 4.58579 21.4142C4.96086 21.7893 5.46957 22 6 22H18C18.5304 22 19.0391 21.7893 19.4142 21.4142C19.7893 21.0391 20 20.5304 20 20V8L14 2Z" fill="#E6E5FF"/>
<path d="M14 2V7C14 7.55228 14.4477 8 15 8H20" fill="#8E8CEE"/>
<path fill-rule="evenodd" clip-rule="evenodd" d="M7.5 12C7.5 11.7239 7.72386 11.5 8 11.5H16C16.2761 11.5 16.5 11.7239 16.5 12C16.5 12.2761 16.2761 12.5 16 12.5H8C7.72386 12.5 7.5 12.2761 7.5 12Z" fill="#8E8CEE"/>
<path fill-rule="evenodd" clip-rule="evenodd" d="M7.5 15C7.5 14.7239 7.72386 14.5 8 14.5H16C16.2761 14.5 16.5 14.7239 16.5 15C16.5 15.2761 16.2761 15.5 16 15.5H8C7.72386 15.5 7.5 15.2761 7.5 15Z" fill="#8E8CEE"/>
<path fill-rule="evenodd" clip-rule="evenodd" d="M7.5 18C7.5 17.7239 7.72386 17.5 8 17.5H16C16.2761 17.5 16.5 17.7239 16.5 18C16.5 18.2761 16.2761 18.5 16 18.5H8C7.72386 18.5 7.5 18.2761 7.5 18Z" fill="#8E8CEE"/>
<path fill-rule="evenodd" clip-rule="evenodd" d="M7.5 8C7.5 7.72386 7.72386 7.5 8 7.5H10C10.2761 7.5 10.5 7.72386 10.5 8C10.5 8.27614 10.2761 8.5 10 8.5H8C7.72386 8.5 7.5 8.27614 7.5 8Z" fill="#8E8CEE"/>
</svg>
