<svg width="24" height="24" viewBox="0 0 24 24" fill="none" xmlns="http://www.w3.org/2000/svg">
<path d="M5 4.19867C5 3.53666 5.54841 3 6.2249 3C10.7416 3 15.2584 3.00003 19.7751 3.00001C20.4516 3 21 3.53667 21 4.19868V22.8013C21 23.4633 20.4516 24 19.7751 24C15.2584 24 10.7416 24 6.2249 24C5.54841 24 5 23.4633 5 22.8013V4.19867Z" fill="#8E8CEE"/>
<path d="M3 2.19867C3 1.53666 3.54841 1 4.2249 1C8.74163 1 13.2584 1.00003 17.7751 1.00001C18.4516 1 19 1.53667 19 2.19868V20.8013C19 21.4633 18.4516 22 17.7751 22C13.2584 22 8.74163 22 4.2249 22C3.54841 22 3 21.4633 3 20.8013V2.19867Z" fill="#E6E5FF"/>
<path d="M5 3.5C5 3.22386 5.22386 3 5.5 3H14.5C14.7761 3 15 3.22386 15 3.5V3.5C15 3.77614 14.7761 4 14.5 4H5.5C5.22386 4 5 3.77614 5 3.5V3.5Z" fill="#B1B0F5"/>
<path d="M7 19.5C7 19.2239 7.22386 19 7.5 19H16.5C16.7761 19 17 19.2239 17 19.5V19.5C17 19.7761 16.7761 20 16.5 20H7.5C7.22386 20 7 19.7761 7 19.5V19.5Z" fill="#B1B0F5"/>
<path d="M5 5.5C5 5.22386 5.22386 5 5.5 5H10.5C10.7761 5 11 5.22386 11 5.5V5.5C11 5.77614 10.7761 6 10.5 6H5.5C5.22386 6 5 5.77614 5 5.5V5.5Z" fill="#B1B0F5"/>
<path fill-rule="evenodd" clip-rule="evenodd" d="M13.9556 10.0669C14.1997 9.82286 14.1997 9.42714 13.9556 9.18306C13.7115 8.93898 13.3158 8.93898 13.0717 9.18306L11.0137 11.2411L8.95561 9.18306C8.71154 8.93898 8.31581 8.93898 8.07173 9.18306C7.82765 9.42714 7.82765 9.82286 8.07173 10.0669L10.1298 12.125L8.07173 14.1831C7.82765 14.4271 7.82765 14.8229 8.07173 15.0669C8.31581 15.311 8.71154 15.311 8.95561 15.0669L11.0137 13.0089L13.0717 15.0669C13.3158 15.311 13.7115 15.311 13.9556 15.0669C14.1997 14.8229 14.1997 14.4271 13.9556 14.1831L11.8976 12.125L13.9556 10.0669Z" fill="#8E8CEE"/>
</svg>
