<svg width="24" height="24" viewBox="0 0 24 24" fill="none" xmlns="http://www.w3.org/2000/svg">
<path fill-rule="evenodd" clip-rule="evenodd" d="M19.4803 9.3577H6.51953V15.0886V15.1519H6.52115C6.59893 16.6717 9.46978 17.8933 12.9999 17.8933C16.53 17.8933 19.4009 16.6717 19.4787 15.1519H19.4803V15.0886V9.3577Z" fill="url(#paint0_linear_2455_7753)"/>
<path d="M21.6022 7.60687L13.1734 3.27422C12.9443 3.15651 12.6727 3.15622 12.4434 3.27344L3.96997 7.60609C3.38781 7.90376 3.38922 8.73619 3.97238 9.03189L12.4458 13.3284C12.6738 13.444 12.9432 13.4437 13.1709 13.3277L21.5998 9.03111C22.1809 8.73488 22.1823 7.90507 21.6022 7.60687Z" fill="url(#paint1_linear_2455_7753)"/>
<path d="M1.72461 19.9873L4.29559 17.5361C4.4837 17.8292 4.85991 18.6232 4.85991 19.4544C4.85991 20.2857 4.25372 20.8488 3.95062 21.0264L1.72461 19.9873Z" fill="#E6E5FF"/>
<path fill-rule="evenodd" clip-rule="evenodd" d="M13.0662 7.7783C13.1513 8.04103 13.0072 8.32294 12.7445 8.40797C12.658 8.43596 12.5511 8.4536 12.4591 8.46665C12.3573 8.48112 12.2338 8.49511 12.0956 8.50917C11.896 8.52947 11.653 8.55117 11.3821 8.57535C11.279 8.58455 11.1719 8.5941 11.0617 8.60408C10.2545 8.67713 9.25206 8.7749 8.27363 8.92858C7.28778 9.08343 6.36082 9.29007 5.69154 9.5693C5.35609 9.70925 5.11755 9.85452 4.96974 9.99524C4.8289 10.1293 4.7956 10.2326 4.7956 10.3158V17.3984C5.02457 17.8052 5.35992 18.6019 5.35992 19.4544C5.35992 20.5312 4.59006 21.2312 4.20343 21.4578C4.06163 21.5409 3.88806 21.549 3.73914 21.4795L1.51313 20.4404C1.36343 20.3705 1.25791 20.2312 1.2312 20.0681C1.20448 19.9051 1.26002 19.7394 1.3796 19.6254L3.7956 17.322V10.3158C3.7956 10.3158 3.7956 10.3158 3.7956 10.3158C3.79559 9.88609 4.0009 9.53689 4.28022 9.27097C4.55258 9.01168 4.91576 8.80942 5.3065 8.6464C6.08961 8.31969 7.1129 8.09864 8.11847 7.94069C9.13146 7.78158 10.1616 7.68145 10.9715 7.60815C11.086 7.5978 11.1955 7.58802 11.2999 7.5787C11.5679 7.55478 11.8014 7.53394 11.9944 7.5143C12.1281 7.5007 12.2362 7.48828 12.3186 7.47659C12.3924 7.4661 12.4263 7.45872 12.4348 7.45687C12.4369 7.45641 12.4374 7.45629 12.4366 7.45656C12.6993 7.37153 12.9812 7.51558 13.0662 7.7783ZM4.14476 18.3708L2.59958 19.8439L3.89158 20.447C4.10921 20.2458 4.35992 19.8953 4.35992 19.4544C4.35992 19.0668 4.26034 18.6804 4.14476 18.3708Z" fill="#E6E5FF"/>
<path d="M5.86325 14.1897C5.86325 15.0556 5.1613 15.7576 4.29539 15.7576C3.42949 15.7576 2.72754 15.0556 2.72754 14.1897C2.72754 13.3238 3.42949 12.6219 4.29539 12.6219C5.1613 12.6219 5.86325 13.3238 5.86325 14.1897Z" fill="#8E8CEE"/>
<defs>
<linearGradient id="paint0_linear_2455_7753" x1="10.1674" y1="15.2572" x2="16.1299" y2="15.2572" gradientUnits="userSpaceOnUse">
<stop stop-color="#B1B0F5"/>
<stop offset="0.6874" stop-color="#BCBBFC"/>
<stop offset="0.6875" stop-color="#CECCFF"/>
</linearGradient>
<linearGradient id="paint1_linear_2455_7753" x1="15.5254" y1="3.42482" x2="9.67569" y2="10.2578" gradientUnits="userSpaceOnUse">
<stop offset="0.348858" stop-color="#A3A2F5"/>
<stop offset="0.348958" stop-color="#8E8CEE"/>
<stop offset="1" stop-color="#8E8CEE"/>
</linearGradient>
</defs>
</svg>
