<svg width="24" height="24" viewBox="0 0 24 24" fill="none" xmlns="http://www.w3.org/2000/svg">
<path d="M21.482 11.7439L19.7406 6.42386C19.2659 4.97443 17.9815 4 16.5447 4H7.45531C6.01854 4 4.73408 4.97443 4.26023 6.42295L2.51885 11.743C1.58892 12.3971 1 13.5271 1 14.7703V21.1905C1 22.1902 1.75731 23 2.69231 23C3.62731 23 4.38462 22.1902 4.38462 21.1905V20.0496C4.38462 20.0496 8.85315 20.2857 12 20.2857C15.1468 20.2857 19.6154 20.0496 19.6154 20.0496V21.1905C19.6154 22.1902 20.3727 23 21.3077 23C22.2427 23 23 22.1902 23 21.1905V14.7703C23 13.5271 22.4102 12.3971 21.482 11.7439Z" fill="url(#paint0_linear_15903_78961)"/>
<path d="M5.85799 7.21148L4.88829 10.1737C4.73599 10.6396 5.09899 11.1092 5.55506 11.0305C7.21437 10.7437 9.34752 10.5238 12.0002 10.5238C14.6529 10.5238 16.7861 10.7437 18.4454 11.0305C18.9014 11.1092 19.2644 10.6396 19.1121 10.1737L18.1424 7.21148C17.9047 6.48586 17.2641 6 16.5449 6H7.45552C6.73629 6 6.09576 6.48586 5.85799 7.21148Z" fill="#E6E5FF"/>
<path d="M9 17H15C15.552 17 16 16.328 16 15.5C16 14.672 15.552 14 15 14H9C8.448 14 8 14.672 8 15.5C8 16.328 8.448 17 9 17Z" fill="#B1B0F5"/>
<path d="M3.5 15.3571C3.5 16.1063 4.06862 16.7143 4.76923 16.7143C5.46985 16.7143 6.03846 16.1063 6.03846 15.3571C6.03846 14.608 5.46985 14 4.76923 14C4.06862 14 3.5 14.608 3.5 15.3571Z" fill="#E6E5FF"/>
<path d="M18 15.3571C18 16.1063 18.5686 16.7143 19.2692 16.7143C19.9698 16.7143 20.5385 16.1063 20.5385 15.3571C20.5385 14.608 19.9698 14 19.2692 14C18.5686 14 18 14.608 18 15.3571Z" fill="#E6E5FF"/>
<rect width="10" height="10" rx="5" fill="#8E8CEE"/>
<path d="M5.33333 1L2 5.8H5L4.66667 9L8 4.2H5L5.33333 1Z" fill="#E6E5FF"/>
<defs>
<linearGradient id="paint0_linear_15903_78961" x1="8.41887" y1="26.5092" x2="1" y2="22" gradientUnits="userSpaceOnUse">
<stop stop-color="#8E8CEE"/>
<stop offset="0.604167" stop-color="#8E8CEE"/>
<stop offset="0.604267" stop-color="#B1B0F5"/>
</linearGradient>
</defs>
</svg>
