<svg width="80" height="71" viewBox="0 0 80 71" fill="none" xmlns="http://www.w3.org/2000/svg">
<g filter="url(#filter0_d_719_20)">
<path d="M38.7197 27.1774C39.5031 26.6926 40.4932 26.6926 41.2766 27.1773L51.5671 33.5445C51.834 33.7096 51.9963 34.001 51.9963 34.3148V34.3148C51.9963 34.6558 51.8049 34.9679 51.501 35.1223L39.9982 40.9686L28.4954 35.1223C28.1914 34.9679 28 34.6558 28 34.3148V34.3148C28 34.001 28.1624 33.7096 28.4292 33.5445L38.7197 27.1774Z" fill="#B1B0F5"/>
<path d="M29.5186 27.8669C29.5186 27.1957 30.0626 26.6517 30.7337 26.6517H49.0128C49.684 26.6517 50.228 27.1957 50.228 27.8669V39.4996C50.228 40.1707 49.684 40.7148 49.0128 40.7148H30.7337C30.0626 40.7148 29.5186 40.1707 29.5186 39.4996V27.8669Z" fill="white"/>
<rect x="32.2969" y="31.6932" width="15.1533" height="1.32671" rx="0.663355" fill="#E6E5FF"/>
<rect x="32.2969" y="34.3466" width="15.1533" height="1.32671" rx="0.663355" fill="#E6E5FF"/>
<rect x="32.2969" y="37" width="15.1533" height="1.32671" rx="0.663355" fill="#E6E5FF"/>
<rect x="32.2969" y="29.0397" width="5.80875" height="1.32671" rx="0.663355" fill="#8E8CEE"/>
</g>
<path d="M28.0034 34.6973C28.0034 33.7996 28.9432 33.2118 29.7503 33.6046L39.468 38.3333C39.8037 38.4966 40.1958 38.4966 40.5315 38.3333L50.2492 33.6046C51.0563 33.2118 51.9961 33.7996 51.9961 34.6973V46.1331C51.9961 46.8043 51.452 47.3483 50.7809 47.3483H29.2186C28.5475 47.3483 28.0034 46.8043 28.0034 46.1331V34.6973Z" fill="#B1B0F5"/>
<path d="M38.7201 39.6499C39.5041 39.1643 40.4954 39.1643 41.2794 39.6499L51.9961 46.287V46.287C51.9961 46.8731 51.5209 47.3483 50.9347 47.3483H29.0648C28.4786 47.3483 28.0034 46.8731 28.0034 46.287V46.287L38.7201 39.6499Z" fill="#C9C8FF"/>
<defs>
<filter id="filter0_d_719_20" x="0" y="0.651672" width="79.9961" height="70.317" filterUnits="userSpaceOnUse" color-interpolation-filters="sRGB">
<feFlood flood-opacity="0" result="BackgroundImageFix"/>
<feColorMatrix in="SourceAlpha" type="matrix" values="0 0 0 0 0 0 0 0 0 0 0 0 0 0 0 0 0 0 127 0" result="hardAlpha"/>
<feOffset dy="2"/>
<feGaussianBlur stdDeviation="14"/>
<feColorMatrix type="matrix" values="0 0 0 0 0.380392 0 0 0 0 0.376471 0 0 0 0 0.635294 0 0 0 0.1 0"/>
<feBlend mode="normal" in2="BackgroundImageFix" result="effect1_dropShadow_719_20"/>
<feBlend mode="normal" in="SourceGraphic" in2="effect1_dropShadow_719_20" result="shape"/>
</filter>
</defs>
</svg>
