<svg width="24" height="24" viewBox="0 0 24 24" fill="none" xmlns="http://www.w3.org/2000/svg">
<path d="M21.8078 10.3986C22.7883 15.6998 19.2106 20.7079 13.8168 21.5844C8.42306 22.461 3.25574 18.8741 2.27528 13.573C1.29482 8.27176 4.8725 3.26371 10.2663 2.38715C15.66 1.51058 20.8273 5.09745 21.8078 10.3986Z" fill="url(#paint0_linear_9893_35920)"/>
<path fill-rule="evenodd" clip-rule="evenodd" d="M13.5394 20.0847C18.0904 19.3451 21.1091 15.1195 20.2818 10.6466C19.4546 6.17376 15.0946 3.14734 10.5436 3.88694C5.99267 4.62654 2.97399 8.85208 3.80126 13.325C4.62852 17.7978 8.98845 20.8243 13.5394 20.0847ZM13.8168 21.5844C19.2106 20.7079 22.7883 15.6998 21.8078 10.3986C20.8273 5.09745 15.66 1.51059 10.2663 2.38715C4.8725 3.26371 1.29482 8.27177 2.27528 13.573C3.25574 18.8741 8.42306 22.461 13.8168 21.5844Z" fill="url(#paint1_linear_9893_35920)"/>
<path d="M7.52407 11.3585L8.3835 11.2189C8.39328 10.6735 8.47062 10.1692 8.61551 9.70612C8.76405 9.23788 8.9714 8.8258 9.23754 8.46987C9.50816 8.11321 9.83208 7.82039 10.2093 7.59141C10.591 7.36171 11.0191 7.2083 11.4936 7.13119C12.1247 7.02862 12.6865 7.06195 13.1789 7.23117C13.6749 7.39527 14.1081 7.65568 14.4783 8.01241L13.9473 8.80565C13.9078 8.86644 13.8653 8.9232 13.8197 8.97593C13.7733 9.02425 13.7009 9.05641 13.6024 9.07242C13.5039 9.08842 13.4079 9.06777 13.3143 9.01048C13.2252 8.95245 13.1192 8.89038 12.9963 8.82425C12.8726 8.75372 12.7214 8.69672 12.5428 8.65324C12.3641 8.60977 12.1361 8.61058 11.8585 8.65568C11.3796 8.73352 11.0024 8.9625 10.7268 9.34261C10.4558 9.72199 10.3103 10.2441 10.2904 10.909L13.5334 10.3819L13.6347 10.9297C13.6542 11.0352 13.6259 11.1441 13.5498 11.2561C13.4774 11.3631 13.3628 11.4293 13.2062 11.4547L10.3459 11.9196C10.3536 11.9863 10.364 12.0548 10.377 12.1252C10.3892 12.1912 10.4018 12.2594 10.4148 12.3298L10.4661 12.607L13.1988 12.1629L13.3001 12.7106C13.3196 12.8162 13.2913 12.925 13.2152 13.0371C13.1428 13.144 13.0305 13.2098 12.8783 13.2346L10.7499 13.5805C11.0001 14.2603 11.3203 14.7453 11.7106 15.0353C12.1008 15.3254 12.5354 15.4315 13.0143 15.3536C13.2158 15.3209 13.3844 15.2731 13.5204 15.2102C13.6607 15.1466 13.7771 15.0779 13.8695 15.0039C13.9664 14.9293 14.0445 14.8531 14.1039 14.7755C14.1625 14.6935 14.2156 14.6192 14.2632 14.5525C14.3153 14.4851 14.3645 14.4273 14.4109 14.379C14.4618 14.3299 14.5231 14.2996 14.5947 14.2879C14.6529 14.2785 14.7015 14.2796 14.7406 14.2914C14.7833 14.298 14.8315 14.3219 14.8852 14.3631L15.8227 14.9448C15.6034 15.4789 15.2711 15.9136 14.8259 16.2488C14.3807 16.584 13.8381 16.8036 13.198 16.9076C12.6698 16.9934 12.1795 16.9847 11.727 16.8816C11.2781 16.7732 10.87 16.5858 10.5026 16.3192C10.1351 16.0527 9.81182 15.7132 9.53269 15.3009C9.25355 14.8886 9.02142 14.4187 8.83629 13.8914L8.01715 14.0246L7.83407 13.0347L8.56593 12.9158C8.55251 12.8681 8.54172 12.8223 8.53359 12.7783C8.52545 12.7343 8.51691 12.6881 8.50796 12.6397C8.49494 12.5693 8.48233 12.5011 8.47012 12.4351C8.46239 12.3684 8.45426 12.2995 8.44571 12.2284L7.70714 12.3484L7.52407 11.3585Z" fill="#8E8CEE"/>
<defs>
<linearGradient id="paint0_linear_9893_35920" x1="14.7053" y1="5.99137" x2="8.82666" y2="14.4603" gradientUnits="userSpaceOnUse">
<stop offset="0.78125" stop-color="#E6E5FF"/>
<stop offset="0.78135" stop-color="#D5D5FF"/>
<stop offset="1" stop-color="#D6D6FF"/>
</linearGradient>
<linearGradient id="paint1_linear_9893_35920" x1="8.54576" y1="10.0821" x2="11.975" y2="5.14193" gradientUnits="userSpaceOnUse">
<stop stop-color="#8E8CEE"/>
<stop offset="0.604167" stop-color="#8E8CEE"/>
<stop offset="0.604267" stop-color="#B1B0F5"/>
</linearGradient>
</defs>
</svg>
