<svg width="24" height="24" viewBox="0 0 24 24" fill="none" xmlns="http://www.w3.org/2000/svg">
<g clip-path="url(#clip0_2540_446)">
<circle cx="13.0133" cy="12.9492" r="8.43346" fill="#E2E1FF"/>
<path d="M19.4734 7.52825C22.4673 11.0962 22.0019 16.4157 18.4339 19.4096L7.59204 6.48877C11.16 3.49488 16.4795 3.96027 19.4734 7.52825Z" fill="#EFEEFF"/>
<path fill-rule="evenodd" clip-rule="evenodd" d="M12.9316 5.09787C12.5393 5.09787 12.2212 4.77981 12.2212 4.38745L12.2212 3.04048C12.2212 2.64813 12.5393 2.33006 12.9316 2.33006C13.324 2.33006 13.642 2.64813 13.642 3.04048L13.642 4.38745C13.642 4.77981 13.324 5.09787 12.9316 5.09787Z" fill="#8E8CEE"/>
<path fill-rule="evenodd" clip-rule="evenodd" d="M10.0535 2.33011C10.0535 1.93775 10.3715 1.61969 10.7639 1.61969L15.0996 1.61969C15.492 1.61969 15.8101 1.93775 15.8101 2.33011C15.8101 2.72246 15.492 3.04052 15.0996 3.04052L10.7639 3.04052C10.3715 3.04052 10.0535 2.72246 10.0535 2.33011Z" fill="#8E8CEE"/>
<path fill-rule="evenodd" clip-rule="evenodd" d="M16.522 19.021C17.5507 18.4265 18.4115 17.5804 19.0236 16.5621C19.6357 15.5438 19.979 14.3867 20.0214 13.1994C20.0638 12.012 19.8038 10.8334 19.2658 9.77405C18.7279 8.71471 17.9296 7.80942 16.9459 7.14314C15.9622 6.47685 14.8253 6.07142 13.642 5.96488C12.4587 5.85835 11.2677 6.0542 10.1808 6.53407C9.82192 6.69254 9.40249 6.53004 9.24402 6.17112C9.08555 5.81219 9.24805 5.39276 9.60698 5.23429C10.9141 4.65719 12.3464 4.42165 13.7694 4.54977C15.1925 4.67789 16.5597 5.16547 17.7427 5.96675C18.9257 6.76804 19.8857 7.85675 20.5327 9.13072C21.1796 10.4047 21.4923 11.8221 21.4413 13.2501C21.3904 14.678 20.9774 16.0695 20.2413 17.2941C19.5052 18.5188 18.47 19.5363 17.2329 20.2512C15.9958 20.9661 14.5973 21.3549 13.1687 21.3813C11.7401 21.4076 10.3283 21.0706 9.06565 20.4018C8.71893 20.2181 8.58675 19.7882 8.7704 19.4415C8.95406 19.0947 9.384 18.9626 9.73072 19.1462C10.7806 19.7023 11.9546 19.9826 13.1425 19.9607C14.3304 19.9388 15.4933 19.6154 16.522 19.021Z" fill="#8E8CEE"/>
<circle cx="12.9316" cy="12.9533" r="1.66768" fill="#8E8CEE"/>
<path fill-rule="evenodd" clip-rule="evenodd" d="M13.1138 12.7188C12.8554 12.4235 12.8854 11.9747 13.1806 11.7163L15.0824 10.0522C15.3777 9.79385 15.8265 9.82376 16.0849 10.119C16.3432 10.4143 16.3133 10.8631 16.0181 11.1215L14.1163 12.7856C13.821 13.044 13.3722 13.0141 13.1138 12.7188Z" fill="#8E8CEE"/>
<path fill-rule="evenodd" clip-rule="evenodd" d="M7.61938 10.2234C7.61938 10.6157 7.30132 10.9338 6.90897 10.9338L3.42279 10.9338C3.03044 10.9338 2.71238 10.6157 2.71238 10.2234C2.71238 9.83101 3.03044 9.51294 3.42279 9.51294L6.90897 9.51294C7.30132 9.51294 7.61938 9.83101 7.61938 10.2234Z" fill="#8E8CEE"/>
<path fill-rule="evenodd" clip-rule="evenodd" d="M8.15356 13.1201C8.15356 13.5124 7.8355 13.8305 7.44315 13.8305L1.46867 13.8305C1.07631 13.8305 0.758249 13.5124 0.758249 13.1201C0.758249 12.7277 1.07631 12.4097 1.46867 12.4097L7.44315 12.4097C7.8355 12.4097 8.15356 12.7277 8.15356 13.1201Z" fill="#8E8CEE"/>
<path fill-rule="evenodd" clip-rule="evenodd" d="M7.88647 15.9406C7.88647 16.3329 7.56841 16.651 7.17606 16.651L3.15543 16.651C2.76308 16.651 2.44502 16.3329 2.44502 15.9406C2.44502 15.5482 2.76308 15.2302 3.15543 15.2302L7.17606 15.2302C7.56841 15.2302 7.88647 15.5482 7.88647 15.9406Z" fill="#8E8CEE"/>
</g>
<defs>
<clipPath id="clip0_2540_446">
<rect width="24" height="24" fill="white"/>
</clipPath>
</defs>
</svg>
