<svg width="24" height="24" viewBox="0 0 24 24" fill="none" xmlns="http://www.w3.org/2000/svg">
<g clip-path="url(#clip0_2059_7330)">
<path d="M19.8308 15.5365C19.8308 20.0923 15.7762 23.7302 11.9748 23.7302C8.17346 23.7302 4.11912 20.7647 4.11914 16.2123C4.11916 12.4956 6.56889 8.94781 8.51172 7.17393C10.4546 5.40005 10.4546 0.923096 10.4546 0.923096C10.4546 0.923096 13.5274 3.30381 14.7625 5.40005C15.9776 7.46252 15.7762 9.53911 15.7762 11.5664C17.2966 10.2149 17.2966 8.86335 17.2966 8.86335C18.6482 10.8062 19.8308 11.8198 19.8308 15.5365Z" fill="#8E8CEE"/>
<path d="M6.31622 17.802C6.31622 21.0981 9.2498 23.7302 12.0001 23.7302C14.7505 23.7302 17.6839 21.5846 17.6838 18.2909C17.6838 15.6018 15.9114 13.0349 14.5057 11.7515C13.1001 10.4681 13.1001 7.22894 13.1001 7.22894C13.1001 7.22894 10.8768 8.95142 9.98325 10.4681C9.10406 11.9603 9.2498 13.4627 9.2498 14.9295C8.14977 13.9517 8.14977 12.9738 8.14977 12.9738C7.17187 14.3795 6.31622 15.1129 6.31622 17.802Z" fill="#B1B0F5"/>
<path d="M15.692 19.8535C15.692 22.009 13.7736 23.7302 11.9751 23.7302C10.1765 23.7302 8.25829 22.3271 8.2583 20.1732C8.25831 18.4147 9.41735 16.7362 10.3366 15.8969C11.2558 15.0576 11.2558 12.9395 11.2558 12.9395C11.2558 12.9395 12.7096 14.0658 13.294 15.0576C13.8689 16.0335 13.7736 17.016 13.7736 17.9751C14.493 17.3357 14.493 16.6962 14.493 16.6962C15.1324 17.6154 15.692 18.095 15.692 19.8535Z" fill="#E6E5FF"/>
</g>
<defs>
<clipPath id="clip0_2059_7330">
<rect width="24" height="24" fill="white"/>
</clipPath>
</defs>
</svg>
