<svg width="24" height="24" viewBox="0 0 24 24" fill="none" xmlns="http://www.w3.org/2000/svg">
<path d="M13.75 14.5C16.7876 14.5 19.25 12.0376 19.25 9C19.25 5.96243 16.7876 3.5 13.75 3.5C10.7124 3.5 8.25 5.96243 8.25 9C8.25 12.0376 10.7124 14.5 13.75 14.5Z" fill="#E6E5FF"/>
<path fill-rule="evenodd" clip-rule="evenodd" d="M6.36683 17.248C7.242 16.4489 8.42899 16 9.66667 16H16.3333C17.571 16 18.758 16.4489 19.6332 17.248C20.5083 18.047 21 19.1308 21 20.2609V21.7826C21 22.455 20.403 23 19.6667 23C19.1212 23 6.87877 23 6.33333 23C5.59695 23 5 22.455 5 21.7826V20.2609C5 19.1308 5.49167 18.047 6.36683 17.248Z" fill="#E6E5FF"/>
<path d="M13.7863 3.00183H10.1438L8.75 6.51523C9.97811 7.50676 13.7863 7.4646 16.2146 6.8268C16.6071 6.72417 16.8008 7.01558 16.8461 7.38763C16.9002 7.81833 16.7938 8.25636 16.9002 8.68339C16.9874 9.03528 17.1619 9.36884 17.3572 9.66575C17.7166 10.2064 18.2225 10.7361 18.8086 11C19.0913 10.3072 19.25 9.54295 19.25 8.74021C19.25 5.57136 16.8042 3 13.7863 3V3.00183Z" fill="#D3D2FF"/>
<path fill-rule="evenodd" clip-rule="evenodd" d="M13.4648 19H3L0.0682038 11.4211C-0.180119 10.7431 0.281052 10 0.943245 10H9.97745C10.5805 10 11.1245 10.4042 11.3491 11.0299L14 19C14 19 13.725 19 13.4648 19Z" fill="#8E8CEE"/>
<circle cx="6.5" cy="14.5" r="1.5" fill="#B1B0F5"/>
<path d="M3 19H18.5545C18.802 19 19 19.2677 19 19.5827V20.4331C19 20.748 18.802 21 18.5545 21H3.56922C3.25986 21 3 20.6693 3 20.2756V20V19Z" fill="#8E8CEE"/>
</svg>
