<svg width="24" height="24" viewBox="0 0 24 24" fill="none" xmlns="http://www.w3.org/2000/svg">
<g clip-path="url(#clip0_2459_42)">
<path d="M1.63574 8.41986C1.63574 7.31529 2.53117 6.41986 3.63574 6.41986H20.3642C21.4688 6.41986 22.3642 7.31529 22.3642 8.41986V15.5112C22.3642 16.6157 21.4688 17.5112 20.3642 17.5112H3.63574C2.53117 17.5112 1.63574 16.6157 1.63574 15.5112V8.41986Z" fill="url(#paint0_linear_2459_42)"/>
<path d="M1.63574 7.89624H22.3641V17.5111H1.63574V7.89624Z" fill="url(#paint1_linear_2459_42)"/>
<path d="M0.988281 8.93091C0.988281 8.65477 1.21214 8.43091 1.48828 8.43091H22.5118C22.7879 8.43091 23.0118 8.65477 23.0118 8.93091V9.94196C23.0118 10.2181 22.7879 10.442 22.5118 10.442H1.48828C1.21214 10.442 0.988281 10.2181 0.988281 9.94196V8.93091Z" fill="url(#paint2_linear_2459_42)"/>
<path d="M-0.000488281 16.0508C-0.000488281 15.7747 0.223369 15.5508 0.499512 15.5508H23.4999C23.776 15.5508 23.9999 15.7747 23.9999 16.0508V17.0112C23.9999 17.2873 23.776 17.5112 23.4999 17.5112H0.499511C0.223369 17.5112 -0.000488281 17.2873 -0.000488281 17.0112V16.0508Z" fill="#8E8CEE"/>
<path fill-rule="evenodd" clip-rule="evenodd" d="M4.53046 14.26C4.90902 14.26 5.21591 13.9531 5.21591 13.5746C5.21591 13.196 4.90902 12.8891 4.53046 12.8891C4.1519 12.8891 3.84502 13.196 3.84502 13.5746C3.84502 13.9531 4.1519 14.26 4.53046 14.26ZM4.53046 14.96C5.29562 14.96 5.91591 14.3397 5.91591 13.5746C5.91591 12.8094 5.29562 12.1891 4.53046 12.1891C3.7653 12.1891 3.14502 12.8094 3.14502 13.5746C3.14502 14.3397 3.7653 14.96 4.53046 14.96Z" fill="#8E8CEE"/>
<path fill-rule="evenodd" clip-rule="evenodd" d="M19.8566 14.26C20.2352 14.26 20.5421 13.9531 20.5421 13.5746C20.5421 13.196 20.2352 12.8891 19.8566 12.8891C19.4781 12.8891 19.1712 13.196 19.1712 13.5746C19.1712 13.9531 19.4781 14.26 19.8566 14.26ZM19.8566 14.96C20.6218 14.96 21.2421 14.3397 21.2421 13.5746C21.2421 12.8094 20.6218 12.1891 19.8566 12.1891C19.0915 12.1891 18.4712 12.8094 18.4712 13.5746C18.4712 14.3397 19.0915 14.96 19.8566 14.96Z" fill="#8E8CEE"/>
<path fill-rule="evenodd" clip-rule="evenodd" d="M4.55127 13.2482C4.27513 13.2472 4.05206 13.0225 4.05304 12.7464L4.05701 11.6248C4.05799 11.3486 4.28263 11.1256 4.55877 11.1265C4.83491 11.1275 5.05798 11.3522 5.057 11.6283L5.05303 12.7499C5.05206 13.0261 4.82741 13.2491 4.55127 13.2482Z" fill="#8E8CEE"/>
<path fill-rule="evenodd" clip-rule="evenodd" d="M19.8774 13.2482C19.6013 13.2472 19.3782 13.0225 19.3792 12.7464L19.3832 11.6248C19.3842 11.3486 19.6088 11.1256 19.8849 11.1265C20.1611 11.1275 20.3842 11.3522 20.3832 11.6283L20.3792 12.7499C20.3782 13.0261 20.1536 13.2491 19.8774 13.2482Z" fill="#8E8CEE"/>
</g>
<defs>
<linearGradient id="paint0_linear_2459_42" x1="16.6587" y1="6.41986" x2="16.4905" y2="8.19569" gradientUnits="userSpaceOnUse">
<stop offset="0.223858" stop-color="#BAB9FF"/>
<stop offset="0.223958" stop-color="#8F8DEF"/>
<stop offset="1" stop-color="#9291F3"/>
</linearGradient>
<linearGradient id="paint1_linear_2459_42" x1="13.8217" y1="11.4624" x2="13.3589" y2="14.0678" gradientUnits="userSpaceOnUse">
<stop offset="0.328025" stop-color="#EEEDFF"/>
<stop offset="0.328125" stop-color="#E1E0FF"/>
<stop offset="1" stop-color="#DFDEFF"/>
</linearGradient>
<linearGradient id="paint2_linear_2459_42" x1="13.9217" y1="8.62483" x2="13.8524" y2="9.77405" gradientUnits="userSpaceOnUse">
<stop offset="0.176883" stop-color="#BAB9FE"/>
<stop offset="0.176983" stop-color="#D4D3FF"/>
<stop offset="0.177083" stop-color="#A09FF4"/>
<stop offset="1" stop-color="#9F9EF3"/>
</linearGradient>
<clipPath id="clip0_2459_42">
<rect width="24" height="24" fill="white"/>
</clipPath>
</defs>
</svg>
