<svg width="24" height="24" viewBox="0 0 24 24" fill="none" xmlns="http://www.w3.org/2000/svg">
<g clip-path="url(#clip0_8271_23804)">
<path d="M17.58 1H6.42C5.08347 1 4 2.08347 4 3.42V14.58C4 15.9165 5.08347 17 6.42 17H17.58C18.9165 17 20 15.9165 20 14.58V3.42C20 2.08347 18.9165 1 17.58 1Z" fill="#E6E5FF"/>
<path d="M16.21 3H7.79C7.07755 3 6.5 3.57755 6.5 4.29V12.71C6.5 13.4224 7.07755 14 7.79 14H16.21C16.9224 14 17.5 13.4224 17.5 12.71V4.29C17.5 3.57755 16.9224 3 16.21 3Z" fill="white"/>
<path d="M11.0249 6H9.64014V9.02083H11.0249V6Z" fill="#8E8CEE"/>
<path d="M14.6402 6H13.2554V9.02083H14.6402V6Z" fill="#8E8CEE"/>
<path d="M13.2555 11C13.2555 10.6746 13.1374 10.3626 12.9273 10.1325C12.7171 9.90242 12.4321 9.77316 12.1349 9.77316C11.8377 9.77316 11.5527 9.90242 11.3426 10.1325C11.1325 10.3626 11.0144 10.6746 11.0144 11H13.2555Z" fill="#8E8CEE"/>
<path d="M11 18.1899V20.8005C11 21.0894 10.9398 21.3754 10.8229 21.6422C10.706 21.9091 10.5346 22.1516 10.3186 22.3558C10.1025 22.56 9.84603 22.722 9.56376 22.8326C9.28148 22.9431 8.97894 23 8.67341 23H4V16H8.68353C9.29707 16.0025 9.88473 16.234 10.3186 16.6442C10.7524 17.0543 10.9973 17.6099 11 18.1899V18.1899Z" fill="#8E8CEE"/>
<path d="M4 19V18H1V19H4Z" fill="#B1B0F5"/>
<path d="M4 21V20H1V21H4Z" fill="#B1B0F5"/>
<path d="M13 21V18H11V21H13Z" fill="#8E8CEE"/>
<path d="M23 20V19H13V20H23Z" fill="#8E8CEE"/>
</g>
<defs>
<clipPath id="clip0_8271_23804">
<rect width="24" height="24" fill="white"/>
</clipPath>
</defs>
</svg>
