<svg width="30" height="28" viewBox="0 0 30 28" fill="none" xmlns="http://www.w3.org/2000/svg">
<path d="M22.3084 11.8345L14.9995 15.3568V8.63239L22.3084 11.8345Z" fill="#7B79DF"/>
<path d="M22.3084 20.4802V11.8345L14.9995 15.3568V24.0025L22.3084 20.4802Z" fill="#B1B0F5"/>
<path d="M7.69066 20.4802V11.8345L14.9995 15.3568V24.0025L7.69066 20.4802Z" fill="#8E8CEE"/>
<path d="M7.69066 11.8345L14.9995 15.3568V8.63239L7.69066 11.8345Z" fill="#B1B0F5"/>
<path d="M5.86377 15.0366L7.69098 11.8345L14.9998 15.3568L13.1726 18.8791L5.86377 15.0366Z" fill="#7B79DF"/>
<path d="M24.1362 15.0366L22.309 11.8345L15.0002 15.3568L16.8274 18.8791L24.1362 15.0366Z" fill="#E6E5FF"/>
<path fill-rule="evenodd" clip-rule="evenodd" d="M23.8229 4.83814C23.8987 5.02009 23.8128 5.22911 23.6308 5.305C22.5038 5.77506 21.4952 6.8309 20.7032 8.1751C19.9145 9.51364 19.3637 11.0999 19.1317 12.5705C19.1009 12.7652 18.9182 12.8982 18.7234 12.8675C18.5287 12.8367 18.3957 12.654 18.4265 12.4592C18.672 10.9034 19.2521 9.23145 20.0881 7.81268C20.9207 6.39957 22.0305 5.19897 23.356 4.6461C23.5379 4.57021 23.747 4.65619 23.8229 4.83814Z" fill="#B1B0F5"/>
<path fill-rule="evenodd" clip-rule="evenodd" d="M14.1358 2.52687C14.2684 2.67283 14.2575 2.89858 14.1115 3.03109C13.8983 3.22464 13.8573 3.47178 13.9633 3.79676C14.0741 4.13674 14.336 4.50494 14.6385 4.80706C15.0812 5.24932 15.2778 5.74295 15.1818 6.31091C15.0927 6.83831 14.7575 7.37947 14.286 7.96246C13.8792 8.46546 13.7969 8.9264 13.882 9.31624C13.9698 9.71902 14.2489 10.102 14.6665 10.4052C14.8261 10.521 14.8615 10.7442 14.7457 10.9038C14.6299 11.0633 14.4067 11.0987 14.2472 10.9829C13.7291 10.6069 13.3193 10.0865 13.1845 9.46837C13.0468 8.83729 13.2082 8.15979 13.7309 7.51351C14.1889 6.94723 14.4212 6.52736 14.4779 6.19197C14.5277 5.89713 14.4484 5.62621 14.134 5.31215C13.7872 4.96574 13.443 4.50411 13.2845 4.01811C13.1211 3.51711 13.1474 2.94211 13.6316 2.50252C13.7776 2.37 14.0033 2.38091 14.1358 2.52687Z" fill="#8E8CEE"/>
<ellipse cx="25.2886" cy="4.22291" rx="0.629921" ry="0.629922" fill="#8E8CEE"/>
<path d="M21.1623 0.860693C21.1842 0.694395 21.3887 0.627302 21.5049 0.748328L21.7245 0.977182C21.7711 1.02576 21.839 1.04763 21.9052 1.03536L22.2171 0.977565C22.382 0.947002 22.509 1.12082 22.4298 1.26867L22.28 1.54825C22.2482 1.6076 22.2484 1.67896 22.2806 1.73813L22.4319 2.01687C22.5119 2.16428 22.3859 2.3388 22.2208 2.30915L21.9086 2.25309C21.8423 2.24119 21.7745 2.26343 21.7282 2.31226L21.5098 2.54233C21.3944 2.664 21.1894 2.59804 21.1666 2.43186L21.1235 2.11763C21.1143 2.05093 21.0722 1.99331 21.0114 1.96433L20.7252 1.82777C20.5738 1.75556 20.5732 1.54027 20.7242 1.46722L21.0097 1.32908C21.0703 1.29976 21.1121 1.24191 21.1209 1.17516L21.1623 0.860693Z" fill="#8E8CEE"/>
<rect x="17.9395" y="5.0816" width="1.67979" height="1.67979" rx="0.839896" transform="rotate(-22.7167 17.9395 5.0816)" fill="#8E8CEE"/>
<ellipse cx="5.55082" cy="6.32267" rx="0.629922" ry="0.629922" fill="#8E8CEE"/>
<path fill-rule="evenodd" clip-rule="evenodd" d="M6.99236 6.91886C6.92043 7.10241 7.01092 7.30951 7.19447 7.38144C7.8118 7.62336 8.53161 8.18409 9.20998 8.93849C9.88354 9.68756 10.4908 10.5993 10.8942 11.507C10.9742 11.6871 11.1852 11.7683 11.3653 11.6882C11.5455 11.6081 11.6266 11.3972 11.5465 11.217C11.11 10.2349 10.4599 9.26082 9.74083 8.46115C9.02657 7.66682 8.21851 7.01596 7.45494 6.71675C7.27139 6.64482 7.06428 6.73531 6.99236 6.91886Z" fill="#8E8CEE"/>
<path d="M8.33194 2.19148C8.45308 2.07547 8.65463 2.15113 8.66949 2.3182L8.6976 2.63413C8.70356 2.70119 8.74287 2.76075 8.80219 2.79261L9.08162 2.94267C9.2294 3.02202 9.21972 3.23709 9.06542 3.30285L8.77364 3.42721C8.7117 3.45361 8.6672 3.5094 8.65524 3.57566L8.59887 3.88779C8.56906 4.05285 8.36153 4.11011 8.2513 3.98368L8.04287 3.74461C7.99862 3.69386 7.93181 3.66878 7.8651 3.67787L7.55083 3.72072C7.38463 3.74338 7.26605 3.5637 7.35223 3.4198L7.51519 3.14768C7.54978 3.08992 7.55299 3.01863 7.52372 2.958L7.38586 2.67235C7.31295 2.52129 7.44719 2.35298 7.61068 2.39048L7.91983 2.46137C7.98546 2.47642 8.05425 2.45744 8.10287 2.41087L8.33194 2.19148Z" fill="#8E8CEE"/>
<circle cx="15.2521" cy="0.702581" r="0.629921" transform="rotate(-12.6516 15.2521 0.702581)" fill="#8E8CEE"/>
<ellipse cx="11.4307" cy="6.32264" rx="0.629921" ry="0.629922" fill="#8E8CEE"/>
</svg>
