<svg width="24" height="24" viewBox="0 0 24 24" fill="none" xmlns="http://www.w3.org/2000/svg">
<path fill-rule="evenodd" clip-rule="evenodd" d="M8 8H17C18.6569 8 20 9.34315 20 11C20 12.6569 18.6569 14 17 14H8C6.34315 14 5 12.6569 5 11C5 9.34315 6.34315 8 8 8Z" fill="#E6E5FF"/>
<path d="M11.8 14.4946C14.7271 14.4946 17.1 12.1217 17.1 9.19459C17.1 6.26748 14.7271 3.89459 11.8 3.89459C8.87289 3.89459 6.5 6.26748 6.5 9.19459C6.5 12.1217 8.87289 14.4946 11.8 14.4946Z" fill="#D2D1FF"/>
<path d="M15.426 2.65109C14.6326 2.2428 13.4241 2.00015 10.9621 2.00015C8.50005 2.00015 6.50002 2.5 6.00005 4C5.50009 5.5 7.36702 6.5 9.00005 6.5C10.6332 6.5 11.5001 6.5 12.9461 6C14.3922 5.49999 14.8355 6.65223 14.8355 7.30495C14.8355 7.95767 14.8355 7.80814 14.8355 7.80814C14.8355 8.99757 15.2481 9.77547 15.5 10C15.996 10.4421 16.5563 10.432 17.5187 10C18.004 9.78217 18.0001 8.4268 18.0001 8.04794C18.0001 7.7443 17.9679 5.99744 17.5189 5.02404C16.9941 3.88617 16.312 3.10701 15.426 2.65109Z" fill="#E6E5FF"/>
<path fill-rule="evenodd" clip-rule="evenodd" d="M4.90955 16.4263C5.81207 15.513 7.03614 15 8.3125 15H15.1875C16.4639 15 17.6879 15.513 18.5905 16.4263C19.493 17.3395 20 18.5781 20 19.8696V21.6087C20 22.3771 19.3844 23 18.625 23C18.0625 23 5.43748 23 4.875 23C4.11561 23 3.5 22.3771 3.5 21.6087V19.8696C3.5 18.5781 4.00703 17.3395 4.90955 16.4263Z" fill="url(#paint0_linear_13847_67257)"/>
<path fill-rule="evenodd" clip-rule="evenodd" d="M7.78684 10.3079C8.35075 10.3079 8.80789 9.85075 8.80789 9.28684C8.80789 8.72293 8.35075 8.26579 7.78684 8.26579C7.22293 8.26579 6.76579 8.72293 6.76579 9.28684C6.76579 9.85075 7.22293 10.3079 7.78684 10.3079ZM9.5692 9.41447C9.50376 10.3418 8.73077 11.0737 7.78684 11.0737C6.8 11.0737 6 10.2737 6 9.28684C6 8.3 6.8 7.5 7.78684 7.5C8.54885 7.5 9.19945 7.97699 9.45636 8.64868H10.4516C10.7085 7.97699 11.3591 7.5 12.1211 7.5C12.7374 7.5 13.2809 7.81207 13.6021 8.28683H16.25H16.3975V8.29449C17.1035 8.36819 17.6539 8.96521 17.6539 9.69078C17.6539 10.4662 17.0254 11.0947 16.25 11.0947V10.3289C16.6024 10.3289 16.8882 10.0432 16.8882 9.69078C16.8882 9.33834 16.6024 9.05262 16.25 9.05262H13.8927C13.9027 9.12927 13.9079 9.20745 13.9079 9.28684C13.9079 10.2737 13.1079 11.0737 12.1211 11.0737C11.1771 11.0737 10.4042 10.3418 10.3387 9.41447L9.5692 9.41447ZM12.1211 10.3079C12.685 10.3079 13.1421 9.85075 13.1421 9.28684C13.1421 8.72293 12.685 8.26579 12.1211 8.26579C11.5572 8.26579 11.1 8.72293 11.1 9.28684C11.1 9.85075 11.5572 10.3079 12.1211 10.3079Z" fill="#7C7DE3"/>
<defs>
<linearGradient id="paint0_linear_13847_67257" x1="13.0014" y1="13.8883" x2="5.8518" y2="25.1253" gradientUnits="userSpaceOnUse">
<stop offset="0.484275" stop-color="#A3A2F6"/>
<stop offset="0.484375" stop-color="#8F8DEF"/>
<stop offset="1" stop-color="#8F8DEF"/>
</linearGradient>
</defs>
</svg>
