<svg width="24" height="24" viewBox="0 0 24 24" fill="none" xmlns="http://www.w3.org/2000/svg">
<path d="M18.6814 20.7988C20.0295 21.0937 21.323 20.2319 21.5789 18.8757L23.3274 9.60924C23.5833 8.25306 22.7037 6.91583 21.3556 6.62091C16.8749 5.64066 9.22835 3.96785 5.33419 3.11593C3.98609 2.82101 2.69233 3.68275 2.43643 5.03893L0.687919 14.3053C0.432017 15.6615 1.31353 16.9991 2.66164 17.2941C6.66167 18.1692 14.5837 19.9023 18.6814 20.7988Z" fill="#EBEBFF"/>
<path d="M18.5318 20.8051C19.8805 21.0965 21.1773 20.2325 21.4363 18.877L22.1533 15.1245C14.0528 13.3744 9.51115 12.3932 1.41063 10.6431L0.693611 14.3957C0.434624 15.7511 1.31354 17.0851 2.66224 17.3765C6.63343 18.2345 14.4638 19.9262 18.5318 20.8051Z" fill="#B2B1FD"/>
<rect width="5.9027" height="0.862953" rx="0.431476" transform="matrix(0.977362 0.2077 -0.190555 0.980968 4.97241 5.28836)" fill="#8E8CEE"/>
<rect width="5.9027" height="0.862953" rx="0.431476" transform="matrix(0.977362 0.2077 -0.190555 0.980968 4.57007 7.26816)" fill="#B1B0F5"/>
<rect width="4.28704" height="0.870536" rx="0.435268" transform="matrix(0.977103 0.209289 -0.189126 0.981318 15.0486 17.2058)" fill="white"/>
<path d="M20.3202 8.0249L19.8973 8.32265L19.9273 8.83902L19.5134 8.52878L19.0316 8.71687L19.1987 8.22739L18.871 7.82727L19.3881 7.83498L19.6674 7.3996L19.8199 7.89386L20.3202 8.0249Z" fill="#8E8CEE"/>
<path d="M18.1633 7.7168L18.1313 8.23304L18.553 8.53247L18.0522 8.66152L17.8977 9.15516L17.6202 8.71867L17.103 8.72433L17.4324 8.32552L17.2672 7.83537L17.7482 8.02538L18.1633 7.7168Z" fill="#8E8CEE"/>
<path d="M16.9529 9.20043L17.2117 9.64826L17.7287 9.66447L17.3828 10.049L17.5271 10.5457L17.0545 10.3355L16.6267 10.6263L16.6806 10.1119L16.2719 9.79486L16.7778 9.6871L16.9529 9.20043Z" fill="#8E8CEE"/>
<path d="M17.7861 10.7424L18.0022 11.2124L18.5154 11.2765L18.1352 11.6273L18.2328 12.1352L17.7818 11.882L17.3288 12.1318L17.4302 11.6246L17.0527 11.271L17.5664 11.2107L17.7861 10.7424Z" fill="#8E8CEE"/>
<path d="M19.8155 11.1556L19.8378 11.6724L20.2886 11.9259L19.804 12.1068L19.7022 12.6139L19.3804 12.209L18.8667 12.2688L19.1524 11.8377L18.9367 11.3676L19.435 11.5061L19.8155 11.1556Z" fill="#8E8CEE"/>
<path d="M21.2361 8.56375L21.204 9.08L21.6258 9.37943L21.1249 9.50847L20.9705 10.0021L20.693 9.56563L20.1758 9.57129L20.5051 9.17247L20.3399 8.68233L20.821 8.87234L21.2361 8.56375Z" fill="#8E8CEE"/>
<path d="M21.1438 10.1443L21.1118 10.6606L21.5335 10.96L21.0326 11.0891L20.8782 11.5827L20.6007 11.1462L20.0835 11.1519L20.4128 10.7531L20.2476 10.2629L20.7287 10.4529L21.1438 10.1443Z" fill="#8E8CEE"/>
</svg>
