<svg width="24" height="24" viewBox="0 0 24 24" fill="none" xmlns="http://www.w3.org/2000/svg">
<g clip-path="url(#clip0_7510_13940)">
<path d="M19.0346 11.3039H17.3794V20.4074H19.0346V11.3039Z" fill="#B1B0F5"/>
<path d="M2.77002 10.16C2.77002 7.71204 3.74246 5.36436 5.47342 3.6334C7.20438 1.90244 9.55207 0.929993 12 0.929993C14.448 0.929993 16.7957 1.90244 18.5266 3.6334C20.2576 5.36436 21.23 7.71204 21.23 10.16H12L8.30002 13.86H2.77002V10.16Z" fill="#8E8CEE"/>
<path d="M9.12114 15.4418H2.67799C2.40675 15.4418 2.14662 15.3334 1.95482 15.1405C1.76302 14.9475 1.65527 14.6858 1.65527 14.4129C1.65527 14.14 1.76302 13.8783 1.95482 13.6853C2.14662 13.4923 2.40675 13.3839 2.67799 13.3839H8.27228L11.9848 9.64874H21.3222C21.5935 9.64874 21.8536 9.75715 22.0454 9.95012C22.2372 10.1431 22.3449 10.4048 22.3449 10.6777C22.3449 10.9506 22.2372 11.2123 22.0454 11.4053C21.8536 11.5983 21.5935 11.7067 21.3222 11.7067H12.8336L9.12114 15.4418Z" fill="#8E8CEE"/>
<path d="M9.10366 15.4418H7.44849V22.8901H9.10366V15.4418Z" fill="#B1B0F5"/>
<path d="M9.93119 19.5798H6.62085V21.2349H9.93119V19.5798Z" fill="#8E8CEE"/>
<path d="M19.8621 17.097H16.5518V18.7522H19.8621V17.097Z" fill="#8E8CEE"/>
<path d="M10.7587 6.33841H5.79321V7.166H10.7587V6.33841Z" fill="#FCFCFF"/>
<path d="M10.7587 7.99356H5.79321V8.82115H10.7587V7.99356Z" fill="#FCFCFF"/>
<path d="M10.7587 7.16599H5.79321V7.99357H10.7587V7.16599Z" fill="#E6E5FF"/>
</g>
<defs>
<clipPath id="clip0_7510_13940">
<rect width="24" height="24" fill="white"/>
</clipPath>
</defs>
</svg>
