<svg width="24" height="24" viewBox="0 0 24 24" fill="none" xmlns="http://www.w3.org/2000/svg">
<g clip-path="url(#clip0_8219_23875)">
<g clip-path="url(#clip1_8219_23875)">
<path d="M9.14975 11.6198C11.9995 11.6198 14.3097 9.30959 14.3097 6.4598C14.3097 3.61002 11.9995 1.2998 9.14975 1.2998C6.29996 1.2998 3.98975 3.61002 3.98975 6.4598C3.98975 9.30959 6.29996 11.6198 9.14975 11.6198Z" fill="#E6E5FF"/>
<path d="M6.57994 19.6696L4.41994 21.1796C4.35157 21.2275 4.27268 21.2582 4.18995 21.2691C4.10721 21.28 4.02307 21.2709 3.94461 21.2425C3.86615 21.214 3.7957 21.1671 3.73919 21.1057C3.68268 21.0443 3.64178 20.9702 3.61994 20.8896L2.93994 18.3396L6.47994 8.63965L10.1199 9.99965L8.11994 15.3696L6.48994 15.6596L7.48994 16.9896L6.57994 19.6696Z" fill="#E6E5FF"/>
<path d="M9.9399 5.5898C10.6523 5.5898 11.2299 5.01224 11.2299 4.2998C11.2299 3.58735 10.6523 3.0098 9.9399 3.0098C9.22745 3.0098 8.6499 3.58735 8.6499 4.2998C8.6499 5.01224 9.22745 5.5898 9.9399 5.5898Z" fill="white"/>
<path d="M15.99 13.9399C18.6189 13.9399 20.75 11.8088 20.75 9.17992C20.75 6.55105 18.6189 4.41992 15.99 4.41992C13.3611 4.41992 11.23 6.55105 11.23 9.17992C11.23 11.8088 13.3611 13.9399 15.99 13.9399Z" fill="#B1B0F5"/>
<path d="M21.8601 20.1094L21.1901 22.4494C21.1691 22.5233 21.1306 22.5911 21.078 22.6471C21.0253 22.7031 20.96 22.7456 20.8874 22.7711C20.8149 22.7966 20.7374 22.8043 20.6612 22.7935C20.5851 22.7828 20.5127 22.7539 20.4501 22.7094L18.4501 21.2794L15.3301 12.2794L18.7001 11.1094L20.4301 16.1094L19.4301 17.2594L21.0001 17.5994L21.8601 20.1094Z" fill="#B1B0F5"/>
<path d="M15.2999 8.37024C15.9571 8.37024 16.4899 7.83745 16.4899 7.18023C16.4899 6.52302 15.9571 5.99023 15.2999 5.99023C14.6426 5.99023 14.1099 6.52302 14.1099 7.18023C14.1099 7.83745 14.6426 8.37024 15.2999 8.37024Z" fill="white"/>
</g>
</g>
<defs>
<clipPath id="clip0_8219_23875">
<rect width="24" height="24" fill="white"/>
</clipPath>
<clipPath id="clip1_8219_23875">
<rect width="24" height="24" fill="white"/>
</clipPath>
</defs>
</svg>
