<svg width="24" height="24" viewBox="0 0 24 24" fill="none" xmlns="http://www.w3.org/2000/svg">
<path fill-rule="evenodd" clip-rule="evenodd" d="M11.7541 22.5556C11.7541 22.5556 20 17.0582 20 10.6447C20 8.4577 19.1313 6.3603 17.5849 4.81388C16.0384 3.26745 13.941 2.39868 11.7541 2.39868C9.56708 2.39868 7.46968 3.26745 5.92325 4.81388C4.37683 6.3603 3.50806 8.4577 3.50806 10.6447C3.50806 17.0582 11.7541 22.5556 11.7541 22.5556ZM14.5033 10.6453C14.5033 12.1633 13.2727 13.394 11.7547 13.394C10.2366 13.394 9.00601 12.1633 9.00601 10.6453C9.00601 9.12725 10.2366 7.89663 11.7547 7.89663C13.2727 7.89663 14.5033 9.12725 14.5033 10.6453Z" fill="url(#paint0_linear_14983_77482)"/>
<defs>
<linearGradient id="paint0_linear_14983_77482" x1="16.0077" y1="2.90652" x2="4.54137" y2="18.0288" gradientUnits="userSpaceOnUse">
<stop offset="0.448928" stop-color="#D0CFFF"/>
<stop offset="0.449028" stop-color="#BAB9FF"/>
</linearGradient>
</defs>
</svg>
