<svg width="24" height="24" viewBox="0 0 24 24" fill="none" xmlns="http://www.w3.org/2000/svg">
<path d="M18.6917 11.044L5.30818 11.044C4.25224 11.044 3.39624 11.9 3.39624 12.956L3.39624 19.6477C3.39624 20.7037 4.25224 21.5597 5.30818 21.5597L18.6917 21.5597C19.7477 21.5597 20.6037 20.7037 20.6037 19.6477L20.6037 12.956C20.6037 11.9 19.7477 11.044 18.6917 11.044Z" fill="url(#paint0_linear_3848_9629)"/>
<path d="M7.21997 11.044L7.21997 7.22018C7.21997 5.95249 7.72356 4.73671 8.61995 3.84032C9.51635 2.94393 10.7321 2.44034 11.9998 2.44034C13.2675 2.44034 14.4833 2.94393 15.3797 3.84032C16.2761 4.73671 16.7797 5.95249 16.7797 7.22018L16.7797 11.044" stroke="#8E8CEE" stroke-width="2" stroke-linecap="round" stroke-linejoin="round"/>
<defs>
<linearGradient id="paint0_linear_3848_9629" x1="14.6723" y1="11.044" x2="9.56306" y2="26.5265" gradientUnits="userSpaceOnUse">
<stop offset="0.448928" stop-color="#D0CFFF"/>
<stop offset="0.449028" stop-color="#BAB9FF"/>
</linearGradient>
</defs>
</svg>
