<svg width="24" height="24" viewBox="0 0 24 24" fill="none" xmlns="http://www.w3.org/2000/svg">
<path fill-rule="evenodd" clip-rule="evenodd" d="M19 13.4286H21L19 10.0952C19 5.62436 15.4183 2 11 2C6.58172 2 3 5.62436 3 10.0952C3 12.6517 4.17107 14.9314 6 16.415V22H15V19.1429H16C17.6569 19.1429 19 17.7997 19 16.1429V13.4286Z" fill="url(#paint0_linear_9873_34351)"/>
<circle cx="11" cy="10" r="5" fill="#F7F7FF"/>
<path d="M13.4351 8.18493L10.3926 11.0558L9.08333 9.82048C8.84362 9.59429 8.43794 9.59429 8.17979 9.82048C7.94007 10.0467 7.94007 10.4295 8.17979 10.6731L9.93156 12.326C10.0606 12.4478 10.2082 12.5 10.3741 12.5C10.5401 12.5 10.706 12.4478 10.8167 12.326L14.3202 9.02011C14.5599 8.79391 14.5599 8.41112 14.3202 8.16753C14.0805 7.94134 13.6748 7.94134 13.4351 8.18493Z" fill="#908EF0"/>
<defs>
<linearGradient id="paint0_linear_9873_34351" x1="11.5" y1="12" x2="23.141" y2="-0.507248" gradientUnits="userSpaceOnUse">
<stop offset="0.0002" stop-color="#D2D1FF"/>
<stop offset="0.0003" stop-color="#B1B0F5"/>
</linearGradient>
</defs>
</svg>
