<svg width="24" height="24" viewBox="0 0 24 24" fill="none" xmlns="http://www.w3.org/2000/svg">
<path d="M13.75 14.5C16.7876 14.5 19.25 12.0376 19.25 9C19.25 5.96243 16.7876 3.5 13.75 3.5C10.7124 3.5 8.25 5.96243 8.25 9C8.25 12.0376 10.7124 14.5 13.75 14.5Z" fill="#E6E5FF"/>
<path fill-rule="evenodd" clip-rule="evenodd" d="M19.0833 6C18.8335 3.19675 16.5038 1 13.6667 1C10.8295 1 8.49981 3.19675 8.25 6H19.0833Z" fill="#D3D2FF"/>
<path d="M7 6.09422C7 6.97585 7.94294 7.59882 8.78972 7.35341C9.96411 7.01305 11.6466 6.66356 13.625 6.65347C15.0895 6.65347 16.7986 6.83087 18.4767 7.33225C19.3244 7.58553 20.25 6.98834 20.25 6.10362V6.10362C20.25 5.66121 20.0087 5.25616 19.5989 5.08923C18.5994 4.68199 16.4968 4 13.625 4C10.7448 4 8.63831 4.68598 7.64233 5.09279C7.23813 5.25789 7 5.6576 7 6.09422V6.09422Z" fill="#D3D2FF"/>
<path fill-rule="evenodd" clip-rule="evenodd" d="M6.36683 17.248C7.242 16.4489 8.42899 16 9.66667 16H16.3333C17.571 16 18.758 16.4489 19.6332 17.248C20.5083 18.047 21 19.1308 21 20.2609V21.7826C21 22.455 20.403 23 19.6667 23C19.1212 23 6.87877 23 6.33333 23C5.59695 23 5 22.455 5 21.7826V20.2609C5 19.1308 5.49167 18.047 6.36683 17.248Z" fill="#E6E5FF"/>
<path d="M0 13.3182C0 12.1132 0.873045 11.5455 1.95 11.5455H11.05C12.127 11.5455 13 12.1132 13 13.3182V19.2273C13 20.4323 12.127 21 11.05 21H1.95C0.873044 21 0 20.4323 0 19.2273V13.3182Z" fill="#8E8CEE"/>
<path fill-rule="evenodd" clip-rule="evenodd" d="M3.6875 10.4818C3.6875 9.76385 4.15312 9.18182 4.7275 9.18182H8.27282C8.84719 9.18182 9.31282 9.76385 9.31282 10.4818V11.7818H8.131V10.3636H4.86932V11.7818H3.6875V10.4818Z" fill="#8E8CEE"/>
<rect x="5" y="18" width="2" height="3" rx="1" transform="rotate(-90 5 18)" fill="#B1B0F5"/>
</svg>
