<svg width="24" height="24" viewBox="0 0 24 24" fill="none" xmlns="http://www.w3.org/2000/svg">
<g clip-path="url(#clip0_2455_7653)">
<path d="M11.3408 5.53754C11.3408 6.29745 9.08199 6.91349 6.29563 6.91349C3.50928 6.91349 1.25049 6.29745 1.25049 5.53754C1.25049 4.77762 3.50928 4.16159 6.29563 4.16159C9.08199 4.16159 11.3408 4.77762 11.3408 5.53754Z" fill="#B1B0F5"/>
<path d="M11.3403 8.74808C11.3403 9.50799 9.0815 10.124 6.29514 10.124C3.50879 10.124 1.25 9.50799 1.25 8.74808C1.25 7.98816 3.50879 7.37213 6.29514 7.37213C9.0815 7.37213 11.3403 7.98816 11.3403 8.74808Z" fill="#E6E5FF"/>
<path d="M11.3403 11.9586C11.3403 12.7185 9.0815 13.3346 6.29514 13.3346C3.50879 13.3346 1.25 12.7185 1.25 11.9586C1.25 11.1987 3.50879 10.5827 6.29514 10.5827C9.0815 10.5827 11.3403 11.1987 11.3403 11.9586Z" fill="#E6E5FF"/>
<path d="M11.3403 15.1692C11.3403 15.9291 9.0815 16.5451 6.29514 16.5451C3.50879 16.5451 1.25 15.9291 1.25 15.1692C1.25 14.4092 3.50879 13.7932 6.29514 13.7932C9.0815 13.7932 11.3403 14.4092 11.3403 15.1692Z" fill="#E6E5FF"/>
<path fill-rule="evenodd" clip-rule="evenodd" d="M6.29514 6.91348C9.0815 6.91348 11.3403 6.29745 11.3403 5.53754V7.83078C11.3403 8.5907 9.0815 9.20673 6.29514 9.20673C3.50879 9.20673 1.25 8.5907 1.25 7.83078V5.53754C1.25 6.29745 3.50879 6.91348 6.29514 6.91348Z" fill="#8E8CEE"/>
<path fill-rule="evenodd" clip-rule="evenodd" d="M6.29514 10.124C9.0815 10.124 11.3403 9.50799 11.3403 8.74808V11.0413C11.3403 11.8012 9.0815 12.4173 6.29514 12.4173C3.50879 12.4173 1.25 11.8012 1.25 11.0413V8.74808C1.25 9.50799 3.50879 10.124 6.29514 10.124Z" fill="#8E8CEE"/>
<path fill-rule="evenodd" clip-rule="evenodd" d="M6.29514 13.3346C9.0815 13.3346 11.3403 12.7185 11.3403 11.9586V14.2519C11.3403 15.0118 9.0815 15.6278 6.29514 15.6278C3.50879 15.6278 1.25 15.0118 1.25 14.2519V11.9586C1.25 12.7185 3.50879 13.3346 6.29514 13.3346Z" fill="#8E8CEE"/>
<path fill-rule="evenodd" clip-rule="evenodd" d="M6.29514 16.5451C9.0815 16.5451 11.3403 15.9291 11.3403 15.1692V17.4624C11.3403 18.2223 9.0815 18.8384 6.29514 18.8384C3.50879 18.8384 1.25 18.2223 1.25 17.4624V15.1692C1.25 15.9291 3.50879 16.5451 6.29514 16.5451Z" fill="#8E8CEE"/>
<path d="M23.6982 11.4778C24.5033 15.8312 21.5653 19.9438 17.136 20.6636C12.7066 21.3834 8.46321 18.4379 7.65806 14.0846C6.8529 9.73123 9.7909 5.61861 14.2203 4.89877C18.6496 4.17894 22.893 7.12448 23.6982 11.4778Z" fill="url(#paint0_linear_2455_7653)"/>
<path fill-rule="evenodd" clip-rule="evenodd" d="M16.9082 19.432C20.6455 18.8246 23.1244 15.3546 22.445 11.6815C21.7657 8.00834 18.1853 5.52304 14.448 6.1304C10.7108 6.73776 8.23184 10.2078 8.91119 13.8809C9.59054 17.554 13.1709 20.0393 16.9082 19.432ZM17.136 20.6636C21.5653 19.9438 24.5033 15.8312 23.6982 11.4778C22.893 7.12448 18.6496 4.17894 14.2203 4.89877C9.7909 5.61861 6.8529 9.73123 7.65806 14.0846C8.46321 18.4379 12.7066 21.3834 17.136 20.6636Z" fill="url(#paint1_linear_2455_7653)"/>
<path d="M11.9686 12.2661L12.6744 12.1514C12.6824 11.7035 12.7459 11.2894 12.8649 10.9091C12.9869 10.5246 13.1572 10.1862 13.3757 9.8939C13.598 9.60101 13.864 9.36055 14.1738 9.17252C14.4872 8.98389 14.8388 8.85791 15.2284 8.79459C15.7467 8.71036 16.208 8.73772 16.6124 8.87669C17.0197 9.01144 17.3754 9.22529 17.6795 9.51824L17.2434 10.1696C17.211 10.2196 17.176 10.2662 17.1386 10.3095C17.1005 10.3492 17.041 10.3756 16.9602 10.3887C16.8793 10.4019 16.8004 10.3849 16.7236 10.3379C16.6504 10.2902 16.5633 10.2392 16.4624 10.1849C16.3608 10.127 16.2367 10.0802 16.09 10.0445C15.9433 10.0088 15.756 10.0095 15.5281 10.0465C15.1348 10.1104 14.825 10.2985 14.5988 10.6106C14.3762 10.9222 14.2567 11.3509 14.2403 11.8969L16.9035 11.4641L16.9867 11.9139C17.0027 12.0006 16.9795 12.09 16.917 12.182C16.8575 12.2698 16.7634 12.3242 16.6348 12.3451L14.2859 12.7268C14.2922 12.7816 14.3008 12.8379 14.3114 12.8957C14.3215 12.9499 14.3318 13.0059 14.3425 13.0637L14.3846 13.2913L16.6287 12.9266L16.7119 13.3764C16.728 13.4631 16.7047 13.5525 16.6422 13.6445C16.5827 13.7323 16.4905 13.7864 16.3655 13.8067L14.6177 14.0907C14.8232 14.649 15.0861 15.0473 15.4066 15.2855C15.727 15.5236 16.0839 15.6108 16.4772 15.5469C16.6427 15.52 16.7812 15.4807 16.8928 15.4291C17.0081 15.3769 17.1036 15.3204 17.1795 15.2597C17.259 15.1984 17.3232 15.1359 17.372 15.0721C17.4201 15.0047 17.4637 14.9437 17.5028 14.889C17.5456 14.8336 17.586 14.7861 17.6241 14.7465C17.6659 14.7062 17.7162 14.6812 17.775 14.6717C17.8228 14.6639 17.8627 14.6649 17.8948 14.6746C17.9299 14.68 17.9695 14.6996 18.0136 14.7334L18.7835 15.2111C18.6034 15.6498 18.3305 16.0067 17.9649 16.282C17.5993 16.5572 17.1537 16.7375 16.6281 16.823C16.1943 16.8935 15.7916 16.8863 15.4201 16.8016C15.0515 16.7126 14.7163 16.5587 14.4146 16.3398C14.1128 16.1209 13.8473 15.8422 13.6181 15.5035C13.3889 15.1649 13.1983 14.7791 13.0462 14.3461L12.3736 14.4554L12.2232 13.6426L12.8242 13.5449C12.8132 13.5057 12.8043 13.4681 12.7977 13.432C12.791 13.3958 12.784 13.3579 12.7766 13.3182C12.7659 13.2604 12.7556 13.2044 12.7455 13.1502C12.7392 13.0954 12.7325 13.0388 12.7255 12.9804L12.119 13.079L11.9686 12.2661Z" fill="#8E8CEE"/>
</g>
<defs>
<linearGradient id="paint0_linear_2455_7653" x1="17.8656" y1="7.85857" x2="13.038" y2="14.8132" gradientUnits="userSpaceOnUse">
<stop offset="0.78125" stop-color="#E6E5FF"/>
<stop offset="0.78135" stop-color="#D5D5FF"/>
<stop offset="1" stop-color="#D6D6FF"/>
</linearGradient>
<linearGradient id="paint1_linear_2455_7653" x1="12.8074" y1="11.2179" x2="15.6234" y2="7.161" gradientUnits="userSpaceOnUse">
<stop stop-color="#8E8CEE"/>
<stop offset="0.604167" stop-color="#8E8CEE"/>
<stop offset="0.604267" stop-color="#B1B0F5"/>
</linearGradient>
<clipPath id="clip0_2455_7653">
<rect width="24" height="24" fill="white"/>
</clipPath>
</defs>
</svg>
