<svg width="24" height="24" viewBox="0 0 24 24" fill="none" xmlns="http://www.w3.org/2000/svg">
<path d="M0 5C0 4.44772 0.447715 4 1 4H15C15.5523 4 16 4.44772 16 5V18H1C0.447715 18 0 17.5523 0 17V5Z" fill="url(#paint0_linear_8313_23815)"/>
<path d="M24 15H2V18H24V15Z" fill="#8E8CEE"/>
<path d="M20.0388 8H17V15H24V12.4516C24 11.9974 23.8454 11.5568 23.5617 11.2022L21.6005 8.75061C21.2209 8.27618 20.6463 8 20.0388 8Z" fill="#B1B0F5"/>
<path d="M21.8071 11.6113L20.9282 10.4096C20.7399 10.1522 20.44 10 20.1211 10H20.1143H19V13H22V12.2017C22 11.9894 21.9325 11.7827 21.8071 11.6113Z" fill="#F7F7FF"/>
<path d="M2 18.5C2 19.8807 3.11929 21 4.5 21C5.88071 21 7 19.8807 7 18.5C7 17.1193 5.88071 16 4.5 16C3.11929 16 2 17.1193 2 18.5Z" fill="#F7F7FF"/>
<path fill-rule="evenodd" clip-rule="evenodd" d="M4.5 20C3.67157 20 3 19.3284 3 18.5C3 17.6716 3.67157 17 4.5 17C5.32843 17 6 17.6716 6 18.5C6 19.3284 5.32843 20 4.5 20ZM4.5 21C3.11929 21 2 19.8807 2 18.5C2 17.1193 3.11929 16 4.5 16C5.88071 16 7 17.1193 7 18.5C7 19.8807 5.88071 21 4.5 21Z" fill="#8E8CEE"/>
<path d="M17 18.5C17 19.8807 18.1193 21 19.5 21C20.8807 21 22 19.8807 22 18.5C22 17.1193 20.8807 16 19.5 16C18.1193 16 17 17.1193 17 18.5Z" fill="#F7F7FF"/>
<path fill-rule="evenodd" clip-rule="evenodd" d="M19.5 20C18.6716 20 18 19.3284 18 18.5C18 17.6716 18.6716 17 19.5 17C20.3284 17 21 17.6716 21 18.5C21 19.3284 20.3284 20 19.5 20ZM19.5 21C18.1193 21 17 19.8807 17 18.5C17 17.1193 18.1193 16 19.5 16C20.8807 16 22 17.1193 22 18.5C22 19.8807 20.8807 21 19.5 21Z" fill="#8E8CEE"/>
<defs>
<linearGradient id="paint0_linear_8313_23815" x1="13.5" y1="1" x2="1.52539" y2="15.8929" gradientUnits="userSpaceOnUse">
<stop stop-color="#B1B0F5"/>
<stop offset="0.608323" stop-color="#B1B0F5"/>
<stop offset="0.608423" stop-color="#8E8CEE"/>
<stop offset="1" stop-color="#8E8CEE"/>
</linearGradient>
</defs>
</svg>
