<svg width="24" height="24" viewBox="0 0 24 24" fill="none" xmlns="http://www.w3.org/2000/svg">
<path d="M13.75 14.5C16.7876 14.5 19.25 12.0376 19.25 9C19.25 5.96243 16.7876 3.5 13.75 3.5C10.7124 3.5 8.25 5.96243 8.25 9C8.25 12.0376 10.7124 14.5 13.75 14.5Z" fill="#E6E5FF"/>
<path fill-rule="evenodd" clip-rule="evenodd" d="M19.0833 6C18.8335 3.19675 16.5038 1 13.6667 1C10.8295 1 8.49981 3.19675 8.25 6H19.0833Z" fill="#D3D2FF"/>
<path d="M7 6.09422C7 6.97585 7.94294 7.59882 8.78972 7.35341C9.96411 7.01305 11.6466 6.66356 13.625 6.65347C15.0895 6.65347 16.7986 6.83087 18.4767 7.33225C19.3244 7.58553 20.25 6.98834 20.25 6.10362V6.10362C20.25 5.66121 20.0087 5.25616 19.5989 5.08923C18.5994 4.68199 16.4968 4 13.625 4C10.7448 4 8.63831 4.68598 7.64233 5.09279C7.23813 5.25789 7 5.6576 7 6.09422V6.09422Z" fill="#D3D2FF"/>
<path fill-rule="evenodd" clip-rule="evenodd" d="M6.36683 17.248C7.242 16.4489 8.42899 16 9.66667 16H16.3333C17.571 16 18.758 16.4489 19.6332 17.248C20.5083 18.047 21 19.1308 21 20.2609V21.7826C21 22.455 20.403 23 19.6667 23C19.1212 23 6.87877 23 6.33333 23C5.59695 23 5 22.455 5 21.7826V20.2609C5 19.1308 5.49167 18.047 6.36683 17.248Z" fill="#E6E5FF"/>
<path fill-rule="evenodd" clip-rule="evenodd" d="M2 5.28333C2 4.57457 2.49249 4 3.1 4H5.9C6.50751 4 7 4.57457 7 5.28333V11H5.75V5.16667H3.25V11H2V5.28333Z" fill="#8E8CEE"/>
<path d="M0 12.65C0 11.7387 0.75552 11 1.6875 11H7.3125C8.24448 11 9 11.7387 9 12.65V20.35C9 21.2613 8.24448 22 7.3125 22H1.6875C0.75552 22 0 21.2613 0 20.35V12.65Z" fill="#8E8CEE"/>
<path d="M0 19H9V20.5C9 21.3284 8.32843 22 7.5 22H1.5C0.671573 22 0 21.3284 0 20.5V19Z" fill="#B1B0F5"/>
</svg>
