<svg width="24" height="24" viewBox="0 0 24 24" fill="none" xmlns="http://www.w3.org/2000/svg">
<path d="M17.5105 2.7588V2.7588C17.5105 1.34288 16.1995 0.290976 14.8173 0.597778L5.0564 2.76423C5.09998 2.76152 5.14629 2.7588 5.18987 2.7588H17.5105Z" fill="#B1B0F5"/>
<path fill-rule="evenodd" clip-rule="evenodd" d="M17.3968 3.57297C18.7775 3.57297 19.8968 4.6887 19.8968 6.06941V21.5067C19.8968 22.8874 18.7775 24 17.3968 24H6.60307C5.22236 24 4.10308 22.8843 4.10307 21.5036L4.10303 6.06737C4.10302 4.68666 5.22231 3.57297 6.60302 3.57297H17.3968ZM17.5105 14.9358C17.2163 15.6794 16.7696 16.3633 16.1839 16.9468C15.0644 18.0622 13.5798 18.6755 11.9972 18.6755C10.4145 18.6755 8.9299 18.0621 7.81037 16.9468C6.6908 15.8314 6.07518 14.3523 6.07518 12.7756C6.07518 11.1988 6.6908 9.7198 7.81037 8.60444C8.92993 7.48906 10.4145 6.87573 11.9972 6.87573C13.5798 6.87573 15.0644 7.48906 16.1839 8.60444C16.7696 9.18792 17.2163 9.86909 17.5105 10.6154C17.7775 11.2939 17.9191 12.0239 17.9191 12.7756C17.9191 13.5274 17.7802 14.2546 17.5105 14.9358Z" fill="#D0CFFE"/>
<path fill-rule="evenodd" clip-rule="evenodd" d="M17.5105 14.9358C17.2163 15.6794 16.7696 16.3633 16.1839 16.9468C15.0644 18.0622 13.5798 18.6755 11.9972 18.6755C10.4145 18.6755 8.92991 18.0621 7.81037 16.9468C7.10647 16.2455 6.60178 15.4005 6.32405 14.4778L4.10303 14.9667L4.10304 21.5016C4.10304 22.8823 5.22233 24 6.60304 24H17.3968C18.7775 24 19.8968 22.8807 19.8968 21.5V11.4904L17.8599 11.9387C17.8991 12.2136 17.9191 12.4931 17.9191 12.7756C17.9191 13.5274 17.7802 14.2546 17.5105 14.9358Z" fill="#8E8CEE"/>
<path fill-rule="evenodd" clip-rule="evenodd" d="M10.0848 9.6411C10.1611 9.44299 10.2455 9.25573 10.3381 9.07933C10.5724 8.62884 10.8502 8.2679 11.1445 8.02908C11.2915 7.90967 11.4413 7.82283 11.5912 7.76584V9.6411H10.0848ZM16.0149 9.64111C15.4919 8.97893 14.8081 8.44702 14.0209 8.10779C14.3233 8.53115 14.5821 9.04949 14.7836 9.64111H16.0149ZM6.91138 13.1799H8.73646C8.75822 13.777 8.82632 14.3469 8.93531 14.8761H7.35266C7.11295 14.3523 6.96041 13.7797 6.91138 13.1799ZM12.4084 13.1799H14.4459C14.4215 13.7743 14.3479 14.3469 14.228 14.8761H12.4084V13.1799ZM15.2602 12.3685C15.2357 11.6901 15.1513 11.0469 15.0151 10.4553H16.5378C16.8402 11.0387 17.0308 11.6846 17.0853 12.3685H15.2602ZM12.4084 17.7826C12.5582 17.7256 12.7081 17.6388 12.8552 17.5194C13.1493 17.2805 13.4272 16.9196 13.6615 16.4718C13.7868 16.2303 13.8984 15.9725 13.9938 15.6956H12.4084V17.7826ZM11.1446 17.5167C10.8503 17.2805 10.5725 16.9169 10.3382 16.4691C10.2129 16.2276 10.1012 15.9698 10.0059 15.6902H11.5913V17.7799C11.4414 17.7229 11.2916 17.636 11.1446 17.5167ZM9.77132 14.8788H11.5909V13.1827H9.5534C9.57791 13.7743 9.65143 14.3469 9.77132 14.8788ZM9.9782 17.4434C9.10924 17.0661 8.36287 16.4582 7.82352 15.6929H9.14466C9.35713 16.3741 9.64045 16.9684 9.9782 17.4434ZM9.5534 12.3658H11.5909V10.4525H9.8258C9.67325 11.0469 9.58064 11.6928 9.5534 12.3658ZM16.1756 15.6902C15.6363 16.4555 14.8899 17.0661 14.0209 17.4407C14.3614 16.9657 14.6447 16.3741 14.8545 15.6902H16.1756ZM15.0642 14.8788H16.6469C16.8866 14.355 17.0391 13.7824 17.0881 13.1827H15.263C15.2413 13.777 15.1732 14.3469 15.0642 14.8788ZM8.98162 10.4553H7.4589C7.15926 11.036 6.96586 11.6846 6.91138 12.3685H8.73646C8.76097 11.6901 8.84542 11.0469 8.98162 10.4553ZM12.8552 8.0318C13.1493 8.2679 13.4272 8.63155 13.6615 9.07933C13.7541 9.25573 13.8385 9.44298 13.9148 9.64381H12.4084V7.76855C12.5582 7.82554 12.7081 7.91239 12.8552 8.0318ZM14.1735 10.4553H12.4084V12.3685H14.4459C14.4187 11.6928 14.3261 11.0469 14.1735 10.4553ZM7.98201 9.63839C8.50502 8.97621 9.18875 8.4443 9.97598 8.10507C9.67362 8.52843 9.41756 9.04949 9.21326 9.63839H7.98201Z" fill="#B1B0F5"/>
</svg>
