<svg width="24" height="24" viewBox="0 0 24 24" fill="none" xmlns="http://www.w3.org/2000/svg">
<g clip-path="url(#clip0_635_14)">
<path d="M16.5 3.62132C16.8978 3.2235 17.4374 3 18 3C18.2786 3 18.5544 3.05487 18.8118 3.16148C19.0692 3.26808 19.303 3.42434 19.5 3.62132C19.697 3.8183 19.8532 4.05216 19.9598 4.30953C20.0665 4.5669 20.1213 4.84274 20.1213 5.12132C20.1213 5.3999 20.0665 5.67574 19.9598 5.93311C19.8532 6.19048 19.697 6.42434 19.5 6.62132L7 19.1213L3 20.1213L4 16.1213L16.5 3.62132Z" fill="#E6E5FF"/>
<path d="M11 15.1213L7 19.1213L3 20.1213L4 16.1213L5.5625 14.5588L11 15.1213Z" fill="#8E8CEE"/>
<path fill-rule="evenodd" clip-rule="evenodd" d="M15.8149 19.9677C14.6071 19.4862 12.1105 19.0273 9.2774 20.916C9.04764 21.0692 8.7372 21.0071 8.58403 20.7774C8.43085 20.5476 8.49294 20.2372 8.7227 20.084C11.8896 17.9727 14.7459 18.465 16.1852 19.0388C17.4285 19.5345 18.2273 19.7508 18.8751 19.7508C19.4921 19.7508 20.0209 19.5536 20.7233 19.0868C20.9533 18.934 21.2637 18.9966 21.4165 19.2266C21.5693 19.4566 21.5068 19.7669 21.2768 19.9197C20.4792 20.4497 19.758 20.7508 18.8751 20.7508C18.0228 20.7508 17.0716 20.4688 15.8149 19.9677Z" fill="#8E8CEE"/>
</g>
<defs>
<clipPath id="clip0_635_14">
<rect width="24" height="24" fill="white"/>
</clipPath>
</defs>
</svg>
