<svg width="24" height="24" viewBox="0 0 24 24" fill="none" xmlns="http://www.w3.org/2000/svg">
<path d="M19.7251 23.2495H4.66089C4.1086 23.2495 3.65182 22.7994 3.72327 22.2517C3.92784 20.6837 4.61172 19.6363 5.41826 18.9405C6.72752 17.811 8.38626 17.4702 12.1571 17.4702C15.899 17.4702 17.4515 17.828 18.7408 18.9405C19.5495 19.6384 20.3899 20.6873 20.6462 22.2533C20.7355 22.7983 20.2774 23.2495 19.7251 23.2495Z" fill="url(#paint0_linear_3717_9914)"/>
<path d="M14.6263 15.8807L15.0805 14.1173L9.16064 13.6803L9.82434 15.9022C9.98561 16.4421 9.94625 17.0222 9.71351 17.5353L9.89964 17.6707C11.2878 18.6802 13.1652 18.6916 14.5655 17.699L14.7965 17.5353C14.5439 17.0218 14.4835 16.4348 14.6263 15.8807Z" fill="#B1B0F5"/>
<path d="M7.33301 8.35646L7.58538 4.5075L12.9747 3.74777L17.3053 8.55511L16.2723 13.2035L12.9012 15.9004C12.5465 16.1842 12.0452 16.1932 11.6804 15.9225L9.67715 14.4352L8.40579 13.7995L7.33301 8.35646Z" fill="#E6E5FF"/>
<path d="M7.10621 1.20506C8.18913 0.719637 9.11461 0.680426 10.4719 0.949201C11.2029 1.09396 11.9534 1.12645 12.6904 1.01654C13.4461 0.903849 14.4389 0.786305 15.1848 0.807757C16.5661 0.847487 18.0729 2.3175 18.6171 3.15184C19.1612 3.98617 21.3558 9.28989 21.0448 9.82649C20.8651 10.1365 20.3762 10.4596 19.9953 10.6771C19.6786 10.8581 19.4097 11.1186 19.2516 11.4473L18.9784 12.0152C18.7746 12.4389 18.932 12.948 19.3394 13.1828L19.4201 13.2293C19.6484 13.3608 19.7891 13.6043 19.7891 13.8678C19.7891 14.0999 19.6797 14.318 19.5009 14.4659C18.8959 14.9667 17.6067 16.1473 18.3241 16.5806C19.0361 17.0107 17.7213 16.7757 17.0882 16.647C16.8802 16.6047 16.6825 16.5251 16.5004 16.4161L15.452 15.7887C15.0785 15.5652 14.8499 15.162 14.8499 14.7267C14.8499 14.4118 14.9699 14.1088 15.1856 13.8793L15.9641 13.0508C16.1385 12.8652 16.2558 12.6334 16.3022 12.3829L16.6852 10.3135C16.7228 10.1105 16.5144 9.95031 16.3279 10.0388C16.1751 10.1113 15.9956 10.0165 15.9694 9.84946L15.8431 9.04479C15.7774 8.62563 15.4136 8.3206 14.9969 8.24066C14.5413 8.15326 14.0049 7.96545 13.8035 7.56188C13.6252 7.20467 13.3157 6.66065 13.0391 6.1866C12.6866 5.58242 12.0367 5.2178 11.3372 5.2178H9.99124C9.82855 5.2178 9.66848 5.17692 9.52573 5.0989C8.94957 4.78403 8.23353 5.12007 8.10755 5.76445L7.67855 7.95876C7.63228 8.19547 7.6292 8.43859 7.66946 8.67639L8.26117 12.171C8.32692 12.5594 8.50588 12.9196 8.77559 13.2067L9.2246 13.6845C9.5578 14.0391 9.7433 14.5074 9.7433 14.994V15.5859C9.7433 15.9961 9.49761 16.3664 9.11968 16.5258C9.03354 16.5622 8.94282 16.5865 8.85006 16.5981L7.27951 16.795C6.94616 16.8368 6.60765 16.7939 6.29523 16.6704L5.39106 16.3128C5.30779 16.2799 5.23324 16.2282 5.17322 16.1617C4.87606 15.8326 5.04048 15.2968 5.45631 15.1429C5.86933 14.99 6.29246 14.7856 6.43656 14.5544C5.96821 14.3672 5.28213 14.0147 4.79718 13.7565C4.43791 13.5652 4.21811 13.1897 4.21811 12.7827C4.21811 12.5158 4.31317 12.2576 4.48624 12.0544L5.34046 11.0516C5.61999 10.7234 5.65777 10.2531 5.4342 9.88452L4.34053 8.08153C4.2592 7.94745 4.19392 7.80428 4.14604 7.65496L4.09775 7.50437C3.82272 6.64667 4.24235 5.85588 4.97522 5.33224C5.13359 5.21909 5.24472 5.10121 5.26446 4.97942C5.34817 4.46293 5.59941 1.88049 7.10621 1.20506Z" fill="#8E8CEE"/>
<defs>
<linearGradient id="paint0_linear_3717_9914" x1="13.4872" y1="16.667" x2="9.25475" y2="26.19" gradientUnits="userSpaceOnUse">
<stop stop-color="#8987FF"/>
<stop offset="0.484375" stop-color="#8A88FF"/>
<stop offset="0.484475" stop-color="#A09EFF"/>
</linearGradient>
</defs>
</svg>
