<svg width="24" height="24" viewBox="0 0 24 24" fill="none" xmlns="http://www.w3.org/2000/svg">
<path fill-rule="evenodd" clip-rule="evenodd" d="M3.3996 2.17693C3.3996 0.974645 4.37424 0 5.57653 0H14.0961C15.2984 0 16.2731 0.974646 16.2731 2.17693V4.98544H16.5149V7.16237H16.2731V21.8231C16.2731 23.0254 15.2984 24 14.0961 24H5.57653C4.37424 24 3.3996 23.0254 3.3996 21.8231V9.33931H3.15771V7.40426H3.3996V6.67861H3.15771V4.98544H3.3996V2.17693ZM4.67619 3.05039C4.67619 2.11528 5.43424 1.35722 6.36935 1.35722H13.3033C14.2384 1.35722 14.9965 2.11528 14.9965 3.05039V20.9496C14.9965 21.8847 14.2384 22.6428 13.3033 22.6428H6.36936C5.43424 22.6428 4.67619 21.8847 4.67619 20.9496V3.05039Z" fill="#E6E5FF"/>
<path d="M16.2729 7.89474V21.8231C16.2729 23.0254 15.2982 24 14.0959 24H5.57635C4.37406 24 3.39941 23.0254 3.39941 21.8231V12.6316L4.676 12.3158V20.9496C4.676 21.8847 5.43406 22.6428 6.36917 22.6428H13.3031C14.2382 22.6428 14.9963 21.8847 14.9963 20.9496V8.21053L16.2729 7.89474Z" fill="#B1B0F5"/>
<path fill-rule="evenodd" clip-rule="evenodd" d="M4.67627 3.05038C4.67627 2.11527 5.43433 1.35721 6.36944 1.35721H13.3034C14.2385 1.35721 14.9965 2.11527 14.9965 3.05038V20.9496C14.9965 21.8847 14.2385 22.6428 13.3034 22.6428H6.36944C5.43433 22.6428 4.67627 21.8847 4.67627 20.9496V3.05038Z" fill="#F7F7FF"/>
<path fill-rule="evenodd" clip-rule="evenodd" d="M14.9965 8.21054V20.9496C14.9965 21.8847 14.2385 22.6428 13.3034 22.6428H6.36944C5.43433 22.6428 4.67627 21.8847 4.67627 20.9496V12.3158L14.9965 8.21054Z" fill="#E6E5FF"/>
<path fill-rule="evenodd" clip-rule="evenodd" d="M12.6316 1.89474C11.5851 1.89474 10.7368 2.74305 10.7368 3.78948C10.7368 4.83592 11.5851 5.68422 12.6316 5.68422H13.3305V6.27548L14.513 5.68422H18.9473C19.9938 5.68422 20.8421 4.83592 20.8421 3.78948C20.8421 2.74305 19.9938 1.89474 18.9473 1.89474H12.6316ZM13.5421 3.65407C13.5421 3.8962 13.3458 4.09248 13.1037 4.09248C12.8615 4.09248 12.6653 3.8962 12.6653 3.65407C12.6653 3.41194 12.8615 3.21566 13.1037 3.21566C13.3458 3.21566 13.5421 3.41194 13.5421 3.65407ZM15.0326 4.09248C15.2748 4.09248 15.471 3.8962 15.471 3.65407C15.471 3.41194 15.2748 3.21566 15.0326 3.21566C14.7905 3.21566 14.5942 3.41194 14.5942 3.65407C14.5942 3.8962 14.7905 4.09248 15.0326 4.09248ZM17.4 3.65407C17.4 3.8962 17.2037 4.09248 16.9616 4.09248C16.7195 4.09248 16.5232 3.8962 16.5232 3.65407C16.5232 3.41194 16.7195 3.21566 16.9616 3.21566C17.2037 3.21566 17.4 3.41194 17.4 3.65407ZM18.8906 4.09248C19.1327 4.09248 19.329 3.8962 19.329 3.65407C19.329 3.41194 19.1327 3.21566 18.8906 3.21566C18.6484 3.21566 18.4522 3.41194 18.4522 3.65407C18.4522 3.8962 18.6484 4.09248 18.8906 4.09248Z" fill="#8E8CEE"/>
</svg>
