<svg width="24" height="24" viewBox="0 0 24 24" fill="none" xmlns="http://www.w3.org/2000/svg">
<path d="M21.9999 16.92V19.92C22.0011 20.1985 21.944 20.4742 21.8324 20.7294C21.7209 20.9845 21.5572 21.2136 21.352 21.4019C21.1468 21.5901 20.9045 21.7335 20.6407 21.8227C20.3769 21.9119 20.0973 21.9451 19.8199 21.92C16.7428 21.5856 13.7869 20.5342 11.1899 18.85C8.77376 17.3147 6.72527 15.2662 5.18993 12.85C3.49991 10.2412 2.44818 7.271 2.11993 4.18001C2.09494 3.90347 2.12781 3.62477 2.21643 3.36163C2.30506 3.09849 2.4475 2.85669 2.6347 2.65163C2.82189 2.44656 3.04974 2.28271 3.30372 2.17053C3.55771 2.05834 3.83227 2.00027 4.10993 2.00001H7.10993C7.59524 1.99523 8.06572 2.16708 8.43369 2.48354C8.80166 2.79999 9.04201 3.23945 9.10993 3.72001C9.23656 4.68007 9.47138 5.62273 9.80993 6.53001C9.94448 6.88793 9.9736 7.27692 9.89384 7.65089C9.81408 8.02485 9.6288 8.36812 9.35993 8.64001L8.08993 9.91001C9.51349 12.4136 11.5864 14.4865 14.0899 15.91L15.3599 14.64C15.6318 14.3711 15.9751 14.1859 16.3491 14.1061C16.723 14.0263 17.112 14.0555 17.4699 14.19C18.3772 14.5286 19.3199 14.7634 20.2799 14.89C20.7657 14.9585 21.2093 15.2032 21.5265 15.5775C21.8436 15.9518 22.0121 16.4296 21.9999 16.92Z" fill="#8E8CEE"/>
<path d="M2.11993 4.18001C2.44818 7.271 3.49991 10.2412 5.18993 12.85C6.17279 14.3967 7.36593 15.7928 8.73121 17L9.50761 12C8.98267 11.3442 8.50827 10.6457 8.08993 9.91001L9.35993 8.64001C9.6288 8.36812 9.81408 8.02485 9.89384 7.65089C9.9736 7.27692 9.94448 6.88793 9.80993 6.53001C9.47138 5.62273 9.23656 4.68007 9.10993 3.72001C9.04201 3.23945 8.80166 2.79999 8.43369 2.48354C8.06572 2.16708 7.59524 1.99523 7.10993 2.00001H4.10993C3.83227 2.00027 3.55771 2.05834 3.30372 2.17053C3.04974 2.28271 2.82189 2.44656 2.6347 2.65163C2.4475 2.85669 2.30506 3.09849 2.21643 3.36163C2.12781 3.62477 2.09494 3.90347 2.11993 4.18001Z" fill="#E6E5FF"/>
</svg>
