<svg width="24" height="24" viewBox="0 0 24 24" fill="none" xmlns="http://www.w3.org/2000/svg">
<path fill-rule="evenodd" clip-rule="evenodd" d="M5.56317 2.17693C5.56317 0.974645 6.53782 0 7.7401 0H16.2597C17.462 0 18.4366 0.974646 18.4366 2.17693V4.98544H18.6785V7.16237H18.4366V21.8231C18.4366 23.0254 17.462 24 16.2597 24H7.7401C6.53782 24 5.56317 23.0254 5.56317 21.8231V9.33931H5.32129V7.40426H5.56317V6.67861H5.32129V4.98544H5.56317V2.17693ZM6.83976 3.05039C6.83976 2.11528 7.59782 1.35722 8.53293 1.35722H15.4669C16.402 1.35722 17.16 2.11528 17.16 3.05039V20.9496C17.16 21.8847 16.402 22.6428 15.4669 22.6428H8.53293C7.59782 22.6428 6.83976 21.8847 6.83976 20.9496V3.05039Z" fill="#E6E5FF"/>
<path d="M18.4367 7.89474V21.8231C18.4367 23.0254 17.462 24 16.2598 24H7.74016C6.53788 24 5.56323 23.0254 5.56323 21.8231V12.6316L6.83982 12.3158V20.9496C6.83982 21.8847 7.59788 22.6428 8.53299 22.6428H15.4669C16.402 22.6428 17.1601 21.8847 17.1601 20.9496V8.21053L18.4367 7.89474Z" fill="#B1B0F5"/>
<path fill-rule="evenodd" clip-rule="evenodd" d="M6.83984 3.05038C6.83984 2.11527 7.5979 1.35721 8.53301 1.35721H15.4669C16.4021 1.35721 17.1601 2.11527 17.1601 3.05038V20.9496C17.1601 21.8847 16.4021 22.6428 15.4669 22.6428H8.53301C7.5979 22.6428 6.83984 21.8847 6.83984 20.9496V3.05038Z" fill="#F7F7FF"/>
<path fill-rule="evenodd" clip-rule="evenodd" d="M17.1601 8.21054V20.9496C17.1601 21.8847 16.4021 22.6428 15.4669 22.6428H8.53301C7.5979 22.6428 6.83984 21.8847 6.83984 20.9496V12.3158L17.1601 8.21054Z" fill="#E6E5FF"/>
</svg>
