<svg width="24" height="24" viewBox="0 0 24 24" fill="none" xmlns="http://www.w3.org/2000/svg">
<path fill-rule="evenodd" clip-rule="evenodd" d="M5.56317 2.17693C5.56317 0.974645 6.53782 0 7.7401 0H16.2597C17.462 0 18.4366 0.974646 18.4366 2.17693V4.98544H18.6785V7.16237H18.4366V21.8231C18.4366 23.0254 17.462 24 16.2597 24H7.7401C6.53782 24 5.56317 23.0254 5.56317 21.8231V9.33931H5.32129V7.40426H5.56317V6.67861H5.32129V4.98544H5.56317V2.17693ZM6.83976 3.05039C6.83976 2.11528 7.59782 1.35722 8.53293 1.35722H15.4669C16.402 1.35722 17.16 2.11528 17.16 3.05039V20.9496C17.16 21.8847 16.402 22.6428 15.4669 22.6428H8.53293C7.59782 22.6428 6.83976 21.8847 6.83976 20.9496V3.05039Z" fill="#E6E5FF"/>
<path d="M18.4364 7.89474V21.8231C18.4364 23.0254 17.4618 24 16.2595 24H7.73992C6.53763 24 5.56299 23.0254 5.56299 21.8231V12.6316L6.83958 12.3158V20.9496C6.83958 21.8847 7.59764 22.6428 8.53275 22.6428H15.4667C16.4018 22.6428 17.1598 21.8847 17.1598 20.9496V8.21053L18.4364 7.89474Z" fill="#B1B0F5"/>
<path fill-rule="evenodd" clip-rule="evenodd" d="M6.83984 3.05038C6.83984 2.11527 7.5979 1.35721 8.53301 1.35721H15.4669C16.4021 1.35721 17.1601 2.11527 17.1601 3.05038V20.9496C17.1601 21.8847 16.4021 22.6428 15.4669 22.6428H8.53301C7.5979 22.6428 6.83984 21.8847 6.83984 20.9496V3.05038Z" fill="#F7F7FF"/>
<path opacity="0.5" fill-rule="evenodd" clip-rule="evenodd" d="M17.1601 8.21054V20.9496C17.1601 21.8847 16.4021 22.6428 15.4669 22.6428H8.53301C7.5979 22.6428 6.83984 21.8847 6.83984 20.9496V12.3158L17.1601 8.21054Z" fill="#E6E5FF"/>
<g opacity="0.75">
<path d="M14.6355 16.6873H9.52539C8.9731 16.6873 8.49415 16.2227 8.69052 15.7065C8.82506 15.3528 9.02957 15.0886 9.25763 14.8919C9.80315 14.4213 10.4943 14.2792 12.0655 14.2792C13.6246 14.2792 14.2715 14.4283 14.8087 14.8919C15.039 15.0906 15.2754 15.3576 15.4361 15.7149C15.6626 16.2186 15.1878 16.6873 14.6355 16.6873Z" fill="url(#paint0_linear_3893_9711)"/>
<path d="M13.0942 13.617L13.2835 12.8822L10.8169 12.7001L11.0934 13.6259C11.1606 13.8509 11.1442 14.0926 11.0473 14.3064C11.672 14.7607 12.517 14.7659 13.1472 14.3192L13.1652 14.3064C13.0599 14.0924 13.0347 13.8479 13.0942 13.617Z" fill="#B1B0F5"/>
<path d="M10.0557 10.4818L10.1608 8.87811L12.4064 8.56155L14.2108 10.5646L13.7804 12.5015L12.7269 13.3443C12.3722 13.628 11.8708 13.6371 11.5061 13.3663L11.0324 13.0146L10.5027 12.7498L10.0557 10.4818Z" fill="#E6E5FF"/>
<path d="M9.96074 7.5021C10.216 7.3877 10.4502 7.33278 10.7078 7.32691C11.4528 7.30996 12.2003 7.40183 12.9435 7.34783C13.0787 7.33801 13.21 7.33319 13.3268 7.33655C13.9023 7.35311 14.5302 7.96561 14.7569 8.31325C14.9837 8.66089 15.8981 10.8708 15.7685 11.0944C15.6936 11.2235 15.4899 11.3581 15.3312 11.4488C15.1992 11.5242 15.0872 11.6327 15.0213 11.7697L14.9075 12.0063C14.8226 12.1829 14.8882 12.395 15.0579 12.4928L15.0915 12.5122C15.1866 12.567 15.2453 12.6685 15.2453 12.7783C15.2453 12.875 15.1997 12.9658 15.1252 13.0275C14.8731 13.2361 14.336 13.728 14.6348 13.9086C14.9068 14.0728 14.469 14.0042 14.191 13.9504C14.0571 13.9244 13.9299 13.8729 13.8128 13.8028L13.4382 13.5786C13.2825 13.4855 13.1873 13.3175 13.1873 13.1361C13.1873 13.0049 13.2373 12.8786 13.3271 12.783L13.6515 12.4378C13.7242 12.3605 13.7731 12.2639 13.7924 12.1595L13.952 11.2973C13.9676 11.2127 13.8808 11.1459 13.8031 11.1828C13.7395 11.213 13.6647 11.1735 13.6537 11.1039L13.6011 10.7686C13.5737 10.594 13.4221 10.4669 13.2485 10.4336C13.0587 10.3972 12.8352 10.3189 12.7513 10.1508C12.7098 10.0676 12.6512 9.96019 12.5875 9.84711C12.3499 9.42522 11.8974 9.17407 11.4132 9.17407H11.1628C11.095 9.17407 11.0284 9.15704 10.9689 9.12453C10.7288 8.99333 10.4305 9.13335 10.378 9.40184L10.207 10.2762C10.1826 10.4012 10.181 10.5297 10.2022 10.6553L10.4233 11.9609C10.4629 12.1947 10.5706 12.4115 10.733 12.5843L10.8434 12.7019C10.9822 12.8496 11.0595 13.0447 11.0595 13.2475V13.4941C11.0595 13.665 10.9572 13.8193 10.7997 13.8858C10.7638 13.9009 10.726 13.911 10.6873 13.9159L10.1713 13.9806C9.94162 14.0094 9.70842 13.9798 9.49319 13.8947L9.24609 13.797C9.21139 13.7833 9.18033 13.7617 9.15533 13.734C9.03151 13.5969 9.10002 13.3737 9.27328 13.3095C9.44537 13.2458 9.62168 13.1606 9.68172 13.0643C9.48657 12.9863 9.2007 12.8394 8.99864 12.7318C8.84895 12.6521 8.75736 12.4957 8.75736 12.3261C8.75736 12.2149 8.79697 12.1073 8.86908 12.0227L9.09198 11.761C9.28786 11.531 9.31434 11.2014 9.15766 10.9431L8.81295 10.3748C8.77602 10.314 8.74638 10.2489 8.72464 10.1811C8.59975 9.79168 8.80933 9.45532 9.11767 9.18661C9.15929 9.15035 9.18714 9.11301 9.19334 9.07475C9.22822 8.85954 9.3329 7.78353 9.96074 7.5021Z" fill="#8E8CEE"/>
</g>
<defs>
<linearGradient id="paint0_linear_3893_9711" x1="12.6197" y1="13.9446" x2="10.8562" y2="17.9125" gradientUnits="userSpaceOnUse">
<stop stop-color="#8987FF"/>
<stop offset="0.484375" stop-color="#8A88FF"/>
<stop offset="0.484475" stop-color="#A09EFF"/>
</linearGradient>
</defs>
</svg>
