<svg width="24" height="24" viewBox="0 0 24 24" fill="none" xmlns="http://www.w3.org/2000/svg">
<g clip-path="url(#clip0_3893_9734)">
<path fill-rule="evenodd" clip-rule="evenodd" d="M5.5371 4.52875C5.5371 3.45604 6.40671 2.58643 7.47943 2.58643H15.0809C16.1536 2.58643 17.0232 3.45604 17.0232 4.52875V7.0346H17.239V8.97693H17.0232V22.0577C17.0232 23.1304 16.1536 24 15.0809 24H7.47943C6.40671 24 5.5371 23.1304 5.5371 22.0577V10.9193H5.32129V9.19274H5.5371V8.5453H5.32129V7.0346H5.5371V4.52875ZM6.67612 5.30808C6.67612 4.47375 7.35248 3.79738 8.18682 3.79738H14.3735C15.2078 3.79738 15.8842 4.47375 15.8842 5.30808V21.2783C15.8842 22.1127 15.2078 22.789 14.3735 22.789H8.18682C7.35248 22.789 6.67612 22.1127 6.67612 21.2783V5.30808Z" fill="#E6E5FF"/>
<path d="M17.0232 9.63037V22.0577C17.0232 23.1304 16.1536 24 15.0809 24H7.47944C6.40672 24 5.53711 23.1304 5.53711 22.0577V13.8567L6.67612 13.575V21.2784C6.67612 22.1127 7.35249 22.7891 8.18683 22.7891H14.3735C15.2078 22.7891 15.8842 22.1127 15.8842 21.2784V9.91213L17.0232 9.63037Z" fill="#B1B0F5"/>
<path fill-rule="evenodd" clip-rule="evenodd" d="M6.67627 5.30806C6.67627 4.47373 7.35263 3.79736 8.18697 3.79736H14.3736C15.208 3.79736 15.8843 4.47373 15.8843 5.30806V21.2783C15.8843 22.1127 15.208 22.789 14.3736 22.789H8.18697C7.35263 22.789 6.67627 22.1127 6.67627 21.2783V5.30806Z" fill="#F7F7FF"/>
<path opacity="0.5" fill-rule="evenodd" clip-rule="evenodd" d="M15.8843 9.91214V21.2784C15.8843 22.1127 15.208 22.7891 14.3736 22.7891H8.18697C7.35263 22.7891 6.67627 22.1127 6.67627 21.2784V13.575L15.8843 9.91214Z" fill="#E6E5FF"/>
<path d="M13.1367 -0.145096L14.3753 2.63858L17.4147 2.85037L14.631 4.08893L14.4192 7.12834L13.1807 4.34466L10.1413 4.13287L12.9249 2.89431L13.1367 -0.145096Z" fill="#8E8CEE"/>
</g>
<defs>
<clipPath id="clip0_3893_9734">
<rect width="24" height="24" fill="white"/>
</clipPath>
</defs>
</svg>
