<svg width="24" height="24" viewBox="0 0 24 24" fill="none" xmlns="http://www.w3.org/2000/svg">
<path d="M3.58667 0.785925C3.58667 0.351871 3.93854 0 4.37259 0H19.6278C20.0619 0 20.4137 0.351871 20.4137 0.785925V23.214C20.4137 23.6481 20.0619 23.9999 19.6278 23.9999H4.37259C3.93854 23.9999 3.58667 23.6481 3.58667 23.214V0.785925Z" fill="#E6E5FF"/>
<path d="M17.7592 21.9891H5.94824C5.39596 21.9891 4.93612 21.5378 5.02667 20.993C5.22032 19.8278 5.75068 19.0365 6.37058 18.5017C7.43023 17.5875 8.77273 17.3116 11.8247 17.3116C14.8532 17.3116 16.1097 17.6012 17.1532 18.5017C17.775 19.0382 18.4198 19.831 18.6607 20.9954C18.7726 21.5362 18.3115 21.9891 17.7592 21.9891Z" fill="url(#paint0_linear_4798_9898)"/>
<path d="M13.8284 16.0251L14.1961 14.5979L9.40479 14.2442L9.94195 16.0425C10.0725 16.4795 10.0406 16.9489 9.85225 17.3642C11.0658 18.2468 12.7071 18.2568 13.9312 17.389L13.9662 17.3642C13.7617 16.9486 13.7128 16.4736 13.8284 16.0251Z" fill="#B1B0F5"/>
<path d="M7.93457 9.93559L8.13883 6.82042L12.5007 6.20554L16.0057 10.0964L15.1696 13.8586L12.556 15.9495C12.2013 16.2333 11.6999 16.2423 11.3352 15.9715L9.83181 14.8554L8.80283 14.3409L7.93457 9.93559Z" fill="#E6E5FF"/>
<path d="M7.75345 4.14765C8.57242 3.78054 9.28013 3.72875 10.2657 3.901C10.9997 4.02931 11.7486 4.06713 12.4867 3.96423C13.0633 3.88383 13.7563 3.81068 14.2918 3.82608C15.4098 3.85824 16.6294 5.048 17.0698 5.72327C17.5102 6.39854 19.2864 10.6911 19.0347 11.1254C18.8893 11.3763 18.4936 11.6378 18.1853 11.8139C17.9289 11.9603 17.7113 12.1712 17.5833 12.4372L17.3622 12.8969C17.1973 13.2398 17.3247 13.6518 17.6544 13.8418L17.7197 13.8795C17.9045 13.986 18.0184 14.183 18.0184 14.3963C18.0184 14.5841 17.9298 14.7606 17.7851 14.8804C17.2955 15.2856 16.2521 16.2412 16.8326 16.5919C17.3872 16.9268 16.4225 16.7633 15.8924 16.6577C15.6842 16.6162 15.4864 16.5363 15.3042 16.4274L14.5081 15.951C14.2059 15.7701 14.0208 15.4437 14.0208 15.0915C14.0208 14.8366 14.118 14.5913 14.2925 14.4056L14.9226 13.735C15.0637 13.5848 15.1587 13.3972 15.1962 13.1945L15.5062 11.5196C15.5366 11.3552 15.368 11.2256 15.217 11.2973C15.0934 11.356 14.9481 11.2792 14.9269 11.144L14.8247 10.4927C14.7715 10.1535 14.477 9.90662 14.1398 9.84193C13.771 9.77119 13.3369 9.61918 13.1739 9.29255C13.0525 9.04925 12.8558 8.69888 12.6632 8.36529C12.3133 7.75957 11.6625 7.39536 10.963 7.39536H10.0884C9.95678 7.39536 9.82723 7.36227 9.71169 7.29913C9.24537 7.04429 8.66584 7.31627 8.56388 7.8378L8.23002 9.54552C8.18374 9.78222 8.18066 10.0253 8.22092 10.2631L8.66899 12.9094C8.73475 13.2978 8.9137 13.6581 9.18341 13.9451L9.46797 14.2479C9.73765 14.5349 9.88778 14.9139 9.88778 15.3078V15.7868C9.88778 16.1188 9.68893 16.4185 9.38305 16.5476C9.31334 16.577 9.23991 16.5966 9.16484 16.6061L7.99058 16.7533C7.65722 16.7951 7.31871 16.7522 7.00629 16.6286L6.36529 16.3752C6.29789 16.3485 6.23755 16.3066 6.18898 16.2528C5.94847 15.9865 6.08154 15.5528 6.4181 15.4283C6.75238 15.3045 7.09484 15.1391 7.21146 14.9519C6.83241 14.8004 6.27712 14.5151 5.88462 14.3062C5.59385 14.1513 5.41596 13.8475 5.41596 13.518C5.41596 13.302 5.49289 13.0931 5.63297 12.9286L6.23507 12.2218C6.5146 11.8936 6.55237 11.4232 6.32881 11.0547L5.52393 9.72779C5.4522 9.60954 5.39462 9.48325 5.35239 9.35155C5.1098 8.59503 5.51689 7.94167 6.11584 7.41972C6.19667 7.34928 6.25077 7.27676 6.26282 7.20243C6.33058 6.78441 6.53391 4.69431 7.75345 4.14765Z" fill="#8E8CEE"/>
<defs>
<linearGradient id="paint0_linear_4798_9898" x1="12.9012" y1="16.6616" x2="9.47565" y2="24.3691" gradientUnits="userSpaceOnUse">
<stop stop-color="#8987FF"/>
<stop offset="0.484375" stop-color="#8A88FF"/>
<stop offset="0.484475" stop-color="#A09EFF"/>
</linearGradient>
</defs>
</svg>
