<svg width="24" height="24" viewBox="0 0 24 24" fill="none" xmlns="http://www.w3.org/2000/svg">
<g clip-path="url(#clip0_8271_23787)">
<path d="M20 19H13V14.7717C13 13.887 12.8008 12.915 12.2222 12.2895C11.6436 11.6639 10.675 11.1053 9.85675 11.1053H6L6 4H10.7534C11.9685 4 13.1717 4.25891 14.2942 4.76194C15.4166 5.26496 16.4364 6.00223 17.2952 6.9316C18.1539 7.86097 18.8348 8.9642 19.2989 10.1782C19.763 11.3923 20.0013 12.6933 20 14.0069V19Z" fill="#E6E5FF"/>
<path d="M12 20V22C12 22.5523 12.4477 23 13 23H20C20.5523 23 21 22.5523 21 22V20C21 19.4477 20.5523 19 20 19H13C12.4477 19 12 19.4477 12 20Z" fill="#8E8CEE"/>
<path d="M3 12H5C5.55228 12 6 11.5523 6 11L6 4C6 3.44771 5.55228 3 5 3H3C2.44772 3 2 3.44771 2 4L2 11C2 11.5523 2.44772 12 3 12Z" fill="#8E8CEE"/>
<path fill-rule="evenodd" clip-rule="evenodd" d="M13.825 5.75085C14.1234 4.2811 15.281 3.12341 16.7508 2.82505L16.7509 5.20128C16.523 5.33304 16.333 5.52301 16.2012 5.75085H13.825ZM13.825 7.25116C14.1234 8.72102 15.2812 9.8788 16.751 10.1771L16.751 7.80081C16.523 7.66902 16.333 7.47899 16.2011 7.25107L13.825 7.25116ZM18.8006 7.25097C18.6688 7.47881 18.4789 7.6688 18.2511 7.8006V10.1771C19.721 9.87875 20.8789 8.72085 21.1771 7.25088L18.8006 7.25097ZM21.177 5.75085C20.8787 4.28103 19.7209 3.12329 18.2511 2.825V5.20143C18.4788 5.33319 18.6687 5.5231 18.8005 5.75085H21.177ZM17.501 1.25C14.601 1.25 12.25 3.60097 12.25 6.50103C12.25 9.4011 14.601 11.7521 17.501 11.7521C20.4011 11.7521 22.7521 9.4011 22.7521 6.50103C22.7521 3.60097 20.4011 1.25 17.501 1.25Z" fill="#8E8CEE"/>
</g>
<defs>
<clipPath id="clip0_8271_23787">
<rect width="24" height="24" fill="white"/>
</clipPath>
</defs>
</svg>
