<svg width="24" height="24" viewBox="0 0 24 24" fill="none" xmlns="http://www.w3.org/2000/svg">
<path d="M7.96427 13C7.96427 13 7.06135 13 6.71215 13.9135L4.16301 21.3771C3.5993 22.6203 4.56708 24 5.99879 24H18.0012C19.4329 24 20.4007 22.6203 19.837 21.3771L17.5024 14.0265C17.223 13.405 16.5745 13.0047 15.8561 13.0047H7.96427V13Z" fill="url(#paint0_linear_9820_36213)"/>
<path d="M14.5 21C15.8807 21 17 19.8807 17 18.5C17 17.1193 15.8807 16 14.5 16C13.1193 16 12 17.1193 12 18.5C12 19.8807 13.1193 21 14.5 21Z" fill="white"/>
<path d="M9.69231 18H14V21H7C7 19.344 8.20615 18 9.69231 18Z" fill="white"/>
<path d="M12.3524 12C14.9194 12 17.0003 9.91122 17.0003 7.33459C17.0003 4.75796 14.9194 2.66919 12.3524 2.66919C9.7855 2.66919 7.70459 4.75796 7.70459 7.33459C7.70459 9.91122 9.7855 12 12.3524 12Z" fill="#D2D1FF"/>
<path d="M7.59033 7.09093C7.59033 4.5146 9.67154 2.42554 12.2382 2.42554C14.1645 2.42554 15.817 3.60225 16.5245 5.2818C15.4813 6.08528 12.2382 6.05418 10.1725 5.5358C9.81097 5.44249 9.65604 5.73279 9.63022 6.049C9.6044 6.36002 9.65088 6.68142 9.59407 6.98726C9.53727 7.2931 9.37717 7.57821 9.20675 7.83221C8.90206 8.27802 8.46826 8.70827 7.96732 8.92599C7.7246 8.36096 7.59033 7.74409 7.59033 7.09093V7.09093Z" fill="#7C7DE3"/>
<path d="M8.06571 5.14702C9.20657 5.14702 10.1314 4.21868 10.1314 3.07351C10.1314 1.92834 9.20657 1 8.06571 1C6.92485 1 6 1.92834 6 3.07351C6 4.21868 6.92485 5.14702 8.06571 5.14702Z" fill="#7C7DE3"/>
<defs>
<linearGradient id="paint0_linear_9820_36213" x1="13.2135" y1="11.4714" x2="2.41785" y2="23.4374" gradientUnits="userSpaceOnUse">
<stop stop-color="#8F8DEF"/>
<stop offset="0.484375" stop-color="#8F8DEF"/>
<stop offset="0.484475" stop-color="#A3A2F6"/>
</linearGradient>
</defs>
</svg>
