<svg width="24" height="24" viewBox="0 0 24 24" fill="none" xmlns="http://www.w3.org/2000/svg">
<path fill-rule="evenodd" clip-rule="evenodd" d="M19.492 10.8H22V15.2H19.514C19.316 15.992 19.008 16.74 18.59 17.422L20.372 19.204L17.248 22.328L15.444 20.524C14.762 20.942 14.014 21.25 13.222 21.448V24H8.8V21.47C8.008 21.25 7.26 20.942 6.578 20.546L4.774 22.35L1.65 19.226L3.454 17.422C3.058 16.74 2.728 15.992 2.53 15.2H0V10.8H2.508C2.728 10.008 3.036 9.26 3.454 8.578L1.672 6.796L4.796 3.672L6.556 5.432C7.238 5.014 8.008 4.684 8.8 4.486V2H13.2V4.486C13.992 4.706 14.74 5.014 15.444 5.432L17.204 3.672L20.328 6.796L18.568 8.556C18.964 9.26 19.294 10.008 19.492 10.8ZM10.9999 16.4571C12.9092 16.4571 14.4571 14.9093 14.4571 13C14.4571 11.0907 12.9092 9.54286 10.9999 9.54286C9.09059 9.54286 7.54277 11.0907 7.54277 13C7.54277 14.9093 9.09059 16.4571 10.9999 16.4571Z" fill="url(#paint0_linear_9064_25931)"/>
<circle cx="19" cy="5" r="5" fill="#8E8CEE"/>
<g clip-path="url(#clip0_9064_25931)">
<path fill-rule="evenodd" clip-rule="evenodd" d="M19 2.75C19.2761 2.75 19.5 2.97386 19.5 3.25V6.75C19.5 7.02614 19.2761 7.25 19 7.25C18.7239 7.25 18.5 7.02614 18.5 6.75V3.25C18.5 2.97386 18.7239 2.75 19 2.75Z" fill="#F7F7FF"/>
<path fill-rule="evenodd" clip-rule="evenodd" d="M16.8964 4.64645C17.0917 4.45118 17.4083 4.45118 17.6036 4.64645L19 6.04289L20.3964 4.64645C20.5917 4.45118 20.9083 4.45118 21.1036 4.64645C21.2988 4.84171 21.2988 5.15829 21.1036 5.35355L19.3536 7.10355C19.1583 7.29882 18.8417 7.29882 18.6464 7.10355L16.8964 5.35355C16.7012 5.15829 16.7012 4.84171 16.8964 4.64645Z" fill="#F7F7FF"/>
</g>
<defs>
<linearGradient id="paint0_linear_9064_25931" x1="8.89237" y1="9.11559" x2="-2.7365" y2="20.8969" gradientUnits="userSpaceOnUse">
<stop offset="0.0572917" stop-color="#E6E5FF"/>
<stop offset="0.0573917" stop-color="#BCBBFF"/>
</linearGradient>
<clipPath id="clip0_9064_25931">
<rect width="6" height="6" fill="white" transform="translate(16 2)"/>
</clipPath>
</defs>
</svg>
