<svg width="24" height="24" viewBox="0 0 24 24" fill="none" xmlns="http://www.w3.org/2000/svg">
<path d="M10.8088 2.64698C5.64328 3.30492 1.98916 8.02578 2.64711 13.1913C3.30505 18.3568 8.0259 22.0109 13.1914 21.353C18.3569 20.6951 22.0111 15.9742 21.3531 10.8087C20.6952 5.64315 15.9743 1.98904 10.8088 2.64698Z" fill="url(#paint0_linear_9485_31344)"/>
<path fill-rule="evenodd" clip-rule="evenodd" d="M12 23C5.92487 23 0.999999 18.0751 1 12C1 5.92487 5.92487 0.999999 12 1C18.0751 1 23 5.92487 23 12C23 18.0751 18.0751 23 12 23ZM12 21.4286C6.79274 21.4286 2.57143 17.2073 2.57143 12C2.57143 6.79274 6.79274 2.57143 12 2.57143C17.2073 2.57143 21.4286 6.79274 21.4286 12C21.4286 17.2073 17.2073 21.4286 12 21.4286Z" fill="url(#paint1_linear_9485_31344)"/>
<path d="M12.0739 13.6062C12.9203 13.6062 13.6065 12.92 13.6065 12.0736C13.6065 11.2271 12.9203 10.541 12.0739 10.541C11.2274 10.541 10.5413 11.2271 10.5413 12.0736C10.5413 12.92 11.2274 13.6062 12.0739 13.6062Z" fill="#8E8CEE"/>
<path d="M10.8473 9.97433L8.22054 5.63663C8.22054 5.63663 4.39402 7.5283 4.41045 12.0736H9.6613C9.6613 12.0736 9.51065 10.8072 10.8446 9.97696L10.8473 9.97433Z" fill="#8E8CEE"/>
<path d="M10.8931 14.0345L8.44873 18.5025C8.44873 18.5025 11.922 20.7486 15.8052 18.3818L13.2617 13.9486C13.2617 13.9486 12.251 14.7348 10.8931 14.0371V14.0345Z" fill="#8E8CEE"/>
<path d="M13.2996 9.97433L15.8013 5.63663C15.8013 5.63663 19.4456 7.53092 19.4299 12.0736H14.4265C14.4265 12.0736 14.57 10.8072 13.2996 9.97696V9.97433Z" fill="#8E8CEE"/>
<defs>
<linearGradient id="paint0_linear_9485_31344" x1="11.5" y1="12.5" x2="0.498925" y2="-0.0637339" gradientUnits="userSpaceOnUse">
<stop stop-color="#E3E2FF"/>
<stop offset="0.0001" stop-color="#D2D1FF"/>
</linearGradient>
<linearGradient id="paint1_linear_9485_31344" x1="12.5" y1="11.5" x2="2.29772" y2="-0.341274" gradientUnits="userSpaceOnUse">
<stop stop-color="#BCBBFF"/>
<stop offset="0.0001" stop-color="#A2A0FA"/>
</linearGradient>
</defs>
</svg>
