<svg width="24" height="24" viewBox="0 0 24 24" fill="none" xmlns="http://www.w3.org/2000/svg">
<path d="M16.978 7.58007C17.0368 10.3409 14.8459 12.5789 12.0845 12.5789C9.32309 12.5789 7.03685 10.3409 6.97805 7.58007C6.91925 4.81928 9.11016 2.58121 11.8716 2.58121C14.633 2.58121 16.9192 4.81928 16.978 7.58007Z" fill="#E6E5FF"/>
<path fill-rule="evenodd" clip-rule="evenodd" d="M12.1417 12.3322C14.7046 12.3322 16.759 10.2555 16.7302 7.69385C16.7014 5.13217 14.6004 3.05551 12.0375 3.05551C9.47453 3.05551 7.42017 5.13217 7.44894 7.69385C7.47771 10.2555 9.57871 12.3322 12.1417 12.3322ZM12.1513 13.1911C15.1889 13.1911 17.6237 10.7299 17.5896 7.69385C17.5555 4.65778 15.0654 2.19656 12.0278 2.19656C8.99027 2.19656 6.55547 4.65778 6.58957 7.69385C6.62366 10.7299 9.11374 13.1911 12.1513 13.1911Z" fill="#B1B0F5"/>
<path d="M9.9301 6.96836L10.3709 6.96915C10.4207 6.69642 10.5009 6.44988 10.6114 6.22955C10.7241 6.00695 10.8616 5.81735 11.0239 5.66077C11.1884 5.50419 11.3744 5.38403 11.5817 5.30028C11.7913 5.21653 12.0177 5.17488 12.2611 5.17531C12.5849 5.17589 12.8628 5.23891 13.0948 5.36437C13.3291 5.48756 13.5241 5.65387 13.6797 5.86332L13.3491 6.21739C13.3244 6.24463 13.2985 6.26959 13.2714 6.29228C13.2442 6.31269 13.2054 6.32286 13.1549 6.32277C13.1043 6.32267 13.0581 6.3044 13.016 6.26795C12.9763 6.23151 12.9284 6.19163 12.8725 6.14834C12.8165 6.10277 12.7457 6.06172 12.66 6.02519C12.5743 5.98866 12.4603 5.97026 12.318 5.97001C12.0723 5.96957 11.865 6.05332 11.6961 6.22126C11.5294 6.3892 11.4138 6.63908 11.3491 6.9709L13.0126 6.97387L13.0181 7.25694C13.0192 7.3115 12.9961 7.36375 12.9488 7.41369C12.9039 7.46135 12.8412 7.48511 12.7608 7.48497L11.2936 7.48234C11.292 7.51644 11.2915 7.55168 11.2922 7.58806C11.2929 7.62216 11.2936 7.6574 11.2943 7.69378L11.2971 7.83702L12.6989 7.83952L12.7044 8.12259C12.7054 8.17715 12.6824 8.2294 12.6351 8.27934C12.5901 8.327 12.5286 8.35076 12.4505 8.35062L11.3587 8.34867C11.4278 8.71028 11.5479 8.97991 11.7189 9.15755C11.89 9.33519 12.0984 9.42423 12.3441 9.42467C12.4474 9.42485 12.5356 9.41478 12.6087 9.39445C12.684 9.37412 12.7478 9.34923 12.8001 9.31977C12.8546 9.29031 12.8999 9.25856 12.936 9.22452C12.972 9.18821 13.0046 9.1553 13.0339 9.1258C13.0655 9.0963 13.0948 9.07134 13.122 9.05093C13.1515 9.03052 13.1845 9.02035 13.2213 9.02041C13.2511 9.02047 13.2753 9.02506 13.2939 9.03419C13.3147 9.04104 13.3368 9.057 13.3602 9.08205L13.7807 9.45111C13.6272 9.70092 13.4254 9.89154 13.1754 10.023C12.9254 10.1544 12.6363 10.2198 12.3079 10.2192C12.037 10.2187 11.7927 10.1739 11.5752 10.0849C11.3599 9.99356 11.1714 9.86591 11.0098 9.70192C10.8481 9.53794 10.7146 9.34104 10.6091 9.11123C10.5036 8.88142 10.4263 8.62664 10.3772 8.34691L9.95699 8.34616L9.947 7.8346L10.3224 7.83527C10.3196 7.81026 10.318 7.78638 10.3176 7.76365C10.3171 7.74091 10.3167 7.71704 10.3162 7.69203C10.3155 7.65565 10.3148 7.62041 10.3141 7.58631C10.3157 7.55221 10.3173 7.51697 10.3189 7.4806L9.94008 7.47992L9.9301 6.96836Z" fill="#8E8CEE"/>
<path d="M18.6327 0.797852L19.0986 2.66832L20.9691 3.1342L19.0986 3.60007L18.6327 5.47054L18.1669 3.60007L16.2964 3.1342L18.1669 2.66832L18.6327 0.797852Z" fill="#B1B0F5"/>
<path d="M15.2319 18.1811L16.8152 15.3653C17.1325 14.8018 17.9364 14.5587 18.611 14.8237C19.2856 15.0887 19.5767 15.7602 19.2594 16.3236L17.0863 20.1877" fill="#B1B0F5"/>
<path d="M13.1104 18.1811L14.6936 15.3653C15.0109 14.8018 15.8149 14.5587 16.4894 14.8237C17.164 15.0887 17.4551 15.7602 17.1379 16.3236L14.9647 20.1877" fill="#B1B0F5"/>
<path d="M4.96777 15.3521H9.14639C11.3999 15.3521 13.2326 16.9332 13.2326 18.8268V19.0877H17.4131L19.3445 15.6726C19.6089 15.1908 20.1823 14.8821 20.8141 14.8821C21.9701 14.8821 22.201 15.8702 21.7567 16.7666L19.4955 21.3196C19.3817 21.5495 19.2142 21.7587 19.0036 21.9357C19.0036 21.9357 17.3282 22.8819 16.5345 22.8821C15.7409 22.8822 13.2326 22.8821 13.2326 22.8821C12.6393 22.8821 10.3043 22.318 9.53894 21.9357L4.96777 20.3573V15.3521Z" fill="#E6E5FF"/>
<path d="M12.0619 17.6818H15.8649C16.6259 17.6818 17.2437 18.1449 17.2437 18.7153C17.2437 19.2857 16.6259 19.7488 15.8649 19.7488H10.647" fill="#E6E5FF"/>
<path fill-rule="evenodd" clip-rule="evenodd" d="M16.3956 17.1036L16.3047 17.074L15.9348 17.6388L16.0913 17.6889C16.5668 17.841 16.866 18.1777 16.866 18.5392C16.866 18.7831 16.7323 19.0128 16.4971 19.1861C16.262 19.3593 15.9322 19.4697 15.5654 19.4697H11.3501V20.1035H15.5654C16.1319 20.1035 16.6477 19.9344 17.0249 19.6559C17.4019 19.3776 17.6471 18.9836 17.6471 18.5392C17.6471 17.8799 17.1129 17.3374 16.3956 17.1036Z" fill="#B1B0F5"/>
<path d="M5.76135 15.3498H1.57896C1.58065 15.3498 1.57471 15.5968 1.57471 15.9015V21.1338C1.57471 21.4385 1.84912 21.6855 2.18763 21.6855H5.14842C5.48694 21.6855 5.76135 21.4385 5.76135 21.1338V15.9015V15.3498Z" fill="#8E8CEE"/>
</svg>
