<svg width="24" height="24" viewBox="0 0 24 24" fill="none" xmlns="http://www.w3.org/2000/svg">
<path d="M13 14.5C16.0376 14.5 18.5 12.0376 18.5 9C18.5 5.96243 16.0376 3.5 13 3.5C9.96243 3.5 7.5 5.96243 7.5 9C7.5 12.0376 9.96243 14.5 13 14.5Z" fill="#E6E5FF"/>
<path fill-rule="evenodd" clip-rule="evenodd" d="M6.36683 17.248C7.242 16.4489 8.42899 16 9.66667 16H16.3333C17.571 16 18.758 16.4489 19.6332 17.248C20.5083 18.047 21 19.1308 21 20.2609V21.7826C21 22.455 20.403 23 19.6667 23C19.1212 23 6.87877 23 6.33333 23C5.59695 23 5 22.455 5 21.7826V20.2609C5 19.1308 5.49167 18.047 6.36683 17.248Z" fill="#E6E5FF"/>
<path d="M12.3727 3.22059C13.4613 3.22059 14.7849 3.40343 15.3133 3.65312C15.41 2.13553 16.7496 0.75 18.3094 0.75C19.8692 0.75 21.25 2.05021 21.25 3.65312C21.25 5.25603 19.4953 6.74518 17.9499 6.30882C18.3388 7.13974 18.568 7.80426 18.568 8.77941C18.568 9.69159 18.568 10.0147 17.9499 11.25C17.9499 11.25 17.3317 10.9412 16.7135 10.0147C16.7135 10.0147 16.2125 9.20604 16.1364 8.77941C16.0582 8.34465 16.124 8.2587 16.087 7.82191C16.0479 7.377 15.8298 6.97271 15.3133 7.1007C12.3727 7.82597 9.23778 7.87473 7.75 6.74518C8.75214 4.39464 10.5318 3.22059 12.3727 3.22059Z" fill="#D3D2FF"/>
<path d="M9.8 11H12.5C13.3284 11 14 11.6716 14 12.5V18.25C14 19.0784 13.3284 19.75 12.5 19.75H9.16293C8.67158 19.75 8.19742 19.9309 7.8309 20.2581L7 21V12.25C7 12.25 7.61855 11.6693 8.12761 11.2296C8.30202 11.079 8.5256 11 8.75606 11L9.8 11Z" fill="#B1B0F5"/>
<path d="M4.2 11H1.5C0.671573 11 0 11.6716 0 12.5V18.25C0 19.0784 0.671571 19.75 1.5 19.75H4.83707C5.32842 19.75 5.80258 19.9309 6.1691 20.2581L7 21V12.25C7 12.25 6.38145 11.6693 5.87239 11.2296C5.69798 11.079 5.4744 11 5.24394 11L4.2 11Z" fill="#8E8CEE"/>
</svg>
