<svg width="24" height="24" viewBox="0 0 24 24" fill="none" xmlns="http://www.w3.org/2000/svg">
<path d="M5 4.19867C5 3.53666 5.54841 3 6.2249 3C10.7416 3 15.2584 3.00003 19.7751 3.00001C20.4516 3 21 3.53667 21 4.19868V22.8013C21 23.4633 20.4516 24 19.7751 24C15.2584 24 10.7416 24 6.2249 24C5.54841 24 5 23.4633 5 22.8013V4.19867Z" fill="#B1B0F5"/>
<path d="M3 2.19867C3 1.53666 3.54841 1 4.2249 1C8.74163 1 13.2584 1.00003 17.7751 1.00001C18.4516 1 19 1.53667 19 2.19868V20.8013C19 21.4633 18.4516 22 17.7751 22C13.2584 22 8.74163 22 4.2249 22C3.54841 22 3 21.4633 3 20.8013V2.19867Z" fill="#E6E5FF"/>
<path d="M5 4.064C5 3.47637 5.44772 3 6 3H16C16.5523 3 17 3.47637 17 4.064V11.936C17 12.5236 16.5523 13 16 13H6C5.44772 13 5 12.5236 5 11.936L5 4.064Z" fill="#F7F7FF"/>
<path fill-rule="evenodd" clip-rule="evenodd" d="M11.312 8.98874C11.7097 8.98874 12.0321 8.65201 12.0321 8.23663L12.0362 5.40752C12.0362 4.99214 11.7138 4.65541 11.3161 4.65541C10.9183 4.65541 10.5959 4.99214 10.5959 5.40752L10.5918 8.23663C10.5918 8.65201 10.9142 8.98874 11.312 8.98874Z" fill="#B1B0F5"/>
<path d="M12.0362 10.4332C12.0362 10.0343 11.7129 9.71098 11.314 9.71098C10.9151 9.71098 10.5918 10.0343 10.5918 10.4332C10.5918 10.8321 10.9151 11.1554 11.314 11.1554C11.7129 11.1554 12.0362 10.8321 12.0362 10.4332Z" fill="#B1B0F5"/>
<path d="M5 15.898C5 15.402 5.40795 15 5.91118 15H15.0888C15.5921 15 16 15.402 16 15.898V16.102C16 16.598 15.5921 17 15.0888 17H5.91118C5.40795 17 5 16.598 5 16.102V15.898Z" fill="#F7F7FF"/>
<path d="M5 18.898C5 18.402 5.42889 18 5.95795 18L12.0421 18C12.5711 18 13 18.402 13 18.8979V19.102C13 19.598 12.5711 20 12.0421 20L5.95795 20C5.42889 20 5 19.598 5 19.1021V18.898Z" fill="#F7F7FF"/>
</svg>
