<svg width="25" height="24" viewBox="0 0 25 24" fill="none" xmlns="http://www.w3.org/2000/svg">
<rect x="0.119385" y="0.961304" width="24" height="16.9231" rx="3" fill="#E6E5FF"/>
<path d="M6.81937 21.6266C6.96664 21.238 7.3389 20.981 7.75448 20.981H16.4574C16.8673 20.981 17.2356 21.2311 17.3868 21.6121L17.4418 21.7505C17.7024 22.407 17.2186 23.1194 16.5123 23.1194H7.70201C7.00233 23.1194 6.51896 22.4193 6.7669 21.765L6.81937 21.6266Z" fill="#B1B0F5"/>
<rect x="11.1479" y="17.1152" width="1.94317" height="5.93275" fill="#B1B0F5"/>
<path d="M0.119385 14.0712L24.1194 5.48203V14.8844C24.1194 16.5412 22.7762 17.8844 21.1194 17.8844H3.11938C1.46253 17.8844 0.119385 16.5412 0.119385 14.8844V14.0712Z" fill="#B1B0F5"/>
<rect x="1.43481" y="2.23456" width="21.369" height="14.3766" rx="1.5" fill="white"/>
<path d="M22.8038 5.78625V15.1111C22.8038 15.9395 22.1323 16.6111 21.3038 16.6111H2.93481C2.10639 16.6111 1.43481 15.9395 1.43481 15.1111V13.5895L22.8038 5.78625Z" fill="#F7F7FF"/>
<rect x="3.97803" y="9.07315" width="11.5382" height="1.0102" rx="0.505101" fill="#E6E5FF"/>
<rect x="3.97803" y="12.196" width="11.5382" height="1.0102" rx="0.505101" fill="#E6E5FF"/>
<rect x="3.97803" y="5.95035" width="6.23524" height="1.0102" rx="0.505101" fill="#8E8CEE"/>
</svg>
