<svg width="24" height="24" viewBox="0 0 24 24" fill="none" xmlns="http://www.w3.org/2000/svg">
<path d="M21.2208 6.65297C21.1983 6.06915 21.1983 5.50778 21.1983 4.96887C21.1983 4.54223 20.8615 4.20541 20.4349 4.20541C17.134 4.18296 14.6191 3.23986 12.5308 1.21893C12.2389 0.927022 11.7449 0.927022 11.453 1.21893C9.36468 3.23986 6.84976 4.18296 3.57137 4.18296C3.14473 4.18296 2.80791 4.51978 2.80791 4.94642C2.80791 5.48533 2.80791 6.0467 2.78545 6.65297C2.67318 12.1993 2.516 19.7665 11.7449 22.9551C11.8347 22.9775 11.9021 23 11.9919 23C12.0817 23 12.1715 22.9775 12.2389 22.9551C21.4678 19.7665 21.3106 12.1993 21.2208 6.65297Z" fill="#E3E2FF"/>
<path d="M21.2206 6.65298C21.1982 6.06915 21.1982 5.50779 21.1982 4.96887L4.82178 17.8536C6.13987 19.9453 8.28139 21.7585 11.7448 22.9551C11.8346 22.9776 11.9019 23 11.9918 23C12.0816 23 12.1714 22.9776 12.2388 22.9551C21.4676 19.7665 21.3105 12.1993 21.2206 6.65298Z" fill="#D2D1FF"/>
<circle cx="12.0002" cy="16.3144" r="1.23813" transform="rotate(-180 12.0002 16.3144)" fill="#8E8CEE"/>
<path fill-rule="evenodd" clip-rule="evenodd" d="M12.0036 13.8782C11.3198 13.8782 10.7654 13.3239 10.7654 12.6401L10.7584 7.98278C10.7584 7.29898 11.3127 6.74465 11.9965 6.74465C12.6803 6.74465 13.2346 7.29898 13.2346 7.98278L13.2417 12.6401C13.2417 13.3239 12.6874 13.8782 12.0036 13.8782Z" fill="#8E8CEE"/>
</svg>
