<svg width="24" height="24" viewBox="0 0 24 24" fill="none" xmlns="http://www.w3.org/2000/svg">
<path d="M21.2208 6.65297C21.1983 6.06915 21.1983 5.50778 21.1983 4.96887C21.1983 4.54223 20.8615 4.20541 20.4349 4.20541C17.134 4.18296 14.6191 3.23986 12.5308 1.21893C12.2389 0.927022 11.7449 0.927022 11.453 1.21893C9.36468 3.23986 6.84976 4.18296 3.57137 4.18296C3.14473 4.18296 2.80791 4.51978 2.80791 4.94642C2.80791 5.48533 2.80791 6.0467 2.78545 6.65297C2.67318 12.1993 2.516 19.7665 11.7449 22.9551C11.8347 22.9775 11.9021 23 11.9919 23C12.0817 23 12.1715 22.9775 12.2389 22.9551C21.4678 19.7665 21.3106 12.1993 21.2208 6.65297Z" fill="#E3E2FF"/>
<path d="M21.2206 6.65298C21.1982 6.06915 21.1982 5.50779 21.1982 4.96887L4.82178 17.8536C6.13987 19.9453 8.28139 21.7585 11.7448 22.9551C11.8346 22.9776 11.9019 23 11.9918 23C12.0816 23 12.1714 22.9776 12.2388 22.9551C21.4676 19.7665 21.3105 12.1993 21.2206 6.65298Z" fill="#D2D1FF"/>
<path fill-rule="evenodd" clip-rule="evenodd" d="M10.6898 8.59499C10.3431 8.84925 10.0331 9.30287 10.0331 10.1751C10.0331 10.5613 9.6899 10.8744 9.26655 10.8744C8.84319 10.8744 8.5 10.5613 8.5 10.1751C8.5 8.96262 8.95475 8.07278 9.72943 7.50477C10.4741 6.95876 11.408 6.78885 12.2229 6.78885C14.1513 6.78885 15.5469 8.23978 15.4988 10.1908C15.4839 10.7952 15.2127 11.2701 14.8789 11.6475C14.5894 11.9748 14.2216 12.2608 13.9142 12.4998C13.8854 12.5221 13.8572 12.5441 13.8296 12.5657C13.1123 13.1255 12.7267 13.4972 12.7267 14.0642C12.7267 14.4505 12.3835 14.7636 11.9601 14.7636C11.5368 14.7636 11.1936 14.4505 11.1936 14.0642C11.1936 12.7824 12.1652 12.0241 12.8239 11.5099L12.8329 11.5029C12.8533 11.487 12.8734 11.4713 12.8932 11.4559C13.2295 11.1936 13.4903 10.9902 13.6858 10.7692C13.8755 10.5547 13.9609 10.3685 13.9661 10.1594C13.9982 8.85633 13.1485 8.18753 12.2229 8.18753C11.6109 8.18753 11.0666 8.31872 10.6898 8.59499Z" fill="#8E8CEE"/>
<circle cx="12.0001" cy="16.9009" r="0.897566" fill="#8E8CEE"/>
</svg>
