<svg width="24" height="24" viewBox="0 0 24 24" fill="none" xmlns="http://www.w3.org/2000/svg">
<path d="M21.2208 6.65297C21.1983 6.06915 21.1983 5.50778 21.1983 4.96887C21.1983 4.54223 20.8615 4.20541 20.4349 4.20541C17.134 4.18296 14.6191 3.23986 12.5308 1.21893C12.2389 0.927022 11.7449 0.927022 11.453 1.21893C9.36468 3.23986 6.84976 4.18296 3.57137 4.18296C3.14473 4.18296 2.80791 4.51978 2.80791 4.94642C2.80791 5.48533 2.80791 6.0467 2.78545 6.65297C2.67318 12.1993 2.516 19.7665 11.7449 22.9551C11.8347 22.9775 11.9021 23 11.9919 23C12.0817 23 12.1715 22.9775 12.2389 22.9551C21.4678 19.7665 21.3106 12.1993 21.2208 6.65297Z" fill="#E3E2FF"/>
<path d="M21.2206 6.65298C21.1982 6.06915 21.1982 5.50779 21.1982 4.96887L4.82178 17.8536C6.13987 19.9453 8.28139 21.7585 11.7448 22.9551C11.8346 22.9776 11.9019 23 11.9918 23C12.0816 23 12.1714 22.9776 12.2388 22.9551C21.4676 19.7665 21.3105 12.1993 21.2206 6.65298Z" fill="#D2D1FF"/>
<path d="M14.6415 9.32508L10.9364 13.0301L9.34216 11.4358C9.05025 11.1439 8.55625 11.1439 8.24188 11.4358C7.94997 11.7277 7.94997 12.2217 8.24188 12.5361L10.3751 14.6693C10.5323 14.8265 10.7119 14.8939 10.914 14.8939C11.1161 14.8939 11.3182 14.8265 11.4529 14.6693L15.7193 10.4029C16.0112 10.111 16.0112 9.617 15.7193 9.30263C15.4274 9.01072 14.9334 9.01072 14.6415 9.32508Z" fill="#8E8CEE"/>
</svg>
