<svg width="24" height="24" viewBox="0 0 24 24" fill="none" xmlns="http://www.w3.org/2000/svg">
<circle cx="12" cy="12" r="10.2366" fill="#E6E5FF"/>
<path d="M11.989 1.76984C10.2754 1.77159 8.58956 2.20306 7.08578 3.02477C5.58201 3.84647 4.30831 5.03217 3.38123 6.47338V6.47338C2.07732 8.5183 1.54095 10.9594 1.86751 13.3626C2.19408 15.7657 3.3624 17.9752 5.16471 19.598C6.96702 21.2208 9.2865 22.1518 11.7106 22.2254C14.1348 22.299 16.5064 21.5104 18.4039 19.9999V19.9999C20.0553 18.6707 21.2538 16.862 21.8343 14.8231C22.4147 12.7842 22.3486 10.6155 21.6449 8.61577C20.9412 6.61605 19.6347 4.88379 17.9054 3.65769C16.176 2.43159 14.1089 1.77201 11.989 1.76984V1.76984ZM14.0385 4.08574C15.4545 4.45228 16.7467 5.191 17.781 6.22528C18.8152 7.25955 19.5539 8.55172 19.9205 9.96773C18.2071 10.016 16.5347 10.5029 15.0632 11.3819C14.3243 10.5436 13.5001 9.78463 12.6039 9.1172C13.5068 7.59133 14.0009 5.85836 14.0385 4.08574V4.08574ZM11.989 3.81931C11.9857 5.28984 11.5818 6.73167 10.8208 7.98999C10.6671 7.90801 10.5236 7.81579 10.3699 7.74405C9.05045 7.04784 7.63956 6.54075 6.17876 6.23769C6.94019 5.47172 7.84547 4.86376 8.84258 4.44873C9.83969 4.03371 10.909 3.8198 11.989 3.81931V3.81931ZM4.81586 8.08222C6.42308 8.30549 7.97965 8.8047 9.41693 9.55784L9.55015 9.63982C8.7938 10.3955 7.89578 10.9944 6.90753 11.4024C5.91929 11.8103 4.86026 12.0193 3.79113 12.0172C3.79682 10.6403 4.14924 9.28701 4.81586 8.08222V8.08222ZM9.93955 19.9487C8.52353 19.5821 7.23137 18.8434 6.19709 17.8091C5.16282 16.7749 4.4241 15.4827 4.05756 14.0667C5.42625 14.0363 6.77463 13.7292 8.0215 13.1639C9.26836 12.5986 10.3879 11.7867 11.3127 10.7773C12.0535 11.3249 12.7398 11.9426 13.3622 12.6218C12.3245 13.547 11.4859 14.6737 10.8975 15.9333C10.3091 17.1929 9.98319 18.5591 9.93955 19.9487V19.9487ZM11.989 20.2151C11.9912 19.0893 12.2253 17.976 12.6766 16.9447C13.128 15.9133 13.7869 14.9859 14.6124 14.2204C14.6738 14.3024 14.7353 14.3741 14.7866 14.4561C15.6453 15.7711 16.2823 17.2181 16.6721 18.7395C15.3006 19.7025 13.6649 20.2179 11.989 20.2151ZM18.3526 17.1409C17.9076 15.7852 17.2876 14.4933 16.5081 13.2981L16.2929 13.0419C17.4844 12.3791 18.8235 12.0267 20.1869 12.0172C20.1768 13.8841 19.5297 15.6917 18.3526 17.1409Z" fill="url(#paint0_radial_3717_9900)"/>
<defs>
<radialGradient id="paint0_radial_3717_9900" cx="0" cy="0" r="1" gradientUnits="userSpaceOnUse" gradientTransform="translate(1.77417 23.2485) rotate(-45.8918) scale(15.6658 15.6593)">
<stop stop-color="#8E8CEE"/>
<stop offset="0.9966" stop-color="#A09FF5"/>
<stop offset="1" stop-color="#BAB9FE"/>
</radialGradient>
</defs>
</svg>
