<svg width="24" height="24" viewBox="0 0 24 24" fill="none" xmlns="http://www.w3.org/2000/svg">
<g clip-path="url(#clip0_2059_7407)">
<path d="M21.1873 8.17093C21.4942 6.7528 20.0621 0.493401 13.9754 0.493408C12.4922 0.493408 9.19834 1.28561 7.88895 4.45442C5.76781 3.6718 3.69481 5.3542 3.69481 8.17093C2.8935 8.41544 1.23978 8.42386 1.23975 11.0561C1.23971 13.6884 3.30264 13.6642 4.35966 13.8924H21.1873C23.5698 13.5154 24.1785 8.17093 21.1873 8.17093Z" fill="#E6E5FF"/>
<path d="M12.5918 16.8732L14.5582 13.8634H11.1399L9.14717 17.435H10.7201L8.70264 22.4451L13.9842 16.8732H12.5918Z" fill="#8E8CEE"/>
<path fill-rule="evenodd" clip-rule="evenodd" d="M5.32608 14.2681C5.70095 14.4443 5.86203 14.8911 5.68585 15.2659L4.97978 16.7683C4.80359 17.1432 4.35687 17.3042 3.982 17.1281C3.60712 16.9519 3.44604 16.5052 3.62223 16.1303L4.3283 14.6279C4.50448 14.253 4.9512 14.092 5.32608 14.2681ZM3.20787 18.7752C3.58275 18.9514 3.74382 19.3981 3.56764 19.773L2.86157 21.2754C2.68539 21.6502 2.23867 21.8113 1.86379 21.6351C1.48891 21.4589 1.32784 21.0122 1.50402 20.6373L2.21009 19.135C2.38627 18.7601 2.83299 18.599 3.20787 18.7752Z" fill="#B1B0F5"/>
<path fill-rule="evenodd" clip-rule="evenodd" d="M8.32657 14.2681C8.70144 14.4443 8.86252 14.8911 8.68633 15.2659L7.98026 16.7683C7.80408 17.1432 7.35736 17.3042 6.98248 17.1281C6.60761 16.9519 6.44653 16.5052 6.62272 16.1303L7.32878 14.6279C7.50497 14.253 7.95169 14.092 8.32657 14.2681ZM6.20836 18.7752C6.58324 18.9514 6.74431 19.3981 6.56813 19.773L5.86206 21.2754C5.68588 21.6502 5.23915 21.8113 4.86428 21.6351C4.4894 21.4589 4.32833 21.0122 4.50451 20.6373L5.21058 19.135C5.38676 18.7601 5.83348 18.599 6.20836 18.7752Z" fill="#B1B0F5"/>
<path fill-rule="evenodd" clip-rule="evenodd" d="M18.038 14.2681C18.4129 14.4443 18.5739 14.8911 18.3978 15.2659L17.6917 16.7683C17.5155 17.1432 17.0688 17.3042 16.6939 17.1281C16.319 16.9519 16.158 16.5052 16.3341 16.1303L17.0402 14.6279C17.2164 14.253 17.6631 14.092 18.038 14.2681ZM15.9198 18.7752C16.2947 18.9514 16.4557 19.3981 16.2796 19.773L15.5735 21.2754C15.3973 21.6502 14.9506 21.8113 14.5757 21.6351C14.2008 21.4589 14.0398 21.0122 14.2159 20.6373L14.922 19.135C15.0982 18.7601 15.5449 18.599 15.9198 18.7752Z" fill="#B1B0F5"/>
<path d="M7.62848 13.8924H17.7748C18.0059 13.8924 18.3059 13.8473 18.6615 13.7647C22.8684 12.7872 21.3996 7.43507 17.0576 7.43507C16.074 2.51437 9.59969 3.96988 9.09995 7.43507C4.8773 7.8326 3.78526 13.8924 7.62848 13.8924Z" fill="#8E8CEE"/>
</g>
<defs>
<clipPath id="clip0_2059_7407">
<rect width="24" height="24" fill="white"/>
</clipPath>
</defs>
</svg>
