<svg width="24" height="24" viewBox="0 0 24 24" fill="none" xmlns="http://www.w3.org/2000/svg">
<path d="M11 0.5L3.00002 4C2.30004 4.33447 2.32445 5.08191 2.99987 5.5L11.5908 10.8746C11.8487 11.0418 12.1557 11.0418 12.4136 10.8746L21 5.5C21.6754 5.08191 21.6877 4.33447 21 4L13 0.5C12 0 12 0 11 0.5Z" fill="#8E8CEE"/>
<path d="M12 14.5C15.0376 14.5 17.5 12.0376 17.5 9C17.5 5.96243 15.0376 3.5 12 3.5C8.96243 3.5 6.5 5.96243 6.5 9C6.5 12.0376 8.96243 14.5 12 14.5Z" fill="#E6E5FF"/>
<path fill-rule="evenodd" clip-rule="evenodd" d="M5.36683 17.248C6.242 16.4489 7.42899 16 8.66667 16H15.3333C16.571 16 17.758 16.4489 18.6332 17.248C19.5083 18.047 20 19.1308 20 20.2609V21.7826C20 22.455 19.403 23 18.6667 23C18.1212 23 5.87877 23 5.33333 23C4.59695 23 4 22.455 4 21.7826V20.2609C4 19.1308 4.49167 18.047 5.36683 17.248Z" fill="#E6E5FF"/>
<rect x="6" y="3" width="12" height="3" fill="#8E8CEE"/>
<path d="M6.5 9.5C6.5 9.5 8.777 7.5099 12 7.4802C13.65 7.4802 15.674 7.9703 17.5 9.5V5.57921C17.5 5.57921 15.399 3.5 12 3.5C8.601 3.5 6.5 5.57921 6.5 5.57921V9.5Z" fill="#B1B0F5"/>
<rect x="3" y="5" width="1" height="6" fill="#8E8CEE"/>
<rect x="2.75" y="11" width="1.5" height="1.5" fill="#8E8CEE"/>
</svg>
