<svg width="24" height="24" viewBox="0 0 24 24" fill="none" xmlns="http://www.w3.org/2000/svg">
<path fill-rule="evenodd" clip-rule="evenodd" d="M2.21581 3.52875C2.21581 2.45604 3.08542 1.58643 4.15814 1.58643H11.7596C12.8323 1.58643 13.7019 2.45604 13.7019 3.52875V6.0346H13.9177V7.97693H13.7019V21.0577C13.7019 22.1304 12.8323 23 11.7596 23H4.15814C3.08542 23 2.21581 22.1304 2.21581 21.0577V9.91926H2V8.19274H2.21581V7.5453H2V6.0346H2.21581V3.52875ZM3.35483 4.30808C3.35483 3.47375 4.03119 2.79738 4.86553 2.79738H11.0522C11.8865 2.79738 12.5629 3.47375 12.5629 4.30808V20.2783C12.5629 21.1127 11.8865 21.789 11.0522 21.789H4.86553C4.03119 21.789 3.35483 21.1127 3.35483 20.2783V4.30808Z" fill="#E6E5FF"/>
<path d="M13.7019 8.63037V21.0577C13.7019 22.1304 12.8323 23 11.7596 23H4.15815C3.08543 23 2.21582 22.1304 2.21582 21.0577V12.8567L3.35483 12.575V20.2784C3.35483 21.1127 4.0312 21.7891 4.86554 21.7891H11.0522C11.8865 21.7891 12.5629 21.1127 12.5629 20.2784V8.91213L13.7019 8.63037Z" fill="#B1B0F5"/>
<path fill-rule="evenodd" clip-rule="evenodd" d="M3.35498 4.30806C3.35498 3.47373 4.03134 2.79736 4.86568 2.79736H11.0524C11.8867 2.79736 12.5631 3.47373 12.5631 4.30806V20.2783C12.5631 21.1127 11.8867 21.789 11.0524 21.789H4.86568C4.03135 21.789 3.35498 21.1127 3.35498 20.2783V4.30806Z" fill="#F7F7FF"/>
<path opacity="0.5" fill-rule="evenodd" clip-rule="evenodd" d="M12.5631 8.91214V20.2784C12.5631 21.1127 11.8867 21.7891 11.0524 21.7891H4.86568C4.03135 21.7891 3.35498 21.1127 3.35498 20.2784V12.575L12.5631 8.91214Z" fill="#E6E5FF"/>
<ellipse cx="16" cy="12" rx="7" ry="7" transform="rotate(-180 16 12)" fill="#8E8CEE"/>
<path d="M16 15.75L16 9.75" stroke="white" stroke-linecap="round" stroke-linejoin="round"/>
<path d="M18.5 11.25L16 8.75L13.5 11.25" stroke="white" stroke-linecap="round" stroke-linejoin="round"/>
</svg>
