<svg width="24" height="24" viewBox="0 0 24 24" fill="none" xmlns="http://www.w3.org/2000/svg">
<g clip-path="url(#clip0_11140_42436)">
<path fill-rule="evenodd" clip-rule="evenodd" d="M-4.94225e-05 12.9466C-8.38348e-05 13.3681 0.489458 13.6005 0.816053 13.334L2.4757 11.9798H12.7918C13.4586 11.9798 14 11.4108 14 10.7099V3.26889C14 2.56863 13.4586 2 12.7918 2H1.20846C0.541236 2 0.000217438 2.56829 0.000217438 3.26924V9.67778L-4.94225e-05 12.9466Z" fill="#E6E5FF"/>
<path d="M3 5.5C3 5.22386 3.22386 5 3.5 5H9C9.27614 5 9.5 5.22386 9.5 5.5V5.5C9.5 5.77614 9.27614 6 9 6H3.5C3.22386 6 3 5.77614 3 5.5V5.5Z" fill="white"/>
<path d="M3 7.5C3 7.22386 3.22386 7 3.5 7H5.5C5.77614 7 6 7.22386 6 7.5V7.5C6 7.77614 5.77614 8 5.5 8H3.5C3.22386 8 3 7.77614 3 7.5V7.5Z" fill="white"/>
<path d="M23.1943 22.3776L21.1667 20.8115H8.46912C7.65826 20.8115 7 20.1951 7 19.4357V10.3746C7 9.61602 7.65826 9 8.46912 9H22.5304C23.3417 9 23.9996 9.61564 23.9996 10.375V18.3176L23.9999 21.9819C23.9999 22.3972 23.5229 22.6315 23.1943 22.3776Z" fill="url(#paint0_linear_11140_42436)"/>
<path d="M21 13.648C21 13.2901 20.7099 13 20.352 13H10.648C10.2901 13 10 13.2901 10 13.648V13.648C10 14.0058 10.2901 14.2959 10.648 14.2959H20.352C20.7099 14.2959 21 14.0058 21 13.648V13.648Z" fill="white"/>
<path d="M21 16.2399C21 15.882 20.7099 15.5919 20.352 15.5919H15.148C14.7901 15.5919 14.5 15.882 14.5 16.2399V16.2399C14.5 16.5977 14.7901 16.8878 15.148 16.8878H20.352C20.7099 16.8878 21 16.5977 21 16.2399V16.2399Z" fill="white"/>
</g>
<defs>
<linearGradient id="paint0_linear_11140_42436" x1="15.1136" y1="15.6818" x2="7.50227" y2="23.6449" gradientUnits="userSpaceOnUse">
<stop stop-color="#BCBBFF"/>
<stop offset="0.0001" stop-color="#A2A0FA"/>
</linearGradient>
<clipPath id="clip0_11140_42436">
<rect width="24" height="24" fill="white"/>
</clipPath>
</defs>
</svg>
