<svg width="24" height="24" viewBox="0 0 24 24" fill="none" xmlns="http://www.w3.org/2000/svg">
<g clip-path="url(#clip0_2040_10)">
<path d="M18.7017 9.25375L17.0387 3.71908C16.8899 3.2231 16.3852 2.91967 15.8774 3.01887L11.8541 3.80953L7.8337 3.01887C7.32605 2.91967 6.8213 3.22018 6.6725 3.71908L4.99782 9.2975C1.97229 9.7614 0 10.5171 0 11.369C0 12.7782 5.3742 13.9219 12 13.9219C18.6287 13.9219 24 12.7782 24 11.369C24 10.4879 21.8994 9.7118 18.7017 9.25375Z" fill="#8E8CEE"/>
<path d="M18.7019 9.25375L17.0389 3.71908C16.8901 3.2231 16.3854 2.91967 15.8777 3.01887L11.8544 3.80953L7.83393 3.01887C7.32628 2.91967 6.82153 3.22018 6.67273 3.71908L4.99805 9.2975C4.99816 11.0324 19.1435 11.4178 18.7019 9.25375Z" fill="#B1B0F5"/>
<path d="M19.8977 15.6377C19.5826 15.2438 19.0953 15.0454 18.5935 15.1096C14.01 15.6873 9.48191 15.6902 5.12886 15.1154C4.62414 15.0483 4.1369 15.2438 3.81888 15.6406C3.50378 16.0344 3.41626 16.5538 3.59131 17.0264L3.673 17.2511C4.20984 18.7245 5.42356 19.8827 6.91736 20.3525L7.27916 20.4663C8.55996 20.8689 9.95456 20.5363 10.9174 19.5997C11.4425 19.0892 12.2682 19.0892 12.7934 19.5997C13.4848 20.2737 14.401 20.6355 15.3375 20.6355C15.7022 20.6355 16.0727 20.58 16.4316 20.4663L16.7934 20.3525C18.2901 19.8827 19.5038 18.7245 20.0377 17.2511L20.1223 17.0235C20.2945 16.5509 20.2128 16.0315 19.8977 15.6377ZM7.93266 18.669C6.89401 18.4852 6.11796 17.9571 6.20256 17.4874C6.28426 17.0177 7.19451 16.7872 8.23316 16.971C9.27186 17.1548 10.0479 17.6829 9.96331 18.1526C9.88161 18.6194 8.97131 18.8528 7.93266 18.669ZM15.781 18.669C14.7423 18.8528 13.832 18.6194 13.7503 18.1526C13.6686 17.6829 14.4418 17.1548 15.4805 16.971C16.5191 16.7872 17.4294 17.0206 17.5111 17.4874C17.5957 17.9571 16.8196 18.4852 15.781 18.669Z" fill="#8E8CEE"/>
</g>
<defs>
<clipPath id="clip0_2040_10">
<rect width="24" height="18" fill="white" transform="translate(0 3)"/>
</clipPath>
</defs>
</svg>
