<svg width="24" height="24" viewBox="0 0 24 24" fill="none" xmlns="http://www.w3.org/2000/svg">
<circle cx="12.066" cy="12.7634" r="8.43346" fill="#E2E1FF"/>
<path d="M18.5261 7.34246C21.52 10.9104 21.0546 16.2299 17.4866 19.2238L6.64478 6.30298C10.2128 3.30908 15.5322 3.77448 18.5261 7.34246Z" fill="#EFEEFF"/>
<path d="M21.3605 10.4129C22.341 15.714 18.7633 20.7221 13.3696 21.5987C7.9758 22.4752 2.80847 18.8884 1.82801 13.5872C0.847554 8.28599 4.42524 3.27793 9.81899 2.40137C15.2128 1.52481 20.3801 5.11167 21.3605 10.4129Z" fill="url(#paint0_linear_12003_51394)"/>
<path fill-rule="evenodd" clip-rule="evenodd" d="M13.0922 20.0989C17.6431 19.3593 20.6618 15.1337 19.8346 10.6609C19.0073 6.18798 14.6474 3.16156 10.0964 3.90116C5.5454 4.64076 2.52673 8.8663 3.35399 13.3392C4.18125 17.8121 8.54118 20.8385 13.0922 20.0989ZM13.3696 21.5987C18.7633 20.7221 22.341 15.714 21.3605 10.4129C20.3801 5.11167 15.2128 1.52481 9.81899 2.40137C4.42524 3.27793 0.847554 8.28599 1.82801 13.5872C2.80847 18.8884 7.9758 22.4752 13.3696 21.5987Z" fill="url(#paint1_linear_12003_51394)"/>
<circle cx="11.7204" cy="12.4819" r="1.66768" fill="#8E8CEE"/>
<path d="M11.0527 7.06421C11.0527 6.65 11.3885 6.31421 11.8027 6.31421V6.31421C12.2169 6.31421 12.5527 6.65 12.5527 7.06421V11.0642C12.5527 11.4784 12.2169 11.8142 11.8027 11.8142V11.8142C11.3885 11.8142 11.0527 11.4784 11.0527 11.0642V7.06421Z" fill="#8E8CEE"/>
<rect x="11.0527" y="13.3142" width="1.5" height="5" rx="0.75" transform="rotate(-90 11.0527 13.3142)" fill="#8E8CEE"/>
<defs>
<linearGradient id="paint0_linear_12003_51394" x1="14.258" y1="6.00559" x2="8.37939" y2="14.4745" gradientUnits="userSpaceOnUse">
<stop offset="0.6339" stop-color="#E6E5FF"/>
<stop offset="0.634" stop-color="#D5D5FF"/>
<stop offset="0.894422" stop-color="#D6D6FF"/>
</linearGradient>
<linearGradient id="paint1_linear_12003_51394" x1="8.0985" y1="10.0963" x2="11.5277" y2="5.15615" gradientUnits="userSpaceOnUse">
<stop stop-color="#8E8CEE"/>
<stop offset="0.0506533" stop-color="#8E8CEE"/>
<stop offset="0.0507533" stop-color="#B1B0F5"/>
</linearGradient>
</defs>
</svg>
