<svg width="24" height="24" viewBox="0 0 24 24" fill="none" xmlns="http://www.w3.org/2000/svg">
<g clip-path="url(#clip0_11650_44389)">
<path d="M10.6766 2.90983C11.419 2.16747 12.6226 2.16747 13.3649 2.90983L21.1317 10.6767C21.8741 11.419 21.8741 12.6226 21.1317 13.365L13.3649 21.1318C12.6226 21.8741 11.419 21.8741 10.6766 21.1318L2.90977 13.365C2.16742 12.6226 2.16742 11.419 2.90977 10.6767L10.6766 2.90983Z" fill="url(#paint0_linear_11650_44389)"/>
<path fill-rule="evenodd" clip-rule="evenodd" d="M14.2386 1.25945L22.7821 9.80295C24.007 11.0278 24.007 13.0138 22.7821 14.2387L14.2386 22.7822C13.0137 24.0071 11.0278 24.0071 9.8029 22.7822L1.25939 14.2387C0.034507 13.0138 0.0345063 11.0278 1.25939 9.80295L9.8029 1.25945C11.0278 0.0345647 13.0137 0.0345631 14.2386 1.25945ZM13.4993 3.11224C12.6827 2.29565 11.3588 2.29565 10.5422 3.11224L3.11224 10.6102C2.29565 11.4268 2.29565 12.7507 3.11224 13.5673L10.4308 20.8859C11.2474 21.7025 12.5713 21.7025 13.3879 20.8859L20.8859 13.3879C21.7025 12.5713 21.7025 11.2474 20.8859 10.4308L13.4993 3.11224Z" fill="url(#paint1_linear_11650_44389)"/>
<path fill-rule="evenodd" clip-rule="evenodd" d="M13.6869 12.3376L14.5503 7.54689L9.75966 8.41038L11.0956 9.74629L9.51898 11.3424C8.45048 12.4265 8.45111 14.1679 9.5204 15.2512L11.9428 17.8034L13.2634 16.5L10.8409 13.9478C10.4845 13.5867 10.4843 13.0062 10.8405 12.6448L12.4076 11.0583L13.6869 12.3376Z" fill="#8E8CEE"/>
</g>
<defs>
<linearGradient id="paint0_linear_11650_44389" x1="14.8524" y1="5.82303" x2="8.67441" y2="12.001" gradientUnits="userSpaceOnUse">
<stop offset="0.78125" stop-color="#E6E5FF"/>
<stop offset="0.78135" stop-color="#D5D5FF"/>
<stop offset="1" stop-color="#D6D6FF"/>
</linearGradient>
<linearGradient id="paint1_linear_11650_44389" x1="1.02123" y1="18.7948" x2="15.1356" y2="4.6805" gradientUnits="userSpaceOnUse">
<stop stop-color="#8E8CEE"/>
<stop offset="0.604167" stop-color="#8E8CEE"/>
<stop offset="0.604267" stop-color="#B1B0F5"/>
</linearGradient>
<clipPath id="clip0_11650_44389">
<rect width="24" height="24" fill="white"/>
</clipPath>
</defs>
</svg>
