<svg width="24" height="24" viewBox="0 0 24 24" fill="none" xmlns="http://www.w3.org/2000/svg">
<g clip-path="url(#clip0_2048_101)">
<path d="M14.703 18.5429H12.0249C11.7149 18.5429 11.4068 18.4949 11.1116 18.4005L6.61802 16.9644C5.76891 16.693 5.08447 16.0581 4.75021 15.2317L3.37847 11.8405C2.89637 10.6487 3.22732 9.2821 4.20131 8.44287L7.22009 5.84176C7.49743 5.60278 7.7287 5.31506 7.90245 4.99282L9.21731 2.55418C10.0228 1.06034 11.906 0.5315 13.3713 1.38765L16.6316 3.29249C17.1342 3.58617 17.5406 4.01976 17.8011 4.54038L18.0007 4.93921C18.1793 5.29632 18.2849 5.68551 18.3112 6.08396L18.5597 9.84675L19.3384 10.8616C20.1745 11.9513 20.1638 13.4696 19.3125 14.5475L17.0572 17.4025C16.4882 18.1228 15.6209 18.5429 14.703 18.5429Z" fill="#E6E5FF"/>
<path fill-rule="evenodd" clip-rule="evenodd" d="M12.1457 3.88287C12.6151 3.88287 12.9957 4.26343 12.9957 4.73287V8.08893L14.6851 7.21994C15.1025 7.00521 15.615 7.16955 15.8298 7.58701C16.0445 8.00446 15.8801 8.51694 15.4627 8.73167L12.9957 10.0006V13.8116L16.3775 12.1177C16.7972 11.9075 17.3079 12.0773 17.5181 12.4971C17.7283 12.9168 17.5585 13.4275 17.1388 13.6377L12.9957 15.7129V22.7888C12.9957 23.2582 12.6151 23.6388 12.1457 23.6388C11.6762 23.6388 11.2957 23.2582 11.2957 22.7888V12.9289L7.9649 11.6531C7.52651 11.4852 7.30725 10.9937 7.47516 10.5553C7.64308 10.117 8.13458 9.89769 8.57296 10.0656L11.2957 11.1085V4.73287C11.2957 4.26343 11.6762 3.88287 12.1457 3.88287Z" fill="#B1B0F5"/>
<path fill-rule="evenodd" clip-rule="evenodd" d="M12.1458 3.73288C12.698 3.73288 13.1458 4.18059 13.1458 4.73288V22.7888C13.1458 23.341 12.698 23.7888 12.1458 23.7888C11.5935 23.7888 11.1458 23.341 11.1458 22.7888V4.73288C11.1458 4.18059 11.5935 3.73288 12.1458 3.73288Z" fill="#8E8CEE"/>
</g>
<defs>
<clipPath id="clip0_2048_101">
<rect width="24" height="24" fill="white"/>
</clipPath>
</defs>
</svg>
