<svg width="24" height="24" viewBox="0 0 24 24" fill="none" xmlns="http://www.w3.org/2000/svg">
<path fill-rule="evenodd" clip-rule="evenodd" d="M4.90955 15.4263C5.81207 14.513 7.03614 14 8.3125 14H15.1875C16.4639 14 17.6879 14.513 18.5905 15.4263C19.493 16.3395 20 17.5781 20 18.8696V20.6087C20 21.3771 19.3844 22 18.625 22C18.0625 22 5.43748 22 4.875 22C4.11561 22 3.5 21.3771 3.5 20.6087V18.8696C3.5 17.5781 4.00703 16.3395 4.90955 15.4263Z" fill="url(#paint0_linear_9485_31345)"/>
<path d="M11.5451 13.1034C14.4727 13.1034 16.846 10.7297 16.846 7.80169C16.846 4.87365 14.4727 2.5 11.5451 2.5C8.61746 2.5 6.24414 4.87365 6.24414 7.80169C6.24414 10.7297 8.61746 13.1034 11.5451 13.1034Z" fill="#D2D1FF"/>
<path fill-rule="evenodd" clip-rule="evenodd" d="M11.5449 2.5C14.4722 2.5 16.8459 4.87398 16.8459 7.80169C16.8459 8.54393 16.6927 9.24493 16.4159 9.88702C15.8446 9.6455 15.3557 9.15657 15.0082 8.65585C14.8197 8.38488 14.6489 8.07267 14.5665 7.74867C14.5059 7.52324 14.5145 7.29589 14.5232 7.06771C14.5297 6.8964 14.5362 6.72463 14.5134 6.55285C14.4722 6.21118 14.2837 5.94021 13.9009 6.03446C11.5449 6.62354 7.84602 6.65888 6.65625 5.74581L8.01094 2.5H11.5449Z" fill="#8E8CEE"/>
<defs>
<linearGradient id="paint0_linear_9485_31345" x1="13.0014" y1="12.8883" x2="5.8518" y2="24.1253" gradientUnits="userSpaceOnUse">
<stop stop-color="#8F8DEF"/>
<stop offset="0.484375" stop-color="#8F8DEF"/>
<stop offset="0.484475" stop-color="#A3A2F6"/>
</linearGradient>
</defs>
</svg>
