<svg width="24" height="24" viewBox="0 0 24 24" fill="none" xmlns="http://www.w3.org/2000/svg">
<g clip-path="url(#clip0_14309_70789)">
<path d="M15.5696 3.5481L20.0841 8.06264C20.4685 8.44701 20.4718 9.07263 20.0915 9.45292L10.0377 19.5068C9.03513 20.5094 7.3946 20.5006 6.38128 19.4873L4.14497 17.251C3.13165 16.2377 3.1229 14.5972 4.12547 13.5946L14.1793 3.54069C14.5596 3.1604 15.1852 3.16374 15.5696 3.5481Z" fill="url(#paint0_linear_14309_70789)"/>
<path d="M21.4515 3.91019L19.2344 1.69307L16.2782 4.64923L18.4953 6.86635L21.4515 3.91019Z" fill="#D2D1FF"/>
<path d="M6.00201 19.1081L4.52393 17.6301L0.796788 21.3572C0.406264 21.7477 0.406264 22.3809 0.796788 22.7714L0.860656 22.8353C1.25118 23.2258 1.88435 23.2258 2.27487 22.8353L6.00201 19.1081Z" fill="#D2D1FF"/>
<path d="M12.6041 5.12684L11.562 6.16888L13.3025 7.90933C13.5902 8.19708 14.0567 8.19708 14.3445 7.90933C14.6323 7.62157 14.6323 7.15503 14.3445 6.86728L12.6041 5.12684Z" fill="#8E8CEE"/>
<path d="M9.36358 8.35619L8.32153 9.39824L10.062 11.1387C10.3497 11.4264 10.8163 11.4264 11.104 11.1387C11.3918 10.8509 11.3918 10.3844 11.104 10.0966L9.36358 8.35619Z" fill="#8E8CEE"/>
<path d="M6.12701 11.5931L5.08496 12.6352L6.8254 14.3756C7.11315 14.6634 7.5797 14.6634 7.86745 14.3756C8.1552 14.0879 8.1552 13.6213 7.86745 13.3336L6.12701 11.5931Z" fill="#8E8CEE"/>
<rect x="14.1316" y="0.632141" width="12.5419" height="2.09032" rx="1" transform="rotate(45 14.1316 0.632141)" fill="#E4E3FF"/>
<path d="M22.3307 4.54532L18.9089 1.12356C18.6232 0.837848 18.16 0.837847 17.8743 1.12356L17.8299 1.1679C17.5442 1.45362 17.5442 1.91685 17.8299 2.20256L21.2517 5.62432C21.5374 5.91003 22.0006 5.91003 22.2863 5.62432L22.3307 5.57998C22.6164 5.29426 22.6164 4.83103 22.3307 4.54532Z" fill="#D2D1FF"/>
<path d="M19.4574 16.2729H19.47L19.3438 16.0459C19.3438 16.0459 19.3312 16.0033 19.3186 15.9891L16.0126 10L12.7066 15.9749C12.7066 15.9749 12.6814 16.0175 12.6688 16.0317L12.5426 16.2587H12.5552C12.2145 16.9258 12 17.6779 12 18.5011C12 20.9847 13.7918 23 16 23C18.2082 23 20 20.9847 20 18.5011C20 17.6779 19.7855 16.9258 19.4448 16.2587L19.4574 16.2729Z" fill="#8E8CEE"/>
</g>
<defs>
<linearGradient id="paint0_linear_14309_70789" x1="11.3575" y1="12.6254" x2="12.6688" y2="23.0186" gradientUnits="userSpaceOnUse">
<stop stop-color="#E3E2FF"/>
<stop offset="0.0001" stop-color="#D2D1FF"/>
</linearGradient>
<clipPath id="clip0_14309_70789">
<rect width="24" height="24" fill="white"/>
</clipPath>
</defs>
</svg>
