<svg width="26" height="24" viewBox="0 0 26 24" fill="none" xmlns="http://www.w3.org/2000/svg">
<path d="M14.0593 21.5374L11.2061 17.5496L9.92352 17.8537L9.42225 15.739L4.7094 14.2941L7.31598 13.085L4.94074 7.99859L9.12722 8.77988L6.86488 2.35287L12.662 5.77417L13.9753 0.667368L16.8001 4.79326L19.4854 0.280884L20.0298 5.77417L24.3273 4.79326L22.399 10.2183L25.0146 12.423L20.7171 13.7702L21.2388 18.3246L17.8086 16.8385L17.8379 22.4154L14.7372 18.6834L14.0593 21.5374Z" fill="#E6E5FF"/>
<path d="M20.333 8.5995L20.2103 8.4348C19.7514 7.81845 18.9022 7.6503 18.2525 8.06068C17.4493 8.56805 16.2898 9.32045 14.9841 10.23C10.7576 13.1745 3.03082 19.5173 3.03082 19.5173C2.02559 20.1381 1.6206 19.4973 0.794638 19.89C0.197039 20.1741 2.27168 23.1636 3.12894 22.8253C3.98621 22.487 3.35963 21.681 4.46911 20.9904C7.80597 18.9135 13.0323 15.6231 17.2682 12.6925C18.9684 11.5162 19.4006 11.192 20.0398 10.6993C20.6926 10.1961 20.8252 9.26053 20.333 8.5995Z" fill="#B1B0F5"/>
<path d="M4.46956 20.9904C7.80642 18.9135 13.0328 15.6231 17.2687 12.6925L8.55196 15.085C5.58082 17.4244 3.03127 19.5173 3.03127 19.5173C2.02603 20.1381 1.62105 19.4973 0.795084 19.89C0.197485 20.1741 2.27212 23.1636 3.12939 22.8253C3.98665 22.487 3.36008 21.681 4.46956 20.9904Z" fill="#8E8CEE"/>
</svg>
