<svg width="24" height="24" viewBox="0 0 24 24" fill="none" xmlns="http://www.w3.org/2000/svg">
<path d="M0 6.5C0 3.73858 2.23858 1.5 5 1.5H19C21.7614 1.5 24 3.73858 24 6.5V13.5C24 16.2614 21.7614 18.5 19 18.5H5C2.23858 18.5 0 16.2614 0 13.5V6.5Z" fill="#E6E5FF"/>
<path fill-rule="evenodd" clip-rule="evenodd" d="M6.19598 16.748C6.96175 15.9489 8.00037 15.5 9.08333 15.5H14.9167C15.9996 15.5 17.0382 15.9489 17.804 16.748C18.5698 17.547 19 18.6308 19 19.7609V21.2826C19 21.955 18.4777 22.5 17.8333 22.5C17.3561 22.5 6.64392 22.5 6.16667 22.5C5.52233 22.5 5 21.955 5 21.2826V19.7609C5 18.6308 5.43021 17.547 6.19598 16.748Z" fill="#8E8CEE"/>
<path fill-rule="evenodd" clip-rule="evenodd" d="M8 10.5C8 8.29086 9.79086 6.5 12 6.5C14.2091 6.5 16 8.29086 16 10.5C16 12.7091 14.2091 14.5 12 14.5C9.79086 14.5 8 12.7091 8 10.5Z" fill="#8E8CEE"/>
</svg>
