<svg width="24" height="24" viewBox="0 0 24 24" fill="none" xmlns="http://www.w3.org/2000/svg">
<g clip-path="url(#clip0_14316_71067)">
<path d="M6 9.5C6 5.63401 9.13401 2.5 13 2.5V2.5C16.866 2.5 20 5.63401 20 9.5V14H6V9.5Z" fill="#D3D2FF"/>
<path d="M13 15C15.7614 15 18 12.7614 18 10C18 7.23858 15.7614 5 13 5C10.2386 5 8 7.23858 8 10C8 12.7614 10.2386 15 13 15Z" fill="#E6E5FF"/>
<path fill-rule="evenodd" clip-rule="evenodd" d="M6.36683 17.248C7.242 16.4489 8.42899 16 9.66667 16H16.3333C17.571 16 18.758 16.4489 19.6332 17.248C20.5083 18.047 21 19.1308 21 20.2609V21.7826C21 22.455 20.403 23 19.6667 23C19.1212 23 6.87877 23 6.33333 23C5.59695 23 5 22.455 5 21.7826V20.2609C5 19.1308 5.49167 18.047 6.36683 17.248Z" fill="#E6E5FF"/>
<rect x="0.00878906" y="8.63051" width="8.99122" height="12.3629" rx="2" transform="rotate(0.0751426 0.00878906 8.63051)" fill="#8E8CEE"/>
<path d="M-0.00292969 17.6217L8.98828 17.6335L8.98648 19.0052C8.98503 20.1098 8.08843 21.0041 6.98386 21.0026L1.99265 20.9961C0.888078 20.9946 -0.00617729 20.098 -0.00472866 18.9935L-0.00292969 17.6217Z" fill="#B1B0F5"/>
<path d="M18 8.28852C17.8934 6.77028 16.8622 5.45705 15.5169 4.63846C14.0692 3.7576 12.3512 3.81743 11 4.638C11.0013 6.28151 11.8112 7.8795 13.2588 8.76036C14.3562 9.42808 15.7419 8.76448 16.7395 9.22028C18.5 10.5 17.5 13 16.1935 14L18 12.0962V8.28852Z" fill="#D3D2FF"/>
<rect x="0.437744" y="9.40909" width="8.11611" height="8.11611" rx="4.05806" transform="rotate(0.114337 0.437744 9.40909)" fill="#8E8CEE"/>
<path fill-rule="evenodd" clip-rule="evenodd" d="M6.56618 12.1768C6.72492 12.335 6.72536 12.592 6.56715 12.7507L4.21264 15.1132C4.13631 15.1898 4.03257 15.2328 3.92444 15.2326C3.81631 15.2324 3.71273 15.189 3.63669 15.1121L2.50758 13.9706C2.34998 13.8112 2.35139 13.5543 2.51073 13.3967C2.67007 13.2391 2.92701 13.2405 3.08462 13.3998L3.9263 14.2508L5.99228 12.1778C6.15049 12.019 6.40743 12.0186 6.56618 12.1768Z" fill="#F4F4F9"/>
</g>
<defs>
<clipPath id="clip0_14316_71067">
<rect width="24" height="24" fill="white"/>
</clipPath>
</defs>
</svg>
