<svg width="24" height="24" viewBox="0 0 24 24" fill="none" xmlns="http://www.w3.org/2000/svg">
<path d="M3.62915 4.57666C3.62915 2.36752 5.42001 0.57666 7.62915 0.57666H15.8263C18.0355 0.57666 19.8263 2.36752 19.8263 4.57666V19.9365C19.8263 21.8695 18.2593 23.4365 16.3263 23.4365H7.62915C5.42001 23.4365 3.62915 21.6456 3.62915 19.4365V4.57666Z" fill="#EEEDFF"/>
<path d="M8.14476 0.563354L16.2602 23.4365H7.62866C5.41952 23.4365 3.62866 21.6456 3.62866 19.4365V4.56336C3.62866 2.35422 5.41952 0.563359 7.62866 0.563355L8.14476 0.563354Z" fill="#E1E0FF"/>
<path fill-rule="evenodd" clip-rule="evenodd" d="M11.7272 14.4586C14.4202 14.4586 16.6033 12.2755 16.6033 9.58252C16.6033 6.88951 14.4202 4.70639 11.7272 4.70639C9.03419 4.70639 6.85107 6.88951 6.85107 9.58252C6.85107 12.2755 9.03419 14.4586 11.7272 14.4586ZM9.79308 11.3572C9.95866 12.0242 10.2492 12.6945 10.6995 13.3466C9.63203 13.0559 8.74678 12.3231 8.25245 11.3572H9.79308ZM10.8042 11.3572C10.9806 11.941 11.2766 12.5266 11.7272 13.0967C12.1778 12.5266 12.4738 11.941 12.6502 11.3572H10.8042ZM12.8404 10.382H10.614C10.5721 9.93188 10.591 9.48864 10.654 9.06046C10.6636 8.99575 10.6741 8.93138 10.6856 8.86738H12.7688C12.7803 8.93138 12.7908 8.99575 12.8004 9.06046C12.8634 9.48864 12.8823 9.93188 12.8404 10.382ZM13.6613 11.3572C13.4957 12.0242 13.2052 12.6945 12.7549 13.3466C13.8224 13.0559 14.7076 12.3231 15.2019 11.3572H13.6613ZM15.5461 10.382H13.8188C13.8578 9.88295 13.8349 9.39193 13.7652 8.91837C13.7627 8.90135 13.7601 8.88435 13.7575 8.86738H15.5627C15.6056 9.09921 15.6281 9.33824 15.6281 9.58252C15.6281 9.85653 15.5998 10.1239 15.5461 10.382ZM9.6356 10.382H7.9083C7.85455 10.1239 7.8263 9.85653 7.8263 9.58252C7.8263 9.33824 7.84875 9.09921 7.89171 8.86738H9.69692C9.6943 8.88435 9.69173 8.90135 9.68922 8.91837C9.61948 9.39193 9.59655 9.88295 9.6356 10.382ZM9.91628 7.89215H8.21057C8.72095 6.83228 9.69637 6.03855 10.8722 5.77561C10.5024 6.36851 10.1524 7.09077 9.91628 7.89215ZM11.7272 6.24769C11.4328 6.71268 11.1493 7.27305 10.9392 7.89215H12.5152C12.3051 7.27305 12.0216 6.71268 11.7272 6.24769ZM13.5381 7.89215H15.2438C14.7334 6.83228 13.758 6.03855 12.5822 5.77561C12.952 6.36851 13.302 7.09077 13.5381 7.89215Z" fill="#8E8CEE"/>
<rect x="6.48706" y="17.8257" width="10.4805" height="0.952776" rx="0.476388" fill="#8E8CEE"/>
</svg>
