<svg width="24" height="24" viewBox="0 0 24 24" fill="none" xmlns="http://www.w3.org/2000/svg">
<path d="M23.8993 11.7217L23.9027 11.7262L23.9042 11.7282C24.0319 11.899 24.0319 12.101 23.9042 12.2718L23.9027 12.2738L23.8993 12.2783L23.8881 12.2929C23.8787 12.3052 23.8653 12.3224 23.8479 12.3444C23.8132 12.3882 23.7627 12.4507 23.6967 12.5292C23.5646 12.6861 23.37 12.9075 23.1146 13.1719C22.6049 13.6994 21.8474 14.4044 20.8556 15.1116C18.8886 16.5143 15.8922 18 12.0001 18C8.10801 18 5.11157 16.5143 3.14452 15.1116C2.15272 14.4044 1.39523 13.6994 0.885577 13.1719C0.630187 12.9075 0.43555 12.6861 0.303504 12.5292C0.237446 12.4507 0.186951 12.3882 0.152252 12.3444C0.1349 12.3224 0.121489 12.3052 0.112048 12.2929L0.100866 12.2783L0.0975121 12.2738L0.0956539 12.2713C-0.0321006 12.1005 -0.0317763 11.899 0.0959782 11.7282L0.0975121 11.7262L0.100866 11.7217L0.112048 11.7071C0.121489 11.6948 0.1349 11.6776 0.152252 11.6556C0.186951 11.6118 0.237446 11.5493 0.303504 11.4708C0.43555 11.3139 0.630187 11.0925 0.885577 10.8281C1.39523 10.3006 2.15272 9.59564 3.14452 8.8884C5.11157 7.48571 8.10801 6 12.0001 6C15.8922 6 18.8886 7.48571 20.8556 8.8884C21.8474 9.59564 22.6049 10.3006 23.1146 10.8281C23.37 11.0925 23.5646 11.3139 23.6967 11.4708C23.7627 11.5493 23.8132 11.6118 23.8479 11.6556C23.8653 11.6776 23.8787 11.6948 23.8881 11.7071L23.8993 11.7217Z" fill="#E6E5FF"/>
<path fill-rule="evenodd" clip-rule="evenodd" d="M15.2729 21.6818C12.2604 21.6818 9.81836 19.2397 9.81836 16.2273C9.81836 13.2148 12.2604 10.7727 15.2729 10.7727C18.2854 10.7727 20.7275 13.2148 20.7275 16.2273C20.7275 19.2397 18.2854 21.6818 15.2729 21.6818Z" fill="#BBBAFF"/>
<path fill-rule="evenodd" clip-rule="evenodd" d="M7.63623 11.8636C7.63623 9.45367 9.5899 7.5 11.9999 7.5C14.4098 7.5 16.3635 9.45367 16.3635 11.8636C16.3635 14.2736 14.4098 16.2273 11.9999 16.2273C9.5899 16.2273 7.63623 14.2736 7.63623 11.8636Z" fill="#8E8CEE"/>
<mask id="mask0_16150_79397" style="mask-type:alpha" maskUnits="userSpaceOnUse" x="7" y="7" width="10" height="10">
<path fill-rule="evenodd" clip-rule="evenodd" d="M7.63623 11.8636C7.63623 9.45367 9.5899 7.5 11.9999 7.5C14.4098 7.5 16.3635 9.45367 16.3635 11.8636C16.3635 14.2736 14.4098 16.2273 11.9999 16.2273C9.5899 16.2273 7.63623 14.2736 7.63623 11.8636Z" fill="#B1B0F5"/>
</mask>
<g mask="url(#mask0_16150_79397)">
<path fill-rule="evenodd" clip-rule="evenodd" d="M15.2729 21.6818C12.2604 21.6818 9.81836 19.2397 9.81836 16.2273C9.81836 13.2148 12.2604 10.7727 15.2729 10.7727C18.2854 10.7727 20.7275 13.2148 20.7275 16.2273C20.7275 19.2397 18.2854 21.6818 15.2729 21.6818Z" fill="#CCCBFF"/>
</g>
<path d="M24 12C15 2.95238 6.31579 5.2933 0 12C0.6 8.8254 4.32 2 12 2C19.68 2 23 8.8254 24 12Z" fill="#CCCBFF"/>
</svg>
