<svg width="24" height="24" viewBox="0 0 24 24" fill="none" xmlns="http://www.w3.org/2000/svg">
<path d="M23.8993 13.1986L23.9027 13.2034L23.9042 13.2056C24.0319 13.3906 24.0319 13.6094 23.9042 13.7944L23.9027 13.7966L23.8993 13.8014L23.8881 13.8173C23.8787 13.8306 23.8653 13.8493 23.8479 13.873C23.8132 13.9205 23.7627 13.9883 23.6967 14.0733C23.5646 14.2433 23.37 14.4831 23.1146 14.7695C22.6049 15.341 21.8474 16.1047 20.8556 16.8709C18.8886 18.3905 15.8922 20 12.0001 20C8.10801 20 5.11157 18.3905 3.14452 16.8709C2.15272 16.1047 1.39523 15.341 0.885577 14.7695C0.630187 14.4831 0.43555 14.2433 0.303504 14.0733C0.237446 13.9883 0.186951 13.9205 0.152252 13.873C0.1349 13.8493 0.121489 13.8306 0.112048 13.8173L0.100866 13.8014L0.0975121 13.7966L0.0956539 13.794C-0.0321006 13.6089 -0.0317763 13.3906 0.0959782 13.2056L0.0975121 13.2034L0.100866 13.1986L0.112048 13.1827C0.121489 13.1694 0.1349 13.1507 0.152252 13.127C0.186951 13.0795 0.237446 13.0117 0.303504 12.9267C0.43555 12.7567 0.630187 12.5169 0.885577 12.2305C1.39523 11.659 2.15272 10.8953 3.14452 10.1291C5.11157 8.60951 8.10801 7 12.0001 7C15.8922 7 18.8886 8.60951 20.8556 10.1291C21.8474 10.8953 22.6049 11.659 23.1146 12.2305C23.37 12.5169 23.5646 12.7567 23.6967 12.9267C23.7627 13.0117 23.8132 13.0795 23.8479 13.127C23.8653 13.1507 23.8787 13.1694 23.8881 13.1827L23.8993 13.1986Z" fill="#E6E5FF"/>
<path fill-rule="evenodd" clip-rule="evenodd" d="M8 13C8 10.7909 9.79086 9 12 9C14.2091 9 16 10.7909 16 13C16 15.2091 14.2091 17 12 17C9.79086 17 8 15.2091 8 13Z" fill="#8E8CEE"/>
<path d="M24 13.5C15 4 6.31579 6.45797 0 13.5C0.6 10.1667 4.32 3 12 3C19.68 3 23 10.1667 24 13.5Z" fill="url(#paint0_linear_16149_79346)"/>
<defs>
<linearGradient id="paint0_linear_16149_79346" x1="13.5" y1="8.5" x2="7.57039" y2="19.7108" gradientUnits="userSpaceOnUse">
<stop stop-color="#BCBBFF"/>
<stop offset="0.0001" stop-color="#A2A0FA"/>
</linearGradient>
</defs>
</svg>
