<svg width="24" height="24" viewBox="0 0 24 24" fill="none" xmlns="http://www.w3.org/2000/svg">
<g clip-path="url(#clip0_2059_7349)">
<path d="M23.2742 13.3422C23.4201 3.13524 13.3643 4.53684 12.145 10.216C11.2499 14.3851 13.254 15.4298 16.0876 15.8482C14.8888 17.8511 12.1186 16.9855 9.24583 15.8482C7.32899 15.0894 5.5665 14.1513 3.50847 14.3852C-1.2757 14.9288 -0.409 22.6089 2.81604 20.3565C6.04107 18.1041 9.51872 22.718 14.0889 22.5276C18.6591 22.3371 23.179 20.0071 23.2742 13.3422Z" fill="#E6E5FF"/>
<path fill-rule="evenodd" clip-rule="evenodd" d="M19.9211 7.42063C20.2355 7.03564 20.8025 6.97842 21.1875 7.29282C23.8309 9.45159 24.3996 13.2637 23.2558 16.4581C22.0906 19.7123 19.1137 22.4803 14.5048 22.6049C11.8192 22.6775 9.93921 21.9935 8.45631 21.2796C8.09673 21.1064 7.76007 20.9313 7.4508 20.7705L7.43918 20.7644C7.12202 20.5995 6.83784 20.4519 6.56417 20.3226C6.01449 20.063 5.57476 19.911 5.15627 19.8738C4.18894 19.7878 3.37352 20.0102 2.79496 20.2582C2.50634 20.3819 2.28141 20.5101 2.13274 20.6041C2.05863 20.651 2.00419 20.689 1.97102 20.713C1.95446 20.725 1.94327 20.7335 1.93766 20.7378C1.93486 20.74 1.93349 20.741 1.93349 20.741L1.93461 20.7401L1.93597 20.7391L1.93766 20.7378C1.93766 20.7378 1.06668 21.3035 0.500211 20.6041C-0.0662634 19.9048 0.805503 19.3383 0.805503 19.3383L0.807422 19.3368L0.810501 19.3343L0.818439 19.328L0.841376 19.3102C0.85978 19.296 0.884409 19.2775 0.915063 19.2553C0.976327 19.2109 1.06193 19.1516 1.17027 19.0831C1.38648 18.9463 1.69603 18.7708 2.08577 18.6038C2.86393 18.2702 3.98079 17.9622 5.31565 18.0808C6.04826 18.1459 6.7147 18.403 7.33303 18.6951C7.64282 18.8414 7.95755 19.0051 8.26814 19.1667L8.2719 19.1686C8.587 19.3325 8.9028 19.4968 9.23715 19.6578C10.5511 20.2904 12.1423 20.8681 14.4562 20.8055C18.2583 20.7028 20.6236 18.4696 21.5612 15.8513C22.5201 13.1731 21.9521 10.2412 20.0489 8.68699C19.6639 8.37259 19.6067 7.80562 19.9211 7.42063Z" fill="#8E8CEE"/>
<path fill-rule="evenodd" clip-rule="evenodd" d="M12.9647 10.8761C13.4164 9.66392 14.6478 8.52964 16.2233 8.52963C17.5874 8.52963 18.6734 9.32001 19.378 10.3395C20.0817 11.3576 20.4713 12.6827 20.4611 14.0005C20.4509 15.3243 20.035 16.7087 19.0407 17.7839C18.035 18.8715 16.5229 19.5503 14.5048 19.6049C11.8192 19.6775 9.93918 18.9935 8.45627 18.2796C8.09675 18.1065 7.76014 17.9314 7.45091 17.7706L7.43914 17.7644C7.12199 17.5995 6.8378 17.4519 6.56413 17.3226C6.01445 17.063 5.57472 16.911 5.15624 16.8738C4.1889 16.7878 3.37348 17.0102 2.79492 17.2582C2.5063 17.3819 2.28137 17.5101 2.1327 17.6042C2.05859 17.651 2.00415 17.689 1.97098 17.713C1.95441 17.725 1.94323 17.7335 1.93762 17.7378C1.93482 17.74 1.93345 17.741 1.93345 17.741L1.93456 17.7402L1.93593 17.7391L1.93762 17.7378C1.93762 17.7378 1.04172 18.4124 0.475246 17.713C-0.0912267 17.0137 0.805465 16.3383 0.805465 16.3383L0.807384 16.3368L0.810463 16.3343L0.818401 16.328L0.841338 16.3102C0.859741 16.296 0.884371 16.2775 0.915025 16.2553C0.976289 16.2109 1.0619 16.1516 1.17023 16.0831C1.38644 15.9463 1.69599 15.7709 2.08573 15.6038C2.8639 15.2702 3.98075 14.9622 5.31561 15.0808C6.04822 15.146 6.71466 15.403 7.33299 15.6951C7.64276 15.8415 7.95746 16.0051 8.26803 16.1667L8.27178 16.1686C8.5869 16.3325 8.90272 16.4968 9.23711 16.6578C10.551 17.2904 12.1422 17.8681 14.4562 17.8055C16.0802 17.7616 17.0996 17.2318 17.7192 16.5618C18.3502 15.8794 18.6537 14.9572 18.6611 13.9866C18.6687 13.0102 18.3745 12.0534 17.8973 11.363C17.4212 10.6741 16.8294 10.3296 16.2233 10.3296C15.5414 10.3296 14.8939 10.8538 14.6513 11.5047C14.5365 11.8128 14.5468 12.0652 14.6158 12.2351C14.6749 12.3808 14.82 12.5757 15.2285 12.7104C15.7005 12.8661 15.9569 13.375 15.8012 13.8471C15.6455 14.3191 15.1366 14.5755 14.6646 14.4198C13.8325 14.1453 13.2347 13.6186 12.9479 12.9122C12.671 12.23 12.7323 11.4997 12.9647 10.8761Z" fill="#B1B0F5"/>
<path d="M7.38995 10.3845L9.11963 6.83185L10.8492 10.3845C11.2083 11.1223 11.06 12.0067 10.4798 12.5869C9.72856 13.3381 8.51055 13.3381 7.7593 12.5869C7.17908 12.0067 7.03077 11.1223 7.38995 10.3845Z" fill="#E6E5FF"/>
<path fill-rule="evenodd" clip-rule="evenodd" d="M7.9111 2.2403C8.25543 2.2403 8.56957 2.43676 8.72029 2.74635L11.3472 8.14227C12.0607 9.60794 11.766 11.3649 10.6134 12.5175C9.12088 14.01 6.70109 14.01 5.2086 12.5176C4.0559 11.3649 3.76124 9.60791 4.47483 8.14223L7.1019 2.74633C7.25262 2.43674 7.56677 2.24029 7.9111 2.2403ZM7.91106 5.19637L6.09321 8.93016C5.71571 9.70552 5.87159 10.635 6.48138 11.2448C7.27092 12.0343 8.55102 12.0343 9.34057 11.2448C9.95036 10.635 10.1062 9.70551 9.72878 8.93016L7.91106 5.19637Z" fill="#8E8CEE"/>
</g>
<defs>
<clipPath id="clip0_2059_7349">
<rect width="24" height="24" fill="white"/>
</clipPath>
</defs>
</svg>
