<svg width="24" height="24" viewBox="0 0 24 24" fill="none" xmlns="http://www.w3.org/2000/svg">
<g clip-path="url(#clip0_13887_67202)">
<path d="M17.1668 23.4747C20.0355 22.476 21.478 19.1295 20.3886 16L10 19.6163C11.0894 22.7459 14.2981 24.4733 17.1668 23.4747Z" fill="#8E8CEE"/>
<path fill-rule="evenodd" clip-rule="evenodd" d="M21.2249 8.10189C20.4024 7.87112 19.5248 8.34862 19.2895 9.17383L18.5506 11.7069L18.5068 12.1348C18.5026 12.1369 18.489 12.1385 18.4671 12.1411C18.2996 12.1612 17.6459 12.2397 16.9481 13.0405C16.3833 13.6801 16.1609 14.5942 16.2624 15.7466C16.2624 15.7466 16.2491 15.9949 16.0283 16.027C15.6534 16.0814 15.6129 15.802 15.6129 15.802C15.4966 14.4572 15.776 13.3921 16.464 12.605C17.114 11.8613 17.7718 11.6058 18.1763 11.5189L13.1532 3.04851C12.7666 2.37839 11.8926 2.15509 11.2247 2.53732L11.164 2.57206C10.4833 2.95615 10.2535 3.81947 10.6382 4.47689L12.7868 8.10802L14.3519 10.5691C14.5862 10.4887 14.7477 10.4414 14.8073 10.4239L14.8073 10.4239L14.8278 10.4179C15.0173 10.3645 15.1774 10.4709 15.2289 10.645C15.2805 10.819 15.1738 10.9901 14.9972 11.0417C14.9586 11.0473 11.0592 12.131 9.61975 14.8242C9.6019 14.887 9.56413 14.9452 9.50761 14.9897C9.45978 15.0225 9.4101 15.0427 9.35858 15.0502L9.36042 15.0629C9.24451 15.0797 9.13409 15.0439 9.05495 14.9516L5.73882 10.799L5.56856 10.5944C5.07712 10.0174 4.1994 9.95021 3.62543 10.4355C3.03857 10.9227 2.96702 11.789 3.45662 12.3534L10.0662 20.1996C11.94 22.7807 15.5705 23.421 18.2529 21.6052C19.3549 20.8617 19.9525 20.0074 20.5191 18.6438C20.6193 18.4025 20.757 17.8201 20.8595 17.3865L20.8595 17.3864C20.912 17.1644 20.9553 16.9815 20.9795 16.9033L22.3037 10.0073C22.5408 9.19478 22.0604 8.33079 21.2249 8.10189ZM5.72777 9.75052L9.25768 14.1621C9.71571 13.4412 10.3213 12.8401 10.9645 12.3456L9.29824 9.92508L6.8004 6.57707C6.34576 5.98167 5.47171 5.84915 4.86644 6.3001C4.26118 6.75105 4.12339 7.61398 4.57803 8.20939L5.72777 9.75052ZM8.11489 7.07256L11.4837 11.9734C12.287 11.4357 13.1027 11.0531 13.728 10.8018L9.14467 3.59432C8.7209 3.02112 7.89274 2.86381 7.278 3.25273C6.6396 3.65661 6.44845 4.51432 6.85525 5.1426L8.11489 7.07256Z" fill="#D2D1FF"/>
<path d="M4.89412 22.6704C4.89412 22.6704 4.77989 22.6885 4.72468 22.6684C4.60157 22.6301 1.59073 21.8514 0.10842 17.4877C0.0132571 17.2144 0.133867 16.9071 0.39153 16.8088C0.636501 16.7125 0.919207 16.8552 1.01659 17.1425C2.30191 20.9176 4.8038 21.6037 4.912 21.6299C5.17092 21.7043 5.34446 21.9796 5.28509 22.2628C5.24223 22.4858 5.08451 22.6404 4.89412 22.6704V22.6704Z" fill="#B1B0F5"/>
<path d="M5.5868 20.3528C5.51565 20.364 5.44232 20.3615 5.36684 20.3453C5.29135 20.3291 3.40323 19.8255 2.29474 17.1459C2.18027 16.8827 2.32196 16.5791 2.59576 16.4655C2.88379 16.3498 3.18233 16.4854 3.2968 16.7486C4.20699 18.9112 5.59948 19.3242 5.66074 19.3427C5.95062 19.4235 6.11212 19.7073 6.02519 19.9883C5.97012 20.1938 5.7882 20.335 5.58897 20.3665L5.5868 20.3528Z" fill="#B1B0F5"/>
<path d="M20.6783 6.16312C20.4137 6.21378 20.1679 6.02476 20.1187 5.77187C19.5034 2.20421 17.1492 1.18599 17.0512 1.15229C16.81 1.05421 16.6904 0.775438 16.7847 0.521299C16.8815 0.279804 17.159 0.161102 17.4128 0.256777C17.5259 0.300704 20.3576 1.48981 21.0685 5.61625C21.1177 5.86915 20.9453 6.12511 20.6808 6.17577L20.6783 6.16312Z" fill="#B1B0F5"/>
<path d="M18.5417 6.58536C18.2967 6.63225 18.0494 6.47081 17.9858 6.20895C17.5234 4.09211 16.392 3.49963 16.348 3.46892C16.1227 3.35546 16.015 3.06289 16.1228 2.83346C16.2281 2.59144 16.5025 2.49978 16.74 2.61089C16.8086 2.63692 18.3415 3.40044 18.9018 6.02053C18.9531 6.28474 18.7988 6.53613 18.5417 6.58536Z" fill="#B1B0F5"/>
</g>
<defs>
<clipPath id="clip0_13887_67202">
<rect width="24" height="24" fill="white"/>
</clipPath>
</defs>
</svg>
