<svg width="24" height="24" viewBox="0 0 24 24" fill="none" xmlns="http://www.w3.org/2000/svg">
<circle cx="12" cy="12" r="11" fill="url(#paint0_linear_16157_79802)"/>
<mask id="mask0_16157_79802" style="mask-type:alpha" maskUnits="userSpaceOnUse" x="0" y="1" width="24" height="25">
<path d="M11.9999 3.9451V1.25C11.9999 1.11193 11.8901 0.999732 11.7521 1.00252C7.73388 1.08376 0.625154 3.16615 0.501486 12.7455C0.499703 12.8835 0.61178 13 0.749851 13H4.74985C4.88792 13 4.99985 12.8881 4.99985 12.75V10.1525C4.99985 10.0884 5.02446 10.0267 5.0686 9.98026L5.9311 9.07237C5.97524 9.02591 5.99985 8.96427 5.99985 8.90018V8.25C5.99985 8.11193 6.11178 8 6.24985 8H8.74985C8.88792 8 8.99985 7.88807 8.99985 7.75V6.10355C8.99985 6.03725 9.02619 5.97366 9.07307 5.92678L9.92663 5.07322C9.97351 5.02634 10.0371 5 10.1034 5H10.9002C10.9642 5 11.0257 4.97548 11.0722 4.93149L11.9218 4.12659C11.9716 4.07938 11.9999 4.01375 11.9999 3.9451Z" fill="#8E8CEE"/>
<path d="M5.0781 15.006L7.12757 13.0683C7.17399 13.0245 7.23544 13 7.29932 13H8.20038C8.26426 13 8.32571 13.0245 8.37213 13.0683L9.32757 13.9717C9.37399 14.0155 9.43544 14.04 9.49932 14.04H11.5004C11.5643 14.04 11.6257 14.0645 11.6721 14.1083L13.7276 16.0517C13.774 16.0955 13.8354 16.12 13.8993 16.12H15.5887C15.7761 16.12 15.8969 16.3186 15.8107 16.485L14.9279 18.1885C14.9095 18.2241 14.8999 18.2635 14.8999 18.3036V18.99C14.8999 19.1281 14.7879 19.24 14.6499 19.24H13.8993C13.8354 19.24 13.774 19.2645 13.7276 19.3083L12.7781 20.206C12.7282 20.2532 12.6999 20.3189 12.6999 20.3877V21.2123C12.6999 21.2811 12.6716 21.3468 12.6216 21.394L11.6781 22.286C11.6282 22.3332 11.5999 22.3989 11.5999 22.4677V25.2663C11.5999 25.3894 11.5103 25.4941 11.3888 25.5133L8.58876 25.9545C8.43705 25.9784 8.29985 25.8611 8.29985 25.7075V20.3983C8.29985 20.3017 8.2441 20.2136 8.1567 20.1723L6.1751 19.2356C6.12625 19.2125 6.0862 19.1742 6.06094 19.1264L5.02885 17.1748C5.00981 17.1388 4.99985 17.0987 4.99985 17.058V15.1877C4.99985 15.1189 5.02815 15.0532 5.0781 15.006Z" fill="#8E8CEE"/>
<path d="M14.7265 5H21.0842C22.3557 6.28333 24.6808 10.06 23.8089 14.9L22.719 16L18.3594 11.6V10.5L17.2695 9.4H16.1796L13.9999 8.3L13.9999 5.77L14.7265 5Z" fill="#8E8CEE"/>
</mask>
<g mask="url(#mask0_16157_79802)">
<circle cx="12" cy="12" r="11" fill="#8E8CEE"/>
</g>
<path d="M5.7 11.5H5.16056C5.06025 11.5 4.96658 11.5501 4.91094 11.6336L4.05038 12.9244C4.01753 12.9737 4 13.0316 4 13.0908V13.7C4 13.8657 4.13431 14 4.3 14H4.81459C4.92822 14 5.0321 14.0642 5.08292 14.1658L5.34802 14.696C5.42872 14.8574 5.63262 14.9116 5.78276 14.8115L6.77964 14.1469C6.90553 14.063 6.94922 13.8984 6.88156 13.7631L6.58292 13.1658C6.5321 13.0642 6.42822 13 6.31459 13H6.3C6.13431 13 6 12.8657 6 12.7V11.8C6 11.6343 5.86569 11.5 5.7 11.5Z" fill="#8E8CEE"/>
<defs>
<linearGradient id="paint0_linear_16157_79802" x1="12.6525" y1="11.495" x2="23.5322" y2="27.6569" gradientUnits="userSpaceOnUse">
<stop stop-color="#E3E2FF"/>
<stop offset="0.0001" stop-color="#D2D1FF"/>
</linearGradient>
</defs>
</svg>
