<svg width="24" height="24" viewBox="0 0 24 24" fill="none" xmlns="http://www.w3.org/2000/svg">
<path d="M5.0874 19.488C7.68207 17.9573 9.81007 16.268 11.4714 14.42C13.1327 12.572 13.9634 10.7893 13.9634 9.072C13.9634 8.15733 13.6741 7.42933 13.0954 6.888C12.5354 6.328 11.7421 6.048 10.7154 6.048C9.74474 6.048 8.9234 6.23467 8.2514 6.608C7.59807 6.96267 6.95407 7.42933 6.3194 8.008L5.2554 6.468C5.62874 6.00133 6.16074 5.52533 6.8514 5.04C7.56074 4.55467 8.38207 4.15333 9.3154 3.836C10.2487 3.5 11.1914 3.332 12.1434 3.332C13.5061 3.332 14.6447 3.56533 15.5594 4.032C16.4927 4.49867 17.1834 5.11467 17.6314 5.88C18.0794 6.64533 18.3034 7.49467 18.3034 8.428C18.3034 10.22 17.4447 12.0213 15.7274 13.832C14.0101 15.6427 11.8261 17.304 9.1754 18.816L17.2954 18.06L18.3594 15.708L20.1234 16.072L19.3114 21H5.6754L5.0874 19.488Z" fill="#8E8CEE"/>
</svg>
