<svg width="24" height="24" viewBox="0 0 24 24" fill="none" xmlns="http://www.w3.org/2000/svg">
<path d="M9.40429 21.84C8.87629 21.84 8.29229 21.792 7.65229 21.696C7.02829 21.616 6.53229 21.52 6.16429 21.408V19.392C6.86829 19.616 7.64429 19.728 8.49229 19.728C9.53229 19.728 10.4283 19.56 11.1803 19.224C11.9483 18.888 12.5323 18.424 12.9323 17.832C13.3323 17.24 13.5323 16.584 13.5323 15.864C13.5323 13.896 12.4123 12.848 10.1723 12.72L8.78029 13.08L8.25229 11.472C8.82829 11.392 9.47629 11.192 10.1963 10.872C11.0763 10.456 11.7403 9.95201 12.1883 9.36001C12.6523 8.76801 12.8843 8.13601 12.8843 7.46401C12.8843 6.74401 12.6523 6.21601 12.1883 5.88001C11.7243 5.52801 11.1483 5.35201 10.4603 5.35201C9.75629 5.35201 9.10829 5.47201 8.51629 5.71201C7.94029 5.93601 7.45229 6.21601 7.05229 6.55201L6.09229 4.872C6.38029 4.60001 6.82029 4.31201 7.41229 4.00801C8.02029 3.68801 8.70029 3.42401 9.45229 3.216C10.2203 2.992 10.9883 2.88 11.7563 2.88C13.3403 2.88 14.6203 3.208 15.5963 3.86401C16.5723 4.52001 17.0603 5.50401 17.0603 6.81601C17.0603 7.98401 16.6123 8.99201 15.7163 9.84001C14.8363 10.688 13.7243 11.352 12.3803 11.832C12.5563 11.816 12.8043 11.808 13.1243 11.808C14.5643 11.808 15.7323 12.168 16.6283 12.888C17.5243 13.592 17.9723 14.56 17.9723 15.792C17.9723 16.928 17.6283 17.952 16.9403 18.864C16.2523 19.792 15.2603 20.52 13.9643 21.048C12.6683 21.576 11.1483 21.84 9.40429 21.84Z" fill="#8E8CEE"/>
</svg>
