<svg width="24" height="24" viewBox="0 0 24 24" fill="none" xmlns="http://www.w3.org/2000/svg">
<path d="M6.61153 19.944C7.07553 19.992 7.53953 20.016 8.00353 20.016C9.07553 20.016 10.0515 19.792 10.9315 19.344C11.8275 18.912 12.5315 18.32 13.0435 17.568C13.5555 16.8 13.8115 15.976 13.8115 15.096C13.8115 13.992 13.5315 13.208 12.9715 12.744C12.4275 12.264 11.6355 12.024 10.5955 12.024C10.0675 12.024 9.49953 12.096 8.89153 12.24C8.28353 12.368 7.77153 12.52 7.35553 12.696L6.46753 12.072L7.61953 3.09598H15.3955L15.6355 2.63998H17.3875L16.8355 5.97598H10.1395L9.20353 10.584C10.4515 9.95998 11.7155 9.64798 12.9955 9.64798C14.6755 9.64798 15.9475 10.072 16.8115 10.92C17.6915 11.752 18.1315 12.912 18.1315 14.4C18.1315 15.856 17.7075 17.152 16.8595 18.288C16.0115 19.424 14.8355 20.304 13.3315 20.928C11.8435 21.552 10.1635 21.864 8.29153 21.864C7.68353 21.864 7.12353 21.808 6.61153 21.696V19.944Z" fill="#8E8CEE"/>
</svg>
