<svg width="24" height="24" viewBox="0 0 24 24" fill="none" xmlns="http://www.w3.org/2000/svg">
<path d="M11.98 21.652C10.62 21.652 9.452 21.324 8.476 20.668C7.5 20.012 6.756 19.116 6.244 17.98C5.748 16.844 5.5 15.564 5.5 14.14C5.5 12.092 6.004 10.22 7.012 8.524C8.02 6.812 9.308 5.436 10.876 4.396C12.444 3.34 14.02 2.708 15.604 2.5L16.3 3.796C14.588 4.308 13.148 5.196 11.98 6.46C10.828 7.708 10.02 9.156 9.556 10.804C9.956 10.42 10.476 10.1 11.116 9.844C11.756 9.572 12.492 9.436 13.324 9.436C14.908 9.436 16.156 9.932 17.068 10.924C17.996 11.9 18.46 13.244 18.46 14.956C18.46 16.14 18.204 17.244 17.692 18.268C17.18 19.292 16.436 20.116 15.46 20.74C14.484 21.348 13.324 21.652 11.98 21.652ZM12.148 11.26C11.492 11.26 10.9 11.404 10.372 11.692C9.86 11.964 9.468 12.268 9.196 12.604C9.148 13.052 9.124 13.508 9.124 13.972C9.092 15.908 9.308 17.428 9.772 18.532C10.252 19.636 11.028 20.188 12.1 20.188C13.012 20.188 13.708 19.756 14.188 18.892C14.684 18.012 14.932 16.924 14.932 15.628C14.932 14.108 14.684 13.004 14.188 12.316C13.692 11.612 13.012 11.26 12.148 11.26Z" fill="#8E8CEE"/>
</svg>
