<svg width="24" height="24" viewBox="0 0 24 24" fill="none" xmlns="http://www.w3.org/2000/svg">
<path d="M5.56812 16.536C5.56812 15.608 5.87212 14.76 6.48012 13.992C7.08812 13.208 7.98412 12.56 9.16812 12.048C8.27212 11.472 7.57612 10.832 7.08012 10.128C6.58412 9.408 6.33612 8.52 6.33612 7.464C6.33612 6.504 6.59212 5.68 7.10412 4.992C7.63212 4.288 8.33612 3.752 9.21612 3.384C10.0961 3.016 11.0641 2.832 12.1201 2.832C13.2401 2.832 14.2081 3 15.0241 3.336C15.8401 3.672 16.4641 4.144 16.8961 4.752C17.3281 5.36 17.5441 6.056 17.5441 6.84C17.5441 7.72 17.2721 8.528 16.7281 9.264C16.1841 9.984 15.4001 10.6 14.3761 11.112C15.6401 11.832 16.6321 12.584 17.3521 13.368C18.0721 14.152 18.4321 15.12 18.4321 16.272C18.4321 17.264 18.1441 18.128 17.5681 18.864C17.0081 19.6 16.2241 20.168 15.2161 20.568C14.2241 20.968 13.1041 21.168 11.8561 21.168C10.0961 21.168 8.60812 20.792 7.39212 20.04C6.17612 19.272 5.56812 18.104 5.56812 16.536ZM9.33612 6.72C9.33612 7.248 9.49612 7.728 9.81612 8.16C10.1521 8.576 10.5601 8.944 11.0401 9.264C11.5361 9.568 12.2161 9.952 13.0801 10.416C13.6721 10.048 14.1281 9.6 14.4481 9.072C14.7841 8.544 14.9521 7.976 14.9521 7.368C14.9521 6.36 14.6961 5.584 14.1841 5.04C13.6881 4.496 12.9921 4.224 12.0961 4.224C11.3281 4.224 10.6721 4.448 10.1281 4.896C9.60012 5.328 9.33612 5.936 9.33612 6.72ZM15.0241 16.896C15.0241 16.352 14.8641 15.88 14.5441 15.48C14.2241 15.064 13.8241 14.704 13.3441 14.4C12.8801 14.096 12.2241 13.72 11.3761 13.272C10.9281 13.048 10.5921 12.872 10.3681 12.744C9.77612 13.128 9.29612 13.6 8.92812 14.16C8.57612 14.72 8.40012 15.336 8.40012 16.008C8.40012 17.112 8.71212 18 9.33612 18.672C9.97612 19.344 10.8481 19.68 11.9521 19.68C12.4801 19.68 12.9761 19.568 13.4401 19.344C13.9201 19.104 14.3041 18.776 14.5921 18.36C14.8801 17.944 15.0241 17.456 15.0241 16.896Z" fill="#8E8CEE"/>
</svg>
