<svg width="24" height="25" viewBox="0 0 24 25" fill="none" xmlns="http://www.w3.org/2000/svg">
<path d="M7.77778 17.2498C7.77778 17.8097 8.0002 18.3467 8.39611 18.7426C8.79202 19.1385 9.32899 19.3609 9.88889 19.3609C10.4488 19.3609 10.9858 19.1385 11.3817 18.7426C11.7776 18.3467 12 17.8097 12 17.2498M7.77778 17.2498C7.77778 16.6899 8.0002 16.1529 8.39611 15.757C8.79202 15.3611 9.32899 15.1387 9.88889 15.1387C10.4488 15.1387 10.9858 15.3611 11.3817 15.757C11.7776 16.1529 12 16.6899 12 17.2498M7.77778 17.2498H2.5M12 17.2498H14.1111V13.0276C14.1111 12.4677 13.8887 11.9307 13.4928 11.5348C13.0969 11.1389 12.5599 10.9164 12 10.9164H10.9444M10.9444 10.9164L6.72222 5.63867H2.5M10.9444 10.9164H2.5M4.61111 10.9164V5.63867M14.1111 7.74978V5.63867M19.3889 11.972H21.5M17.8056 15.6664L19.3889 17.2498M17.8056 8.27756L19.3889 6.69423" stroke="#26262E" stroke-width="2" stroke-linecap="round" stroke-linejoin="round"/>
</svg>
