<svg width="24" height="24" viewBox="0 0 24 24" fill="none" xmlns="http://www.w3.org/2000/svg">
<path d="M13 8V7H11V8H13ZM11 16.0003C11 16.5526 11.4477 17.0003 12 17.0003C12.5523 17.0003 13 16.5526 13 16.0003H11ZM13 15.9595C13 15.4072 12.5523 14.9595 12 14.9595C11.4477 14.9595 11 15.4072 11 15.9595H13ZM21 12C21 16.9706 16.9706 21 12 21V23C18.0751 23 23 18.0751 23 12H21ZM12 21C7.02944 21 3 16.9706 3 12H1C1 18.0751 5.92487 23 12 23V21ZM3 12C3 7.02944 7.02944 3 12 3V1C5.92487 1 1 5.92487 1 12H3ZM12 3C16.9706 3 21 7.02944 21 12H23C23 5.92487 18.0751 1 12 1V3ZM11 8V13.5H13V8H11ZM13 16.0003V15.9595H11V16.0003H13Z" fill="#8E8CEE"/>
</svg>
