<svg width="24" height="24" viewBox="0 0 24 24" fill="none" xmlns="http://www.w3.org/2000/svg">
<path d="M1.55177 19.0973C1.55274 18.748 1.64514 18.4052 1.81978 18.1027L10.2898 3.96274C10.468 3.66885 10.7191 3.42586 11.0186 3.25723C11.3181 3.08859 11.656 3 11.9998 3C12.3435 3 12.6814 3.08859 12.981 3.25723C13.2805 3.42586 13.5315 3.66885 13.7098 3.96274L22.1798 18.1027C22.3544 18.4052 22.4468 18.748 22.4478 19.0973C22.4488 19.4465 22.3583 19.7899 22.1854 20.0933C22.0124 20.3967 21.7631 20.6495 21.4621 20.8266C21.1611 21.0037 20.819 21.0989 20.4698 21.1027H3.52978C3.18058 21.0989 2.83847 21.0037 2.53748 20.8266C2.2365 20.6495 1.98714 20.3967 1.8142 20.0933C1.64127 19.7899 1.55079 19.4465 1.55177 19.0973Z" fill="#8E8CEE" stroke="#8E8CEE" stroke-width="2" stroke-linejoin="round"/>
<path d="M11 17.0003C11 17.5526 11.4477 18.0003 12 18.0003C12.5523 18.0003 13 17.5526 13 17.0003H11ZM13 16.9595C13 16.4072 12.5523 15.9595 12 15.9595C11.4477 15.9595 11 16.4072 11 16.9595H13ZM11 8V14.5H13V8H11ZM13 17.0003V16.9595H11V17.0003H13Z" fill="white"/>
</svg>
