<svg width="24" height="24" viewBox="0 0 24 24" fill="none" xmlns="http://www.w3.org/2000/svg">
<path d="M10.2898 3.96274L9.43476 3.44411L9.43191 3.44887L10.2898 3.96274ZM1.81978 18.1027L0.961909 17.5889C0.959165 17.5935 0.956457 17.5981 0.953786 17.6027L1.81978 18.1027ZM3.52978 21.1027L3.51879 22.1027H3.52978V21.1027ZM20.4698 21.1027V22.1028L20.4808 22.1027L20.4698 21.1027ZM22.1798 18.1027L23.0458 17.6027C23.0431 17.5981 23.0404 17.5935 23.0376 17.5889L22.1798 18.1027ZM13.7098 3.96274L14.5677 3.44886L14.5648 3.44412L13.7098 3.96274ZM11.9998 3V2V3ZM10.9998 17.0003C10.9998 17.5526 11.4475 18.0003 11.9998 18.0003C12.552 18.0003 12.9998 17.5526 12.9998 17.0003H10.9998ZM12.9998 16.9595C12.9998 16.4072 12.552 15.9595 11.9998 15.9595C11.4475 15.9595 10.9998 16.4072 10.9998 16.9595H12.9998ZM9.43191 3.44887L0.961909 17.5889L2.67764 18.6166L11.1476 4.47662L9.43191 3.44887ZM0.953786 17.6027C0.691839 18.0563 0.553236 18.5706 0.55177 19.0945L2.55176 19.1001C2.55225 18.9255 2.59845 18.754 2.68577 18.6028L0.953786 17.6027ZM0.55177 19.0945C0.550303 19.6183 0.686022 20.1334 0.945426 20.5885L2.68298 19.5981C2.59651 19.4464 2.55127 19.2747 2.55176 19.1001L0.55177 19.0945ZM0.945426 20.5885C1.20483 21.0436 1.57887 21.4228 2.03035 21.6885L3.04462 19.9647C2.89413 19.8762 2.76945 19.7498 2.68298 19.5981L0.945426 20.5885ZM2.03035 21.6885C2.48182 21.9541 2.99498 22.0969 3.51879 22.1027L3.54077 20.1028C3.36617 20.1009 3.19512 20.0533 3.04462 19.9647L2.03035 21.6885ZM3.52978 22.1027H20.4698V20.1027H3.52978V22.1027ZM20.4808 22.1027C21.0046 22.0969 21.5177 21.9541 21.9692 21.6885L20.9549 19.9647C20.8044 20.0533 20.6334 20.1009 20.4588 20.1028L20.4808 22.1027ZM21.9692 21.6885C22.4207 21.4228 22.7947 21.0436 23.0541 20.5885L21.3166 19.5981C21.2301 19.7498 21.1054 19.8762 20.9549 19.9647L21.9692 21.6885ZM23.0541 20.5885C23.3135 20.1334 23.4493 19.6183 23.4478 19.0945L21.4478 19.1001C21.4483 19.2747 21.403 19.4464 21.3166 19.5981L23.0541 20.5885ZM23.4478 19.0945C23.4463 18.5706 23.3077 18.0563 23.0458 17.6027L21.3138 18.6028C21.4011 18.754 21.4473 18.9255 21.4478 19.1001L23.4478 19.0945ZM23.0376 17.5889L14.5676 3.44887L12.8519 4.47662L21.3219 18.6166L23.0376 17.5889ZM14.5648 3.44412C14.2974 3.00328 13.9209 2.6388 13.4716 2.38584L12.4904 4.12861C12.6401 4.21293 12.7656 4.33443 12.8548 4.48137L14.5648 3.44412ZM13.4716 2.38584C13.0223 2.13289 12.5154 2 11.9998 2V4C12.1716 4 12.3406 4.0443 12.4904 4.12861L13.4716 2.38584ZM11.9998 2C11.4842 2 10.9773 2.13289 10.528 2.38584L11.5092 4.12861C11.6589 4.0443 11.8279 4 11.9998 4V2ZM10.528 2.38584C10.0787 2.6388 9.70218 3.00328 9.43478 3.44412L11.1448 4.48137C11.2339 4.33443 11.3594 4.21293 11.5092 4.12861L10.528 2.38584ZM10.9998 8V14.5H12.9998V8H10.9998ZM12.9998 17.0003V16.9595H10.9998V17.0003H12.9998Z" fill="#8E8CEE"/>
</svg>
