<svg width="24" height="24" viewBox="0 0 24 24" fill="none" xmlns="http://www.w3.org/2000/svg">
<path d="M8 2V1C7.73478 1 7.48043 1.10536 7.29289 1.29289L8 2ZM16 2L16.7071 1.29289C16.5196 1.10536 16.2652 1 16 1V2ZM22 8H23C23 7.73478 22.8946 7.48043 22.7071 7.29289L22 8ZM22 16L22.7071 16.7071C22.8946 16.5196 23 16.2652 23 16H22ZM16 22V23C16.2652 23 16.5196 22.8946 16.7071 22.7071L16 22ZM8 22L7.29289 22.7071C7.48043 22.8946 7.73478 23 8 23V22ZM2 16H1C1 16.2652 1.10536 16.5196 1.29289 16.7071L2 16ZM2 8L1.29289 7.29289C1.10536 7.48043 1 7.73478 1 8H2ZM13 8V7H11V8H13ZM11 16.0003C11 16.5526 11.4477 17.0003 12 17.0003C12.5523 17.0003 13 16.5526 13 16.0003H11ZM13 15.9595C13 15.4072 12.5523 14.9595 12 14.9595C11.4477 14.9595 11 15.4072 11 15.9595H13ZM8 3H16V1H8V3ZM15.2929 2.70711L21.2929 8.70711L22.7071 7.29289L16.7071 1.29289L15.2929 2.70711ZM21 8V16H23V8H21ZM21.2929 15.2929L15.2929 21.2929L16.7071 22.7071L22.7071 16.7071L21.2929 15.2929ZM16 21H8V23H16V21ZM8.70711 21.2929L2.70711 15.2929L1.29289 16.7071L7.29289 22.7071L8.70711 21.2929ZM3 16V8H1V16H3ZM2.70711 8.70711L8.70711 2.70711L7.29289 1.29289L1.29289 7.29289L2.70711 8.70711ZM11 8V13.5H13V8H11ZM13 16.0003V15.9595H11V16.0003H13Z" fill="#8E8CEE"/>
</svg>
