<svg width="24" height="24" viewBox="0 0 24 24" fill="none" xmlns="http://www.w3.org/2000/svg">
<path d="M10 13C9.44772 13 9 13.4477 9 14C9 14.5523 9.44772 15 10 15V13ZM14 15C14.5523 15 15 14.5523 15 14C15 13.4477 14.5523 13 14 13V15ZM19 10V18.5H21V10H19ZM19 18.5C19 18.6386 18.9728 18.7063 18.9578 18.7348C18.9436 18.7618 18.9203 18.7923 18.8665 18.8275C18.7361 18.9129 18.4605 19 18 19V21C18.644 21 19.3684 20.8894 19.9619 20.5009C20.6203 20.0699 21 19.3722 21 18.5H19ZM18 19H6V21H18V19ZM6 19C5.53946 19 5.26387 18.9129 5.13349 18.8275C5.07972 18.7923 5.05639 18.7618 5.0422 18.7348C5.02721 18.7063 5 18.6386 5 18.5H3C3 19.3722 3.37968 20.0699 4.03808 20.5009C4.63156 20.8894 5.35597 21 6 21V19ZM5 18.5V10H3V18.5H5ZM4 5H20V3H4V5ZM20 5C20.4605 5 20.7361 5.08711 20.8665 5.17246C20.9203 5.20766 20.9436 5.23818 20.9578 5.26517C20.9728 5.29367 21 5.36141 21 5.5H23C23 4.62777 22.6203 3.93012 21.9619 3.49912C21.3684 3.11061 20.644 3 20 3V5ZM21 5.5V8.5H23V5.5H21ZM21 8.5C21 8.63859 20.9728 8.70633 20.9578 8.73483C20.9436 8.76182 20.9203 8.79234 20.8665 8.82754C20.7361 8.91289 20.4605 9 20 9V11C20.644 11 21.3684 10.8894 21.9619 10.5009C22.6203 10.0699 23 9.37223 23 8.5H21ZM20 9H4V11H20V9ZM4 9C3.53946 9 3.26387 8.91289 3.13349 8.82754C3.07972 8.79234 3.05639 8.76182 3.0422 8.73483C3.02721 8.70633 3 8.63859 3 8.5H1C1 9.37223 1.37968 10.0699 2.03808 10.5009C2.63156 10.8894 3.35597 11 4 11V9ZM3 8.5V5.5H1V8.5H3ZM3 5.5C3 5.36141 3.02721 5.29367 3.0422 5.26517C3.05639 5.23818 3.07972 5.20766 3.13349 5.17246C3.26387 5.08711 3.53946 5 4 5V3C3.35597 3 2.63156 3.11061 2.03808 3.49912C1.37968 3.93012 1 4.62777 1 5.5H3ZM10 14C10 15 10 15 10 15C10 15 10 15 10 15C10 15 10 15 10.0001 15C10.0001 15 10.0001 15 10.0001 15C10.0001 15 10.0001 15 10.0002 15C10.0002 15 10.0002 15 10.0002 15C10.0003 15 10.0003 15 10.0003 15C10.0004 15 10.0004 15 10.0004 15C10.0005 15 10.0005 15 10.0005 15C10.0006 15 10.0006 15 10.0007 15C10.0007 15 10.0007 15 10.0008 15C10.0008 15 10.0009 15 10.0009 15C10.001 15 10.0011 15 10.0011 15C10.0012 15 10.0012 15 10.0013 15C10.0013 15 10.0014 15 10.0015 15C10.0015 15 10.0016 15 10.0017 15C10.0018 15 10.0018 15 10.0019 15C10.002 15 10.0021 15 10.0021 15C10.0022 15 10.0023 15 10.0024 15C10.0025 15 10.0025 15 10.0026 15C10.0027 15 10.0028 15 10.0029 15C10.003 15 10.0031 15 10.0032 15C10.0033 15 10.0034 15 10.0035 15C10.0036 15 10.0037 15 10.0038 15C10.0039 15 10.004 15 10.0041 15C10.0042 15 10.0043 15 10.0045 15C10.0046 15 10.0047 15 10.0048 15C10.0049 15 10.005 15 10.0052 15C10.0053 15 10.0054 15 10.0056 15C10.0057 15 10.0058 15 10.0059 15C10.0061 15 10.0062 15 10.0063 15C10.0065 15 10.0066 15 10.0068 15C10.0069 15 10.0071 15 10.0072 15C10.0073 15 10.0075 15 10.0076 15C10.0078 15 10.0079 15 10.0081 15C10.0083 15 10.0084 15 10.0086 15C10.0087 15 10.0089 15 10.0091 15C10.0092 15 10.0094 15 10.0096 15C10.0097 15 10.0099 15 10.0101 15C10.0102 15 10.0104 15 10.0106 15C10.0108 15 10.011 15 10.0111 15C10.0113 15 10.0115 15 10.0117 15C10.0119 15 10.0121 15 10.0123 15C10.0125 15 10.0126 15 10.0128 15C10.013 15 10.0132 15 10.0134 15C10.0136 15 10.0138 15 10.014 15C10.0142 15 10.0145 15 10.0147 15C10.0149 15 10.0151 15 10.0153 15C10.0155 15 10.0157 15 10.016 15C10.0162 15 10.0164 15 10.0166 15C10.0168 15 10.0171 15 10.0173 15C10.0175 15 10.0177 15 10.018 15C10.0182 15 10.0184 15 10.0187 15C10.0189 15 10.0192 15 10.0194 15C10.0196 15 10.0199 15 10.0201 15C10.0204 15 10.0206 15 10.0209 15C10.0211 15 10.0214 15 10.0216 15C10.0219 15 10.0222 15 10.0224 15C10.0227 15 10.0229 15 10.0232 15C10.0235 15 10.0237 15 10.024 15C10.0243 15 10.0245 15 10.0248 15C10.0251 15 10.0254 15 10.0256 15C10.0259 15 10.0262 15 10.0265 15C10.0268 15 10.0271 15 10.0273 15C10.0276 15 10.0279 15 10.0282 15C10.0285 15 10.0288 15 10.0291 15C10.0294 15 10.0297 15 10.03 15C10.0303 15 10.0306 15 10.0309 15C10.0312 15 10.0315 15 10.0318 15C10.0321 15 10.0325 15 10.0328 15C10.0331 15 10.0334 15 10.0337 15C10.034 15 10.0344 15 10.0347 15C10.035 15 10.0353 15 10.0357 15C10.036 15 10.0363 15 10.0367 15C10.037 15 10.0373 15 10.0377 15C10.038 15 10.0384 15 10.0387 15C10.0391 15 10.0394 15 10.0397 15C10.0401 15 10.0404 15 10.0408 15C10.0411 15 10.0415 15 10.0419 15C10.0422 15 10.0426 15 10.0429 15C10.0433 15 10.0437 15 10.044 15C10.0444 15 10.0448 15 10.0451 15C10.0455 15 10.0459 15 10.0463 15C10.0466 15 10.047 15 10.0474 15C10.0478 15 10.0482 15 10.0486 15C10.0489 15 10.0493 15 10.0497 15C10.0501 15 10.0505 15 10.0509 15C10.0513 15 10.0517 15 10.0521 15C10.0525 15 10.0529 15 10.0533 15C10.0537 15 10.0541 15 10.0545 15C10.0549 15 10.0553 15 10.0558 15C10.0562 15 10.0566 15 10.057 15C10.0574 15 10.0578 15 10.0583 15C10.0587 15 10.0591 15 10.0596 15C10.06 15 10.0604 15 10.0608 15C10.0613 15 10.0617 15 10.0622 15C10.0626 15 10.063 15 10.0635 15C10.0639 15 10.0644 15 10.0648 15C10.0653 15 10.0657 15 10.0662 15C10.0666 15 10.0671 15 10.0675 15C10.068 15 10.0684 15 10.0689 15C10.0694 15 10.0698 15 10.0703 15C10.0708 15 10.0712 15 10.0717 15C10.0722 15 10.0726 15 10.0731 15C10.0736 15 10.0741 15 10.0746 15C10.075 15 10.0755 15 10.076 15C10.0765 15 10.077 15 10.0775 15C10.078 15 10.0785 15 10.079 15C10.0795 15 10.08 15 10.0805 15C10.081 15 10.0815 15 10.082 15C10.0825 15 10.083 15 10.0835 15C10.084 15 10.0845 15 10.085 15C10.0855 15 10.0861 15 10.0866 15C10.0871 15 10.0876 15 10.0881 15C10.0887 15 10.0892 15 10.0897 15C10.0903 15 10.0908 15 10.0913 15C10.0919 15 10.0924 15 10.0929 15C10.0935 15 10.094 15 10.0946 15C10.0951 15 10.0956 15 10.0962 15C10.0967 15 10.0973 15 10.0978 15C10.0984 15 10.099 15 10.0995 15C10.1001 15 10.1006 15 10.1012 15C10.1018 15 10.1023 15 10.1029 15C10.1035 15 10.104 15 10.1046 15C10.1052 15 10.1058 15 10.1063 15C10.1069 15 10.1075 15 10.1081 15C10.1087 15 10.1092 15 10.1098 15C10.1104 15 10.111 15 10.1116 15C10.1122 15 10.1128 15 10.1134 15C10.114 15 10.1146 15 10.1152 15C10.1158 15 10.1164 15 10.117 15C10.1176 15 10.1182 15 10.1188 15C10.1195 15 10.1201 15 10.1207 15C10.1213 15 10.1219 15 10.1225 15C10.1232 15 10.1238 15 10.1244 15C10.125 15 10.1257 15 10.1263 15C10.1269 15 10.1276 15 10.1282 15C10.1289 15 10.1295 15 10.1301 15C10.1308 15 10.1314 15 10.1321 15C10.1327 15 10.1334 15 10.134 15C10.1347 15 10.1353 15 10.136 15C10.1366 15 10.1373 15 10.138 15C10.1386 15 10.1393 15 10.14 15C10.1406 15 10.1413 15 10.142 15C10.1426 15 10.1433 15 10.144 15C10.1447 15 10.1453 15 10.146 15C10.1467 15 10.1474 15 10.1481 15C10.1488 15 10.1495 15 10.1501 15C10.1508 15 10.1515 15 10.1522 15C10.1529 15 10.1536 15 10.1543 15C10.155 15 10.1557 15 10.1564 15C10.1571 15 10.1579 15 10.1586 15C10.1593 15 10.16 15 10.1607 15C10.1614 15 10.1621 15 10.1629 15C10.1636 15 10.1643 15 10.165 15C10.1658 15 10.1665 15 10.1672 15C10.168 15 10.1687 15 10.1694 15C10.1702 15 10.1709 15 10.1716 15C10.1724 15 10.1731 15 10.1739 15C10.1746 15 10.1754 15 10.1761 15C10.1769 15 10.1776 15 10.1784 15C10.1792 15 10.1799 15 10.1807 15C10.1814 15 10.1822 15 10.183 15C10.1837 15 10.1845 15 10.1853 15C10.186 15 10.1868 15 10.1876 15C10.1884 15 10.1892 15 10.1899 15C10.1907 15 10.1915 15 10.1923 15C10.1931 15 10.1939 15 10.1947 15C10.1955 15 10.1963 15 10.197 15C10.1978 15 10.1986 15 10.1994 15C10.2003 15 10.2011 15 10.2019 15C10.2027 15 10.2035 15 10.2043 15C10.2051 15 10.2059 15 10.2067 15C10.2076 15 10.2084 15 10.2092 15C10.21 15 10.2109 15 10.2117 15C10.2125 15 10.2133 15 10.2142 15C10.215 15 10.2158 15 10.2167 15C10.2175 15 10.2184 15 10.2192 15C10.22 15 10.2209 15 10.2217 15C10.2226 15 10.2234 15 10.2243 15C10.2251 15 10.226 15 10.2269 15C10.2277 15 10.2286 15 10.2294 15C10.2303 15 10.2312 15 10.232 15C10.2329 15 10.2338 15 10.2347 15C10.2355 15 10.2364 15 10.2373 15C10.2382 15 10.2391 15 10.2399 15C10.2408 15 10.2417 15 10.2426 15C10.2435 15 10.2444 15 10.2453 15C10.2462 15 10.2471 15 10.248 15C10.2489 15 10.2498 15 10.2507 15C10.2516 15 10.2525 15 10.2534 15C10.2543 15 10.2552 15 10.2561 15C10.2571 15 10.258 15 10.2589 15C10.2598 15 10.2607 15 10.2617 15C10.2626 15 10.2635 15 10.2644 15C10.2654 15 10.2663 15 10.2672 15C10.2682 15 10.2691 15 10.2701 15C10.271 15 10.272 15 10.2729 15C10.2738 15 10.2748 15 10.2757 15C10.2767 15 10.2777 15 10.2786 15C10.2796 15 10.2805 15 10.2815 15C10.2825 15 10.2834 15 10.2844 15C10.2854 15 10.2863 15 10.2873 15C10.2883 15 10.2892 15 10.2902 15C10.2912 15 10.2922 15 10.2932 15C10.2941 15 10.2951 15 10.2961 15C10.2971 15 10.2981 15 10.2991 15C10.3001 15 10.3011 15 10.3021 15C10.3031 15 10.3041 15 10.3051 15C10.3061 15 10.3071 15 10.3081 15C10.3091 15 10.3101 15 10.3111 15C10.3122 15 10.3132 15 10.3142 15C10.3152 15 10.3162 15 10.3173 15C10.3183 15 10.3193 15 10.3203 15C10.3214 15 10.3224 15 10.3234 15C10.3245 15 10.3255 15 10.3266 15C10.3276 15 10.3286 15 10.3297 15C10.3307 15 10.3318 15 10.3328 15C10.3339 15 10.3349 15 10.336 15C10.3371 15 10.3381 15 10.3392 15C10.3402 15 10.3413 15 10.3424 15C10.3434 15 10.3445 15 10.3456 15C10.3467 15 10.3477 15 10.3488 15C10.3499 15 10.351 15 10.3521 15C10.3531 15 10.3542 15 10.3553 15C10.3564 15 10.3575 15 10.3586 15C10.3597 15 10.3608 15 10.3619 15C10.363 15 10.3641 15 10.3652 15C10.3663 15 10.3674 15 10.3685 15C10.3696 15 10.3707 15 10.3718 15C10.373 15 10.3741 15 10.3752 15C10.3763 15 10.3774 15 10.3786 15C10.3797 15 10.3808 15 10.3819 15C10.3831 15 10.3842 15 10.3854 15C10.3865 15 10.3876 15 10.3888 15C10.3899 15 10.3911 15 10.3922 15C10.3934 15 10.3945 15 10.3957 15C10.3968 15 10.398 15 10.3991 15C10.4003 15 10.4014 15 10.4026 15C10.4038 15 10.4049 15 10.4061 15C10.4073 15 10.4084 15 10.4096 15C10.4108 15 10.412 15 10.4131 15C10.4143 15 10.4155 15 10.4167 15C10.4179 15 10.4191 15 10.4203 15C10.4214 15 10.4226 15 10.4238 15C10.425 15 10.4262 15 10.4274 15C10.4286 15 10.4298 15 10.431 15C10.4323 15 10.4335 15 10.4347 15C10.4359 15 10.4371 15 10.4383 15C10.4395 15 10.4408 15 10.442 15C10.4432 15 10.4444 15 10.4457 15C10.4469 15 10.4481 15 10.4493 15C10.4506 15 10.4518 15 10.4531 15C10.4543 15 10.4555 15 10.4568 15C10.458 15 10.4593 15 10.4605 15C10.4618 15 10.463 15 10.4643 15C10.4655 15 10.4668 15 10.4681 15C10.4693 15 10.4706 15 10.4719 15C10.4731 15 10.4744 15 10.4757 15C10.4769 15 10.4782 15 10.4795 15C10.4808 15 10.482 15 10.4833 15C10.4846 15 10.4859 15 10.4872 15C10.4885 15 10.4898 15 10.4911 15C10.4923 15 10.4936 15 10.4949 15C10.4962 15 10.4975 15 10.4988 15C10.5002 15 10.5015 15 10.5028 15C10.5041 15 10.5054 15 10.5067 15C10.508 15 10.5093 15 10.5107 15C10.512 15 10.5133 15 10.5146 15C10.516 15 10.5173 15 10.5186 15C10.52 15 10.5213 15 10.5226 15C10.524 15 10.5253 15 10.5267 15C10.528 15 10.5293 15 10.5307 15C10.532 15 10.5334 15 10.5347 15C10.5361 15 10.5375 15 10.5388 15C10.5402 15 10.5415 15 10.5429 15C10.5443 15 10.5456 15 10.547 15C10.5484 15 10.5498 15 10.5511 15C10.5525 15 10.5539 15 10.5553 15C10.5567 15 10.558 15 10.5594 15C10.5608 15 10.5622 15 10.5636 15C10.565 15 10.5664 15 10.5678 15C10.5692 15 10.5706 15 10.572 15C10.5734 15 10.5748 15 10.5762 15C10.5776 15 10.579 15 10.5804 15C10.5819 15 10.5833 15 10.5847 15C10.5861 15 10.5875 15 10.589 15C10.5904 15 10.5918 15 10.5933 15C10.5947 15 10.5961 15 10.5976 15C10.599 15 10.6004 15 10.6019 15C10.6033 15 10.6048 15 10.6062 15C10.6077 15 10.6091 15 10.6106 15C10.612 15 10.6135 15 10.615 15C10.6164 15 10.6179 15 10.6193 15C10.6208 15 10.6223 15 10.6237 15C10.6252 15 10.6267 15 10.6282 15C10.6296 15 10.6311 15 10.6326 15C10.6341 15 10.6356 15 10.6371 15C10.6386 15 10.64 15 10.6415 15C10.643 15 10.6445 15 10.646 15C10.6475 15 10.649 15 10.6505 15C10.652 15 10.6535 15 10.6551 15C10.6566 15 10.6581 15 10.6596 15C10.6611 15 10.6626 15 10.6642 15C10.6657 15 10.6672 15 10.6687 15C10.6703 15 10.6718 15 10.6733 15C10.6749 15 10.6764 15 10.6779 15C10.6795 15 10.681 15 10.6826 15C10.6841 15 10.6857 15 10.6872 15C10.6888 15 10.6903 15 10.6919 15C10.6934 15 10.695 15 10.6965 15C10.6981 15 10.6997 15 10.7012 15C10.7028 15 10.7044 15 10.7059 15C10.7075 15 10.7091 15 10.7107 15C10.7122 15 10.7138 15 10.7154 15C10.717 15 10.7186 15 10.7202 15C10.7218 15 10.7234 15 10.725 15C10.7266 15 10.7282 15 10.7298 15C10.7314 15 10.733 15 10.7346 15C10.7362 15 10.7378 15 10.7394 15C10.741 15 10.7426 15 10.7442 15C10.7459 15 10.7475 15 10.7491 15C10.7507 15 10.7524 15 10.754 15C10.7556 15 10.7573 15 10.7589 15C10.7605 15 10.7622 15 10.7638 15C10.7654 15 10.7671 15 10.7687 15C10.7704 15 10.772 15 10.7737 15C10.7753 15 10.777 15 10.7787 15C10.7803 15 10.782 15 10.7836 15C10.7853 15 10.787 15 10.7886 15C10.7903 15 10.792 15 10.7937 15C10.7953 15 10.797 15 10.7987 15C10.8004 15 10.8021 15 10.8038 15C10.8055 15 10.8071 15 10.8088 15C10.8105 15 10.8122 15 10.8139 15C10.8156 15 10.8173 15 10.819 15C10.8207 15 10.8224 15 10.8242 15C10.8259 15 10.8276 15 10.8293 15C10.831 15 10.8327 15 10.8345 15C10.8362 15 10.8379 15 10.8396 15C10.8414 15 10.8431 15 10.8448 15C10.8466 15 10.8483 15 10.85 15C10.8518 15 10.8535 15 10.8553 15C10.857 15 10.8588 15 10.8605 15C10.8623 15 10.864 15 10.8658 15C10.8675 15 10.8693 15 10.8711 15C10.8728 15 10.8746 15 10.8764 15C10.8781 15 10.8799 15 10.8817 15C10.8834 15 10.8852 15 10.887 15C10.8888 15 10.8906 15 10.8924 15C10.8941 15 10.8959 15 10.8977 15C10.8995 15 10.9013 15 10.9031 15C10.9049 15 10.9067 15 10.9085 15C10.9103 15 10.9121 15 10.9139 15C10.9157 15 10.9176 15 10.9194 15C10.9212 15 10.923 15 10.9248 15C10.9267 15 10.9285 15 10.9303 15C10.9321 15 10.934 15 10.9358 15C10.9376 15 10.9395 15 10.9413 15C10.9431 15 10.945 15 10.9468 15C10.9487 15 10.9505 15 10.9524 15C10.9542 15 10.9561 15 10.9579 15C10.9598 15 10.9617 15 10.9635 15C10.9654 15 10.9673 15 10.9691 15C10.971 15 10.9729 15 10.9747 15C10.9766 15 10.9785 15 10.9804 15C10.9823 15 10.9841 15 10.986 15C10.9879 15 10.9898 15 10.9917 15C10.9936 15 10.9955 15 10.9974 15C10.9993 15 11.0012 15 11.0031 15C11.005 15 11.0069 15 11.0088 15C11.0107 15 11.0126 15 11.0145 15C11.0165 15 11.0184 15 11.0203 15C11.0222 15 11.0241 15 11.0261 15C11.028 15 11.0299 15 11.0319 15C11.0338 15 11.0357 15 11.0377 15C11.0396 15 11.0416 15 11.0435 15C11.0455 15 11.0474 15 11.0494 15C11.0513 15 11.0533 15 11.0552 15C11.0572 15 11.0591 15 11.0611 15C11.0631 15 11.065 15 11.067 15C11.069 15 11.071 15 11.0729 15C11.0749 15 11.0769 15 11.0789 15C11.0808 15 11.0828 15 11.0848 15C11.0868 15 11.0888 15 11.0908 15C11.0928 15 11.0948 15 11.0968 15C11.0988 15 11.1008 15 11.1028 15C11.1048 15 11.1068 15 11.1088 15C11.1108 15 11.1128 15 11.1149 15C11.1169 15 11.1189 15 11.1209 15C11.123 15 11.125 15 11.127 15C11.129 15 11.1311 15 11.1331 15C11.1351 15 11.1372 15 11.1392 15C11.1413 15 11.1433 15 11.1454 15C11.1474 15 11.1495 15 11.1515 15C11.1536 15 11.1556 15 11.1577 15C11.1597 15 11.1618 15 11.1639 15C11.1659 15 11.168 15 11.1701 15C11.1722 15 11.1742 15 11.1763 15C11.1784 15 11.1805 15 11.1826 15C11.1846 15 11.1867 15 11.1888 15C11.1909 15 11.193 15 11.1951 15C11.1972 15 11.1993 15 11.2014 15C11.2035 15 11.2056 15 11.2077 15C11.2098 15 11.2119 15 11.2141 15C11.2162 15 11.2183 15 11.2204 15C11.2225 15 11.2246 15 11.2268 15C11.2289 15 11.231 15 11.2332 15C11.2353 15 11.2374 15 11.2396 15C11.2417 15 11.2439 15 11.246 15C11.2481 15 11.2503 15 11.2524 15C11.2546 15 11.2568 15 11.2589 15C11.2611 15 11.2632 15 11.2654 15C11.2676 15 11.2697 15 11.2719 15C11.2741 15 11.2762 15 11.2784 15C11.2806 15 11.2828 15 11.2849 15C11.2871 15 11.2893 15 11.2915 15C11.2937 15 11.2959 15 11.2981 15C11.3003 15 11.3025 15 11.3047 15C11.3069 15 11.3091 15 11.3113 15C11.3135 15 11.3157 15 11.3179 15C11.3201 15 11.3223 15 11.3246 15C11.3268 15 11.329 15 11.3312 15C11.3334 15 11.3357 15 11.3379 15C11.3401 15 11.3424 15 11.3446 15C11.3468 15 11.3491 15 11.3513 15C11.3536 15 11.3558 15 11.3581 15C11.3603 15 11.3626 15 11.3648 15C11.3671 15 11.3693 15 11.3716 15C11.3739 15 11.3761 15 11.3784 15C11.3807 15 11.3829 15 11.3852 15C11.3875 15 11.3898 15 11.392 15C11.3943 15 11.3966 15 11.3989 15C11.4012 15 11.4035 15 11.4058 15C11.4081 15 11.4104 15 11.4127 15C11.415 15 11.4173 15 11.4196 15C11.4219 15 11.4242 15 11.4265 15C11.4288 15 11.4311 15 11.4334 15C11.4358 15 11.4381 15 11.4404 15C11.4427 15 11.445 15 11.4474 15C11.4497 15 11.452 15 11.4544 15C11.4567 15 11.4591 15 11.4614 15C11.4637 15 11.4661 15 11.4684 15C11.4708 15 11.4731 15 11.4755 15C11.4778 15 11.4802 15 11.4826 15C11.4849 15 11.4873 15 11.4897 15C11.492 15 11.4944 15 11.4968 15C11.4991 15 11.5015 15 11.5039 15C11.5063 15 11.5087 15 11.5111 15C11.5134 15 11.5158 15 11.5182 15C11.5206 15 11.523 15 11.5254 15C11.5278 15 11.5302 15 11.5326 15C11.535 15 11.5374 15 11.5398 15C11.5423 15 11.5447 15 11.5471 15C11.5495 15 11.5519 15 11.5544 15C11.5568 15 11.5592 15 11.5616 15C11.5641 15 11.5665 15 11.5689 15C11.5714 15 11.5738 15 11.5763 15C11.5787 15 11.5811 15 11.5836 15C11.586 15 11.5885 15 11.591 15C11.5934 15 11.5959 15 11.5983 15C11.6008 15 11.6033 15 11.6057 15C11.6082 15 11.6107 15 11.6131 15C11.6156 15 11.6181 15 11.6206 15C11.6231 15 11.6255 15 11.628 15C11.6305 15 11.633 15 11.6355 15C11.638 15 11.6405 15 11.643 15C11.6455 15 11.648 15 11.6505 15C11.653 15 11.6555 15 11.658 15C11.6605 15 11.6631 15 11.6656 15C11.6681 15 11.6706 15 11.6732 15C11.6757 15 11.6782 15 11.6807 15C11.6833 15 11.6858 15 11.6883 15C11.6909 15 11.6934 15 11.696 15C11.6985 15 11.7011 15 11.7036 15C11.7062 15 11.7087 15 11.7113 15C11.7138 15 11.7164 15 11.719 15C11.7215 15 11.7241 15 11.7267 15C11.7292 15 11.7318 15 11.7344 15C11.737 15 11.7395 15 11.7421 15C11.7447 15 11.7473 15 11.7499 15C11.7525 15 11.7551 15 11.7577 15C11.7603 15 11.7628 15 11.7655 15C11.7681 15 11.7707 15 11.7733 15C11.7759 15 11.7785 15 11.7811 15C11.7837 15 11.7863 15 11.789 15C11.7916 15 11.7942 15 11.7968 15C11.7995 15 11.8021 15 11.8047 15C11.8074 15 11.81 15 11.8126 15C11.8153 15 11.8179 15 11.8206 15C11.8232 15 11.8259 15 11.8285 15C11.8312 15 11.8338 15 11.8365 15C11.8392 15 11.8418 15 11.8445 15C11.8472 15 11.8498 15 11.8525 15C11.8552 15 11.8578 15 11.8605 15C11.8632 15 11.8659 15 11.8686 15C11.8713 15 11.8739 15 11.8766 15C11.8793 15 11.882 15 11.8847 15C11.8874 15 11.8901 15 11.8928 15C11.8955 15 11.8983 15 11.901 15C11.9037 15 11.9064 15 11.9091 15C11.9118 15 11.9145 15 11.9173 15C11.92 15 11.9227 15 11.9255 15C11.9282 15 11.9309 15 11.9337 15C11.9364 15 11.9391 15 11.9419 15C11.9446 15 11.9474 15 11.9501 15C11.9529 15 11.9556 15 11.9584 15C11.9612 15 11.9639 15 11.9667 15C11.9694 15 11.9722 15 11.975 15C11.9777 15 11.9805 15 11.9833 15C11.9861 15 11.9889 15 11.9916 15C11.9944 15 11.9972 15 12 15V13C11.9972 13 11.9944 13 11.9916 13C11.9889 13 11.9861 13 11.9833 13C11.9805 13 11.9777 13 11.975 13C11.9722 13 11.9694 13 11.9667 13C11.9639 13 11.9612 13 11.9584 13C11.9556 13 11.9529 13 11.9501 13C11.9474 13 11.9446 13 11.9419 13C11.9391 13 11.9364 13 11.9337 13C11.9309 13 11.9282 13 11.9255 13C11.9227 13 11.92 13 11.9173 13C11.9145 13 11.9118 13 11.9091 13C11.9064 13 11.9037 13 11.901 13C11.8983 13 11.8955 13 11.8928 13C11.8901 13 11.8874 13 11.8847 13C11.882 13 11.8793 13 11.8766 13C11.8739 13 11.8713 13 11.8686 13C11.8659 13 11.8632 13 11.8605 13C11.8578 13 11.8552 13 11.8525 13C11.8498 13 11.8472 13 11.8445 13C11.8418 13 11.8392 13 11.8365 13C11.8338 13 11.8312 13 11.8285 13C11.8259 13 11.8232 13 11.8206 13C11.8179 13 11.8153 13 11.8126 13C11.81 13 11.8074 13 11.8047 13C11.8021 13 11.7995 13 11.7968 13C11.7942 13 11.7916 13 11.789 13C11.7863 13 11.7837 13 11.7811 13C11.7785 13 11.7759 13 11.7733 13C11.7707 13 11.7681 13 11.7655 13C11.7628 13 11.7603 13 11.7577 13C11.7551 13 11.7525 13 11.7499 13C11.7473 13 11.7447 13 11.7421 13C11.7395 13 11.737 13 11.7344 13C11.7318 13 11.7292 13 11.7267 13C11.7241 13 11.7215 13 11.719 13C11.7164 13 11.7138 13 11.7113 13C11.7087 13 11.7062 13 11.7036 13C11.7011 13 11.6985 13 11.696 13C11.6934 13 11.6909 13 11.6883 13C11.6858 13 11.6833 13 11.6807 13C11.6782 13 11.6757 13 11.6732 13C11.6706 13 11.6681 13 11.6656 13C11.6631 13 11.6605 13 11.658 13C11.6555 13 11.653 13 11.6505 13C11.648 13 11.6455 13 11.643 13C11.6405 13 11.638 13 11.6355 13C11.633 13 11.6305 13 11.628 13C11.6255 13 11.6231 13 11.6206 13C11.6181 13 11.6156 13 11.6131 13C11.6107 13 11.6082 13 11.6057 13C11.6033 13 11.6008 13 11.5983 13C11.5959 13 11.5934 13 11.591 13C11.5885 13 11.586 13 11.5836 13C11.5811 13 11.5787 13 11.5763 13C11.5738 13 11.5714 13 11.5689 13C11.5665 13 11.5641 13 11.5616 13C11.5592 13 11.5568 13 11.5544 13C11.5519 13 11.5495 13 11.5471 13C11.5447 13 11.5423 13 11.5398 13C11.5374 13 11.535 13 11.5326 13C11.5302 13 11.5278 13 11.5254 13C11.523 13 11.5206 13 11.5182 13C11.5158 13 11.5134 13 11.5111 13C11.5087 13 11.5063 13 11.5039 13C11.5015 13 11.4991 13 11.4968 13C11.4944 13 11.492 13 11.4897 13C11.4873 13 11.4849 13 11.4826 13C11.4802 13 11.4778 13 11.4755 13C11.4731 13 11.4708 13 11.4684 13C11.4661 13 11.4637 13 11.4614 13C11.4591 13 11.4567 13 11.4544 13C11.452 13 11.4497 13 11.4474 13C11.445 13 11.4427 13 11.4404 13C11.4381 13 11.4358 13 11.4334 13C11.4311 13 11.4288 13 11.4265 13C11.4242 13 11.4219 13 11.4196 13C11.4173 13 11.415 13 11.4127 13C11.4104 13 11.4081 13 11.4058 13C11.4035 13 11.4012 13 11.3989 13C11.3966 13 11.3943 13 11.392 13C11.3898 13 11.3875 13 11.3852 13C11.3829 13 11.3807 13 11.3784 13C11.3761 13 11.3739 13 11.3716 13C11.3693 13 11.3671 13 11.3648 13C11.3626 13 11.3603 13 11.3581 13C11.3558 13 11.3536 13 11.3513 13C11.3491 13 11.3468 13 11.3446 13C11.3424 13 11.3401 13 11.3379 13C11.3357 13 11.3334 13 11.3312 13C11.329 13 11.3268 13 11.3246 13C11.3223 13 11.3201 13 11.3179 13C11.3157 13 11.3135 13 11.3113 13C11.3091 13 11.3069 13 11.3047 13C11.3025 13 11.3003 13 11.2981 13C11.2959 13 11.2937 13 11.2915 13C11.2893 13 11.2871 13 11.2849 13C11.2828 13 11.2806 13 11.2784 13C11.2762 13 11.2741 13 11.2719 13C11.2697 13 11.2676 13 11.2654 13C11.2632 13 11.2611 13 11.2589 13C11.2568 13 11.2546 13 11.2524 13C11.2503 13 11.2481 13 11.246 13C11.2439 13 11.2417 13 11.2396 13C11.2374 13 11.2353 13 11.2332 13C11.231 13 11.2289 13 11.2268 13C11.2246 13 11.2225 13 11.2204 13C11.2183 13 11.2162 13 11.2141 13C11.2119 13 11.2098 13 11.2077 13C11.2056 13 11.2035 13 11.2014 13C11.1993 13 11.1972 13 11.1951 13C11.193 13 11.1909 13 11.1888 13C11.1867 13 11.1846 13 11.1826 13C11.1805 13 11.1784 13 11.1763 13C11.1742 13 11.1722 13 11.1701 13C11.168 13 11.1659 13 11.1639 13C11.1618 13 11.1597 13 11.1577 13C11.1556 13 11.1536 13 11.1515 13C11.1495 13 11.1474 13 11.1454 13C11.1433 13 11.1413 13 11.1392 13C11.1372 13 11.1351 13 11.1331 13C11.1311 13 11.129 13 11.127 13C11.125 13 11.123 13 11.1209 13C11.1189 13 11.1169 13 11.1149 13C11.1128 13 11.1108 13 11.1088 13C11.1068 13 11.1048 13 11.1028 13C11.1008 13 11.0988 13 11.0968 13C11.0948 13 11.0928 13 11.0908 13C11.0888 13 11.0868 13 11.0848 13C11.0828 13 11.0808 13 11.0789 13C11.0769 13 11.0749 13 11.0729 13C11.071 13 11.069 13 11.067 13C11.065 13 11.0631 13 11.0611 13C11.0591 13 11.0572 13 11.0552 13C11.0533 13 11.0513 13 11.0494 13C11.0474 13 11.0455 13 11.0435 13C11.0416 13 11.0396 13 11.0377 13C11.0357 13 11.0338 13 11.0319 13C11.0299 13 11.028 13 11.0261 13C11.0241 13 11.0222 13 11.0203 13C11.0184 13 11.0165 13 11.0145 13C11.0126 13 11.0107 13 11.0088 13C11.0069 13 11.005 13 11.0031 13C11.0012 13 10.9993 13 10.9974 13C10.9955 13 10.9936 13 10.9917 13C10.9898 13 10.9879 13 10.986 13C10.9841 13 10.9823 13 10.9804 13C10.9785 13 10.9766 13 10.9747 13C10.9729 13 10.971 13 10.9691 13C10.9673 13 10.9654 13 10.9635 13C10.9617 13 10.9598 13 10.9579 13C10.9561 13 10.9542 13 10.9524 13C10.9505 13 10.9487 13 10.9468 13C10.945 13 10.9431 13 10.9413 13C10.9395 13 10.9376 13 10.9358 13C10.934 13 10.9321 13 10.9303 13C10.9285 13 10.9267 13 10.9248 13C10.923 13 10.9212 13 10.9194 13C10.9176 13 10.9157 13 10.9139 13C10.9121 13 10.9103 13 10.9085 13C10.9067 13 10.9049 13 10.9031 13C10.9013 13 10.8995 13 10.8977 13C10.8959 13 10.8941 13 10.8924 13C10.8906 13 10.8888 13 10.887 13C10.8852 13 10.8834 13 10.8817 13C10.8799 13 10.8781 13 10.8764 13C10.8746 13 10.8728 13 10.8711 13C10.8693 13 10.8675 13 10.8658 13C10.864 13 10.8623 13 10.8605 13C10.8588 13 10.857 13 10.8553 13C10.8535 13 10.8518 13 10.85 13C10.8483 13 10.8466 13 10.8448 13C10.8431 13 10.8414 13 10.8396 13C10.8379 13 10.8362 13 10.8345 13C10.8327 13 10.831 13 10.8293 13C10.8276 13 10.8259 13 10.8242 13C10.8224 13 10.8207 13 10.819 13C10.8173 13 10.8156 13 10.8139 13C10.8122 13 10.8105 13 10.8088 13C10.8071 13 10.8055 13 10.8038 13C10.8021 13 10.8004 13 10.7987 13C10.797 13 10.7953 13 10.7937 13C10.792 13 10.7903 13 10.7886 13C10.787 13 10.7853 13 10.7836 13C10.782 13 10.7803 13 10.7787 13C10.777 13 10.7753 13 10.7737 13C10.772 13 10.7704 13 10.7687 13C10.7671 13 10.7654 13 10.7638 13C10.7622 13 10.7605 13 10.7589 13C10.7573 13 10.7556 13 10.754 13C10.7524 13 10.7507 13 10.7491 13C10.7475 13 10.7459 13 10.7442 13C10.7426 13 10.741 13 10.7394 13C10.7378 13 10.7362 13 10.7346 13C10.733 13 10.7314 13 10.7298 13C10.7282 13 10.7266 13 10.725 13C10.7234 13 10.7218 13 10.7202 13C10.7186 13 10.717 13 10.7154 13C10.7138 13 10.7122 13 10.7107 13C10.7091 13 10.7075 13 10.7059 13C10.7044 13 10.7028 13 10.7012 13C10.6997 13 10.6981 13 10.6965 13C10.695 13 10.6934 13 10.6919 13C10.6903 13 10.6888 13 10.6872 13C10.6857 13 10.6841 13 10.6826 13C10.681 13 10.6795 13 10.6779 13C10.6764 13 10.6749 13 10.6733 13C10.6718 13 10.6703 13 10.6687 13C10.6672 13 10.6657 13 10.6642 13C10.6626 13 10.6611 13 10.6596 13C10.6581 13 10.6566 13 10.6551 13C10.6535 13 10.652 13 10.6505 13C10.649 13 10.6475 13 10.646 13C10.6445 13 10.643 13 10.6415 13C10.64 13 10.6386 13 10.6371 13C10.6356 13 10.6341 13 10.6326 13C10.6311 13 10.6296 13 10.6282 13C10.6267 13 10.6252 13 10.6237 13C10.6223 13 10.6208 13 10.6193 13C10.6179 13 10.6164 13 10.615 13C10.6135 13 10.612 13 10.6106 13C10.6091 13 10.6077 13 10.6062 13C10.6048 13 10.6033 13 10.6019 13C10.6004 13 10.599 13 10.5976 13C10.5961 13 10.5947 13 10.5933 13C10.5918 13 10.5904 13 10.589 13C10.5875 13 10.5861 13 10.5847 13C10.5833 13 10.5819 13 10.5804 13C10.579 13 10.5776 13 10.5762 13C10.5748 13 10.5734 13 10.572 13C10.5706 13 10.5692 13 10.5678 13C10.5664 13 10.565 13 10.5636 13C10.5622 13 10.5608 13 10.5594 13C10.558 13 10.5567 13 10.5553 13C10.5539 13 10.5525 13 10.5511 13C10.5498 13 10.5484 13 10.547 13C10.5456 13 10.5443 13 10.5429 13C10.5415 13 10.5402 13 10.5388 13C10.5375 13 10.5361 13 10.5347 13C10.5334 13 10.532 13 10.5307 13C10.5293 13 10.528 13 10.5267 13C10.5253 13 10.524 13 10.5226 13C10.5213 13 10.52 13 10.5186 13C10.5173 13 10.516 13 10.5146 13C10.5133 13 10.512 13 10.5107 13C10.5093 13 10.508 13 10.5067 13C10.5054 13 10.5041 13 10.5028 13C10.5015 13 10.5002 13 10.4988 13C10.4975 13 10.4962 13 10.4949 13C10.4936 13 10.4923 13 10.4911 13C10.4898 13 10.4885 13 10.4872 13C10.4859 13 10.4846 13 10.4833 13C10.482 13 10.4808 13 10.4795 13C10.4782 13 10.4769 13 10.4757 13C10.4744 13 10.4731 13 10.4719 13C10.4706 13 10.4693 13 10.4681 13C10.4668 13 10.4655 13 10.4643 13C10.463 13 10.4618 13 10.4605 13C10.4593 13 10.458 13 10.4568 13C10.4555 13 10.4543 13 10.4531 13C10.4518 13 10.4506 13 10.4493 13C10.4481 13 10.4469 13 10.4457 13C10.4444 13 10.4432 13 10.442 13C10.4408 13 10.4395 13 10.4383 13C10.4371 13 10.4359 13 10.4347 13C10.4335 13 10.4323 13 10.431 13C10.4298 13 10.4286 13 10.4274 13C10.4262 13 10.425 13 10.4238 13C10.4226 13 10.4214 13 10.4203 13C10.4191 13 10.4179 13 10.4167 13C10.4155 13 10.4143 13 10.4131 13C10.412 13 10.4108 13 10.4096 13C10.4084 13 10.4073 13 10.4061 13C10.4049 13 10.4038 13 10.4026 13C10.4014 13 10.4003 13 10.3991 13C10.398 13 10.3968 13 10.3957 13C10.3945 13 10.3934 13 10.3922 13C10.3911 13 10.3899 13 10.3888 13C10.3876 13 10.3865 13 10.3854 13C10.3842 13 10.3831 13 10.3819 13C10.3808 13 10.3797 13 10.3786 13C10.3774 13 10.3763 13 10.3752 13C10.3741 13 10.373 13 10.3718 13C10.3707 13 10.3696 13 10.3685 13C10.3674 13 10.3663 13 10.3652 13C10.3641 13 10.363 13 10.3619 13C10.3608 13 10.3597 13 10.3586 13C10.3575 13 10.3564 13 10.3553 13C10.3542 13 10.3531 13 10.3521 13C10.351 13 10.3499 13 10.3488 13C10.3477 13 10.3467 13 10.3456 13C10.3445 13 10.3434 13 10.3424 13C10.3413 13 10.3402 13 10.3392 13C10.3381 13 10.3371 13 10.336 13C10.3349 13 10.3339 13 10.3328 13C10.3318 13 10.3307 13 10.3297 13C10.3286 13 10.3276 13 10.3266 13C10.3255 13 10.3245 13 10.3234 13C10.3224 13 10.3214 13 10.3203 13C10.3193 13 10.3183 13 10.3173 13C10.3162 13 10.3152 13 10.3142 13C10.3132 13 10.3122 13 10.3111 13C10.3101 13 10.3091 13 10.3081 13C10.3071 13 10.3061 13 10.3051 13C10.3041 13 10.3031 13 10.3021 13C10.3011 13 10.3001 13 10.2991 13C10.2981 13 10.2971 13 10.2961 13C10.2951 13 10.2941 13 10.2932 13C10.2922 13 10.2912 13 10.2902 13C10.2892 13 10.2883 13 10.2873 13C10.2863 13 10.2854 13 10.2844 13C10.2834 13 10.2825 13 10.2815 13C10.2805 13 10.2796 13 10.2786 13C10.2777 13 10.2767 13 10.2757 13C10.2748 13 10.2738 13 10.2729 13C10.272 13 10.271 13 10.2701 13C10.2691 13 10.2682 13 10.2672 13C10.2663 13 10.2654 13 10.2644 13C10.2635 13 10.2626 13 10.2617 13C10.2607 13 10.2598 13 10.2589 13C10.258 13 10.2571 13 10.2561 13C10.2552 13 10.2543 13 10.2534 13C10.2525 13 10.2516 13 10.2507 13C10.2498 13 10.2489 13 10.248 13C10.2471 13 10.2462 13 10.2453 13C10.2444 13 10.2435 13 10.2426 13C10.2417 13 10.2408 13 10.2399 13C10.2391 13 10.2382 13 10.2373 13C10.2364 13 10.2355 13 10.2347 13C10.2338 13 10.2329 13 10.232 13C10.2312 13 10.2303 13 10.2294 13C10.2286 13 10.2277 13 10.2269 13C10.226 13 10.2251 13 10.2243 13C10.2234 13 10.2226 13 10.2217 13C10.2209 13 10.22 13 10.2192 13C10.2184 13 10.2175 13 10.2167 13C10.2158 13 10.215 13 10.2142 13C10.2133 13 10.2125 13 10.2117 13C10.2109 13 10.21 13 10.2092 13C10.2084 13 10.2076 13 10.2067 13C10.2059 13 10.2051 13 10.2043 13C10.2035 13 10.2027 13 10.2019 13C10.2011 13 10.2003 13 10.1994 13C10.1986 13 10.1978 13 10.197 13C10.1963 13 10.1955 13 10.1947 13C10.1939 13 10.1931 13 10.1923 13C10.1915 13 10.1907 13 10.1899 13C10.1892 13 10.1884 13 10.1876 13C10.1868 13 10.186 13 10.1853 13C10.1845 13 10.1837 13 10.183 13C10.1822 13 10.1814 13 10.1807 13C10.1799 13 10.1792 13 10.1784 13C10.1776 13 10.1769 13 10.1761 13C10.1754 13 10.1746 13 10.1739 13C10.1731 13 10.1724 13 10.1716 13C10.1709 13 10.1702 13 10.1694 13C10.1687 13 10.168 13 10.1672 13C10.1665 13 10.1658 13 10.165 13C10.1643 13 10.1636 13 10.1629 13C10.1621 13 10.1614 13 10.1607 13C10.16 13 10.1593 13 10.1586 13C10.1579 13 10.1571 13 10.1564 13C10.1557 13 10.155 13 10.1543 13C10.1536 13 10.1529 13 10.1522 13C10.1515 13 10.1508 13 10.1501 13C10.1495 13 10.1488 13 10.1481 13C10.1474 13 10.1467 13 10.146 13C10.1453 13 10.1447 13 10.144 13C10.1433 13 10.1426 13 10.142 13C10.1413 13 10.1406 13 10.14 13C10.1393 13 10.1386 13 10.138 13C10.1373 13 10.1366 13 10.136 13C10.1353 13 10.1347 13 10.134 13C10.1334 13 10.1327 13 10.1321 13C10.1314 13 10.1308 13 10.1301 13C10.1295 13 10.1289 13 10.1282 13C10.1276 13 10.1269 13 10.1263 13C10.1257 13 10.125 13 10.1244 13C10.1238 13 10.1232 13 10.1225 13C10.1219 13 10.1213 13 10.1207 13C10.1201 13 10.1195 13 10.1188 13C10.1182 13 10.1176 13 10.117 13C10.1164 13 10.1158 13 10.1152 13C10.1146 13 10.114 13 10.1134 13C10.1128 13 10.1122 13 10.1116 13C10.111 13 10.1104 13 10.1098 13C10.1092 13 10.1087 13 10.1081 13C10.1075 13 10.1069 13 10.1063 13C10.1058 13 10.1052 13 10.1046 13C10.104 13 10.1035 13 10.1029 13C10.1023 13 10.1018 13 10.1012 13C10.1006 13 10.1001 13 10.0995 13C10.099 13 10.0984 13 10.0978 13C10.0973 13 10.0967 13 10.0962 13C10.0956 13 10.0951 13 10.0946 13C10.094 13 10.0935 13 10.0929 13C10.0924 13 10.0919 13 10.0913 13C10.0908 13 10.0903 13 10.0897 13C10.0892 13 10.0887 13 10.0881 13C10.0876 13 10.0871 13 10.0866 13C10.0861 13 10.0855 13 10.085 13C10.0845 13 10.084 13 10.0835 13C10.083 13 10.0825 13 10.082 13C10.0815 13 10.081 13 10.0805 13C10.08 13 10.0795 13 10.079 13C10.0785 13 10.078 13 10.0775 13C10.077 13 10.0765 13 10.076 13C10.0755 13 10.075 13 10.0746 13C10.0741 13 10.0736 13 10.0731 13C10.0726 13 10.0722 13 10.0717 13C10.0712 13 10.0708 13 10.0703 13C10.0698 13 10.0694 13 10.0689 13C10.0684 13 10.068 13 10.0675 13C10.0671 13 10.0666 13 10.0662 13C10.0657 13 10.0653 13 10.0648 13C10.0644 13 10.0639 13 10.0635 13C10.063 13 10.0626 13 10.0622 13C10.0617 13 10.0613 13 10.0608 13C10.0604 13 10.06 13 10.0596 13C10.0591 13 10.0587 13 10.0583 13C10.0578 13 10.0574 13 10.057 13C10.0566 13 10.0562 13 10.0558 13C10.0553 13 10.0549 13 10.0545 13C10.0541 13 10.0537 13 10.0533 13C10.0529 13 10.0525 13 10.0521 13C10.0517 13 10.0513 13 10.0509 13C10.0505 13 10.0501 13 10.0497 13C10.0493 13 10.0489 13 10.0486 13C10.0482 13 10.0478 13 10.0474 13C10.047 13 10.0466 13 10.0463 13C10.0459 13 10.0455 13 10.0451 13C10.0448 13 10.0444 13 10.044 13C10.0437 13 10.0433 13 10.0429 13C10.0426 13 10.0422 13 10.0419 13C10.0415 13 10.0411 13 10.0408 13C10.0404 13 10.0401 13 10.0397 13C10.0394 13 10.0391 13 10.0387 13C10.0384 13 10.038 13 10.0377 13C10.0373 13 10.037 13 10.0367 13C10.0363 13 10.036 13 10.0357 13C10.0353 13 10.035 13 10.0347 13C10.0344 13 10.034 13 10.0337 13C10.0334 13 10.0331 13 10.0328 13C10.0325 13 10.0321 13 10.0318 13C10.0315 13 10.0312 13 10.0309 13C10.0306 13 10.0303 13 10.03 13C10.0297 13 10.0294 13 10.0291 13C10.0288 13 10.0285 13 10.0282 13C10.0279 13 10.0276 13 10.0273 13C10.0271 13 10.0268 13 10.0265 13C10.0262 13 10.0259 13 10.0256 13C10.0254 13 10.0251 13 10.0248 13C10.0245 13 10.0243 13 10.024 13C10.0237 13 10.0235 13 10.0232 13C10.0229 13 10.0227 13 10.0224 13C10.0222 13 10.0219 13 10.0216 13C10.0214 13 10.0211 13 10.0209 13C10.0206 13 10.0204 13 10.0201 13C10.0199 13 10.0196 13 10.0194 13C10.0192 13 10.0189 13 10.0187 13C10.0184 13 10.0182 13 10.018 13C10.0177 13 10.0175 13 10.0173 13C10.0171 13 10.0168 13 10.0166 13C10.0164 13 10.0162 13 10.016 13C10.0157 13 10.0155 13 10.0153 13C10.0151 13 10.0149 13 10.0147 13C10.0145 13 10.0142 13 10.014 13C10.0138 13 10.0136 13 10.0134 13C10.0132 13 10.013 13 10.0128 13C10.0126 13 10.0125 13 10.0123 13C10.0121 13 10.0119 13 10.0117 13C10.0115 13 10.0113 13 10.0111 13C10.011 13 10.0108 13 10.0106 13C10.0104 13 10.0102 13 10.0101 13C10.0099 13 10.0097 13 10.0096 13C10.0094 13 10.0092 13 10.0091 13C10.0089 13 10.0087 13 10.0086 13C10.0084 13 10.0083 13 10.0081 13C10.0079 13 10.0078 13 10.0076 13C10.0075 13 10.0073 13 10.0072 13C10.0071 13 10.0069 13 10.0068 13C10.0066 13 10.0065 13 10.0063 13C10.0062 13 10.0061 13 10.0059 13C10.0058 13 10.0057 13 10.0056 13C10.0054 13 10.0053 13 10.0052 13C10.005 13 10.0049 13 10.0048 13C10.0047 13 10.0046 13 10.0045 13C10.0043 13 10.0042 13 10.0041 13C10.004 13 10.0039 13 10.0038 13C10.0037 13 10.0036 13 10.0035 13C10.0034 13 10.0033 13 10.0032 13C10.0031 13 10.003 13 10.0029 13C10.0028 13 10.0027 13 10.0026 13C10.0025 13 10.0025 13 10.0024 13C10.0023 13 10.0022 13 10.0021 13C10.0021 13 10.002 13 10.0019 13C10.0018 13 10.0018 13 10.0017 13C10.0016 13 10.0015 13 10.0015 13C10.0014 13 10.0013 13 10.0013 13C10.0012 13 10.0012 13 10.0011 13C10.0011 13 10.001 13 10.0009 13C10.0009 13 10.0008 13 10.0008 13C10.0007 13 10.0007 13 10.0007 13C10.0006 13 10.0006 13 10.0005 13C10.0005 13 10.0005 13 10.0004 13C10.0004 13 10.0004 13 10.0003 13C10.0003 13 10.0003 13 10.0002 13C10.0002 13 10.0002 13 10.0002 13C10.0001 13 10.0001 13 10.0001 13C10.0001 13 10.0001 13 10.0001 13C10 13 10 13 10 13C10 13 10 13 10 13C10 13 10 13 10 14ZM12 15C12.0028 15 12.0056 15 12.0084 15C12.0111 15 12.0139 15 12.0167 15C12.0195 15 12.0223 15 12.025 15C12.0278 15 12.0306 15 12.0333 15C12.0361 15 12.0388 15 12.0416 15C12.0444 15 12.0471 15 12.0499 15C12.0526 15 12.0554 15 12.0581 15C12.0609 15 12.0636 15 12.0663 15C12.0691 15 12.0718 15 12.0745 15C12.0773 15 12.08 15 12.0827 15C12.0855 15 12.0882 15 12.0909 15C12.0936 15 12.0963 15 12.099 15C12.1017 15 12.1045 15 12.1072 15C12.1099 15 12.1126 15 12.1153 15C12.118 15 12.1207 15 12.1234 15C12.1261 15 12.1287 15 12.1314 15C12.1341 15 12.1368 15 12.1395 15C12.1422 15 12.1448 15 12.1475 15C12.1502 15 12.1528 15 12.1555 15C12.1582 15 12.1608 15 12.1635 15C12.1662 15 12.1688 15 12.1715 15C12.1741 15 12.1768 15 12.1794 15C12.1821 15 12.1847 15 12.1874 15C12.19 15 12.1926 15 12.1953 15C12.1979 15 12.2005 15 12.2032 15C12.2058 15 12.2084 15 12.211 15C12.2137 15 12.2163 15 12.2189 15C12.2215 15 12.2241 15 12.2267 15C12.2293 15 12.2319 15 12.2345 15C12.2372 15 12.2397 15 12.2423 15C12.2449 15 12.2475 15 12.2501 15C12.2527 15 12.2553 15 12.2579 15C12.2605 15 12.263 15 12.2656 15C12.2682 15 12.2708 15 12.2733 15C12.2759 15 12.2785 15 12.281 15C12.2836 15 12.2862 15 12.2887 15C12.2913 15 12.2938 15 12.2964 15C12.2989 15 12.3015 15 12.304 15C12.3066 15 12.3091 15 12.3117 15C12.3142 15 12.3167 15 12.3193 15C12.3218 15 12.3243 15 12.3268 15C12.3294 15 12.3319 15 12.3344 15C12.3369 15 12.3395 15 12.342 15C12.3445 15 12.347 15 12.3495 15C12.352 15 12.3545 15 12.357 15C12.3595 15 12.362 15 12.3645 15C12.367 15 12.3695 15 12.372 15C12.3745 15 12.3769 15 12.3794 15C12.3819 15 12.3844 15 12.3869 15C12.3893 15 12.3918 15 12.3943 15C12.3967 15 12.3992 15 12.4017 15C12.4041 15 12.4066 15 12.409 15C12.4115 15 12.414 15 12.4164 15C12.4189 15 12.4213 15 12.4237 15C12.4262 15 12.4286 15 12.4311 15C12.4335 15 12.4359 15 12.4384 15C12.4408 15 12.4432 15 12.4456 15C12.4481 15 12.4505 15 12.4529 15C12.4553 15 12.4577 15 12.4602 15C12.4626 15 12.465 15 12.4674 15C12.4698 15 12.4722 15 12.4746 15C12.477 15 12.4794 15 12.4818 15C12.4842 15 12.4866 15 12.4889 15C12.4913 15 12.4937 15 12.4961 15C12.4985 15 12.5009 15 12.5032 15C12.5056 15 12.508 15 12.5103 15C12.5127 15 12.5151 15 12.5174 15C12.5198 15 12.5222 15 12.5245 15C12.5269 15 12.5292 15 12.5316 15C12.5339 15 12.5363 15 12.5386 15C12.5409 15 12.5433 15 12.5456 15C12.548 15 12.5503 15 12.5526 15C12.555 15 12.5573 15 12.5596 15C12.5619 15 12.5642 15 12.5666 15C12.5689 15 12.5712 15 12.5735 15C12.5758 15 12.5781 15 12.5804 15C12.5827 15 12.585 15 12.5873 15C12.5896 15 12.5919 15 12.5942 15C12.5965 15 12.5988 15 12.6011 15C12.6034 15 12.6057 15 12.608 15C12.6102 15 12.6125 15 12.6148 15C12.6171 15 12.6193 15 12.6216 15C12.6239 15 12.6261 15 12.6284 15C12.6307 15 12.6329 15 12.6352 15C12.6374 15 12.6397 15 12.6419 15C12.6442 15 12.6464 15 12.6487 15C12.6509 15 12.6532 15 12.6554 15C12.6576 15 12.6599 15 12.6621 15C12.6643 15 12.6666 15 12.6688 15C12.671 15 12.6732 15 12.6754 15C12.6777 15 12.6799 15 12.6821 15C12.6843 15 12.6865 15 12.6887 15C12.6909 15 12.6931 15 12.6953 15C12.6975 15 12.6997 15 12.7019 15C12.7041 15 12.7063 15 12.7085 15C12.7107 15 12.7129 15 12.7151 15C12.7172 15 12.7194 15 12.7216 15C12.7238 15 12.7259 15 12.7281 15C12.7303 15 12.7324 15 12.7346 15C12.7368 15 12.7389 15 12.7411 15C12.7432 15 12.7454 15 12.7476 15C12.7497 15 12.7519 15 12.754 15C12.7561 15 12.7583 15 12.7604 15C12.7626 15 12.7647 15 12.7668 15C12.769 15 12.7711 15 12.7732 15C12.7754 15 12.7775 15 12.7796 15C12.7817 15 12.7838 15 12.7859 15C12.7881 15 12.7902 15 12.7923 15C12.7944 15 12.7965 15 12.7986 15C12.8007 15 12.8028 15 12.8049 15C12.807 15 12.8091 15 12.8112 15C12.8133 15 12.8154 15 12.8174 15C12.8195 15 12.8216 15 12.8237 15C12.8258 15 12.8278 15 12.8299 15C12.832 15 12.8341 15 12.8361 15C12.8382 15 12.8403 15 12.8423 15C12.8444 15 12.8464 15 12.8485 15C12.8505 15 12.8526 15 12.8546 15C12.8567 15 12.8587 15 12.8608 15C12.8628 15 12.8649 15 12.8669 15C12.8689 15 12.871 15 12.873 15C12.875 15 12.877 15 12.8791 15C12.8811 15 12.8831 15 12.8851 15C12.8872 15 12.8892 15 12.8912 15C12.8932 15 12.8952 15 12.8972 15C12.8992 15 12.9012 15 12.9032 15C12.9052 15 12.9072 15 12.9092 15C12.9112 15 12.9132 15 12.9152 15C12.9172 15 12.9192 15 12.9211 15C12.9231 15 12.9251 15 12.9271 15C12.929 15 12.931 15 12.933 15C12.935 15 12.9369 15 12.9389 15C12.9409 15 12.9428 15 12.9448 15C12.9467 15 12.9487 15 12.9506 15C12.9526 15 12.9545 15 12.9565 15C12.9584 15 12.9604 15 12.9623 15C12.9643 15 12.9662 15 12.9681 15C12.9701 15 12.972 15 12.9739 15C12.9759 15 12.9778 15 12.9797 15C12.9816 15 12.9835 15 12.9855 15C12.9874 15 12.9893 15 12.9912 15C12.9931 15 12.995 15 12.9969 15C12.9988 15 13.0007 15 13.0026 15C13.0045 15 13.0064 15 13.0083 15C13.0102 15 13.0121 15 13.014 15C13.0159 15 13.0177 15 13.0196 15C13.0215 15 13.0234 15 13.0253 15C13.0271 15 13.029 15 13.0309 15C13.0327 15 13.0346 15 13.0365 15C13.0383 15 13.0402 15 13.0421 15C13.0439 15 13.0458 15 13.0476 15C13.0495 15 13.0513 15 13.0532 15C13.055 15 13.0569 15 13.0587 15C13.0605 15 13.0624 15 13.0642 15C13.066 15 13.0679 15 13.0697 15C13.0715 15 13.0733 15 13.0752 15C13.077 15 13.0788 15 13.0806 15C13.0824 15 13.0843 15 13.0861 15C13.0879 15 13.0897 15 13.0915 15C13.0933 15 13.0951 15 13.0969 15C13.0987 15 13.1005 15 13.1023 15C13.1041 15 13.1059 15 13.1076 15C13.1094 15 13.1112 15 13.113 15C13.1148 15 13.1166 15 13.1183 15C13.1201 15 13.1219 15 13.1236 15C13.1254 15 13.1272 15 13.1289 15C13.1307 15 13.1325 15 13.1342 15C13.136 15 13.1377 15 13.1395 15C13.1412 15 13.143 15 13.1447 15C13.1465 15 13.1482 15 13.15 15C13.1517 15 13.1534 15 13.1552 15C13.1569 15 13.1586 15 13.1604 15C13.1621 15 13.1638 15 13.1655 15C13.1673 15 13.169 15 13.1707 15C13.1724 15 13.1741 15 13.1758 15C13.1776 15 13.1793 15 13.181 15C13.1827 15 13.1844 15 13.1861 15C13.1878 15 13.1895 15 13.1912 15C13.1929 15 13.1945 15 13.1962 15C13.1979 15 13.1996 15 13.2013 15C13.203 15 13.2047 15 13.2063 15C13.208 15 13.2097 15 13.2114 15C13.213 15 13.2147 15 13.2164 15C13.218 15 13.2197 15 13.2213 15C13.223 15 13.2247 15 13.2263 15C13.228 15 13.2296 15 13.2313 15C13.2329 15 13.2346 15 13.2362 15C13.2378 15 13.2395 15 13.2411 15C13.2427 15 13.2444 15 13.246 15C13.2476 15 13.2493 15 13.2509 15C13.2525 15 13.2541 15 13.2558 15C13.2574 15 13.259 15 13.2606 15C13.2622 15 13.2638 15 13.2654 15C13.267 15 13.2686 15 13.2702 15C13.2718 15 13.2734 15 13.275 15C13.2766 15 13.2782 15 13.2798 15C13.2814 15 13.283 15 13.2846 15C13.2862 15 13.2878 15 13.2893 15C13.2909 15 13.2925 15 13.2941 15C13.2956 15 13.2972 15 13.2988 15C13.3003 15 13.3019 15 13.3035 15C13.305 15 13.3066 15 13.3081 15C13.3097 15 13.3112 15 13.3128 15C13.3143 15 13.3159 15 13.3174 15C13.319 15 13.3205 15 13.3221 15C13.3236 15 13.3251 15 13.3267 15C13.3282 15 13.3297 15 13.3313 15C13.3328 15 13.3343 15 13.3358 15C13.3374 15 13.3389 15 13.3404 15C13.3419 15 13.3434 15 13.3449 15C13.3465 15 13.348 15 13.3495 15C13.351 15 13.3525 15 13.354 15C13.3555 15 13.357 15 13.3585 15C13.36 15 13.3614 15 13.3629 15C13.3644 15 13.3659 15 13.3674 15C13.3689 15 13.3704 15 13.3718 15C13.3733 15 13.3748 15 13.3763 15C13.3777 15 13.3792 15 13.3807 15C13.3821 15 13.3836 15 13.385 15C13.3865 15 13.388 15 13.3894 15C13.3909 15 13.3923 15 13.3938 15C13.3952 15 13.3967 15 13.3981 15C13.3996 15 13.401 15 13.4024 15C13.4039 15 13.4053 15 13.4067 15C13.4082 15 13.4096 15 13.411 15C13.4125 15 13.4139 15 13.4153 15C13.4167 15 13.4181 15 13.4196 15C13.421 15 13.4224 15 13.4238 15C13.4252 15 13.4266 15 13.428 15C13.4294 15 13.4308 15 13.4322 15C13.4336 15 13.435 15 13.4364 15C13.4378 15 13.4392 15 13.4406 15C13.442 15 13.4433 15 13.4447 15C13.4461 15 13.4475 15 13.4489 15C13.4502 15 13.4516 15 13.453 15C13.4544 15 13.4557 15 13.4571 15C13.4585 15 13.4598 15 13.4612 15C13.4625 15 13.4639 15 13.4653 15C13.4666 15 13.468 15 13.4693 15C13.4707 15 13.472 15 13.4733 15C13.4747 15 13.476 15 13.4774 15C13.4787 15 13.48 15 13.4814 15C13.4827 15 13.484 15 13.4854 15C13.4867 15 13.488 15 13.4893 15C13.4907 15 13.492 15 13.4933 15C13.4946 15 13.4959 15 13.4972 15C13.4985 15 13.4998 15 13.5012 15C13.5025 15 13.5038 15 13.5051 15C13.5064 15 13.5077 15 13.5089 15C13.5102 15 13.5115 15 13.5128 15C13.5141 15 13.5154 15 13.5167 15C13.518 15 13.5192 15 13.5205 15C13.5218 15 13.5231 15 13.5243 15C13.5256 15 13.5269 15 13.5281 15C13.5294 15 13.5307 15 13.5319 15C13.5332 15 13.5345 15 13.5357 15C13.537 15 13.5382 15 13.5395 15C13.5407 15 13.542 15 13.5432 15C13.5445 15 13.5457 15 13.5469 15C13.5482 15 13.5494 15 13.5507 15C13.5519 15 13.5531 15 13.5543 15C13.5556 15 13.5568 15 13.558 15C13.5592 15 13.5605 15 13.5617 15C13.5629 15 13.5641 15 13.5653 15C13.5665 15 13.5677 15 13.569 15C13.5702 15 13.5714 15 13.5726 15C13.5738 15 13.575 15 13.5762 15C13.5774 15 13.5786 15 13.5797 15C13.5809 15 13.5821 15 13.5833 15C13.5845 15 13.5857 15 13.5869 15C13.588 15 13.5892 15 13.5904 15C13.5916 15 13.5927 15 13.5939 15C13.5951 15 13.5962 15 13.5974 15C13.5986 15 13.5997 15 13.6009 15C13.602 15 13.6032 15 13.6043 15C13.6055 15 13.6066 15 13.6078 15C13.6089 15 13.6101 15 13.6112 15C13.6124 15 13.6135 15 13.6146 15C13.6158 15 13.6169 15 13.6181 15C13.6192 15 13.6203 15 13.6214 15C13.6226 15 13.6237 15 13.6248 15C13.6259 15 13.627 15 13.6282 15C13.6293 15 13.6304 15 13.6315 15C13.6326 15 13.6337 15 13.6348 15C13.6359 15 13.637 15 13.6381 15C13.6392 15 13.6403 15 13.6414 15C13.6425 15 13.6436 15 13.6447 15C13.6458 15 13.6469 15 13.6479 15C13.649 15 13.6501 15 13.6512 15C13.6523 15 13.6533 15 13.6544 15C13.6555 15 13.6566 15 13.6576 15C13.6587 15 13.6598 15 13.6608 15C13.6619 15 13.6629 15 13.664 15C13.6651 15 13.6661 15 13.6672 15C13.6682 15 13.6693 15 13.6703 15C13.6714 15 13.6724 15 13.6734 15C13.6745 15 13.6755 15 13.6766 15C13.6776 15 13.6786 15 13.6797 15C13.6807 15 13.6817 15 13.6827 15C13.6838 15 13.6848 15 13.6858 15C13.6868 15 13.6878 15 13.6889 15C13.6899 15 13.6909 15 13.6919 15C13.6929 15 13.6939 15 13.6949 15C13.6959 15 13.6969 15 13.6979 15C13.6989 15 13.6999 15 13.7009 15C13.7019 15 13.7029 15 13.7039 15C13.7049 15 13.7059 15 13.7068 15C13.7078 15 13.7088 15 13.7098 15C13.7108 15 13.7117 15 13.7127 15C13.7137 15 13.7146 15 13.7156 15C13.7166 15 13.7175 15 13.7185 15C13.7195 15 13.7204 15 13.7214 15C13.7223 15 13.7233 15 13.7243 15C13.7252 15 13.7262 15 13.7271 15C13.728 15 13.729 15 13.7299 15C13.7309 15 13.7318 15 13.7328 15C13.7337 15 13.7346 15 13.7356 15C13.7365 15 13.7374 15 13.7383 15C13.7393 15 13.7402 15 13.7411 15C13.742 15 13.7429 15 13.7439 15C13.7448 15 13.7457 15 13.7466 15C13.7475 15 13.7484 15 13.7493 15C13.7502 15 13.7511 15 13.752 15C13.7529 15 13.7538 15 13.7547 15C13.7556 15 13.7565 15 13.7574 15C13.7583 15 13.7592 15 13.7601 15C13.7609 15 13.7618 15 13.7627 15C13.7636 15 13.7645 15 13.7653 15C13.7662 15 13.7671 15 13.768 15C13.7688 15 13.7697 15 13.7706 15C13.7714 15 13.7723 15 13.7731 15C13.774 15 13.7749 15 13.7757 15C13.7766 15 13.7774 15 13.7783 15C13.7791 15 13.78 15 13.7808 15C13.7816 15 13.7825 15 13.7833 15C13.7842 15 13.785 15 13.7858 15C13.7867 15 13.7875 15 13.7883 15C13.7891 15 13.79 15 13.7908 15C13.7916 15 13.7924 15 13.7933 15C13.7941 15 13.7949 15 13.7957 15C13.7965 15 13.7973 15 13.7981 15C13.7989 15 13.7997 15 13.8006 15C13.8014 15 13.8022 15 13.803 15C13.8037 15 13.8045 15 13.8053 15C13.8061 15 13.8069 15 13.8077 15C13.8085 15 13.8093 15 13.8101 15C13.8108 15 13.8116 15 13.8124 15C13.8132 15 13.814 15 13.8147 15C13.8155 15 13.8163 15 13.817 15C13.8178 15 13.8186 15 13.8193 15C13.8201 15 13.8208 15 13.8216 15C13.8224 15 13.8231 15 13.8239 15C13.8246 15 13.8254 15 13.8261 15C13.8269 15 13.8276 15 13.8284 15C13.8291 15 13.8298 15 13.8306 15C13.8313 15 13.832 15 13.8328 15C13.8335 15 13.8342 15 13.835 15C13.8357 15 13.8364 15 13.8371 15C13.8379 15 13.8386 15 13.8393 15C13.84 15 13.8407 15 13.8414 15C13.8421 15 13.8429 15 13.8436 15C13.8443 15 13.845 15 13.8457 15C13.8464 15 13.8471 15 13.8478 15C13.8485 15 13.8492 15 13.8499 15C13.8505 15 13.8512 15 13.8519 15C13.8526 15 13.8533 15 13.854 15C13.8547 15 13.8553 15 13.856 15C13.8567 15 13.8574 15 13.858 15C13.8587 15 13.8594 15 13.86 15C13.8607 15 13.8614 15 13.862 15C13.8627 15 13.8634 15 13.864 15C13.8647 15 13.8653 15 13.866 15C13.8666 15 13.8673 15 13.8679 15C13.8686 15 13.8692 15 13.8699 15C13.8705 15 13.8711 15 13.8718 15C13.8724 15 13.8731 15 13.8737 15C13.8743 15 13.875 15 13.8756 15C13.8762 15 13.8768 15 13.8775 15C13.8781 15 13.8787 15 13.8793 15C13.8799 15 13.8805 15 13.8812 15C13.8818 15 13.8824 15 13.883 15C13.8836 15 13.8842 15 13.8848 15C13.8854 15 13.886 15 13.8866 15C13.8872 15 13.8878 15 13.8884 15C13.889 15 13.8896 15 13.8902 15C13.8908 15 13.8913 15 13.8919 15C13.8925 15 13.8931 15 13.8937 15C13.8942 15 13.8948 15 13.8954 15C13.896 15 13.8965 15 13.8971 15C13.8977 15 13.8982 15 13.8988 15C13.8994 15 13.8999 15 13.9005 15C13.901 15 13.9016 15 13.9022 15C13.9027 15 13.9033 15 13.9038 15C13.9044 15 13.9049 15 13.9054 15C13.906 15 13.9065 15 13.9071 15C13.9076 15 13.9081 15 13.9087 15C13.9092 15 13.9097 15 13.9103 15C13.9108 15 13.9113 15 13.9119 15C13.9124 15 13.9129 15 13.9134 15C13.9139 15 13.9145 15 13.915 15C13.9155 15 13.916 15 13.9165 15C13.917 15 13.9175 15 13.918 15C13.9185 15 13.919 15 13.9195 15C13.92 15 13.9205 15 13.921 15C13.9215 15 13.922 15 13.9225 15C13.923 15 13.9235 15 13.924 15C13.9245 15 13.925 15 13.9254 15C13.9259 15 13.9264 15 13.9269 15C13.9274 15 13.9278 15 13.9283 15C13.9288 15 13.9292 15 13.9297 15C13.9302 15 13.9306 15 13.9311 15C13.9316 15 13.932 15 13.9325 15C13.9329 15 13.9334 15 13.9338 15C13.9343 15 13.9347 15 13.9352 15C13.9356 15 13.9361 15 13.9365 15C13.937 15 13.9374 15 13.9378 15C13.9383 15 13.9387 15 13.9392 15C13.9396 15 13.94 15 13.9404 15C13.9409 15 13.9413 15 13.9417 15C13.9422 15 13.9426 15 13.943 15C13.9434 15 13.9438 15 13.9442 15C13.9447 15 13.9451 15 13.9455 15C13.9459 15 13.9463 15 13.9467 15C13.9471 15 13.9475 15 13.9479 15C13.9483 15 13.9487 15 13.9491 15C13.9495 15 13.9499 15 13.9503 15C13.9507 15 13.9511 15 13.9514 15C13.9518 15 13.9522 15 13.9526 15C13.953 15 13.9534 15 13.9537 15C13.9541 15 13.9545 15 13.9549 15C13.9552 15 13.9556 15 13.956 15C13.9563 15 13.9567 15 13.9571 15C13.9574 15 13.9578 15 13.9581 15C13.9585 15 13.9589 15 13.9592 15C13.9596 15 13.9599 15 13.9603 15C13.9606 15 13.9609 15 13.9613 15C13.9616 15 13.962 15 13.9623 15C13.9627 15 13.963 15 13.9633 15C13.9637 15 13.964 15 13.9643 15C13.9647 15 13.965 15 13.9653 15C13.9656 15 13.966 15 13.9663 15C13.9666 15 13.9669 15 13.9672 15C13.9675 15 13.9679 15 13.9682 15C13.9685 15 13.9688 15 13.9691 15C13.9694 15 13.9697 15 13.97 15C13.9703 15 13.9706 15 13.9709 15C13.9712 15 13.9715 15 13.9718 15C13.9721 15 13.9724 15 13.9727 15C13.9729 15 13.9732 15 13.9735 15C13.9738 15 13.9741 15 13.9744 15C13.9746 15 13.9749 15 13.9752 15C13.9755 15 13.9757 15 13.976 15C13.9763 15 13.9765 15 13.9768 15C13.9771 15 13.9773 15 13.9776 15C13.9778 15 13.9781 15 13.9784 15C13.9786 15 13.9789 15 13.9791 15C13.9794 15 13.9796 15 13.9799 15C13.9801 15 13.9804 15 13.9806 15C13.9808 15 13.9811 15 13.9813 15C13.9816 15 13.9818 15 13.982 15C13.9823 15 13.9825 15 13.9827 15C13.9829 15 13.9832 15 13.9834 15C13.9836 15 13.9838 15 13.984 15C13.9843 15 13.9845 15 13.9847 15C13.9849 15 13.9851 15 13.9853 15C13.9855 15 13.9858 15 13.986 15C13.9862 15 13.9864 15 13.9866 15C13.9868 15 13.987 15 13.9872 15C13.9874 15 13.9875 15 13.9877 15C13.9879 15 13.9881 15 13.9883 15C13.9885 15 13.9887 15 13.9889 15C13.989 15 13.9892 15 13.9894 15C13.9896 15 13.9898 15 13.9899 15C13.9901 15 13.9903 15 13.9904 15C13.9906 15 13.9908 15 13.9909 15C13.9911 15 13.9913 15 13.9914 15C13.9916 15 13.9917 15 13.9919 15C13.9921 15 13.9922 15 13.9924 15C13.9925 15 13.9927 15 13.9928 15C13.9929 15 13.9931 15 13.9932 15C13.9934 15 13.9935 15 13.9937 15C13.9938 15 13.9939 15 13.9941 15C13.9942 15 13.9943 15 13.9944 15C13.9946 15 13.9947 15 13.9948 15C13.995 15 13.9951 15 13.9952 15C13.9953 15 13.9954 15 13.9955 15C13.9957 15 13.9958 15 13.9959 15C13.996 15 13.9961 15 13.9962 15C13.9963 15 13.9964 15 13.9965 15C13.9966 15 13.9967 15 13.9968 15C13.9969 15 13.997 15 13.9971 15C13.9972 15 13.9973 15 13.9974 15C13.9975 15 13.9975 15 13.9976 15C13.9977 15 13.9978 15 13.9979 15C13.9979 15 13.998 15 13.9981 15C13.9982 15 13.9982 15 13.9983 15C13.9984 15 13.9985 15 13.9985 15C13.9986 15 13.9987 15 13.9987 15C13.9988 15 13.9988 15 13.9989 15C13.9989 15 13.999 15 13.9991 15C13.9991 15 13.9992 15 13.9992 15C13.9993 15 13.9993 15 13.9993 15C13.9994 15 13.9994 15 13.9995 15C13.9995 15 13.9995 15 13.9996 15C13.9996 15 13.9996 15 13.9997 15C13.9997 15 13.9997 15 13.9998 15C13.9998 15 13.9998 15 13.9998 15C13.9999 15 13.9999 15 13.9999 15C13.9999 15 13.9999 15 13.9999 15C14 15 14 15 14 15C14 15 14 15 14 15C14 15 14 15 14 14C14 13 14 13 14 13C14 13 14 13 14 13C14 13 14 13 13.9999 13C13.9999 13 13.9999 13 13.9999 13C13.9999 13 13.9999 13 13.9998 13C13.9998 13 13.9998 13 13.9998 13C13.9997 13 13.9997 13 13.9997 13C13.9996 13 13.9996 13 13.9996 13C13.9995 13 13.9995 13 13.9995 13C13.9994 13 13.9994 13 13.9993 13C13.9993 13 13.9993 13 13.9992 13C13.9992 13 13.9991 13 13.9991 13C13.999 13 13.9989 13 13.9989 13C13.9988 13 13.9988 13 13.9987 13C13.9987 13 13.9986 13 13.9985 13C13.9985 13 13.9984 13 13.9983 13C13.9982 13 13.9982 13 13.9981 13C13.998 13 13.9979 13 13.9979 13C13.9978 13 13.9977 13 13.9976 13C13.9975 13 13.9975 13 13.9974 13C13.9973 13 13.9972 13 13.9971 13C13.997 13 13.9969 13 13.9968 13C13.9967 13 13.9966 13 13.9965 13C13.9964 13 13.9963 13 13.9962 13C13.9961 13 13.996 13 13.9959 13C13.9958 13 13.9957 13 13.9955 13C13.9954 13 13.9953 13 13.9952 13C13.9951 13 13.995 13 13.9948 13C13.9947 13 13.9946 13 13.9944 13C13.9943 13 13.9942 13 13.9941 13C13.9939 13 13.9938 13 13.9937 13C13.9935 13 13.9934 13 13.9932 13C13.9931 13 13.9929 13 13.9928 13C13.9927 13 13.9925 13 13.9924 13C13.9922 13 13.9921 13 13.9919 13C13.9917 13 13.9916 13 13.9914 13C13.9913 13 13.9911 13 13.9909 13C13.9908 13 13.9906 13 13.9904 13C13.9903 13 13.9901 13 13.9899 13C13.9898 13 13.9896 13 13.9894 13C13.9892 13 13.989 13 13.9889 13C13.9887 13 13.9885 13 13.9883 13C13.9881 13 13.9879 13 13.9877 13C13.9875 13 13.9874 13 13.9872 13C13.987 13 13.9868 13 13.9866 13C13.9864 13 13.9862 13 13.986 13C13.9858 13 13.9855 13 13.9853 13C13.9851 13 13.9849 13 13.9847 13C13.9845 13 13.9843 13 13.984 13C13.9838 13 13.9836 13 13.9834 13C13.9832 13 13.9829 13 13.9827 13C13.9825 13 13.9823 13 13.982 13C13.9818 13 13.9816 13 13.9813 13C13.9811 13 13.9808 13 13.9806 13C13.9804 13 13.9801 13 13.9799 13C13.9796 13 13.9794 13 13.9791 13C13.9789 13 13.9786 13 13.9784 13C13.9781 13 13.9778 13 13.9776 13C13.9773 13 13.9771 13 13.9768 13C13.9765 13 13.9763 13 13.976 13C13.9757 13 13.9755 13 13.9752 13C13.9749 13 13.9746 13 13.9744 13C13.9741 13 13.9738 13 13.9735 13C13.9732 13 13.9729 13 13.9727 13C13.9724 13 13.9721 13 13.9718 13C13.9715 13 13.9712 13 13.9709 13C13.9706 13 13.9703 13 13.97 13C13.9697 13 13.9694 13 13.9691 13C13.9688 13 13.9685 13 13.9682 13C13.9679 13 13.9675 13 13.9672 13C13.9669 13 13.9666 13 13.9663 13C13.966 13 13.9656 13 13.9653 13C13.965 13 13.9647 13 13.9643 13C13.964 13 13.9637 13 13.9633 13C13.963 13 13.9627 13 13.9623 13C13.962 13 13.9616 13 13.9613 13C13.9609 13 13.9606 13 13.9603 13C13.9599 13 13.9596 13 13.9592 13C13.9589 13 13.9585 13 13.9581 13C13.9578 13 13.9574 13 13.9571 13C13.9567 13 13.9563 13 13.956 13C13.9556 13 13.9552 13 13.9549 13C13.9545 13 13.9541 13 13.9537 13C13.9534 13 13.953 13 13.9526 13C13.9522 13 13.9518 13 13.9514 13C13.9511 13 13.9507 13 13.9503 13C13.9499 13 13.9495 13 13.9491 13C13.9487 13 13.9483 13 13.9479 13C13.9475 13 13.9471 13 13.9467 13C13.9463 13 13.9459 13 13.9455 13C13.9451 13 13.9447 13 13.9442 13C13.9438 13 13.9434 13 13.943 13C13.9426 13 13.9422 13 13.9417 13C13.9413 13 13.9409 13 13.9404 13C13.94 13 13.9396 13 13.9392 13C13.9387 13 13.9383 13 13.9378 13C13.9374 13 13.937 13 13.9365 13C13.9361 13 13.9356 13 13.9352 13C13.9347 13 13.9343 13 13.9338 13C13.9334 13 13.9329 13 13.9325 13C13.932 13 13.9316 13 13.9311 13C13.9306 13 13.9302 13 13.9297 13C13.9292 13 13.9288 13 13.9283 13C13.9278 13 13.9274 13 13.9269 13C13.9264 13 13.9259 13 13.9254 13C13.925 13 13.9245 13 13.924 13C13.9235 13 13.923 13 13.9225 13C13.922 13 13.9215 13 13.921 13C13.9205 13 13.92 13 13.9195 13C13.919 13 13.9185 13 13.918 13C13.9175 13 13.917 13 13.9165 13C13.916 13 13.9155 13 13.915 13C13.9145 13 13.9139 13 13.9134 13C13.9129 13 13.9124 13 13.9119 13C13.9113 13 13.9108 13 13.9103 13C13.9097 13 13.9092 13 13.9087 13C13.9081 13 13.9076 13 13.9071 13C13.9065 13 13.906 13 13.9054 13C13.9049 13 13.9044 13 13.9038 13C13.9033 13 13.9027 13 13.9022 13C13.9016 13 13.901 13 13.9005 13C13.8999 13 13.8994 13 13.8988 13C13.8982 13 13.8977 13 13.8971 13C13.8965 13 13.896 13 13.8954 13C13.8948 13 13.8942 13 13.8937 13C13.8931 13 13.8925 13 13.8919 13C13.8913 13 13.8908 13 13.8902 13C13.8896 13 13.889 13 13.8884 13C13.8878 13 13.8872 13 13.8866 13C13.886 13 13.8854 13 13.8848 13C13.8842 13 13.8836 13 13.883 13C13.8824 13 13.8818 13 13.8812 13C13.8805 13 13.8799 13 13.8793 13C13.8787 13 13.8781 13 13.8775 13C13.8768 13 13.8762 13 13.8756 13C13.875 13 13.8743 13 13.8737 13C13.8731 13 13.8724 13 13.8718 13C13.8711 13 13.8705 13 13.8699 13C13.8692 13 13.8686 13 13.8679 13C13.8673 13 13.8666 13 13.866 13C13.8653 13 13.8647 13 13.864 13C13.8634 13 13.8627 13 13.862 13C13.8614 13 13.8607 13 13.86 13C13.8594 13 13.8587 13 13.858 13C13.8574 13 13.8567 13 13.856 13C13.8553 13 13.8547 13 13.854 13C13.8533 13 13.8526 13 13.8519 13C13.8512 13 13.8505 13 13.8499 13C13.8492 13 13.8485 13 13.8478 13C13.8471 13 13.8464 13 13.8457 13C13.845 13 13.8443 13 13.8436 13C13.8429 13 13.8421 13 13.8414 13C13.8407 13 13.84 13 13.8393 13C13.8386 13 13.8379 13 13.8371 13C13.8364 13 13.8357 13 13.835 13C13.8342 13 13.8335 13 13.8328 13C13.832 13 13.8313 13 13.8306 13C13.8298 13 13.8291 13 13.8284 13C13.8276 13 13.8269 13 13.8261 13C13.8254 13 13.8246 13 13.8239 13C13.8231 13 13.8224 13 13.8216 13C13.8208 13 13.8201 13 13.8193 13C13.8186 13 13.8178 13 13.817 13C13.8163 13 13.8155 13 13.8147 13C13.814 13 13.8132 13 13.8124 13C13.8116 13 13.8108 13 13.8101 13C13.8093 13 13.8085 13 13.8077 13C13.8069 13 13.8061 13 13.8053 13C13.8045 13 13.8037 13 13.803 13C13.8022 13 13.8014 13 13.8006 13C13.7997 13 13.7989 13 13.7981 13C13.7973 13 13.7965 13 13.7957 13C13.7949 13 13.7941 13 13.7933 13C13.7924 13 13.7916 13 13.7908 13C13.79 13 13.7891 13 13.7883 13C13.7875 13 13.7867 13 13.7858 13C13.785 13 13.7842 13 13.7833 13C13.7825 13 13.7816 13 13.7808 13C13.78 13 13.7791 13 13.7783 13C13.7774 13 13.7766 13 13.7757 13C13.7749 13 13.774 13 13.7731 13C13.7723 13 13.7714 13 13.7706 13C13.7697 13 13.7688 13 13.768 13C13.7671 13 13.7662 13 13.7653 13C13.7645 13 13.7636 13 13.7627 13C13.7618 13 13.7609 13 13.7601 13C13.7592 13 13.7583 13 13.7574 13C13.7565 13 13.7556 13 13.7547 13C13.7538 13 13.7529 13 13.752 13C13.7511 13 13.7502 13 13.7493 13C13.7484 13 13.7475 13 13.7466 13C13.7457 13 13.7448 13 13.7439 13C13.7429 13 13.742 13 13.7411 13C13.7402 13 13.7393 13 13.7383 13C13.7374 13 13.7365 13 13.7356 13C13.7346 13 13.7337 13 13.7328 13C13.7318 13 13.7309 13 13.7299 13C13.729 13 13.728 13 13.7271 13C13.7262 13 13.7252 13 13.7243 13C13.7233 13 13.7223 13 13.7214 13C13.7204 13 13.7195 13 13.7185 13C13.7175 13 13.7166 13 13.7156 13C13.7146 13 13.7137 13 13.7127 13C13.7117 13 13.7108 13 13.7098 13C13.7088 13 13.7078 13 13.7068 13C13.7059 13 13.7049 13 13.7039 13C13.7029 13 13.7019 13 13.7009 13C13.6999 13 13.6989 13 13.6979 13C13.6969 13 13.6959 13 13.6949 13C13.6939 13 13.6929 13 13.6919 13C13.6909 13 13.6899 13 13.6889 13C13.6878 13 13.6868 13 13.6858 13C13.6848 13 13.6838 13 13.6827 13C13.6817 13 13.6807 13 13.6797 13C13.6786 13 13.6776 13 13.6766 13C13.6755 13 13.6745 13 13.6734 13C13.6724 13 13.6714 13 13.6703 13C13.6693 13 13.6682 13 13.6672 13C13.6661 13 13.6651 13 13.664 13C13.6629 13 13.6619 13 13.6608 13C13.6598 13 13.6587 13 13.6576 13C13.6566 13 13.6555 13 13.6544 13C13.6533 13 13.6523 13 13.6512 13C13.6501 13 13.649 13 13.6479 13C13.6469 13 13.6458 13 13.6447 13C13.6436 13 13.6425 13 13.6414 13C13.6403 13 13.6392 13 13.6381 13C13.637 13 13.6359 13 13.6348 13C13.6337 13 13.6326 13 13.6315 13C13.6304 13 13.6293 13 13.6282 13C13.627 13 13.6259 13 13.6248 13C13.6237 13 13.6226 13 13.6214 13C13.6203 13 13.6192 13 13.6181 13C13.6169 13 13.6158 13 13.6146 13C13.6135 13 13.6124 13 13.6112 13C13.6101 13 13.6089 13 13.6078 13C13.6066 13 13.6055 13 13.6043 13C13.6032 13 13.602 13 13.6009 13C13.5997 13 13.5986 13 13.5974 13C13.5962 13 13.5951 13 13.5939 13C13.5927 13 13.5916 13 13.5904 13C13.5892 13 13.588 13 13.5869 13C13.5857 13 13.5845 13 13.5833 13C13.5821 13 13.5809 13 13.5797 13C13.5786 13 13.5774 13 13.5762 13C13.575 13 13.5738 13 13.5726 13C13.5714 13 13.5702 13 13.569 13C13.5677 13 13.5665 13 13.5653 13C13.5641 13 13.5629 13 13.5617 13C13.5605 13 13.5592 13 13.558 13C13.5568 13 13.5556 13 13.5543 13C13.5531 13 13.5519 13 13.5507 13C13.5494 13 13.5482 13 13.5469 13C13.5457 13 13.5445 13 13.5432 13C13.542 13 13.5407 13 13.5395 13C13.5382 13 13.537 13 13.5357 13C13.5345 13 13.5332 13 13.5319 13C13.5307 13 13.5294 13 13.5281 13C13.5269 13 13.5256 13 13.5243 13C13.5231 13 13.5218 13 13.5205 13C13.5192 13 13.518 13 13.5167 13C13.5154 13 13.5141 13 13.5128 13C13.5115 13 13.5102 13 13.5089 13C13.5077 13 13.5064 13 13.5051 13C13.5038 13 13.5025 13 13.5012 13C13.4998 13 13.4985 13 13.4972 13C13.4959 13 13.4946 13 13.4933 13C13.492 13 13.4907 13 13.4893 13C13.488 13 13.4867 13 13.4854 13C13.484 13 13.4827 13 13.4814 13C13.48 13 13.4787 13 13.4774 13C13.476 13 13.4747 13 13.4733 13C13.472 13 13.4707 13 13.4693 13C13.468 13 13.4666 13 13.4653 13C13.4639 13 13.4625 13 13.4612 13C13.4598 13 13.4585 13 13.4571 13C13.4557 13 13.4544 13 13.453 13C13.4516 13 13.4502 13 13.4489 13C13.4475 13 13.4461 13 13.4447 13C13.4433 13 13.442 13 13.4406 13C13.4392 13 13.4378 13 13.4364 13C13.435 13 13.4336 13 13.4322 13C13.4308 13 13.4294 13 13.428 13C13.4266 13 13.4252 13 13.4238 13C13.4224 13 13.421 13 13.4196 13C13.4181 13 13.4167 13 13.4153 13C13.4139 13 13.4125 13 13.411 13C13.4096 13 13.4082 13 13.4067 13C13.4053 13 13.4039 13 13.4024 13C13.401 13 13.3996 13 13.3981 13C13.3967 13 13.3952 13 13.3938 13C13.3923 13 13.3909 13 13.3894 13C13.388 13 13.3865 13 13.385 13C13.3836 13 13.3821 13 13.3807 13C13.3792 13 13.3777 13 13.3763 13C13.3748 13 13.3733 13 13.3718 13C13.3704 13 13.3689 13 13.3674 13C13.3659 13 13.3644 13 13.3629 13C13.3614 13 13.36 13 13.3585 13C13.357 13 13.3555 13 13.354 13C13.3525 13 13.351 13 13.3495 13C13.348 13 13.3465 13 13.3449 13C13.3434 13 13.3419 13 13.3404 13C13.3389 13 13.3374 13 13.3358 13C13.3343 13 13.3328 13 13.3313 13C13.3297 13 13.3282 13 13.3267 13C13.3251 13 13.3236 13 13.3221 13C13.3205 13 13.319 13 13.3174 13C13.3159 13 13.3143 13 13.3128 13C13.3112 13 13.3097 13 13.3081 13C13.3066 13 13.305 13 13.3035 13C13.3019 13 13.3003 13 13.2988 13C13.2972 13 13.2956 13 13.2941 13C13.2925 13 13.2909 13 13.2893 13C13.2878 13 13.2862 13 13.2846 13C13.283 13 13.2814 13 13.2798 13C13.2782 13 13.2766 13 13.275 13C13.2734 13 13.2718 13 13.2702 13C13.2686 13 13.267 13 13.2654 13C13.2638 13 13.2622 13 13.2606 13C13.259 13 13.2574 13 13.2558 13C13.2541 13 13.2525 13 13.2509 13C13.2493 13 13.2476 13 13.246 13C13.2444 13 13.2427 13 13.2411 13C13.2395 13 13.2378 13 13.2362 13C13.2346 13 13.2329 13 13.2313 13C13.2296 13 13.228 13 13.2263 13C13.2247 13 13.223 13 13.2213 13C13.2197 13 13.218 13 13.2164 13C13.2147 13 13.213 13 13.2114 13C13.2097 13 13.208 13 13.2063 13C13.2047 13 13.203 13 13.2013 13C13.1996 13 13.1979 13 13.1962 13C13.1945 13 13.1929 13 13.1912 13C13.1895 13 13.1878 13 13.1861 13C13.1844 13 13.1827 13 13.181 13C13.1793 13 13.1776 13 13.1758 13C13.1741 13 13.1724 13 13.1707 13C13.169 13 13.1673 13 13.1655 13C13.1638 13 13.1621 13 13.1604 13C13.1586 13 13.1569 13 13.1552 13C13.1534 13 13.1517 13 13.15 13C13.1482 13 13.1465 13 13.1447 13C13.143 13 13.1412 13 13.1395 13C13.1377 13 13.136 13 13.1342 13C13.1325 13 13.1307 13 13.1289 13C13.1272 13 13.1254 13 13.1236 13C13.1219 13 13.1201 13 13.1183 13C13.1166 13 13.1148 13 13.113 13C13.1112 13 13.1094 13 13.1076 13C13.1059 13 13.1041 13 13.1023 13C13.1005 13 13.0987 13 13.0969 13C13.0951 13 13.0933 13 13.0915 13C13.0897 13 13.0879 13 13.0861 13C13.0843 13 13.0824 13 13.0806 13C13.0788 13 13.077 13 13.0752 13C13.0733 13 13.0715 13 13.0697 13C13.0679 13 13.066 13 13.0642 13C13.0624 13 13.0605 13 13.0587 13C13.0569 13 13.055 13 13.0532 13C13.0513 13 13.0495 13 13.0476 13C13.0458 13 13.0439 13 13.0421 13C13.0402 13 13.0383 13 13.0365 13C13.0346 13 13.0327 13 13.0309 13C13.029 13 13.0271 13 13.0253 13C13.0234 13 13.0215 13 13.0196 13C13.0177 13 13.0159 13 13.014 13C13.0121 13 13.0102 13 13.0083 13C13.0064 13 13.0045 13 13.0026 13C13.0007 13 12.9988 13 12.9969 13C12.995 13 12.9931 13 12.9912 13C12.9893 13 12.9874 13 12.9855 13C12.9835 13 12.9816 13 12.9797 13C12.9778 13 12.9759 13 12.9739 13C12.972 13 12.9701 13 12.9681 13C12.9662 13 12.9643 13 12.9623 13C12.9604 13 12.9584 13 12.9565 13C12.9545 13 12.9526 13 12.9506 13C12.9487 13 12.9467 13 12.9448 13C12.9428 13 12.9409 13 12.9389 13C12.9369 13 12.935 13 12.933 13C12.931 13 12.929 13 12.9271 13C12.9251 13 12.9231 13 12.9211 13C12.9192 13 12.9172 13 12.9152 13C12.9132 13 12.9112 13 12.9092 13C12.9072 13 12.9052 13 12.9032 13C12.9012 13 12.8992 13 12.8972 13C12.8952 13 12.8932 13 12.8912 13C12.8892 13 12.8872 13 12.8851 13C12.8831 13 12.8811 13 12.8791 13C12.877 13 12.875 13 12.873 13C12.871 13 12.8689 13 12.8669 13C12.8649 13 12.8628 13 12.8608 13C12.8587 13 12.8567 13 12.8546 13C12.8526 13 12.8505 13 12.8485 13C12.8464 13 12.8444 13 12.8423 13C12.8403 13 12.8382 13 12.8361 13C12.8341 13 12.832 13 12.8299 13C12.8278 13 12.8258 13 12.8237 13C12.8216 13 12.8195 13 12.8174 13C12.8154 13 12.8133 13 12.8112 13C12.8091 13 12.807 13 12.8049 13C12.8028 13 12.8007 13 12.7986 13C12.7965 13 12.7944 13 12.7923 13C12.7902 13 12.7881 13 12.7859 13C12.7838 13 12.7817 13 12.7796 13C12.7775 13 12.7754 13 12.7732 13C12.7711 13 12.769 13 12.7668 13C12.7647 13 12.7626 13 12.7604 13C12.7583 13 12.7561 13 12.754 13C12.7519 13 12.7497 13 12.7476 13C12.7454 13 12.7432 13 12.7411 13C12.7389 13 12.7368 13 12.7346 13C12.7324 13 12.7303 13 12.7281 13C12.7259 13 12.7238 13 12.7216 13C12.7194 13 12.7172 13 12.7151 13C12.7129 13 12.7107 13 12.7085 13C12.7063 13 12.7041 13 12.7019 13C12.6997 13 12.6975 13 12.6953 13C12.6931 13 12.6909 13 12.6887 13C12.6865 13 12.6843 13 12.6821 13C12.6799 13 12.6777 13 12.6754 13C12.6732 13 12.671 13 12.6688 13C12.6666 13 12.6643 13 12.6621 13C12.6599 13 12.6576 13 12.6554 13C12.6532 13 12.6509 13 12.6487 13C12.6464 13 12.6442 13 12.6419 13C12.6397 13 12.6374 13 12.6352 13C12.6329 13 12.6307 13 12.6284 13C12.6261 13 12.6239 13 12.6216 13C12.6193 13 12.6171 13 12.6148 13C12.6125 13 12.6102 13 12.608 13C12.6057 13 12.6034 13 12.6011 13C12.5988 13 12.5965 13 12.5942 13C12.5919 13 12.5896 13 12.5873 13C12.585 13 12.5827 13 12.5804 13C12.5781 13 12.5758 13 12.5735 13C12.5712 13 12.5689 13 12.5666 13C12.5642 13 12.5619 13 12.5596 13C12.5573 13 12.555 13 12.5526 13C12.5503 13 12.548 13 12.5456 13C12.5433 13 12.5409 13 12.5386 13C12.5363 13 12.5339 13 12.5316 13C12.5292 13 12.5269 13 12.5245 13C12.5222 13 12.5198 13 12.5174 13C12.5151 13 12.5127 13 12.5103 13C12.508 13 12.5056 13 12.5032 13C12.5009 13 12.4985 13 12.4961 13C12.4937 13 12.4913 13 12.4889 13C12.4866 13 12.4842 13 12.4818 13C12.4794 13 12.477 13 12.4746 13C12.4722 13 12.4698 13 12.4674 13C12.465 13 12.4626 13 12.4602 13C12.4577 13 12.4553 13 12.4529 13C12.4505 13 12.4481 13 12.4456 13C12.4432 13 12.4408 13 12.4384 13C12.4359 13 12.4335 13 12.4311 13C12.4286 13 12.4262 13 12.4237 13C12.4213 13 12.4189 13 12.4164 13C12.414 13 12.4115 13 12.409 13C12.4066 13 12.4041 13 12.4017 13C12.3992 13 12.3967 13 12.3943 13C12.3918 13 12.3893 13 12.3869 13C12.3844 13 12.3819 13 12.3794 13C12.3769 13 12.3745 13 12.372 13C12.3695 13 12.367 13 12.3645 13C12.362 13 12.3595 13 12.357 13C12.3545 13 12.352 13 12.3495 13C12.347 13 12.3445 13 12.342 13C12.3395 13 12.3369 13 12.3344 13C12.3319 13 12.3294 13 12.3268 13C12.3243 13 12.3218 13 12.3193 13C12.3167 13 12.3142 13 12.3117 13C12.3091 13 12.3066 13 12.304 13C12.3015 13 12.2989 13 12.2964 13C12.2938 13 12.2913 13 12.2887 13C12.2862 13 12.2836 13 12.281 13C12.2785 13 12.2759 13 12.2733 13C12.2708 13 12.2682 13 12.2656 13C12.263 13 12.2605 13 12.2579 13C12.2553 13 12.2527 13 12.2501 13C12.2475 13 12.2449 13 12.2423 13C12.2397 13 12.2372 13 12.2345 13C12.2319 13 12.2293 13 12.2267 13C12.2241 13 12.2215 13 12.2189 13C12.2163 13 12.2137 13 12.211 13C12.2084 13 12.2058 13 12.2032 13C12.2005 13 12.1979 13 12.1953 13C12.1926 13 12.19 13 12.1874 13C12.1847 13 12.1821 13 12.1794 13C12.1768 13 12.1741 13 12.1715 13C12.1688 13 12.1662 13 12.1635 13C12.1608 13 12.1582 13 12.1555 13C12.1528 13 12.1502 13 12.1475 13C12.1448 13 12.1422 13 12.1395 13C12.1368 13 12.1341 13 12.1314 13C12.1287 13 12.1261 13 12.1234 13C12.1207 13 12.118 13 12.1153 13C12.1126 13 12.1099 13 12.1072 13C12.1045 13 12.1017 13 12.099 13C12.0963 13 12.0936 13 12.0909 13C12.0882 13 12.0855 13 12.0827 13C12.08 13 12.0773 13 12.0745 13C12.0718 13 12.0691 13 12.0663 13C12.0636 13 12.0609 13 12.0581 13C12.0554 13 12.0526 13 12.0499 13C12.0471 13 12.0444 13 12.0416 13C12.0388 13 12.0361 13 12.0333 13C12.0306 13 12.0278 13 12.025 13C12.0223 13 12.0195 13 12.0167 13C12.0139 13 12.0111 13 12.0084 13C12.0056 13 12.0028 13 12 13V15Z" fill="#8E8CEE"/>
</svg>
