<svg width="24" height="24" viewBox="0 0 24 24" fill="none" xmlns="http://www.w3.org/2000/svg">
<path d="M3 5C3 3.89543 3.89543 3 5 3H19C20.1046 3 21 3.89543 21 5V15C21 16.1046 20.1046 17 19 17H16.1324C15.4299 17 14.7788 17.3686 14.4174 17.971L12.8575 20.5708C12.4691 21.2182 11.5309 21.2182 11.1425 20.5708L9.58261 17.971C9.22116 17.3686 8.57015 17 7.86762 17H5C3.89543 17 3 16.1046 3 15V5Z" fill="#8E8CEE" stroke="#8E8CEE" stroke-width="2"/>
<path d="M11.0456 8.88534L11.6454 7.26596C11.8066 6.83084 12.422 6.83084 12.5832 7.26596L13.186 8.8936C13.2316 9.01671 13.3238 9.11695 13.4426 9.17267L15.0342 9.9187C15.4179 10.0986 15.4179 10.6443 15.0342 10.8242L13.4494 11.567C13.3265 11.6246 13.2324 11.7296 13.1885 11.858L12.5874 13.6161C12.4332 14.0671 11.7954 14.0671 11.6412 13.6161L11.043 11.8664C10.9974 11.7331 10.8977 11.6252 10.7684 11.5693L9.06053 10.8303C8.65861 10.6564 8.65861 10.0865 9.06053 9.91254L10.7753 9.17057C10.9006 9.11637 10.9982 9.01332 11.0456 8.88534Z" fill="white"/>
</svg>
