<svg width="24" height="24" viewBox="0 0 24 24" fill="none" xmlns="http://www.w3.org/2000/svg">
<path d="M6.98122 8.14099C5.54846 8.14099 4.51719 10.5605 4.33817 11.0064C3.37923 13.3947 2.90358 14.8277 2.42366 16.2594C1.83153 18.026 1.78516 19.7945 3.38067 21.0361C3.98766 21.5084 4.87376 21.7083 5.7686 21.7686C6.26 21.7686 6.71049 21.7686 7.11081 21.7686C8.21538 21.7686 9.11042 20.874 9.11042 19.7694C9.11042 19.5395 9.11042 19.2839 9.11042 18.9999" stroke="#8E8CEE" stroke-width="2" stroke-miterlimit="10" stroke-linecap="square"/>
<path d="M17.0077 8.14136C18.4405 8.14136 19.5277 10.5606 19.7068 11.0065C20.6657 13.3948 21.1413 14.8278 21.6213 16.2595C22.2134 18.026 22.2598 19.7946 20.6643 21.0362C20.0573 21.5085 19.1712 21.7083 18.2763 21.7687C17.7849 21.7687 17.3344 21.7687 16.9341 21.7687C15.8295 21.7687 14.9345 20.8741 14.9345 19.7695C14.9345 19.5396 14.9345 19.284 14.9345 19" stroke="#8E8CEE" stroke-width="2" stroke-miterlimit="10" stroke-linecap="square"/>
<path d="M9 15L11.9999 12L15 15" stroke="#8E8CEE" stroke-width="2" stroke-miterlimit="10" stroke-linecap="round"/>
<path d="M11.9707 2.41031L11.9707 11.962" stroke="#8E8CEE" stroke-width="2" stroke-miterlimit="10" stroke-linecap="square"/>
</svg>
