<svg width="24" height="24" viewBox="0 0 24 24" fill="none" xmlns="http://www.w3.org/2000/svg">
<path d="M17 8C17 7.44772 16.5523 7 16 7C15.4477 7 15 7.44772 15 8H17ZM12 21C7.02944 21 3 16.9706 3 12H1C1 18.0751 5.92487 23 12 23V21ZM3 12C3 7.02944 7.02944 3 12 3V1C5.92487 1 1 5.92487 1 12H3ZM12 3C16.9706 3 21 7.02944 21 12H23C23 5.92487 18.0751 1 12 1V3ZM17.3994 19.2012C15.8953 20.3309 14.0272 21 12 21V23C14.4752 23 16.762 22.1813 18.6006 20.8003L17.3994 19.2012ZM21 12C21 12.8572 20.7811 13.8049 20.3818 14.5039C19.9853 15.1976 19.5127 15.5 19 15.5V17.5C20.4873 17.5 21.5147 16.5524 22.1182 15.4961C22.7189 14.4451 23 13.1428 23 12H21ZM19 15.5C18.2763 15.5 17.8245 15.2424 17.5309 14.8753C17.2132 14.4782 17 13.8475 17 13H15C15 14.1525 15.2868 15.2718 15.9691 16.1247C16.6755 17.0076 17.7237 17.5 19 17.5V15.5ZM17 13V8H15V13H17ZM7 12C7 14.7614 9.23858 17 12 17V15C10.3431 15 9 13.6569 9 12H7ZM12 17C14.7614 17 17 14.7614 17 12H15C15 13.6569 13.6569 15 12 15V17ZM17 12C17 9.23858 14.7614 7 12 7V9C13.6569 9 15 10.3431 15 12H17ZM12 7C9.23858 7 7 9.23858 7 12H9C9 10.3431 10.3431 9 12 9V7Z" fill="#8E8CEE"/>
</svg>
