<svg width="24" height="24" viewBox="0 0 24 24" fill="none" xmlns="http://www.w3.org/2000/svg">
<path d="M13.46 21C13.2842 21.3031 13.0318 21.5547 12.7282 21.7295C12.4246 21.9044 12.0804 21.9965 11.73 21.9965C11.3796 21.9965 11.0354 21.9044 10.7318 21.7295C10.4282 21.5547 10.1758 21.3031 10 21M19 13C18.5551 11.3714 18.3268 10.1396 18.33 8.0089C18.3316 6.92197 18.0379 5.85501 17.4803 4.92199C16.9227 3.98898 16.1222 3.22496 15.1641 2.71154C14.2061 2.19813 13.1266 1.9546 12.0409 2.00697C10.9552 2.05934 9.90417 2.40565 9 3.0089M6.13207 6.13943C5.95834 6.70304 5.99861 7.15022 6 7.74C6 14.74 3 16.74 3 16.74H16M3 3.0089L21 21" stroke="#8E8CEE" stroke-width="2" stroke-linecap="round" stroke-linejoin="round"/>
</svg>
