<svg width="24" height="25" viewBox="0 0 24 25" fill="none" xmlns="http://www.w3.org/2000/svg">
<path d="M6 10.5H16.5L12.5 14.5H7.5L11.5 10.5M13 6.5H15L18.5 13.5M2 16.5C2 17.2956 2.31607 18.0587 2.87868 18.6213C3.44129 19.1839 4.20435 19.5 5 19.5C5.79565 19.5 6.55871 19.1839 7.12132 18.6213C7.68393 18.0587 8 17.2956 8 16.5C8 15.7044 7.68393 14.9413 7.12132 14.3787C6.55871 13.8161 5.79565 13.5 5 13.5C4.20435 13.5 3.44129 13.8161 2.87868 14.3787C2.31607 14.9413 2 15.7044 2 16.5ZM16 16.5C16 17.2956 16.3161 18.0587 16.8787 18.6213C17.4413 19.1839 18.2044 19.5 19 19.5C19.7956 19.5 20.5587 19.1839 21.1213 18.6213C21.6839 18.0587 22 17.2956 22 16.5C22 15.7044 21.6839 14.9413 21.1213 14.3787C20.5587 13.8161 19.7956 13.5 19 13.5C18.2044 13.5 17.4413 13.8161 16.8787 14.3787C16.3161 14.9413 16 15.7044 16 16.5Z" stroke="#26262E" stroke-width="2" stroke-linecap="round" stroke-linejoin="round"/>
</svg>
