<svg width="24" height="24" viewBox="0 0 24 24" fill="none" xmlns="http://www.w3.org/2000/svg">
<g clip-path="url(#clip0_1257_33)">
<path d="M5.28012 18.7203C4.86158 18.7855 4.43346 18.7485 4.03232 18.6124C3.63118 18.4763 3.26894 18.2452 2.97652 17.9387C2.6841 17.6322 2.4702 17.2595 2.35307 16.8524C2.23595 16.4454 2.21908 16.016 2.30391 15.601C2.38873 15.1859 2.57274 14.7976 2.84021 14.4691C3.10768 14.1407 3.45067 13.8818 3.8399 13.7146C4.22912 13.5475 4.65302 13.477 5.07539 13.5092C5.49776 13.5414 5.90607 13.6754 6.26543 13.8997C6.4096 13.9927 6.58131 14.0335 6.75192 14.0152C6.92253 13.997 7.08172 13.9208 7.20293 13.7994L13.8011 7.20122C13.9225 7.08001 13.9987 6.92082 14.017 6.75021C14.0352 6.5796 13.9944 6.40789 13.9014 6.26372C13.6771 5.90436 13.5432 5.49606 13.5109 5.07368C13.4787 4.65131 13.5492 4.22741 13.7163 3.83819C13.8835 3.44896 14.1424 3.10597 14.4708 2.8385C14.7993 2.57103 15.1876 2.38702 15.6027 2.3022C16.0177 2.21737 16.4471 2.23424 16.8542 2.35136C17.2612 2.46849 17.6339 2.68239 17.9404 2.97481C18.2469 3.26723 18.478 3.62947 18.6141 4.03061C18.7503 4.43175 18.7873 4.85987 18.722 5.27841C19.1405 5.21316 19.5687 5.25016 19.9698 5.38626C20.3709 5.52236 20.7332 5.75352 21.0256 6.06C21.318 6.36648 21.5319 6.73917 21.649 7.14626C21.7662 7.55334 21.783 7.98273 21.6982 8.39775C21.6134 8.81277 21.4294 9.20109 21.1619 9.52957C20.8944 9.85804 20.5514 10.1169 20.1622 10.2841C19.773 10.4512 19.3491 10.5217 18.9267 10.4895C18.5044 10.4573 18.0961 10.3233 17.7367 10.099C17.5925 10.006 17.4208 9.9652 17.2502 9.98346C17.0796 10.0017 16.9204 10.0779 16.7992 10.1994L10.2011 16.7975C10.0796 16.9187 10.0034 17.0779 9.98517 17.2485C9.96691 17.4191 10.0077 17.5908 10.1007 17.735C10.325 18.0943 10.459 18.5026 10.4912 18.925C10.5234 19.3474 10.4529 19.7713 10.2858 20.1605C10.1186 20.5497 9.85975 20.8927 9.53128 21.1602C9.2028 21.4277 8.81447 21.6117 8.39945 21.6965C7.98444 21.7813 7.55505 21.7645 7.14797 21.6473C6.74088 21.5302 6.36819 21.3163 6.06171 21.0239C5.75523 20.7315 5.52407 20.3692 5.38797 19.9681C5.25187 19.567 5.21486 19.1388 5.28012 18.7203Z" stroke="#8E8CEE" stroke-width="1.8" stroke-linecap="round" stroke-linejoin="round"/>
</g>
<defs>
<clipPath id="clip0_1257_33">
<rect width="24" height="24" fill="white"/>
</clipPath>
</defs>
</svg>
