<svg width="20" height="20" viewBox="0 0 20 20" fill="none" xmlns="http://www.w3.org/2000/svg">
<g clip-path="url(#clip0_44154_15395)">
<path d="M4.39998 15.6001C4.05119 15.6545 3.69443 15.6236 3.36014 15.5102C3.02586 15.3968 2.72399 15.2042 2.48031 14.9488C2.23663 14.6934 2.05838 14.3828 1.96077 14.0435C1.86317 13.7043 1.84911 13.3465 1.9198 13.0006C1.99049 12.6548 2.14383 12.3312 2.36672 12.0574C2.58961 11.7837 2.87544 11.568 3.19979 11.4287C3.52415 11.2894 3.87739 11.2307 4.22937 11.2575C4.58135 11.2844 4.9216 11.396 5.22107 11.5829C5.34121 11.6604 5.4843 11.6944 5.62648 11.6792C5.76865 11.664 5.90131 11.6005 6.00232 11.4993L11.5008 6.00086C11.602 5.89984 11.6655 5.76719 11.6807 5.62501C11.6959 5.48284 11.6619 5.33975 11.5844 5.21961C11.3975 4.92013 11.2858 4.57988 11.259 4.22791C11.2321 3.87593 11.2909 3.52268 11.4302 3.19833C11.5695 2.87397 11.7852 2.58815 12.0589 2.36525C12.3326 2.14236 12.6562 1.98902 13.0021 1.91833C13.3479 1.84764 13.7058 1.8617 14.045 1.95931C14.3842 2.05691 14.6948 2.23517 14.9502 2.47885C15.2056 2.72253 15.3982 3.0244 15.5117 3.35868C15.6251 3.69296 15.6559 4.04973 15.6015 4.39851C15.9503 4.34413 16.3071 4.37497 16.6414 4.48839C16.9757 4.60181 17.2775 4.79444 17.5212 5.04984C17.7649 5.30524 17.9431 5.61581 18.0407 5.95505C18.1384 6.29429 18.1524 6.65211 18.0817 6.99796C18.011 7.34381 17.8577 7.66741 17.6348 7.94114C17.4119 8.21487 17.1261 8.43059 16.8017 8.56989C16.4774 8.70918 16.1241 8.76791 15.7722 8.74107C15.4202 8.71422 15.0799 8.60258 14.7804 8.4157C14.6603 8.33817 14.5172 8.30417 14.375 8.31938C14.2329 8.3346 14.1002 8.3981 13.9992 8.4993L8.50076 13.9977C8.39956 14.0987 8.33606 14.2314 8.32085 14.3736C8.30564 14.5158 8.33963 14.6588 8.41717 14.779C8.60405 15.0785 8.71568 15.4187 8.74253 15.7707C8.76938 16.1227 8.71065 16.4759 8.57135 16.8003C8.43206 17.1246 8.21634 17.4104 7.94261 17.6333C7.66888 17.8562 7.34527 18.0096 6.99942 18.0803C6.65357 18.1509 6.29575 18.1369 5.95652 18.0393C5.61728 17.9417 5.3067 17.7634 5.0513 17.5197C4.7959 17.2761 4.60327 16.9742 4.48985 16.6399C4.37643 16.3056 4.3456 15.9489 4.39998 15.6001Z" stroke="#91919C" stroke-width="1.8" stroke-linecap="round" stroke-linejoin="round"/>
</g>
<defs>
<clipPath id="clip0_44154_15395">
<rect width="20" height="20" fill="white"/>
</clipPath>
</defs>
</svg>
