<svg width="24" height="24" viewBox="0 0 24 24" fill="none" xmlns="http://www.w3.org/2000/svg">
<path d="M4 7L12 11M12 11L20 7M12 11V21M21 16V8C20.9996 7.6415 20.905 7.07291 20.7256 6.76253C20.5462 6.45215 20.3105 6.17925 20 6L13.0225 2.27389C12.7117 2.09446 12.3592 2 12.0003 2C11.6415 2 11.289 2.09446 10.9782 2.27389L4.00103 6.00031C3.69056 6.17956 3.43268 6.43731 3.25327 6.74769C3.07386 7.05807 3.00129 7.6415 3.00092 8L3 16.0001C3.00037 16.3586 3.095 16.7107 3.27441 17.0211C3.45382 17.3315 3.7117 17.5893 4.02217 17.7685L10.9782 21.7263C11.289 21.9057 11.6415 22.0001 12.0003 22.0001C12.3592 22.0001 12.7117 21.9057 13.0225 21.7263L19.9778 17.7684C20.2883 17.5891 20.5462 17.3314 20.7256 17.021C20.905 16.7106 20.9996 16.3585 21 16Z" stroke="#8E8CEE" stroke-width="2" stroke-linecap="round" stroke-linejoin="round"/>
</svg>
