<svg width="24" height="24" viewBox="0 0 24 24" fill="none" xmlns="http://www.w3.org/2000/svg">
<path d="M20 13H14C13 13 13 14 13 14V20C13 21 14 21 14 21H20C21 21 21 20 21 20V14C21 13 20 13 20 13Z" stroke="#8E8CEE" stroke-width="2" stroke-miterlimit="10"/>
<path d="M5 11H3.99997C3.99997 11 3 11 3 10V4C3 4 3 3 3.99997 3L10 3C10 3 11 3 11 4.00001V5" stroke="#8E8CEE" stroke-width="2" stroke-miterlimit="10"/>
<path d="M10 16H8.99997C8.99997 16 8 16 8 15V9C8 9 8 8 8.99997 8L15 8C15 8 16 8 16 9.00001V10" stroke="#8E8CEE" stroke-width="2" stroke-miterlimit="10"/>
<path d="M19 3L18.9999 7" stroke="#8E8CEE" stroke-width="2" stroke-linecap="round" stroke-linejoin="round"/>
<path d="M20.9999 5.0285L17 5" stroke="#8E8CEE" stroke-width="2" stroke-linecap="round" stroke-linejoin="round"/>
</svg>
