<svg width="24" height="24" viewBox="0 0 24 24" fill="none" xmlns="http://www.w3.org/2000/svg">
<path d="M20 13H14C13 13 13 14 13 14V20C13 21 14 21 14 21H20C21 21 21 20 21 20V14C21 13 20 13 20 13Z" fill="#8E8CEE"/>
<path fill-rule="evenodd" clip-rule="evenodd" d="M13.9445 14.0045L13.9459 14.0042L13.9445 14.0045ZM14 14.0223V19.9965C14.0027 19.997 14.0054 19.9975 14.0081 19.998C14.014 19.999 14.0189 19.9996 14.0223 20H19.9965C19.997 19.9973 19.9975 19.9946 19.998 19.9919C19.999 19.986 19.9996 19.9811 20 19.9777V14.0035C19.9973 14.003 19.9946 14.0025 19.9918 14.002C19.986 14.001 19.9811 14.0004 19.9777 14H14.0035C14.003 14.0027 14.0025 14.0054 14.002 14.0081C14.001 14.014 14.0004 14.0189 14 14.0223ZM20 13V12H14C13.575 12 13.1898 12.1091 12.8672 12.3242C12.5508 12.5351 12.3524 12.8092 12.2306 13.0528C12.1107 13.2925 12.0558 13.5201 12.0292 13.6794C12.0156 13.7613 12.0083 13.8319 12.0045 13.8858C12.0026 13.9129 12.0014 13.9363 12.0008 13.9555L12.0002 13.981L12 13.9913L12 13.9959L12 13.998L12 13.999C12 13.999 12 14 13 14L12 13.999L12 20C12 20.425 12.1091 20.8102 12.3242 21.1328C12.5351 21.4492 12.8091 21.6476 13.0528 21.7694C13.2925 21.8893 13.5201 21.9442 13.6793 21.9708C13.7613 21.9844 13.8318 21.9917 13.8858 21.9955C13.9129 21.9974 13.9363 21.9986 13.9554 21.9992L13.981 21.9998L13.9913 22L13.9959 22L13.999 22C13.999 22 14 22 14 21.0029L13.999 22L20 22C20.425 22 20.8102 21.8909 21.1328 21.6758C21.4492 21.4649 21.6476 21.1908 21.7694 20.9472C21.8893 20.7075 21.9442 20.4799 21.9708 20.3206C21.9844 20.2387 21.9917 20.1681 21.9955 20.1142C21.9974 20.0871 21.9986 20.0637 21.9992 20.0445L21.9998 20.019L22 20.0087L22 20.0041L22 20.002L22 20.001C22 20.001 22 20 21 20L22 20.001L22 14C22 13.575 21.8909 13.1898 21.6758 12.8672C21.4649 12.5508 21.1908 12.3524 20.9472 12.2306C20.7075 12.1107 20.4799 12.0558 20.3207 12.0292C20.2387 12.0156 20.1681 12.0083 20.1142 12.0045C20.0871 12.0026 20.0637 12.0014 20.0445 12.0008L20.019 12.0002L20.0087 12L20.0041 12L20.002 12L20 12C20 12 20 12 20 13ZM20.0555 19.9955L20.0541 19.9958L20.0555 19.9955ZM19.9958 13.9459L19.9955 13.9445L19.9958 13.9459ZM14.0042 20.0541L14.0045 20.0555L14.0042 20.0541Z" fill="#8E8CEE"/>
<path d="M4.9762 8V12H4.02381C2.40476 12 2 10.6508 2 9.97619V4.02381C2 2.40476 3.34921 2 4.02381 2H9.97619C11.5952 2 12 3.34921 12 4.02381V4.97619H8.5C5 4.97619 4.9762 7 4.9762 8Z" fill="#8E8CEE"/>
<path d="M9.9762 13V17H9.02381C7.40476 17 7 15.6508 7 14.9762V9.02381C7 7.40476 8.34921 7 9.02381 7H14.9762C16.5952 7 17 8.34921 17 9.02381V9.97619H13.5C10 9.97619 9.9762 12 9.9762 13Z" fill="#8E8CEE"/>
<path d="M19 3L18.9999 7" stroke="#8E8CEE" stroke-width="2" stroke-linecap="round" stroke-linejoin="round"/>
<path d="M20.9999 5.0285L17 5" stroke="#8E8CEE" stroke-width="2" stroke-linecap="round" stroke-linejoin="round"/>
</svg>
