<svg width="24" height="24" viewBox="0 0 24 24" fill="none" xmlns="http://www.w3.org/2000/svg">
<path d="M3 8V5C3 3.89543 3.89543 3 5 3H8" stroke="#8E8CEE" stroke-width="2" stroke-miterlimit="10" stroke-linecap="round"/>
<path d="M16 3L19 3C20.1046 3 21 3.89543 21 5L21 8" stroke="#8E8CEE" stroke-width="2" stroke-miterlimit="10" stroke-linecap="round"/>
<path d="M8 21L5 21C3.89543 21 3 20.1046 3 19L3 16" stroke="#8E8CEE" stroke-width="2" stroke-miterlimit="10" stroke-linecap="round"/>
<path d="M21 16L21 19C21 20.1046 20.1046 21 19 21L16 21" stroke="#8E8CEE" stroke-width="2" stroke-miterlimit="10" stroke-linecap="round"/>
<path d="M9 12C9 12 9.85714 12 12 12C14.1429 12 15 12 15 12" stroke="#8E8CEE" stroke-width="2" stroke-linecap="round" stroke-linejoin="round"/>
<path d="M12 15C12 15 12 14.1429 12 12C12 9.85714 12 9 12 9" stroke="#8E8CEE" stroke-width="2" stroke-linecap="round" stroke-linejoin="round"/>
</svg>
