<svg width="24" height="24" viewBox="0 0 24 24" fill="none" xmlns="http://www.w3.org/2000/svg">
<path d="M9 3H3.99997C3 3 3 4 3 4V9C3 10 3.99997 10 3.99997 10H9C10 10 10 9 10 9V4.00001C10 3 9 3 9 3Z" fill="#8E8CEE"/>
<path d="M20 3H15C14 3 14 4 14 4V9C14 10 15 10 15 10H20C21 10 21 9 21 9V4.00001C21 3 20 3 20 3Z" fill="#8E8CEE"/>
<path d="M9 14H3.99997C3 14 3 15 3 15V20C3 21 3.99997 21 3.99997 21H9C10 21 10 20 10 20V15C10 14 9 14 9 14Z" fill="#8E8CEE"/>
<path d="M20 14H15C14 14 14 15 14 15V20C14 21 15 21 15 21H20C21 21 21 20 21 20V15C21 14 20 14 20 14Z" fill="#8E8CEE"/>
<path d="M9 3H3.99997C3 3 3 4 3 4V9C3 10 3.99997 10 3.99997 10H9C10 10 10 9 10 9V4.00001C10 3 9 3 9 3Z" stroke="#8E8CEE" stroke-width="2" stroke-miterlimit="10"/>
<path d="M20 3H15C14 3 14 4 14 4V9C14 10 15 10 15 10H20C21 10 21 9 21 9V4.00001C21 3 20 3 20 3Z" stroke="#8E8CEE" stroke-width="2" stroke-miterlimit="10"/>
<path d="M9 14H3.99997C3 14 3 15 3 15V20C3 21 3.99997 21 3.99997 21H9C10 21 10 20 10 20V15C10 14 9 14 9 14Z" stroke="#8E8CEE" stroke-width="2" stroke-miterlimit="10"/>
<path d="M20 14H15C14 14 14 15 14 15V20C14 21 15 21 15 21H20C21 21 21 20 21 20V15C21 14 20 14 20 14Z" stroke="#8E8CEE" stroke-width="2" stroke-miterlimit="10"/>
</svg>
