<svg width="24" height="24" viewBox="0 0 24 24" fill="none" xmlns="http://www.w3.org/2000/svg">
<path d="M6 22H18C19.1046 22 20 21.1046 20 20L20 4C20 2.89543 19.1046 2 18 2H6C4.89543 2 4 2.89543 4 4L4 20C4 21.1046 4.89543 22 6 22Z" stroke="#8E8CEE" stroke-width="2" stroke-linecap="round" stroke-linejoin="round"/>
<rect x="8" y="6" width="8" height="4" stroke="#8E8CEE" stroke-width="2" stroke-linejoin="round"/>
<path d="M8 14C8 13.96 8 13.9592 8 13.9592" stroke="#8E8CEE" stroke-width="2" stroke-miterlimit="2.41327" stroke-linecap="round" stroke-linejoin="round" stroke-dasharray="0 1000000"/>
<path d="M12 14C12 13.96 12 13.9592 12 13.9592" stroke="#8E8CEE" stroke-width="2" stroke-miterlimit="2.41327" stroke-linecap="round" stroke-linejoin="round" stroke-dasharray="0 1000000"/>
<path d="M16 14C16 13.96 16 13.9592 16 13.9592" stroke="#8E8CEE" stroke-width="2" stroke-miterlimit="2.41327" stroke-linecap="round" stroke-linejoin="round" stroke-dasharray="0 1000000"/>
<path d="M8 18C8 17.96 8 17.9592 8 17.9592" stroke="#8E8CEE" stroke-width="2" stroke-miterlimit="2.41327" stroke-linecap="round" stroke-linejoin="round" stroke-dasharray="0 1000000"/>
<path d="M12 18C12 17.96 12 17.9592 12 17.9592" stroke="#8E8CEE" stroke-width="2" stroke-miterlimit="2.41327" stroke-linecap="round" stroke-linejoin="round" stroke-dasharray="0 1000000"/>
<path d="M16 18C16 17.96 16 17.9592 16 17.9592" stroke="#8E8CEE" stroke-width="2" stroke-miterlimit="2.41327" stroke-linecap="round" stroke-linejoin="round" stroke-dasharray="0 1000000"/>
</svg>
