<svg width="24" height="24" viewBox="0 0 24 24" fill="none" xmlns="http://www.w3.org/2000/svg">
<path d="M22 9C22 7.89543 21.1046 7 20 7H17.2676C17.1004 7 16.9443 6.91645 16.8516 6.77735L15.1484 4.22265C15.0557 4.08355 14.8996 4 14.7324 4H9.26759C9.10042 4 8.9443 4.08355 8.85157 4.22265L7.14843 6.77735C7.0557 6.91645 6.89958 7 6.73241 7H4C2.89543 7 2 7.89543 2 9V18C2 19.1046 2.89543 20 4 20H20C21.1046 20 22 19.1046 22 18V9Z" stroke="#8E8CEE" stroke-width="2"/>
<path d="M8 13C8 15.2091 9.79086 17 12 17C14.2091 17 16 15.2091 16 13C16 10.7909 14.2091 9 12 9C9.79086 9 8 10.7909 8 13Z" stroke="#8E8CEE" stroke-width="2"/>
</svg>
