<svg width="24" height="24" viewBox="0 0 24 24" fill="none" xmlns="http://www.w3.org/2000/svg">
<path d="M21 17C21 17.5523 21.4477 18 22 18C22.5523 18 23 17.5523 23 17H21ZM20 21C20.5523 21 21 20.5523 21 20C21 19.4477 20.5523 19 20 19V21ZM7 8C7.55228 8 8 7.55228 8 7C8 6.44772 7.55228 6 7 6V8ZM9 3C8.44772 3 8 3.44772 8 4C8 4.55228 8.44772 5 9 5V3ZM15.1484 4.22265L15.9805 3.66795L15.9805 3.66795L15.1484 4.22265ZM16.8516 6.77735L17.6836 6.22265L17.6836 6.22265L16.8516 6.77735ZM15.0316 11.7493C15.1692 12.2841 15.7144 12.6061 16.2493 12.4684C16.7841 12.3308 17.1061 11.7856 16.9684 11.2507L15.0316 11.7493ZM13.7493 8.03157C13.2144 7.89391 12.6692 8.21589 12.5316 8.75075C12.3939 9.2856 12.7159 9.83078 13.2507 9.96844L13.7493 8.03157ZM20.2929 21.7071C20.6834 22.0976 21.3166 22.0976 21.7071 21.7071C22.0976 21.3166 22.0976 20.6834 21.7071 20.2929L20.2929 21.7071ZM3.70711 2.29289C3.31658 1.90237 2.68342 1.90237 2.29289 2.29289C1.90237 2.68342 1.90237 3.31658 2.29289 3.70711L3.70711 2.29289ZM20 8C20.5523 8 21 8.44771 21 9H23C23 7.34315 21.6569 6 20 6V8ZM21 9V17H23V9H21ZM20 19H4V21H20V19ZM4 19C3.44772 19 3 18.5523 3 18H1C1 19.6569 2.34315 21 4 21V19ZM3 18V9H1V18H3ZM3 9C3 8.44772 3.44772 8 4 8V6C2.34315 6 1 7.34315 1 9H3ZM4 8H7V6H4V8ZM17.2676 8H20V6H17.2676V8ZM9 5H14.7324V3H9V5ZM14.3164 4.77735L16.0195 7.33205L17.6836 6.22265L15.9805 3.66795L14.3164 4.77735ZM14.7324 5C14.5652 5 14.4091 4.91645 14.3164 4.77735L15.9805 3.66795C15.7023 3.25065 15.2339 3 14.7324 3V5ZM17.2676 6C17.4348 6 17.5909 6.08355 17.6836 6.22265L16.0195 7.33205C16.2977 7.74935 16.7661 8 17.2676 8V6ZM7 13C7 15.7614 9.23858 18 12 18V16C10.3431 16 9 14.6569 9 13H7ZM12 18C13.7004 18 15.2021 17.1503 16.1039 15.8568L14.4633 14.713C13.9195 15.493 13.0189 16 12 16V18ZM9.08007 8.94081C7.82221 9.84692 7 11.3275 7 13H9C9 11.9977 9.49055 11.11 10.2491 10.5636L9.08007 8.94081ZM16.9684 11.2507C16.5629 9.67521 15.3248 8.43708 13.7493 8.03157L13.2507 9.96844C14.1206 10.1923 14.8077 10.8794 15.0316 11.7493L16.9684 11.2507ZM21.7071 20.2929L3.70711 2.29289L2.29289 3.70711L20.2929 21.7071L21.7071 20.2929Z" fill="#8E8CEE"/>
</svg>
