<svg width="24" height="25" viewBox="0 0 24 25" fill="none" xmlns="http://www.w3.org/2000/svg">
<path d="M4.61111 17.2498C4.61111 17.8097 4.83353 18.3467 5.22944 18.7426C5.62535 19.1385 6.16232 19.3609 6.72222 19.3609C7.28212 19.3609 7.81909 19.1385 8.215 18.7426C8.61091 18.3467 8.83333 17.8097 8.83333 17.2498M4.61111 17.2498C4.61111 16.6899 4.83353 16.1529 5.22944 15.757C5.62535 15.3611 6.16232 15.1387 6.72222 15.1387C7.28212 15.1387 7.81909 15.3611 8.215 15.757C8.61091 16.1529 8.83333 16.6899 8.83333 17.2498M4.61111 17.2498H2.5V10.9164M8.83333 17.2498H15.1667M15.1667 17.2498C15.1667 17.8097 15.3891 18.3467 15.785 18.7426C16.1809 19.1385 16.7179 19.3609 17.2778 19.3609C17.8377 19.3609 18.3746 19.1385 18.7706 18.7426C19.1665 18.3467 19.3889 17.8097 19.3889 17.2498M15.1667 17.2498C15.1667 16.6899 15.3891 16.1529 15.785 15.757C16.1809 15.3611 16.7179 15.1387 17.2778 15.1387C17.8377 15.1387 18.3746 15.3611 18.7706 15.757C19.1665 16.1529 19.3889 16.6899 19.3889 17.2498M19.3889 17.2498H21.5V13.0276C21.5 12.4677 21.2776 11.9307 20.8817 11.5348C20.4858 11.1389 19.9488 10.9164 19.3889 10.9164H18.3333M2.5 10.9164L4.61111 5.63867H14.1111L18.3333 10.9164M2.5 10.9164H18.3333M12 10.9164V5.63867" stroke="#26262E" stroke-width="2" stroke-linecap="round" stroke-linejoin="round"/>
</svg>
