<svg width="20" height="20" viewBox="0 0 20 20" fill="none" xmlns="http://www.w3.org/2000/svg">
<g clip-path="url(#clip0_44154_15397)">
<path d="M1.25 8.75H18.75" stroke="#91919C" stroke-width="1.8" stroke-linecap="round" stroke-linejoin="round"/>
<path d="M17.5 13.75V15.625C17.5 15.7908 17.4342 15.9497 17.3169 16.0669C17.1997 16.1842 17.0408 16.25 16.875 16.25H15C14.8342 16.25 14.6753 16.1842 14.5581 16.0669C14.4408 15.9497 14.375 15.7908 14.375 15.625V13.75" stroke="#91919C" stroke-width="1.8" stroke-linecap="round" stroke-linejoin="round"/>
<path d="M5.625 13.75V15.625C5.625 15.7908 5.55915 15.9497 5.44194 16.0669C5.32473 16.1842 5.16576 16.25 5 16.25H3.125C2.95924 16.25 2.80027 16.1842 2.68306 16.0669C2.56585 15.9497 2.5 15.7908 2.5 15.625V13.75" stroke="#91919C" stroke-width="1.8" stroke-linecap="round" stroke-linejoin="round"/>
<path d="M5 11.25H6.25" stroke="#91919C" stroke-width="1.3" stroke-linecap="round" stroke-linejoin="round"/>
<path d="M13.75 11.25H15" stroke="#91919C" stroke-width="1.3" stroke-linecap="round" stroke-linejoin="round"/>
<path d="M17.5 8.75L15.1648 3.49609C15.1157 3.38564 15.0356 3.29179 14.9343 3.22592C14.8329 3.16006 14.7146 3.125 14.5938 3.125H5.40625C5.28537 3.125 5.16708 3.16006 5.06572 3.22592C4.96435 3.29179 4.88426 3.38564 4.83516 3.49609L2.5 8.75V13.75H17.5V8.75Z" stroke="#91919C" stroke-width="1.8" stroke-linecap="round" stroke-linejoin="round"/>
</g>
<defs>
<clipPath id="clip0_44154_15397">
<rect width="20" height="20" fill="white"/>
</clipPath>
</defs>
</svg>
