<svg width="24" height="25" viewBox="0 0 24 25" fill="none" xmlns="http://www.w3.org/2000/svg">
<path d="M2 12.5H4M4 12.5C4 13.0304 4.21071 13.5391 4.58579 13.9142C4.96086 14.2893 5.46957 14.5 6 14.5C6.53043 14.5 7.03914 14.2893 7.41421 13.9142C7.78929 13.5391 8 13.0304 8 12.5C8 11.9696 7.78929 11.4609 7.41421 11.0858C7.03914 10.7107 6.53043 10.5 6 10.5C5.46957 10.5 4.96086 10.7107 4.58579 11.0858C4.21071 11.4609 4 11.9696 4 12.5ZM20 7.5H22M20 7.5C20 8.03043 19.7893 8.53914 19.4142 8.91421C19.0391 9.28929 18.5304 9.5 18 9.5C17.4696 9.5 16.9609 9.28929 16.5858 8.91421C16.2107 8.53914 16 8.03043 16 7.5M20 7.5C20 6.96957 19.7893 6.46086 19.4142 6.08579C19.0391 5.71071 18.5304 5.5 18 5.5C17.4696 5.5 16.9609 5.71071 16.5858 6.08579C16.2107 6.46086 16 6.96957 16 7.5M16 7.5L7.5 11M20 17.5H22M20 17.5C20 18.0304 19.7893 18.5391 19.4142 18.9142C19.0391 19.2893 18.5304 19.5 18 19.5C17.4696 19.5 16.9609 19.2893 16.5858 18.9142C16.2107 18.5391 16 18.0304 16 17.5C16 16.9696 16.2107 16.4609 16.5858 16.0858C16.9609 15.7107 17.4696 15.5 18 15.5C18.5304 15.5 19.0391 15.7107 19.4142 16.0858C19.7893 16.4609 20 16.9696 20 17.5Z" stroke="#26262E" stroke-width="2" stroke-linecap="round" stroke-linejoin="round"/>
</svg>
