<svg width="24" height="24" viewBox="0 0 24 24" fill="none" xmlns="http://www.w3.org/2000/svg">
<path d="M20.0059 17.5797C21.0571 17.1193 21.918 16.3113 22.444 15.2913C22.97 14.2712 23.129 13.1013 22.8945 11.9779C22.66 10.8545 22.0461 9.84593 21.1559 9.12155C20.2658 8.39717 19.1535 8.00106 18.0059 7.99971H16.7459C16.4289 6.77223 15.8247 5.63766 14.9832 4.68951C14.1417 3.74136 13.0868 3.00679 11.9057 2.54633C10.7245 2.08588 9.4508 1.91273 8.18958 2.04116C6.92835 2.16958 5.7157 2.59591 4.65159 3.285C3.58747 3.97408 2.70236 4.9062 2.0692 6.00451C1.43604 7.10282 1.07296 8.33589 1.0099 9.60206C0.946844 10.8682 1.1856 12.1313 1.7065 13.2871C2.22739 14.4429 3.01551 15.4583 4.00589 16.2497M8.18958 17.0408V17M12 14.0003V13.9595M16 17V16.9592M15 23.0003V22.9595M12 20.0003V19.9595M9 23.0003V22.9595" stroke="#8E8CEE" stroke-width="2" stroke-linecap="round" stroke-linejoin="round"/>
</svg>
