<svg width="24" height="24" viewBox="0 0 24 24" fill="none" xmlns="http://www.w3.org/2000/svg">
<g clip-path="url(#clip0_5_3365)">
<path d="M22.61 16.95C22.9322 16.1893 23.0609 15.3606 22.9845 14.5381C22.9082 13.7155 22.6293 12.9246 22.1726 12.2362C21.716 11.5478 21.0959 10.9832 20.3677 10.593C19.6396 10.2027 18.8261 9.99902 18 10H16.8689C16.4607 8.39249 15.563 6.95158 14.2999 5.87666C13.0369 4.80173 11.471 4.14593 9.8189 4M5 5C3.43808 5.86364 2.33871 7.22478 1.63949 8.86691C0.940265 10.509 0.81025 12.3378 1.27012 14.0623C1.73 15.7869 2.75335 17.3081 4.17738 18.384C5.60141 19.4599 7.34434 20.0288 9.1289 20H18.1289C18.7087 19.9993 19.1791 19.9219 19.7241 19.7241M2 2L22 22" stroke="#8E8CEE" stroke-width="2" stroke-linecap="round" stroke-linejoin="round"/>
</g>
<defs>
<clipPath id="clip0_5_3365">
<rect width="24" height="24" fill="white"/>
</clipPath>
</defs>
</svg>
