<svg width="24" height="24" viewBox="0 0 24 24" fill="none" xmlns="http://www.w3.org/2000/svg">
<g clip-path="url(#clip0_5_3367)">
<path d="M8 19V21M8 13V15M16 19V21M16 13V15M12 21V23M12 15V17M20.0059 16.5797C21.0571 16.1193 21.918 15.3113 22.444 14.2913C22.97 13.2712 23.129 12.1013 22.8945 10.9779C22.66 9.85447 22.0461 8.84593 21.1559 8.12155C20.2658 7.39717 19.1535 7.00106 18.0059 6.99971H16.7459C16.4289 5.77223 15.8247 4.63766 14.9832 3.68951C14.1417 2.74137 13.0868 2.00679 11.9057 1.54633C10.7245 1.08588 9.4508 0.91273 8.18957 1.04116C6.92835 1.16958 5.7157 1.59591 4.65159 2.285C3.58747 2.97408 2.70236 3.9062 2.0692 5.00451C1.43604 6.10282 1.07296 7.33589 1.0099 8.60206C0.946844 9.86824 1.1856 11.1313 1.7065 12.2871C2.22739 13.4429 3.01551 14.4583 4.00589 15.2497" stroke="#8E8CEE" stroke-width="2" stroke-linecap="round" stroke-linejoin="round"/>
</g>
<defs>
<clipPath id="clip0_5_3367">
<rect width="24" height="24" fill="white"/>
</clipPath>
</defs>
</svg>
