<svg width="24" height="24" viewBox="0 0 24 24" fill="none" xmlns="http://www.w3.org/2000/svg">
<g clip-path="url(#clip0_5_3366)">
<path d="M19.0058 16.8993C20.2209 16.6526 21.3011 15.9631 22.0365 14.9648C22.7719 13.9665 23.1101 12.7305 22.9855 11.4968C22.8609 10.2632 22.2823 9.11979 21.3621 8.2887C20.4419 7.4576 19.2457 6.99808 18.0058 6.99932H16.7458C16.4145 5.71664 15.7698 4.53631 14.8697 3.56431C13.9696 2.5923 12.8421 1.85905 11.5886 1.43039C10.3351 1.00172 8.99477 0.891055 7.68793 1.10833C6.38109 1.32561 5.14866 1.86402 4.1013 2.67523C3.05393 3.48644 2.22442 4.54506 1.68723 5.75603C1.15004 6.96701 0.921983 8.29243 1.02355 9.61331C1.12511 10.9342 1.55311 12.2092 2.26911 13.3238C2.98512 14.4384 3.96673 15.3578 5.12579 15.9993M12 13L9.5 18H14.5L12 23" stroke="#8E8CEE" stroke-width="2" stroke-linecap="round" stroke-linejoin="round"/>
</g>
<defs>
<clipPath id="clip0_5_3366">
<rect width="24" height="24" fill="white"/>
</clipPath>
</defs>
</svg>
