<svg width="24" height="24" viewBox="0 0 24 24" fill="none" xmlns="http://www.w3.org/2000/svg">
<g clip-path="url(#clip0_5_3362)">
<path d="M18.006 10H16.746C16.3718 8.551 15.5988 7.23599 14.5146 6.2044C13.4305 5.1728 12.0787 4.46599 10.6129 4.16428C9.1471 3.86256 7.62606 3.97804 6.22262 4.49759C4.81918 5.01714 3.58961 5.91993 2.67362 7.10338C1.75763 8.28683 1.19196 9.70348 1.04088 11.1924C0.889794 12.6812 1.15936 14.1826 1.81895 15.526C2.47853 16.8693 3.50169 18.0007 4.77215 18.7916C6.04262 19.5824 7.50945 20.0011 9.00597 20H18.006C19.3321 20 20.6038 19.4732 21.5415 18.5355C22.4792 17.5979 23.006 16.3261 23.006 15C23.006 13.6739 22.4792 12.4021 21.5415 11.4645C20.6038 10.5268 19.3321 10 18.006 10Z" stroke="#8E8CEE" stroke-width="2" stroke-linecap="round" stroke-linejoin="round"/>
</g>
<defs>
<clipPath id="clip0_5_3362">
<rect width="24" height="24" fill="white"/>
</clipPath>
</defs>
</svg>
