<svg width="24" height="24" viewBox="0 0 24 24" fill="none" xmlns="http://www.w3.org/2000/svg">
<path d="M20.9995 15.9992L21.9995 16.0002V15.9992H20.9995ZM20.9995 7.99921H21.9995V7.99818L20.9995 7.99921ZM19.9995 5.99921L20.4995 5.13318C20.49 5.12766 20.4803 5.1223 20.4706 5.11711L19.9995 5.99921ZM13.022 2.2731L12.522 3.13912C12.5316 3.14464 12.5412 3.15 12.551 3.1552L13.022 2.2731ZM10.9777 2.2731L11.4488 3.15517C11.4585 3.14998 11.4681 3.14463 11.4777 3.13912L10.9777 2.2731ZM4.00055 5.99952L3.52944 5.11744C3.51972 5.12263 3.51009 5.12798 3.50055 5.13349L4.00055 5.99952ZM3.00043 7.99921L2.00043 7.99818L2.00043 7.99909L3.00043 7.99921ZM2.99951 15.9994L1.99951 15.9992L1.99951 16.0004L2.99951 15.9994ZM4.02169 17.7677L3.52168 18.6338L3.52716 18.6369L4.02169 17.7677ZM10.9777 21.7255L11.4777 20.8594L11.4722 20.8563L10.9777 21.7255ZM13.022 21.7255L12.5274 20.8563L12.522 20.8594L13.022 21.7255ZM19.9773 17.7676L20.4719 18.6367L20.4773 18.6336L19.9773 17.7676ZM11.9995 6.49921L11.5523 7.39363C11.8338 7.5344 12.1652 7.5344 12.4467 7.39363L11.9995 6.49921ZM7.99951 13.9992H8.99951C8.99951 13.6204 8.78551 13.2742 8.44673 13.1048L7.99951 13.9992ZM15.9995 13.9992L15.5523 13.1048C15.2135 13.2742 14.9995 13.6204 14.9995 13.9992H15.9995ZM21.9995 15.9992V7.99921H19.9995V15.9992H21.9995ZM21.9995 7.99818C21.9992 7.74385 21.967 7.44499 21.9092 7.16222C21.8542 6.89325 21.7591 6.55233 21.5909 6.26129L19.8593 7.26218C19.8587 7.26105 19.8626 7.26774 19.8697 7.28433C19.8767 7.30057 19.8852 7.32274 19.8947 7.3512C19.9139 7.40902 19.933 7.48092 19.9497 7.56263C19.9842 7.73137 19.9994 7.89606 19.9995 8.00023L21.9995 7.99818ZM21.5909 6.26129C21.3513 5.84686 21.0034 5.4241 20.4995 5.13318L19.4995 6.86523C19.6166 6.93281 19.7401 7.05585 19.8593 7.26218L21.5909 6.26129ZM20.4706 5.11711L13.4931 1.391L12.551 3.1552L19.5285 6.88131L20.4706 5.11711ZM13.522 1.40707C13.0592 1.13987 12.5343 0.999207 11.9999 0.999207V2.99921C12.1832 2.99921 12.3633 3.04746 12.522 3.13912L13.522 1.40707ZM11.9999 0.999207C11.4655 0.999207 10.9405 1.13987 10.4777 1.40707L11.4777 3.13912C11.6364 3.04746 11.8165 2.99921 11.9999 2.99921V0.999207ZM10.5066 1.39102L3.52944 5.11744L4.47165 6.88159L11.4488 3.15517L10.5066 1.39102ZM3.50055 5.13349C3.0382 5.40043 2.65419 5.78425 2.38702 6.24645L4.11855 7.24734C4.21021 7.08878 4.34194 6.95711 4.50054 6.86554L3.50055 5.13349ZM2.38702 6.24645C2.20958 6.55341 2.12205 6.91363 2.07477 7.18071C2.02392 7.46803 2.00068 7.7615 2.00043 7.99818L4.00043 8.00023C4.00056 7.87841 4.01378 7.70092 4.04416 7.5293C4.05906 7.44513 4.07616 7.37344 4.09335 7.31765C4.11173 7.25801 4.12338 7.239 4.11855 7.24734L2.38702 6.24645ZM2.00043 7.99909L1.99951 15.9992L3.99951 15.9995L4.00043 7.99932L2.00043 7.99909ZM1.99951 16.0004C2.00006 16.5342 2.14099 17.0586 2.40816 17.5208L4.13969 16.5199C4.04804 16.3613 3.9997 16.1815 3.99951 15.9983L1.99951 16.0004ZM2.40816 17.5208C2.67532 17.983 3.05934 18.3668 3.52169 18.6337L4.52169 16.9017C4.36309 16.8101 4.23135 16.6785 4.13969 16.5199L2.40816 17.5208ZM3.52716 18.6369L10.4832 22.5946L11.4722 20.8563L4.51621 16.8986L3.52716 18.6369ZM10.4777 22.5915C10.9405 22.8587 11.4655 22.9994 11.9999 22.9994V20.9994C11.8165 20.9994 11.6364 20.9511 11.4777 20.8594L10.4777 22.5915ZM11.9999 22.9994C12.5343 22.9994 13.0592 22.8587 13.522 22.5915L12.522 20.8594C12.3633 20.9511 12.1832 20.9994 11.9999 20.9994V22.9994ZM13.5166 22.5946L20.4719 18.6367L19.4827 16.8984L12.5275 20.8563L13.5166 22.5946ZM20.4773 18.6336C20.9397 18.3667 21.3237 17.9828 21.5909 17.5206L19.8593 16.5197C19.7677 16.6783 19.6359 16.81 19.4773 16.9015L20.4773 18.6336ZM21.5909 17.5206C21.858 17.0584 21.999 16.5341 21.9995 16.0002L19.9995 15.9982C19.9993 16.1813 19.951 16.3612 19.8593 16.5197L21.5909 17.5206ZM3.5523 7.89363L11.5523 11.8936L12.4467 10.1048L4.44673 6.10478L3.5523 7.89363ZM12.4467 11.8936L20.4467 7.89363L19.5523 6.10478L11.5523 10.1048L12.4467 11.8936ZM6.5523 4.89363L11.5523 7.39363L12.4467 5.60478L7.44673 3.10478L6.5523 4.89363ZM12.4467 7.39363L17.4467 4.89363L16.5523 3.10478L11.5523 5.60478L12.4467 7.39363ZM12.9995 20.9992V10.9992H10.9995V20.9992H12.9995ZM2.5523 12.3936L7.5523 14.8936L8.44673 13.1048L3.44673 10.6048L2.5523 12.3936ZM6.99951 13.9992V19.9992H8.99951V13.9992H6.99951ZM20.5523 10.6048L15.5523 13.1048L16.4467 14.8936L21.4467 12.3936L20.5523 10.6048ZM14.9995 13.9992V19.9992H16.9995V13.9992H14.9995Z" fill="#8E8CEE"/>
</svg>
