<svg width="24" height="24" viewBox="0 0 24 24" fill="none" xmlns="http://www.w3.org/2000/svg">
<path d="M7 3C7 2.44772 6.55228 2 6 2C5.44772 2 5 2.44772 5 3H7ZM5 6C5 6.55228 5.44772 7 6 7C6.55228 7 7 6.55228 7 6H5ZM11 3C11 2.44772 10.5523 2 10 2C9.44772 2 9 2.44772 9 3H11ZM9 6C9 6.55228 9.44772 7 10 7C10.5523 7 11 6.55228 11 6H9ZM15 3C15 2.44772 14.5523 2 14 2C13.4477 2 13 2.44772 13 3H15ZM13 6C13 6.55228 13.4477 7 14 7C14.5523 7 15 6.55228 15 6H13ZM3 9V8C2.44772 8 2 8.44772 2 9H3ZM3 17H2H3ZM17 16H16V17H17V16ZM5 3V6H7V3H5ZM9 3V6H11V3H9ZM13 3V6H15V3H13ZM3 10H17V8H3V10ZM16 9V17H18V9H16ZM16 17C16 17.8171 15.6964 18.588 15.1755 19.1461L16.6376 20.5107C17.5169 19.5686 18 18.3047 18 17H16ZM15.1755 19.1461C14.6567 19.7019 13.9685 20 13.2667 20V22C14.5452 22 15.7561 21.4552 16.6376 20.5107L15.1755 19.1461ZM13.2667 20H6.73333V22H13.2667V20ZM6.73333 20C6.03154 20 5.34329 19.7019 4.82452 19.1461L3.36241 20.5107C4.24392 21.4552 5.45484 22 6.73333 22V20ZM4.82452 19.1461C4.30358 18.588 4 17.8171 4 17H2C2 18.3047 2.48309 19.5686 3.36241 20.5107L4.82452 19.1461ZM4 17V9H2V17H4ZM17 10H19V8H17V10ZM19 15H17V17H19V15ZM18 16V9H16V16H18ZM19 9C19 10 18.9995 10 18.999 10C18.9989 10 18.9984 10 18.9981 10C18.9975 10 18.997 10 18.9964 9.99999C18.9953 9.99999 18.9944 9.99998 18.9935 9.99998C18.9918 9.99996 18.9905 9.99995 18.9896 9.99993C18.9879 9.9999 18.9877 9.99989 18.9891 9.99993C18.992 10 19.0008 10.0004 19.0147 10.0014C19.0428 10.0034 19.0895 10.0079 19.1481 10.0176C19.2701 10.038 19.4175 10.0768 19.5528 10.1444C19.6842 10.2101 19.7851 10.2929 19.8554 10.3985C19.9216 10.4977 20 10.675 20 11H22C22 10.325 21.8284 9.7523 21.5196 9.28905C21.2149 8.83206 20.8158 8.53989 20.4472 8.35557C20.0825 8.17322 19.7299 8.08702 19.4769 8.04486C19.348 8.02338 19.2385 8.01225 19.1572 8.00645C19.1164 8.00353 19.0822 8.00192 19.0558 8.00104C19.0425 8.0006 19.0312 8.00034 19.0219 8.00019C19.0172 8.00012 19.013 8.00007 19.0094 8.00004C19.0076 8.00002 19.0059 8.00001 19.0043 8.00001C19.0035 8.00001 19.0028 8 19.0021 8C19.0017 8 19.0012 8 19.001 8C19.0005 8 19 8 19 9ZM20 11V14H22V11H20ZM21 14C20 14 20 13.9995 20 13.999C20 13.9989 20 13.9984 20 13.9981C20 13.9975 20 13.997 20 13.9964C20 13.9953 20 13.9944 20 13.9935C20 13.9918 20.0001 13.9905 20.0001 13.9896C20.0001 13.9879 20.0001 13.9877 20.0001 13.9891C20 13.992 19.9996 14.0008 19.9986 14.0147C19.9966 14.0428 19.9921 14.0895 19.9824 14.1481C19.962 14.2701 19.9232 14.4175 19.8556 14.5528C19.7899 14.6842 19.7071 14.7851 19.6015 14.8554C19.5023 14.9216 19.325 15 19 15V17C19.675 17 20.2477 16.8284 20.711 16.5196C21.1679 16.2149 21.4601 15.8158 21.6444 15.4472C21.8268 15.0825 21.913 14.7299 21.9551 14.4769C21.9766 14.348 21.9877 14.2385 21.9936 14.1572C21.9965 14.1164 21.9981 14.0822 21.999 14.0558C21.9994 14.0425 21.9997 14.0312 21.9998 14.0219C21.9999 14.0172 21.9999 14.013 22 14.0094C22 14.0076 22 14.0059 22 14.0043C22 14.0035 22 14.0028 22 14.0021C22 14.0017 22 14.0012 22 14.001C22 14.0005 22 14 21 14Z" fill="#8E8CEE"/>
</svg>
