<svg width="24" height="25" viewBox="0 0 24 25" fill="none" xmlns="http://www.w3.org/2000/svg">
<path d="M9 14.5C9 16.157 11.686 17.5 15 17.5C18.314 17.5 21 16.157 21 14.5M9 14.5C9 12.843 11.686 11.5 15 11.5C18.314 11.5 21 12.843 21 14.5M9 14.5V18.5C9 20.156 11.686 21.5 15 21.5C18.314 21.5 21 20.156 21 18.5V14.5M3 6.5C3 7.572 4.144 8.562 6 9.098C7.856 9.634 10.144 9.634 12 9.098C13.856 8.562 15 7.572 15 6.5C15 5.428 13.856 4.438 12 3.902C10.144 3.366 7.856 3.366 6 3.902C4.144 4.438 3 5.428 3 6.5ZM3 6.5V16.5C3 17.388 3.772 17.95 5 18.5M3 11.5C3 12.388 3.772 12.95 5 13.5" stroke="currentColor" stroke-width="2" stroke-linecap="round" stroke-linejoin="round"/>
</svg>
