<svg width="24" height="24" viewBox="0 0 24 24" fill="none" xmlns="http://www.w3.org/2000/svg">
<ellipse cx="23.2655" cy="8.05867" rx="0.734693" ry="0.734694" fill="#B1B0F5"/>
<rect x="12.3923" y="1.0849" width="1.57835" height="1.57835" rx="0.789176" transform="rotate(-22.7167 12.3923 1.0849)" fill="#B1B0F5"/>
<path fill-rule="evenodd" clip-rule="evenodd" d="M21.5564 8.77621C21.6449 8.98842 21.5447 9.23221 21.3325 9.32072C20.018 9.86896 18.8416 11.1004 17.9179 12.6682C16.998 14.2294 16.3556 16.0794 16.085 17.7947C16.0491 18.0218 15.836 18.1768 15.6088 18.141C15.3817 18.1052 15.2266 17.892 15.2625 17.6649C15.5488 15.8503 16.2255 13.9002 17.2005 12.2455C18.1716 10.5973 19.4659 9.19706 21.0119 8.55223C21.2241 8.46372 21.4679 8.564 21.5564 8.77621Z" fill="#E6E5FF"/>
<path d="M3.76573 2.00336C3.88687 1.88735 4.08842 1.96301 4.10328 2.13008L4.15194 2.67704C4.15791 2.7441 4.19722 2.80366 4.25653 2.83552L4.74031 3.09531C4.88808 3.17466 4.87841 3.38973 4.7241 3.45549L4.21895 3.67079C4.15702 3.69719 4.11252 3.75298 4.10055 3.81924L4.00297 4.35961C3.97316 4.52468 3.76563 4.58193 3.6554 4.45551L3.29454 4.04161C3.2503 3.99086 3.18349 3.96578 3.11678 3.97488L2.57269 4.04906C2.4065 4.07171 2.28791 3.89204 2.37409 3.74813L2.65622 3.27703C2.69081 3.21927 2.69401 3.14798 2.66475 3.08735L2.42607 2.59281C2.35316 2.44175 2.4874 2.27345 2.65089 2.31094L3.18612 2.43368C3.25174 2.44873 3.32054 2.42975 3.36916 2.38318L3.76573 2.00336Z" fill="#8E8CEE"/>
<path d="M19.3193 1.04432C19.3708 0.884687 19.5841 0.85552 19.6765 0.995477L19.9792 1.45366C20.0163 1.50984 20.0792 1.54358 20.1465 1.54343L20.6956 1.54222C20.8633 1.54185 20.957 1.7357 20.8525 1.86687L20.5102 2.29629C20.4683 2.34894 20.4556 2.41918 20.4766 2.48316L20.6474 3.00503C20.6996 3.16444 20.5442 3.31341 20.3871 3.25452L19.8729 3.06174C19.8099 3.0381 19.7392 3.04777 19.6848 3.08746L19.2413 3.4112C19.1058 3.51009 18.9161 3.40832 18.9236 3.24075L18.948 2.69218C18.951 2.62491 18.92 2.56066 18.8654 2.5212L18.4205 2.19942C18.2845 2.10113 18.3227 1.88926 18.4844 1.84458L19.0137 1.69833C19.0786 1.6804 19.1301 1.63102 19.1508 1.56694L19.3193 1.04432Z" fill="#8E8CEE"/>
<ellipse cx="22.3353" cy="15.2181" rx="0.734693" ry="0.734694" transform="rotate(-12.6516 22.3353 15.2181)" fill="#8E8CEE"/>
<ellipse cx="0.734938" cy="10.9974" rx="0.734694" ry="0.734694" fill="#B1B0F5"/>
<path fill-rule="evenodd" clip-rule="evenodd" d="M1.86327 11.4036C1.92993 11.212 2.13931 11.1107 2.33093 11.1774C3.47651 11.576 4.66176 12.4733 5.66146 13.4001C6.66807 14.3332 7.52109 15.3289 8.00265 15.9662C8.12495 16.1281 8.09288 16.3585 7.93101 16.4808C7.76914 16.6031 7.53877 16.571 7.41646 16.4091C6.95844 15.8029 6.13404 14.84 5.16199 13.9389C4.18304 13.0314 3.08841 12.2188 2.0895 11.8713C1.89789 11.8046 1.7966 11.5953 1.86327 11.4036Z" fill="#E6E5FF"/>
<path d="M6.25879 7.38749C6.25879 6.84647 6.69737 6.4079 7.23838 6.4079C10.8505 6.4079 14.4627 6.40793 18.0749 6.4079C18.6159 6.4079 19.0545 6.84648 19.0545 7.3875V22.5901C19.0545 23.1312 18.6159 23.5697 18.0749 23.5697C14.4627 23.5697 10.8505 23.5697 7.23838 23.5697C6.69737 23.5697 6.25879 23.1312 6.25879 22.5901V7.38749Z" fill="#8E8CEE"/>
<path d="M5.27954 6.40787C5.27954 5.86686 5.71812 5.42828 6.25913 5.42828C9.8713 5.42828 13.4835 5.42831 17.0956 5.42829C17.6366 5.42828 18.0752 5.86686 18.0752 6.40788V21.6105C18.0752 22.1515 17.6366 22.5901 17.0956 22.5901C13.4835 22.5901 9.8713 22.5901 6.25913 22.5901C5.71812 22.5901 5.27954 22.1515 5.27954 21.6105V6.40787Z" fill="white"/>
<rect x="6.99585" y="10.6623" width="9.36269" height="0.819729" rx="0.409865" fill="#E6E5FF"/>
<rect x="6.99585" y="12.9514" width="9.36269" height="0.81973" rx="0.409865" fill="#E6E5FF"/>
<rect x="6.99585" y="15.2405" width="9.36269" height="0.81973" rx="0.409865" fill="#E6E5FF"/>
<rect x="6.99585" y="17.5296" width="9.36269" height="0.81973" rx="0.409865" fill="#E6E5FF"/>
<rect x="6.99585" y="7.39362" width="5.05959" height="0.81973" rx="0.409865" fill="#8E8CEE"/>
</svg>
