<svg width="24" height="25" viewBox="0 0 24 25" fill="none" xmlns="http://www.w3.org/2000/svg">
<path d="M6.41181 16.6018V6.35294C6.41181 5.46369 6.76506 4.61085 7.39386 3.98205C8.02266 3.35326 8.87549 3 9.76475 3H14.2353C15.1246 3 15.9774 3.35326 16.6062 3.98205C17.235 4.61085 17.5883 5.46369 17.5883 6.35294V16.6029M12 6.35294V11.9412M9.76475 8.58824H14.2353M4.17651 22V19.7647C4.17651 18.8755 4.52977 18.0226 5.15857 17.3938C5.78737 16.765 6.6402 16.4118 7.52945 16.4118H16.4706C17.3599 16.4118 18.2127 16.765 18.8415 17.3938C19.4703 18.0226 19.8236 18.8755 19.8236 19.7647V22H4.17651Z" stroke="#26262E" stroke-width="2" stroke-linecap="round" stroke-linejoin="round"/>
</svg>
