<svg width="24" height="24" viewBox="0 0 24 24" fill="none" xmlns="http://www.w3.org/2000/svg">
<path d="M14.9999 11.9997C12.8568 9.85662 12.0001 9 12.0001 9L18.0001 15C18.0001 15 17.1429 14.1428 14.9999 11.9997ZM14.9999 11.9997C12.857 14.1426 12.0001 15 12.0001 15L18.0001 9C18.0001 9 17.1427 9.85684 14.9999 11.9997ZM9.22705 4H20.0002C21.1047 4 22.0002 4.89543 22.0002 6V18C22.0002 19.1046 21.1047 20 20.0002 20H9.22705C9.08287 20 8.94571 19.9378 8.85076 19.8293L2.28826 12.3293C2.12331 12.1407 2.12331 11.8593 2.28826 11.6707L8.85076 4.17075C8.94571 4.06224 9.08287 4 9.22705 4Z" stroke="#8E8CEE" stroke-width="2" stroke-linecap="round" stroke-linejoin="round"/>
</svg>
