<svg width="24" height="25" viewBox="0 0 24 25" fill="none" xmlns="http://www.w3.org/2000/svg">
<path d="M6.72244 8.27778V6.16667C6.72244 5.32681 7.05607 4.52136 7.64993 3.9275C8.2438 3.33363 9.04925 3 9.88911 3M7.77799 12.5L8.83355 22M16.2224 12.5L15.1669 22M6.72244 22H17.278M4.61133 8.27778H19.3891L18.7336 10.9008C18.6194 11.3575 18.3559 11.763 17.9849 12.0528C17.6138 12.3425 17.1566 12.4999 16.6858 12.5H7.31461C6.84384 12.4999 6.3866 12.3425 6.01557 12.0528C5.64453 11.763 5.38099 11.3575 5.26683 10.9008L4.61133 8.27778Z" stroke="currentColor" stroke-width="2" stroke-linecap="round" stroke-linejoin="round"/>
</svg>
