<svg width="24" height="24" viewBox="0 0 24 24" fill="none" xmlns="http://www.w3.org/2000/svg">
<path d="M10.7681 16.0835L10.7925 15.0838L10.7681 15.0832L10.7437 15.0838L10.7681 16.0835ZM14.958 23L14.9581 24H14.9583L14.958 23ZM17.3336 16.8186L16.3344 16.7798L16.3344 16.7798L17.3336 16.8186ZM2.00012 6L1.04229 5.71268L1.02644 5.76552L1.01649 5.81978L2.00012 6ZM4.20239 16.8186L5.20164 16.7799L5.20163 16.7797L4.20239 16.8186ZM6.57804 23L6.57775 24H6.5779L6.57804 23ZM5.00011 8.00038C5.00011 8.55266 5.44782 9.00038 6.00011 9.00038C6.55239 9.00038 7.00011 8.55266 7.00011 8.00038H5.00011ZM7.00011 7.95953C7.00011 7.40725 6.55239 6.95953 6.00011 6.95953C5.44782 6.95953 5.00011 7.40725 5.00011 7.95953H7.00011ZM18.0001 4C18.0001 3.44772 17.5524 3 17.0001 3C16.4478 3 16.0001 3.44772 16.0001 4H18.0001ZM16.0001 8C16.0001 8.55228 16.4478 9 17.0001 9C17.5524 9 18.0001 8.55228 18.0001 8H16.0001ZM15.0001 5C14.4478 5 14.0001 5.44772 14.0001 6C14.0001 6.55228 14.4478 7 15.0001 7V5ZM19.0001 7C19.5524 7 20.0001 6.55228 20.0001 6C20.0001 5.44772 19.5524 5 19.0001 5V7ZM10.7438 17.0832C10.6106 17.08 10.5735 17.0065 10.6437 17.0807C10.7212 17.1626 10.8333 17.3272 10.9698 17.6132C11.2447 18.1892 11.4909 18.9723 11.7826 19.8678C12.058 20.713 12.3762 21.665 12.7826 22.4062C13.1527 23.0813 13.8227 24.0001 14.9581 24L14.9579 22C15.035 22 14.8734 22.0596 14.5363 21.4447C14.2354 20.8959 13.9705 20.1268 13.6843 19.2483C13.4144 18.42 13.1207 17.4766 12.7747 16.7517C12.6008 16.3873 12.3821 16.0078 12.0959 15.7055C11.8023 15.3955 11.3684 15.0978 10.7925 15.0838L10.7438 17.0832ZM14.9583 24C15.5304 23.9998 16.0654 23.8073 16.5186 23.4213C16.9519 23.0523 17.2695 22.5424 17.5089 21.9576C17.9819 20.8025 18.2453 19.1143 18.3329 16.8574L16.3344 16.7798C16.2492 18.975 15.9948 20.3774 15.6581 21.1998C15.4926 21.6038 15.3325 21.8044 15.2217 21.8988C15.1308 21.9762 15.0554 22 14.9577 22L14.9583 24ZM10.7681 3.05011C10.6947 3.05011 10.5301 3.02814 10.2243 2.95573C9.93151 2.88638 9.59822 2.79361 9.19216 2.68538C8.41011 2.47695 7.42614 2.22938 6.42309 2.15294C5.42215 2.07667 4.30407 2.16181 3.30048 2.70738C2.2646 3.2705 1.48017 4.25294 1.04229 5.71268L2.95795 6.28733C3.27001 5.24706 3.75673 4.73577 4.25569 4.46453C4.78693 4.17574 5.46737 4.08591 6.27112 4.14716C7.07275 4.20825 7.89964 4.41071 8.6771 4.61792C9.05079 4.71752 9.43442 4.82398 9.76347 4.9019C10.0796 4.97676 10.4418 5.05011 10.7681 5.05011V3.05011ZM1.01649 5.81978C0.494487 8.66885 1.06467 10.4669 1.76187 12.0812C2.44253 13.6572 3.12553 14.8626 3.20314 16.8575L5.20163 16.7797C5.10602 14.3221 4.21271 12.7117 3.59795 11.2882C2.99973 9.9031 2.5554 8.5181 2.98375 6.18022L1.01649 5.81978ZM3.20314 16.8573C3.29064 19.1143 3.55418 20.8025 4.0272 21.9576C4.26666 22.5424 4.58431 23.0523 5.01757 23.4213C5.47063 23.8072 6.00559 23.9998 6.57775 24L6.57833 22C6.48072 22 6.40542 21.9763 6.31443 21.8988C6.20365 21.8044 6.04347 21.6037 5.87803 21.1997C5.54126 20.3773 5.28674 18.975 5.20164 16.7799L3.20314 16.8573ZM6.5779 24C7.71325 24.0002 8.38326 23.0814 8.75342 22.4063C9.15983 21.6651 9.47808 20.7131 9.75343 19.8679C10.0452 18.9724 10.2914 18.1893 10.5664 17.6133C10.7029 17.3273 10.8149 17.1626 10.8925 17.0807C10.9627 17.0066 10.9256 17.0799 10.7926 17.0832L10.7437 15.0838C10.1679 15.0979 9.73392 15.3955 9.44032 15.7055C9.15408 16.0078 8.93541 16.3873 8.76144 16.7517C8.41541 17.4767 8.12165 18.4201 7.85181 19.2483C7.56558 20.1269 7.30065 20.8959 6.99973 21.4447C6.66256 22.0597 6.50107 22 6.57819 22L6.5779 24ZM18.3329 16.8574C18.4267 14.4408 19.2582 12.7124 19.9396 10.8424L18.0604 10.1576C17.4444 11.8482 16.4437 13.9643 16.3344 16.7798L18.3329 16.8574ZM12.2536 2.72689C11.872 2.82389 11.5537 2.90677 11.2797 2.96735C10.9921 3.03094 10.8365 3.05011 10.7681 3.05011V5.05011C11.0719 5.05011 11.4116 4.98649 11.7115 4.92018C12.025 4.85086 12.3865 4.75671 12.7464 4.66523L12.2536 2.72689ZM7.00011 8.00038V7.95953H5.00011V8.00038H7.00011ZM21.0001 6C21.0001 8.20914 19.2092 10 17.0001 10V12C20.3138 12 23.0001 9.31371 23.0001 6H21.0001ZM17.0001 10C14.791 10 13.0001 8.20914 13.0001 6H11.0001C11.0001 9.31371 13.6864 12 17.0001 12V10ZM13.0001 6C13.0001 3.79086 14.791 2 17.0001 2V0C13.6864 0 11.0001 2.68629 11.0001 6H13.0001ZM17.0001 2C19.2092 2 21.0001 3.79086 21.0001 6H23.0001C23.0001 2.68629 20.3138 0 17.0001 0V2ZM16.0001 4V8H18.0001V4H16.0001ZM15.0001 7H19.0001V5H15.0001V7Z" fill="#8E8CEE"/>
</svg>
