<svg width="24" height="24" viewBox="0 0 24 24" fill="none" xmlns="http://www.w3.org/2000/svg">
<g clip-path="url(#clip0_10990_53928)">
<circle cx="8.33278" cy="4.73268" r="3.73268" stroke="#8E8CEE" stroke-width="2"/>
<circle cx="18.5099" cy="12.3" r="2.9" stroke="#8E8CEE" stroke-width="2"/>
<path d="M13.946 22.1145C14.1371 20.4316 14.6016 19.4605 15.2295 18.8913C15.8534 18.3257 16.8121 18 18.3506 18C19.8891 18 20.8478 18.3257 21.4717 18.8913C22.0996 19.4605 22.5641 20.4316 22.7552 22.1145C22.8031 22.5367 22.4439 23 21.8506 23H14.8506C14.2572 23 13.898 22.5367 13.946 22.1145Z" stroke="#8E8CEE" stroke-width="2"/>
<path fill-rule="evenodd" clip-rule="evenodd" d="M12.1449 13.6821C11.3104 13.1572 10.0533 12.8 8.55757 12.8C6.60837 12.8 4.83904 13.4131 3.86063 14.3505C3.05844 15.1191 2.56619 16.1869 2.29116 17.5441C2.01285 18.9175 1.98619 20.4332 2.0047 21.9764L2.00483 21.9789L2.00492 21.9795L2.00496 21.9796L2.00521 21.9803C2.00594 21.982 2.00827 21.9862 2.0132 21.9911C2.01813 21.996 2.02258 21.9984 2.02463 21.9993L2.02606 21.9997L2.02607 21.9997C2.0262 21.9998 2.02727 22 2.02986 22H10.8888C10.8591 22.241 10.8331 22.4887 10.8106 22.7433C10.7705 23.1964 10.8462 23.6242 11.0089 24H2.02986C0.925288 24 0.0180893 23.1049 0.00484195 22.0004C-0.0324146 18.8941 0.087797 15.1955 2.477 12.9064C4.73446 10.7435 9.0541 10.2463 12.0589 11.4147C12.02 11.7043 12 11.9998 12 12.3C12 12.774 12.05 13.2364 12.1449 13.6821Z" fill="#8E8CEE"/>
</g>
<defs>
<clipPath id="clip0_10990_53928">
<rect width="24" height="24" fill="white"/>
</clipPath>
</defs>
</svg>
