<svg width="24" height="24" viewBox="0 0 24 24" fill="none" xmlns="http://www.w3.org/2000/svg">
<g clip-path="url(#clip0_10990_53883)">
<circle cx="7.9439" cy="7.9439" r="2.9439" stroke="#8E8CEE" stroke-width="2"/>
<circle cx="16.4248" cy="14.25" r="2.25" stroke="#8E8CEE" stroke-width="2"/>
<path d="M12.8261 22.1493C13.0088 20.9028 13.3875 20.2147 13.8601 19.8166C14.3371 19.4149 15.0779 19.1667 16.2923 19.1667C17.5067 19.1667 18.2475 19.4149 18.7246 19.8166C19.1971 20.2147 19.5758 20.9028 19.7585 22.1493C19.8143 22.5293 19.4861 23 18.8757 23H13.709C13.0986 23 12.7704 22.5293 12.8261 22.1493Z" stroke="#8E8CEE" stroke-width="2"/>
<path fill-rule="evenodd" clip-rule="evenodd" d="M11.2562 15.9141C10.6773 15.4113 9.56964 15 8.13131 15C6.56211 15 5.18192 15.4961 4.4478 16.1995C3.23955 17.3571 2.98451 19.3779 3.00086 21.9847C3.00178 21.9861 3.00326 21.9879 3.00547 21.9901C3.01024 21.9948 3.01501 21.9976 3.01795 21.9988L3.01902 21.9992L3.02054 21.9997C3.02094 21.9998 3.0222 22 3.02488 22H10.1185C10.0746 22.304 10.0381 22.6214 10.0088 22.9527C9.9754 23.3303 10.0385 23.6869 10.1741 24H3.02488C1.92031 24 1.00792 23.1048 1.00092 22.0002C0.984957 19.4846 1.158 16.5816 3.06416 14.7553C4.94539 12.9529 8.54508 12.5386 11.049 13.5123C11.0167 13.7536 11 13.9998 11 14.25C11 14.8301 11.0898 15.3892 11.2562 15.9141Z" fill="#8E8CEE"/>
<path fill-rule="evenodd" clip-rule="evenodd" d="M19 1C19 0.447715 18.5523 0 18 0C17.4477 0 17 0.447715 17 1V3H15C14.4477 3 14 3.44772 14 4C14 4.55228 14.4477 5 15 5H17V7C17 7.55228 17.4477 8 18 8C18.5523 8 19 7.55228 19 7V5H21C21.5523 5 22 4.55228 22 4C22 3.44772 21.5523 3 21 3H19V1Z" fill="#8E8CEE"/>
</g>
<defs>
<clipPath id="clip0_10990_53883">
<rect width="24" height="24" fill="white"/>
</clipPath>
</defs>
</svg>
