<svg width="24" height="24" viewBox="0 0 24 24" fill="none" xmlns="http://www.w3.org/2000/svg">
<path d="M12 1C14.7579 1 17 3.24213 17 6C17 8.75787 14.7579 11 12 11C9.24213 11 7 8.75787 7 6C7 3.24213 9.24213 1 12 1Z" fill="white"/>
<path d="M12.0996 11.8657C15.361 11.8657 18.0085 9.20371 18.0085 5.93533C18.0085 2.66696 15.361 0 12.0996 0C8.83814 0 6.19067 2.66203 6.19067 5.93533C6.19067 9.20864 8.83814 11.8657 12.0996 11.8657ZM12.0996 1.39017C14.5948 1.39017 16.6234 3.42613 16.6234 5.9304C16.6234 8.43468 14.5948 10.4706 12.0996 10.4706C9.60439 10.4706 7.57581 8.43468 7.57581 5.9304C7.57581 3.42613 9.60439 1.39017 12.0996 1.39017Z" fill="#8E8CEE"/>
<path d="M5.21363 13.6974L9.52637 13.2182L12.1619 17.7705L14.5579 13.2182H16.4747L18.631 13.6974L20.5478 14.1766L21.5062 15.3745L21.9854 18.2497L22.4646 23.2812L9.76597 23.0416L2.09888 22.802V18.0101L3.05726 14.6557L5.21363 13.6974Z" fill="white"/>
<path d="M17.984 12.5779H14.59C14.3346 12.5779 14.0988 12.7209 13.976 12.9477L12.0997 16.497L10.2234 12.9477C10.1055 12.7209 9.86973 12.5779 9.6094 12.5779H6.21534C3.61699 12.5779 1.5 14.7026 1.5 17.3104V23.3049C1.5 23.6894 1.80944 24 2.19257 24H22.0117C22.3949 24 22.7043 23.6894 22.7043 23.3049V17.3104C22.6994 14.7026 20.5873 12.5779 17.984 12.5779ZM21.3143 22.6148H2.88513V17.3104C2.88513 15.9252 3.72996 14.7371 4.92353 14.2294C5.07089 14.954 5.39998 16.078 6.12202 17.3548C5.80766 17.7147 5.6161 18.183 5.6161 18.7006C5.6161 19.8295 6.5297 20.7464 7.6545 20.7464C8.77931 20.7464 9.6929 19.8295 9.6929 18.7006C9.6929 17.5717 8.77931 16.6548 7.6545 16.6548C7.54644 16.6548 7.43838 16.6646 7.33032 16.6844C6.6967 15.5653 6.41181 14.5843 6.28411 13.973H9.1919L11.4857 18.3062C11.7804 18.7893 12.4288 18.814 12.7088 18.3062L15.0026 13.973H17.9791C18.1314 13.973 18.2788 13.9878 18.4261 14.0075C18.2591 14.54 17.9595 15.1759 17.7139 15.6393C16.3926 15.5062 14.8012 16.7041 13.755 18.7302C13.6862 18.8682 13.6616 19.021 13.6862 19.1739L13.8483 20.0908C13.9171 20.4704 14.2756 20.7218 14.6538 20.6528C15.032 20.5837 15.2825 20.2239 15.2138 19.8443L15.0959 19.164C16.0144 17.5126 17.2571 16.8125 17.7434 17.064C17.989 17.1921 18.1363 17.6062 18.1412 18.1731C18.1412 18.8485 17.9349 19.6668 17.5665 20.4457L16.9427 20.7415C16.5989 20.9042 16.4466 21.3183 16.6087 21.6683C16.7905 21.9986 17.1539 22.1662 17.5322 22.0035L18.3721 21.6091C18.5096 21.545 18.6226 21.4366 18.6913 21.2985C19.2316 20.2485 19.5264 19.1393 19.5264 18.1731C19.5214 17.3795 19.3151 16.7386 18.9418 16.29C19.1825 15.8315 19.5214 15.1364 19.7326 14.4808C20.6757 15.0724 21.3093 16.1224 21.3093 17.3154V22.6148H21.3143ZM7.00123 18.7006C7.00123 18.3407 7.29594 18.045 7.6545 18.045C8.01306 18.045 8.30777 18.3407 8.30777 18.7006C8.30777 19.0605 8.01306 19.3563 7.6545 19.3563C7.29594 19.3563 7.00123 19.0654 7.00123 18.7006Z" fill="#8E8CEE"/>
</svg>
