<svg width="24" height="24" viewBox="0 0 24 24" fill="none" xmlns="http://www.w3.org/2000/svg">
<path d="M5 3C5.55228 3 6 2.55228 6 2C6 1.44772 5.55228 1 5 1V3ZM3 2V1C2.44772 1 2 1.44772 2 2H3ZM12 2H13C13 1.44772 12.5523 1 12 1V2ZM10 1C9.44772 1 9 1.44772 9 2C9 2.55228 9.44772 3 10 3V1ZM5 1H3V3H5V1ZM2 2V8H4V2H2ZM2 8C2 8.97355 2.25542 10.426 3.06079 11.6688C3.90112 12.9656 5.3275 14 7.5 14V12C6.0725 12 5.24888 11.3677 4.73921 10.5812C4.19458 9.74071 4 8.69312 4 8H2ZM7.5 14C9.6725 14 11.0989 12.9656 11.9392 11.6688C12.7446 10.426 13 8.97355 13 8H11C11 8.69312 10.8054 9.74071 10.2608 10.5812C9.75112 11.3677 8.9275 12 7.5 12V14ZM13 8V2H11V8H13ZM12 1H10V3H12V1ZM7 12.65V17.6H9V12.65H7ZM7 17.6C7 18.4188 7.14168 19.7176 7.79067 20.8479C8.48097 22.0502 9.71925 23 11.6842 23V21C10.4913 21 9.88745 20.4831 9.52511 19.8521C9.12148 19.1491 9 18.2479 9 17.6H7ZM11.6842 23C12.6202 23 13.4097 22.795 14.0481 22.3873C14.6893 21.9779 15.1015 21.4128 15.3621 20.8228C15.8571 19.7021 15.8421 18.3805 15.8421 17.6H13.8421C13.8421 18.4695 13.8271 19.3479 13.5326 20.0147C13.3985 20.3185 13.2186 20.544 12.9716 20.7017C12.7219 20.8612 12.3272 21 11.6842 21V23ZM15.8421 17.6V15.4H13.8421V17.6H15.8421ZM15.8421 15.4C15.8421 14.773 15.9828 13.843 16.3621 13.1091C16.7221 12.4123 17.2224 12 18 12V10C16.2513 10 15.1726 11.0544 14.5853 12.1909C14.0172 13.2904 13.8421 14.5603 13.8421 15.4H15.8421ZM21 10.5C21 11.3284 20.3284 12 19.5 12V14C21.433 14 23 12.433 23 10.5H21ZM19.5 12C18.6716 12 18 11.3284 18 10.5H16C16 12.433 17.567 14 19.5 14V12ZM18 10.5C18 9.67157 18.6716 9 19.5 9V7C17.567 7 16 8.567 16 10.5H18ZM19.5 9C20.3284 9 21 9.67157 21 10.5H23C23 8.567 21.433 7 19.5 7V9Z" fill="#8E8CEE"/>
</svg>
