<svg width="24" height="24" viewBox="0 0 24 24" fill="none" xmlns="http://www.w3.org/2000/svg">
<path d="M4.2959 2.59189C4.2959 1.87617 4.87611 1.29596 5.59184 1.29596C10.3705 1.29596 15.1492 1.296 19.9278 1.29597C20.6436 1.29596 21.2238 1.87617 21.2238 2.59191V22.7041C21.2238 23.4198 20.6436 24 19.9279 24C15.1492 24 10.3705 24 5.59184 24C4.87611 24 4.2959 23.4198 4.2959 22.7041V2.59189Z" fill="#8E8CEE"/>
<path d="M3 1.29594C3 0.580208 3.58021 -1.90826e-07 4.29594 0C9.07461 1.27408e-06 13.8533 3.71433e-05 18.6319 6.08235e-06C19.3477 1.43015e-06 19.9279 0.580215 19.9279 1.29595V21.4081C19.9279 22.1238 19.3477 22.7041 18.632 22.7041C13.8533 22.7041 9.07461 22.7041 4.29594 22.7041C3.58021 22.7041 3 22.1238 3 21.4081V1.29594Z" fill="white"/>
<rect x="5.08765" y="2.50793" width="11.6635" height="1.29594" rx="0.64797" fill="#E6E5FF"/>
<rect x="8.32739" y="19.3552" width="9.71955" height="1.29594" rx="0.64797" fill="#E6E5FF"/>
<rect x="5.08765" y="5.09985" width="7.12767" height="1.29594" rx="0.64797" fill="#E6E5FF"/>
<rect x="12.2153" y="16.7633" width="5.83173" height="1.29594" rx="0.64797" fill="#E6E5FF"/>
<g clip-path="url(#clip0_1734_99)">
<path fill-rule="evenodd" clip-rule="evenodd" d="M15.0494 8.58346C15.3024 8.83651 15.3024 9.24678 15.0494 9.49983L10.8916 13.6576C10.7701 13.7792 10.6052 13.8474 10.4334 13.8474C10.2615 13.8474 10.0967 13.7792 9.97521 13.6576L8.08529 11.7677C7.83225 11.5147 7.83225 11.1044 8.08529 10.8514C8.33834 10.5983 8.74861 10.5983 9.00166 10.8514L10.4334 12.2831L14.133 8.58346C14.3861 8.33041 14.7963 8.33041 15.0494 8.58346Z" fill="#8E8CEE"/>
</g>
<defs>
<clipPath id="clip0_1734_99">
<rect width="9.07158" height="9.07158" fill="white" transform="translate(7.03149 6.39575)"/>
</clipPath>
</defs>
</svg>
