<svg width="24" height="24" viewBox="0 0 24 24" fill="none" xmlns="http://www.w3.org/2000/svg">
<path fill-rule="evenodd" clip-rule="evenodd" d="M20.7071 4.70711C21.0976 4.31659 21.0976 3.68342 20.7071 3.2929C20.3166 2.90237 19.6834 2.90237 19.2929 3.2929L3.2929 19.2929C2.90237 19.6834 2.90237 20.3166 3.2929 20.7071C3.68342 21.0976 4.31659 21.0976 4.70711 20.7071L20.7071 4.70711ZM20.7071 14.7071C21.0976 14.3166 21.0976 13.6834 20.7071 13.2929C20.3166 12.9024 19.6834 12.9024 19.2929 13.2929L13.2929 19.2929C12.9024 19.6834 12.9024 20.3166 13.2929 20.7071C13.6834 21.0976 14.3166 21.0976 14.7071 20.7071L20.7071 14.7071Z" fill="#8E8CEE"/>
</svg>
