<svg width="24" height="24" viewBox="0 0 24 24" fill="none" xmlns="http://www.w3.org/2000/svg">
<path d="M16.3284 3.5C16.591 3.23736 16.9028 3.02902 17.246 2.88688C17.5892 2.74474 17.957 2.67158 18.3284 2.67158C18.6998 2.67158 19.0676 2.74474 19.4108 2.88688C19.754 3.02902 20.0658 3.23736 20.3284 3.5C20.591 3.76265 20.7994 4.07445 20.9415 4.41761C21.0837 4.76077 21.1568 5.12857 21.1568 5.5C21.1568 5.87144 21.0837 6.23924 20.9415 6.5824C20.7994 6.92556 20.591 7.23736 20.3284 7.5L8.32842 19.5L2.82842 21L4.32842 15.5L16.3284 3.5Z" stroke="#8E8CEE" stroke-width="2" stroke-linecap="round" stroke-linejoin="round"/>
</svg>
