<svg width="24" height="24" viewBox="0 0 24 24" fill="none" xmlns="http://www.w3.org/2000/svg">
<path d="M13 4C13.5523 4 14 3.55228 14 3C14 2.44772 13.5523 2 13 2V4ZM22 13C22 12.4477 21.5523 12 21 12C20.4477 12 20 12.4477 20 13H22ZM18.6662 3.57198L17.9591 2.86488L18.6662 3.57198ZM20.0471 3V2V3ZM12.6824 15.0794L12.9249 16.0495C13.1007 16.0056 13.2613 15.9147 13.3895 15.7865L12.6824 15.0794ZM9 16L8.02986 15.7575C7.94466 16.0982 8.04451 16.4587 8.29289 16.7071C8.54127 16.9555 8.90176 17.0553 9.24254 16.9701L9 16ZM9.92059 12.3176L9.21349 11.6105C9.08533 11.7387 8.99441 11.8993 8.95045 12.0751L9.92059 12.3176ZM20 19C20 19.5523 19.5523 20 19 20V22C20.6569 22 22 20.6569 22 19H20ZM19 20H5V22H19V20ZM5 20C4.44771 20 4 19.5523 4 19H2C2 20.6569 3.34315 22 5 22V20ZM4 19V5H2V19H4ZM4 5C4 4.44772 4.44772 4 5 4V2C3.34315 2 2 3.34315 2 5H4ZM5 4H13V2H5V4ZM20 13V19H22V13H20ZM19.3733 4.27909C19.552 4.10039 19.7944 4 20.0471 4V2C19.264 2 18.5129 2.31111 17.9591 2.86488L19.3733 4.27909ZM20.0471 4C20.2998 4 20.5422 4.10039 20.7209 4.27909L22.1351 2.86488C21.5814 2.31111 20.8303 2 20.0471 2V4ZM20.7209 4.27909C20.8996 4.45779 21 4.70016 21 4.95287H23C23 4.16972 22.6889 3.41865 22.1351 2.86488L20.7209 4.27909ZM21 4.95287C21 5.20559 20.8996 5.44796 20.7209 5.62666L22.1351 7.04087C22.6889 6.4871 23 5.73602 23 4.95287H21ZM20.7209 5.62666L11.9753 14.3723L13.3895 15.7865L22.1351 7.04087L20.7209 5.62666ZM12.4398 14.1093L8.75746 15.0299L9.24254 16.9701L12.9249 16.0495L12.4398 14.1093ZM9.97014 16.2425L10.8907 12.5602L8.95045 12.0751L8.02986 15.7575L9.97014 16.2425ZM10.6277 13.0247L19.3733 4.27909L17.9591 2.86488L9.21349 11.6105L10.6277 13.0247Z" fill="#8E8CEE"/>
</svg>
