<svg width="24" height="24" viewBox="0 0 24 24" fill="none" xmlns="http://www.w3.org/2000/svg">
<path d="M10.9345 2.38525C11.5874 1.87159 12.4126 1.87158 13.0655 2.38524L21.6423 9.13256C21.8647 9.30751 22 9.61635 22 9.94889C22 10.3102 21.8404 10.6409 21.5871 10.8046L12 17L2.41288 10.8046C2.15957 10.6409 2 10.3102 2 9.94889C2 9.61635 2.13534 9.30751 2.35772 9.13256L10.9345 2.38525Z" fill="#8E8CEE"/>
<path d="M5 3.12333C5 2.50293 5.36779 2 5.82149 2H18.1785C18.6322 2 19 2.50293 19 3.12333V13.8767C19 14.4971 18.6322 15 18.1785 15H5.82149C5.36779 15 5 14.4971 5 13.8767V3.12333Z" fill="white"/>
<rect x="7" y="6" width="10" height="1" rx="0.5" fill="#E6E5FF"/>
<rect x="7" y="8" width="10" height="1" rx="0.5" fill="#E6E5FF"/>
<rect x="7" y="10" width="10" height="1" rx="0.5" fill="#E6E5FF"/>
<rect x="7" y="4" width="4" height="1" rx="0.5" fill="#8E8CEE"/>
<path d="M2 10.0528C2 9.2761 2.78336 8.76745 3.45619 9.10732L11.5568 13.1992C11.8366 13.3405 12.1634 13.3405 12.4432 13.1992L20.5438 9.10732C21.2166 8.76745 22 9.2761 22 10.0528V19.9485C22 20.5292 21.5465 21 20.987 21H3.01297C2.45352 21 2 20.5292 2 19.9485V10.0528Z" fill="url(#paint0_linear_719_20)"/>
<defs>
<linearGradient id="paint0_linear_719_20" x1="34" y1="6" x2="17.0563" y2="36.8674" gradientUnits="userSpaceOnUse">
<stop stop-color="#D3D2FF"/>
<stop offset="0.485195" stop-color="#D3D2FF"/>
<stop offset="0.485295" stop-color="#B1B0F5"/>
<stop offset="1" stop-color="#B1B0F5"/>
</linearGradient>
</defs>
</svg>
