<svg width="24" height="24" viewBox="0 0 24 24" fill="none" xmlns="http://www.w3.org/2000/svg">
<path d="M6 6.10111C2.76431 8.47138 1 12 1 12C1 12 5 20 12 20C14.2845 20 16.2494 19.148 17.8601 18M20.5765 15.5C22.1601 13.6798 23 12 23 12C23 12 19 4 12 4C11.3033 4 10.6363 4.07925 10 4.22198M14.1213 14.1213C12.9497 15.2929 11.0502 15.2929 9.87864 14.1213C8.70707 12.9497 8.70707 11.0503 9.87864 9.87868M2 2L22 22" stroke="#8E8CEE" stroke-width="2" stroke-linecap="round" stroke-linejoin="round"/>
</svg>
