<svg width="24" height="24" viewBox="0 0 24 24" fill="none" xmlns="http://www.w3.org/2000/svg">
<path d="M12 22C17.5228 22 22 17.5228 22 12C22 6.47715 17.5228 2 12 2" stroke="#8E8CEE" stroke-width="2"/>
<path d="M12 2C12 2.66667 12 4.73856 12 5" stroke="#8E8CEE" stroke-width="2" stroke-linecap="round"/>
<path d="M12 19C12 19.6667 12 21.7386 12 22" stroke="#8E8CEE" stroke-width="2" stroke-linecap="round"/>
<path d="M2 12C3.33334 12 7.47712 12 8 12" stroke="#8E8CEE" stroke-width="2" stroke-linecap="round"/>
<path d="M4 16C4.88889 16 7.65142 16 8 16" stroke="#8E8CEE" stroke-width="2" stroke-linecap="round"/>
<path d="M4 8C4.88889 8 7.65142 8 8 8" stroke="#8E8CEE" stroke-width="2" stroke-linecap="round"/>
<path d="M19 12C19.6667 12 21.7386 12 22 12" stroke="#8E8CEE" stroke-width="2" stroke-linecap="round"/>
<path d="M11.8281 13.1719C11.8281 13.1719 12.3996 12.6004 13.8281 11.1719C15.2567 9.7433 15.8281 9.17188 15.8281 9.17188" stroke="#8E8CEE" stroke-width="2" stroke-linecap="round" stroke-linejoin="round"/>
</svg>
