<svg width="24" height="24" viewBox="0 0 24 24" fill="none" xmlns="http://www.w3.org/2000/svg">
<path fill-rule="evenodd" clip-rule="evenodd" d="M11.9545 2C8.66594 2 6 4.66594 6 7.95455C6 11.2431 8.66594 13.9091 11.9545 13.9091C15.2431 13.9091 17.9091 11.2431 17.9091 7.95455C17.9091 4.66594 15.2431 2 11.9545 2ZM4 7.95455C4 3.56137 7.56137 0 11.9545 0C16.3477 0 19.9091 3.56137 19.9091 7.95455C19.9091 11.9933 16.8991 15.3291 13 15.841L13 18H15C15.5523 18 16 18.4477 16 19C16 19.5523 15.5523 20 15 20H13L13 22.8801C13 23.4324 12.5523 23.8801 12 23.8801C11.4478 23.8801 11 23.4324 11 22.8801L11 20H8C7.44772 20 7 19.5523 7 19C7 18.4477 7.44772 18 8 18H11L11 15.8524C7.05688 15.3808 4 12.0247 4 7.95455Z" fill="#8E8CEE"/>
</svg>
