<svg width="20" height="20" viewBox="0 0 20 20" fill="none" xmlns="http://www.w3.org/2000/svg">
<g clip-path="url(#clip0_44145_9383)">
<path d="M13.125 17.5H4.375C4.20924 17.5 4.05027 17.4342 3.93306 17.3169C3.81585 17.1997 3.75 17.0408 3.75 16.875V5.625C3.75 5.45924 3.81585 5.30027 3.93306 5.18306C4.05027 5.06585 4.20924 5 4.375 5H10.625L13.75 8.125V16.875C13.75 17.0408 13.6842 17.1997 13.5669 17.3169C13.4497 17.4342 13.2908 17.5 13.125 17.5Z" stroke="#91919C" stroke-width="1.8" stroke-linecap="round" stroke-linejoin="round"/>
<path d="M6.25 5V3.125C6.25 2.95924 6.31585 2.80027 6.43306 2.68306C6.55027 2.56585 6.70924 2.5 6.875 2.5H13.125L16.25 5.625V14.375C16.25 14.5408 16.1842 14.6997 16.0669 14.8169C15.9497 14.9342 15.7908 15 15.625 15H13.75" stroke="#91919C" stroke-width="1.8" stroke-linecap="round" stroke-linejoin="round"/>
<path d="M6.875 11.875H10.625" stroke="#91919C" stroke-width="1.8" stroke-linecap="round" stroke-linejoin="round"/>
<path d="M6.875 14.375H10.625" stroke="#91919C" stroke-width="1.8" stroke-linecap="round" stroke-linejoin="round"/>
</g>
<defs>
<clipPath id="clip0_44145_9383">
<rect width="20" height="20" fill="white"/>
</clipPath>
</defs>
</svg>
