<svg width="24" height="24" viewBox="0 0 24 24" fill="none" xmlns="http://www.w3.org/2000/svg">
<path d="M19 3H5C3.89543 3 3 3.89543 3 5V19C3 20.1046 3.89543 21 5 21H19C20.1046 21 21 20.1046 21 19V5C21 3.89543 20.1046 3 19 3Z" stroke="#8E8CEE" stroke-width="2" stroke-miterlimit="10"/>
<path d="M9 20C9 16.2222 9 4.48148 9 3" stroke="#8E8CEE" stroke-width="2" stroke-linecap="round"/>
<path d="M20 12C16.2222 12 4.48148 12 3 12" stroke="#8E8CEE" stroke-width="2" stroke-linecap="round"/>
<path d="M9 7.5C7.66666 7.5 3.52288 7.5 3 7.5" stroke="#8E8CEE" stroke-width="2" stroke-linecap="round"/>
<path d="M9 16.5C7.66666 16.5 3.52288 16.5 3 16.5" stroke="#8E8CEE" stroke-width="2" stroke-linecap="round"/>
<path d="M21 7.5C19.6667 7.5 15.5229 7.5 15 7.5" stroke="#8E8CEE" stroke-width="2" stroke-linecap="round"/>
<path d="M21 16.5C19.6667 16.5 15.5229 16.5 15 16.5" stroke="#8E8CEE" stroke-width="2" stroke-linecap="round"/>
<path d="M15 20C15 16.2222 15 4.48148 15 3" stroke="#8E8CEE" stroke-width="2" stroke-linecap="round"/>
</svg>
