<svg width="24" height="24" viewBox="0 0 24 24" fill="none" xmlns="http://www.w3.org/2000/svg">
<g clip-path="url(#clip0_276_40)">
<path fill-rule="evenodd" clip-rule="evenodd" d="M0 11.4692C0 11.4692 0.437709 12.2379 1.6109 13.5197C2.10676 14.0616 2.82371 14.7952 3.62693 15.3287C4.40203 15.9013 5.30365 16.4419 6.15735 16.8106C7.92161 17.6195 10.1773 18.1735 12.7384 18.017C14.0253 17.939 14.548 17.7218 14.548 17.7218C14.548 17.7218 13.2387 17.6221 12.1121 17.162C11.0604 16.7454 10.5076 16.3109 9.86863 15.854C9.26862 15.4233 8.43728 14.507 7.9951 13.8322C7.43789 12.9804 7.2315 12.2354 7.2315 12.2354C7.2315 12.2354 6.08834 12.3977 5.25189 12.4117C4.36689 12.4264 3.12021 12.3964 2.186 12.1478C1.06584 11.8513 0 11.4692 0 11.4692Z" fill="#8E8CEE"/>
<path d="M13.6292 11.9235C15.2649 11.9235 16.591 10.5975 16.591 8.96174C16.591 7.32602 15.2649 6 13.6292 6C11.9935 6 10.6675 7.32602 10.6675 8.96174C10.6675 10.5975 11.9935 11.9235 13.6292 11.9235Z" fill="#8E8CEE"/>
<path fill-rule="evenodd" clip-rule="evenodd" d="M11.834 16.4647C13.0315 16.1043 13.9145 15.6398 14.9069 14.8935C15.721 14.2826 16.089 13.8391 16.6469 13.0084C17.1082 12.3221 17.3185 11.894 17.5971 11.1157C17.8303 10.4659 17.9262 10.0805 18.0233 9.39746C19.1102 9.67734 19.831 9.74635 20.9147 9.76233C22.1914 9.7815 22.8113 9.66648 24.0004 9.42494C24.0004 9.42494 23.9116 9.75019 23.619 10.3694C23.2995 11.0282 22.9812 11.6787 22.64 12.2007C21.9908 13.1931 21.5748 13.7407 20.7007 14.5426C19.9256 15.2532 19.5262 15.6481 18.6361 16.1465C17.829 16.597 17.3364 16.8251 16.4296 17.0104C15.6935 17.1606 15.2564 17.1779 14.5063 17.1306C13.434 17.0616 12.8666 16.8897 11.834 16.4647Z" fill="#8E8CEE"/>
</g>
<defs>
<clipPath id="clip0_276_40">
<rect width="24" height="24" fill="white"/>
</clipPath>
</defs>
</svg>
