<svg width="24" height="24" viewBox="0 0 24 24" fill="none" xmlns="http://www.w3.org/2000/svg">
<path d="M6.00018 14.9999H2.00018V20.9999H6.00018V14.9999ZM6.00018 14.9999L10.4002 12.0005L14.5002 12.001C15.0002 12.001 16.5002 12.4007 16.5002 14.0005C16.5002 15.6003 15.024 15.9999 14.5002 15.9999M14.5002 15.9999H12.2859M14.5002 15.9999L18.5707 15.1521C20.6585 14.6646 21.3145 15.216 21.7024 16.1269C22.5001 18.0001 20.5002 18.5001 20.5002 18.5001L13.5002 21.0001L5.00018 20.9995M17.4986 3L19.2189 5.23931C19.5314 5.58382 19.8554 6.17089 19.952 6.70557C20.0486 7.24024 19.9992 7.79449 19.81 8.29821C19.6209 8.80192 19.3004 9.23247 18.8893 9.53539C18.4781 9.83831 17.9947 10 17.5002 10C17.0057 10 16.5222 9.83831 16.1111 9.53539C15.6999 9.23247 15.3795 8.80192 15.1903 8.29821C15.0012 7.79449 14.9517 7.24024 15.0483 6.70557C15.1449 6.17089 15.4689 5.58382 15.7814 5.23931L17.4986 3Z" stroke="#8E8CEE" stroke-width="2"/>
</svg>
