<svg width="24" height="24" viewBox="0 0 24 24" fill="none" xmlns="http://www.w3.org/2000/svg">
<path d="M17.4998 3.14631C14.7262 3.1463 13.206 4.72115 12 5.8974C10.7941 4.72115 9.27384 3.1463 6.50032 3.14631C3.7268 3.14632 1.00082 5.34718 1.00001 9.1987C1.00001 14.1507 7.5983 18.5524 12 21.8537C16.4018 18.5524 22.9992 14.1507 22.9992 9.1987C22.9992 5.34718 20.2733 3.14632 17.4998 3.14631Z" stroke="#8E8CEE" stroke-width="2"/>
<path d="M14.2008 9.74891C14.2008 9.74891 14.8296 9.74891 16.4017 9.74891C17.9737 9.74891 18.6025 9.74891 18.6025 9.74891" stroke="#8E8CEE" stroke-width="2" stroke-linecap="round" stroke-linejoin="round"/>
<path d="M16.4019 11.9498C16.4019 11.9498 16.4019 11.321 16.4019 9.74891C16.4019 8.17687 16.4019 7.54805 16.4019 7.54805" stroke="#8E8CEE" stroke-width="2" stroke-linecap="round" stroke-linejoin="round"/>
</svg>
