<svg width="24" height="24" viewBox="0 0 24 24" fill="none" xmlns="http://www.w3.org/2000/svg">
<rect x="2" y="13.9999" width="4" height="6" stroke="#8E8CEE" stroke-width="2"/>
<path d="M6 13.9995L10.4 11.0005L14.5 11.001C15 11.001 16.5 11.4007 16.5 13.0005C16.5 14.6002 15.0238 14.9999 14.5 14.9999H12.2857" stroke="#8E8CEE" stroke-width="2" stroke-linecap="round"/>
<path d="M14.5 15.0001L18.5705 14.1521C20.6583 13.6646 21.3143 14.216 21.7022 15.1269C22.4999 17.0001 20.5 17.5001 20.5 17.5001L13.5 20.0001L5 19.9995" stroke="#8E8CEE" stroke-width="2" stroke-linecap="round"/>
<path d="M17.0005 13.4999C19.1042 11.9221 20.9341 8.85263 20.9341 6.64265C20.9341 4.43267 19.3699 3.16984 17.7785 3.16983C16.1871 3.16982 15.3141 4.07268 14.6222 4.74761C13.9302 4.07268 13.0585 3.16982 11.4671 3.16983C9.87565 3.16984 8.3115 4.43267 8.31104 6.64265C8.31057 8.85263 9.92925 10.3175 10.4147 11.0587" stroke="#8E8CEE" stroke-width="2"/>
</svg>
