<svg width="24" height="24" viewBox="0 0 24 24" fill="none" xmlns="http://www.w3.org/2000/svg">
<path d="M21.1997 16.0866V7.90926C21.1993 7.55075 21.1047 7.19865 20.9253 6.88827C20.7458 6.57789 20.488 6.32015 20.1775 6.14089L13.0223 2.0522C12.7115 1.87277 12.359 1.77831 12.0001 1.77831C11.6412 1.77831 11.2887 1.87277 10.9779 2.0522L3.82271 6.14089C3.51224 6.32015 3.25436 6.57789 3.07495 6.88827C2.89554 7.19865 2.8009 7.55075 2.80054 7.90926V16.0866C2.8009 16.4451 2.89554 16.7973 3.07495 17.1076C3.25436 17.418 3.51224 17.6758 3.82271 17.855L10.9779 21.9437C11.2887 22.1231 11.6412 22.2176 12.0001 22.2176C12.359 22.2176 12.7115 22.1231 13.0223 21.9437L20.1775 17.855C20.488 17.6758 20.7458 17.418 20.9253 17.1076C21.1047 16.7973 21.1993 16.4451 21.1997 16.0866Z" stroke="#8E8CEE" stroke-width="2" stroke-linecap="round" stroke-linejoin="round"/>
</svg>
