<svg width="24" height="24" viewBox="0 0 24 24" fill="none" xmlns="http://www.w3.org/2000/svg">
<path d="M1 8V7C0.447715 7 1.19209e-07 7.44772 1.19209e-07 8H1ZM6 8H7V7H6V8ZM1 22H1.19209e-07V23H1V22ZM18 8V7H17V8H18ZM23 8H24C24 7.44772 23.5523 7 23 7V8ZM23 22V23H24V22H23ZM6 2V1C5.44772 1 5 1.44772 5 2H6ZM18 2H19C19 1.44772 18.5523 1 18 1V2ZM13 6L13 5L11 5L11 6L13 6ZM11 10V11H13V10L11 10ZM13 18V17L11 17L11 18H13ZM11 20V21H13L13 20H11ZM1 14H-1.19209e-07L1.19209e-07 16H1L1 14ZM6 14L5 14L5 16L6 16L6 14ZM18 16L19 16V14L18 14V16ZM23 16H24V14H23V16ZM10 7H9V9H10V7ZM14 9H15V7H14V9ZM1 9H6V7H1V9ZM5 8V22H7V8H5ZM6 21H1V23H6V21ZM2 22V8H1.19209e-07V22H2ZM18 9H23V7H18V9ZM22 8V22H24V8H22ZM23 21H18V23H23V21ZM19 22V8H17V22H19ZM6 3H18V1H6V3ZM17 2V22H19V2H17ZM18 21H6V23H18V21ZM7 22V2H5V22H7ZM12 6C11 6 11 6 11 6C11 6.00001 11 6.00002 11 6.00002C11 6.00004 11 6.00007 11 6.0001C11 6.00017 11 6.00028 11 6.00042C11 6.0007 11 6.00112 11 6.00168C11 6.00281 11 6.0045 11 6.00676C11 6.0113 11 6.01813 11 6.02734C11 6.04576 11 6.07366 11 6.11161C11 6.1875 11 6.30357 11 6.46428C11 6.78571 11 7.28571 11 8H13C13 7.28571 13 6.78571 13 6.46429C13 6.30357 13 6.1875 13 6.11161C13 6.07366 13 6.04576 13 6.02734C13 6.01814 13 6.0113 13 6.00677C13 6.0045 13 6.00281 13 6.00168C13 6.00112 13 6.0007 13 6.00042C13 6.00028 13 6.00017 13 6.00011C13 6.00007 13 6.00005 13 6.00003C13 6.00002 13 6.00001 13 6.00001C13 6 13 6 12 6ZM11 8C11 8.71429 11 9.21429 11 9.53571C11 9.69643 11 9.8125 11 9.88839C11 9.92634 11 9.95424 11 9.97266C11 9.98186 11 9.9887 11 9.99323C11 9.9955 11 9.99719 11 9.99832C11 9.99888 11 9.9993 11 9.99958C11 9.99972 11 9.99982 11 9.9999C11 9.99993 11 9.99996 11 9.99997C11 9.99998 11 9.99999 11 9.99999C11 10 11 10 12 10C13 10 13 10 13 9.99999C13 9.99999 13 9.99998 13 9.99997C13 9.99996 13 9.99993 13 9.9999C13 9.99983 13 9.99972 13 9.99958C13 9.9993 13 9.99888 13 9.99832C13 9.99719 13 9.9955 13 9.99323C13 9.9887 13 9.98186 13 9.97266C13 9.95424 13 9.92634 13 9.88839C13 9.8125 13 9.69643 13 9.53571C13 9.21429 13 8.71429 13 8H11ZM11 18L11 20H13L13 18H11ZM1 15C1 16 1.00001 16 1.00002 16C1.00003 16 1.00005 16 1.00008 16C1.00015 16 1.00019 16 1.00031 16C1.00052 16 1.00084 16 1.00125 16C1.00208 16 1.00332 16 1.00497 16C1.00827 16 1.01319 16 1.01969 16C1.03268 16 1.05197 16 1.07715 16C1.12751 16 1.20145 16 1.29576 16C1.48438 16 1.75446 16 2.08036 16C2.73214 16 3.60714 16 4.5 16V14C3.60714 14 2.73214 14 2.08036 14C1.75446 14 1.48437 14 1.29576 14C1.20145 14 1.12751 14 1.07715 14C1.05197 14 1.03268 14 1.01969 14C1.01319 14 1.00827 14 1.00497 14C1.00333 14 1.00208 14 1.00125 14C1.00083 14 1.00053 14 1.00031 14C1.00021 14 1.00013 14 1.00008 14C1.00005 14 1.00003 14 1.00002 14C1.00001 14 1 14 1 15ZM4.5 16C5.39286 16 5.76786 16 5.91964 16C5.99553 16 6.01563 16 6.01675 16C6.01677 16 6.01679 16 6.0168 16C6.01681 16 6.01683 16 6.01684 16C6.01687 16 7.01679 15.0001 6.01715 14C6.017 14 6.01684 14 6.01683 14C6.01682 14 6.01681 14 6.0168 14C6.01678 14 6.01677 14 6.01675 14C6.01667 14 6.01654 14 6.01635 14C6.01596 14 6.01536 14 6.0146 14C6.01308 14 6.01095 14 6.00879 14C6.00663 14 6.00443 14 6.00277 14C6.00195 14 6.00125 14 6.00077 14C6.00052 14 6.00033 14 6.0002 14C6.00014 14 6.00009 14 6.00005 14C6.00003 14 6.00002 14 6.00001 14C6.00001 14 6.00001 14 6 14C6 14 6 14 6 15C6 16 6 16 6 16C6 16 6.00001 16 6.00001 16C6.00002 16 6.00003 16 6.00005 16C6.00008 16 6.00013 16 6.0002 16C6.00033 16 6.00052 16 6.00076 16C6.00125 16 6.00194 16 6.00277 16C6.00443 16 6.00663 16 6.00879 16C6.01095 16 6.01308 16 6.01459 16C6.01535 16 6.01596 16 6.01634 16C6.01653 16 6.01666 16 6.01673 16C6.01697 16 6.01666 16 6.01644 16C5.01679 14.9999 6.01671 14 6.01674 14C6.01675 14 6.01676 14 6.01676 14C6.01675 14 6.01675 14 6.01673 14C6.01562 14 5.99554 14 5.91964 14C5.76786 14 5.39286 14 4.5 14V16ZM18 15C18 14 18 14 18 14C18 14 18 14 18 14C18 14 18 14 17.9999 14C17.9999 14 17.9999 14 17.9998 14C17.9997 14 17.9995 14 17.9992 14C17.9987 14 17.9981 14 17.9972 14C17.9956 14 17.9934 14 17.9912 14C17.989 14 17.9869 14 17.9854 14C17.9846 14 17.984 14 17.9837 14C17.9835 14 17.9833 14 17.9833 14C17.983 14 17.9833 14 17.9836 14C18.9832 15.0001 17.9833 16 17.9833 16C17.9833 16 17.9832 16 17.9832 16C17.9832 16 17.9833 16 17.9833 16C17.9844 16 18.0045 16 18.0804 16C18.2321 16 18.6071 16 19.5 16V14C18.6071 14 18.2321 14 18.0804 14C18.0045 14 17.9844 14 17.9832 14C17.9832 14 17.9832 14 17.9832 14C17.9832 14 17.9832 14 17.9832 14C17.9831 14 16.9832 14.9999 17.9829 16C17.983 16 17.9832 16 17.9832 16C17.9832 16 17.9832 16 17.9832 16C17.9832 16 17.9832 16 17.9833 16C17.9833 16 17.9835 16 17.9837 16C17.984 16 17.9846 16 17.9854 16C17.9869 16 17.989 16 17.9912 16C17.9934 16 17.9956 16 17.9972 16C17.9981 16 17.9987 16 17.9992 16C17.9995 16 17.9997 16 17.9998 16C17.9999 16 17.9999 16 17.9999 16C18 16 18 16 18 16C18 16 18 16 18 16C18 16 18 16 18 15ZM19.5 16C20.3929 16 21.2679 16 21.9196 16C22.2455 16 22.5156 16 22.7042 16C22.7985 16 22.8725 16 22.9229 16C22.948 16 22.9673 16 22.9803 16C22.9868 16 22.9917 16 22.995 16C22.9967 16 22.9979 16 22.9988 16C22.9992 16 22.9995 16 22.9997 16C22.9998 16 22.9999 16 22.9999 16C22.9999 16 23 16 23 16C23 16 23 16 23 15C23 14 23 14 23 14C23 14 22.9999 14 22.9999 14C22.9999 14 22.9998 14 22.9997 14C22.9995 14 22.9992 14 22.9988 14C22.9979 14 22.9967 14 22.995 14C22.9917 14 22.9868 14 22.9803 14C22.9673 14 22.948 14 22.9229 14C22.8725 14 22.7985 14 22.7042 14C22.5156 14 22.2455 14 21.9196 14C21.2679 14 20.3929 14 19.5 14V16ZM10 8C10 9 10 9 10 9C10 9 10 9 10 9C10.0001 9 10.0001 9 10.0001 9C10.0002 9 10.0003 9 10.0004 9C10.0007 9 10.0011 9 10.0017 9C10.0028 9 10.0045 9 10.0068 9C10.0113 9 10.0181 9 10.0273 9C10.0458 9 10.0737 9 10.1116 9C10.1875 9 10.3036 9 10.4643 9C10.7857 9 11.2857 9 12 9V7C11.2857 7 10.7857 7 10.4643 7C10.3036 7 10.1875 7 10.1116 7C10.0737 7 10.0458 7 10.0273 7C10.0181 7 10.0113 7 10.0068 7C10.0045 7 10.0028 7 10.0017 7C10.0011 7 10.0007 7 10.0004 7C10.0003 7 10.0002 7 10.0001 7C10.0001 7 10 7 10 7C10 7 10 7 10 7C10 7 10 7 10 8ZM12 9C12.7143 9 13.2143 9 13.5357 9C13.6964 9 13.8125 9 13.8884 9C13.9263 9 13.9542 9 13.9727 9C13.9819 9 13.9887 9 13.9932 9C13.9955 9 13.9972 9 13.9983 9C13.9989 9 13.9993 9 13.9996 9C13.9997 9 13.9998 9 13.9999 9C13.9999 9 14 9 14 9C14 9 14 9 14 9C14 9 14 9 14 8C14 7 14 7 14 7C14 7 14 7 14 7C13.9999 7 13.9999 7 13.9999 7C13.9998 7 13.9997 7 13.9996 7C13.9993 7 13.9989 7 13.9983 7C13.9972 7 13.9955 7 13.9932 7C13.9887 7 13.9819 7 13.9727 7C13.9542 7 13.9263 7 13.8884 7C13.8125 7 13.6964 7 13.5357 7C13.2143 7 12.7143 7 12 7V9Z" fill="#8E8CEE"/>
</svg>
