<svg width="20" height="20" viewBox="0 0 20 20" fill="none" xmlns="http://www.w3.org/2000/svg">
<g clip-path="url(#clip0_44154_15398)">
<path d="M11.875 8.75H15" stroke="#91919C" stroke-width="1.8" stroke-linecap="round" stroke-linejoin="round"/>
<path d="M11.875 11.25H15" stroke="#91919C" stroke-width="1.8" stroke-linecap="round" stroke-linejoin="round"/>
<path d="M16.875 3.75H3.125C2.77982 3.75 2.5 4.02982 2.5 4.375V15.625C2.5 15.9702 2.77982 16.25 3.125 16.25H16.875C17.2202 16.25 17.5 15.9702 17.5 15.625V4.375C17.5 4.02982 17.2202 3.75 16.875 3.75Z" stroke="#91919C" stroke-width="1.8" stroke-linecap="round" stroke-linejoin="round"/>
<path d="M7.5 11.25C8.53553 11.25 9.375 10.4105 9.375 9.375C9.375 8.33947 8.53553 7.5 7.5 7.5C6.46447 7.5 5.625 8.33947 5.625 9.375C5.625 10.4105 6.46447 11.25 7.5 11.25Z" stroke="#91919C" stroke-width="1.8" stroke-linecap="round" stroke-linejoin="round"/>
<path d="M5 13.125C5.27734 12.0469 6.33516 11.25 7.5 11.25C8.66484 11.25 9.72344 12.0461 10 13.125" stroke="#91919C" stroke-width="1.8" stroke-linecap="round" stroke-linejoin="round"/>
</g>
<defs>
<clipPath id="clip0_44154_15398">
<rect width="20" height="20" fill="white"/>
</clipPath>
</defs>
</svg>
