<svg width="24" height="24" viewBox="0 0 24 24" fill="none" xmlns="http://www.w3.org/2000/svg">
<path d="M11 16V17H13V16H11ZM13 7.95898C13 7.4067 12.5523 6.95898 12 6.95898C11.4477 6.95898 11 7.4067 11 7.95898H13ZM11 7.99983C11 8.55211 11.4477 8.99983 12 8.99983C12.5523 8.99983 13 8.55211 13 7.99983H11ZM23 12C23 5.92487 18.0751 1 12 1V3C16.9706 3 21 7.02944 21 12H23ZM12 1C5.92487 1 1 5.92487 1 12H3C3 7.02944 7.02944 3 12 3V1ZM1 12C1 18.0751 5.92487 23 12 23V21C7.02944 21 3 16.9706 3 12H1ZM12 23C18.0751 23 23 18.0751 23 12H21C21 16.9706 16.9706 21 12 21V23ZM13 16V10.5H11V16H13ZM11 7.95898V7.99983H13V7.95898H11Z" fill="#8E8CEE"/>
</svg>
