<svg width="24" height="24" viewBox="0 0 24 24" fill="none" xmlns="http://www.w3.org/2000/svg">
<path d="M15.4319 7.5L18.9319 4M20.9319 2L18.9319 4L20.9319 2ZM11.3219 11.61C11.8383 12.1195 12.2487 12.726 12.5297 13.3948C12.8106 14.0635 12.9565 14.7813 12.9589 15.5066C12.9614 16.232 12.8203 16.9507 12.5438 17.6213C12.2674 18.2919 11.861 18.9012 11.3481 19.4141C10.8351 19.9271 10.2258 20.3334 9.55522 20.6099C8.8846 20.8864 8.16591 21.0275 7.44055 21.025C6.71518 21.0226 5.99746 20.8767 5.32871 20.5958C4.65995 20.3148 4.05338 19.9043 3.54392 19.388C2.54205 18.3507 1.98768 16.9614 2.00021 15.5193C2.01274 14.0772 2.59117 12.6977 3.61091 11.678C4.63066 10.6583 6.01013 10.0798 7.45221 10.0673C8.89429 10.0548 10.2836 10.6091 11.3209 11.611L11.3219 11.61ZM11.3219 11.61L15.4319 7.5L11.3219 11.61ZM15.4319 7.5L18.4319 10.5L21.9319 7L18.9319 4L15.4319 7.5Z" stroke="#8E8CEE" stroke-width="2" stroke-linecap="round" stroke-linejoin="round"/>
</svg>
