<svg width="24" height="24" viewBox="0 0 24 24" fill="none" xmlns="http://www.w3.org/2000/svg">
<path d="M10 12.9336C10.4295 13.5077 10.9774 13.9827 11.6066 14.3265C12.2357 14.6703 12.9315 14.8747 13.6467 14.9259C14.3618 14.9771 15.0796 14.8739 15.7513 14.6233C16.4231 14.3728 17.0331 13.9806 17.54 13.4736L20.54 10.4736C21.4508 9.53055 21.9548 8.26754 21.9434 6.95655C21.932 5.64557 21.4061 4.39151 20.4791 3.46447C19.5521 2.53743 18.298 2.01158 16.987 2.00019C15.676 1.9888 14.413 2.49277 13.47 3.40356L11.75 5.11356" stroke="#8E8CEE" stroke-width="2" stroke-linecap="round" stroke-linejoin="round"/>
<path d="M13.9436 11.0051C13.5141 10.431 12.9662 9.95593 12.337 9.61217C11.7078 9.26841 11.0121 9.06399 10.2969 9.01277C9.58177 8.96156 8.86397 9.06474 8.19221 9.31533C7.52045 9.56591 6.91044 9.95804 6.40356 10.4651L3.40356 13.4651C2.49277 14.4081 1.9888 15.6711 2.00019 16.9821C2.01158 18.2931 2.53743 19.5472 3.46447 20.4742C4.39151 21.4012 5.64557 21.9271 6.95655 21.9385C8.26754 21.9499 9.53055 21.4459 10.4736 20.5351L12.1836 18.8251" stroke="#8E8CEE" stroke-width="2" stroke-linecap="round" stroke-linejoin="round"/>
</svg>
