<svg width="24" height="24" viewBox="0 0 24 24" fill="none" xmlns="http://www.w3.org/2000/svg">
<path d="M14.4545 2C13.9023 2 13.4545 2.44772 13.4545 3C13.4545 3.55228 13.9023 4 14.4545 4V2ZM20 9.54545C20 10.0977 20.4477 10.5455 21 10.5455C21.5523 10.5455 22 10.0977 22 9.54545H20ZM14.4545 4H20.1818V2H14.4545V4ZM20 3.81818V9.54545H22V3.81818H20ZM20.1818 4C20.0814 4 20 3.9186 20 3.81818H22C22 2.81403 21.186 2 20.1818 2V4ZM15.9091 13.9546C15.9091 17.2432 13.2431 19.9091 9.95455 19.9091V21.9091C14.3477 21.9091 17.9091 18.3477 17.9091 13.9546H15.9091ZM9.95455 19.9091C6.66594 19.9091 4 17.2432 4 13.9546H2C2 18.3477 5.56137 21.9091 9.95455 21.9091V19.9091ZM4 13.9546C4 10.666 6.66594 8.00001 9.95455 8.00001V6.00001C5.56137 6.00001 2 9.56139 2 13.9546H4ZM9.95455 8.00001C13.2431 8.00001 15.9091 10.666 15.9091 13.9546H17.9091C17.9091 9.56139 14.3477 6.00001 9.95455 6.00001V8.00001ZM20.4293 2.29291L14.2929 8.42927L15.7071 9.84348L21.8435 3.70712L20.4293 2.29291Z" fill="#8E8CEE"/>
</svg>
