<svg width="24" height="24" viewBox="0 0 24 24" fill="none" xmlns="http://www.w3.org/2000/svg">
<path d="M19.7541 10.2769C19.7541 16.3078 12.0001 21.4771 12.0001 21.4771C12.0001 21.4771 4.24609 16.3078 4.24609 10.2769C4.24609 8.2204 5.06303 6.24814 6.51719 4.79398C7.97135 3.33983 9.94361 2.52289 12.0001 2.52289C14.0566 2.52289 16.0288 3.33983 17.483 4.79398C18.9372 6.24814 19.7541 8.2204 19.7541 10.2769Z" stroke="#8E8CEE" stroke-width="2" stroke-linecap="round" stroke-linejoin="round"/>
<path d="M12.0002 12.8616C13.4277 12.8616 14.5849 11.7044 14.5849 10.2769C14.5849 8.84942 13.4277 7.69223 12.0002 7.69223C10.5727 7.69223 9.41553 8.84942 9.41553 10.2769C9.41553 11.7044 10.5727 12.8616 12.0002 12.8616Z" stroke="#8E8CEE" stroke-width="2" stroke-linecap="round" stroke-linejoin="round"/>
</svg>
