<svg width="24" height="24" viewBox="0 0 24 24" fill="none" xmlns="http://www.w3.org/2000/svg">
<path d="M18.75 14.125V13.125C18.1977 13.125 17.75 13.5727 17.75 14.125H18.75ZM21 14.125V15.125C21.3255 15.125 21.6306 14.9666 21.8179 14.7004C22.0052 14.4342 22.0512 14.0935 21.9412 13.7871L21 14.125ZM18.8049 8.23592L17.8293 8.45548C17.8403 8.50468 17.8551 8.55297 17.8735 8.59994L18.8049 8.23592ZM17.6713 5.58325L16.8036 6.08033C16.8144 6.09927 16.8259 6.11786 16.838 6.13606L17.6713 5.58325ZM17.5708 5.4354L16.7501 6.00665C16.7796 6.0491 16.8124 6.08919 16.8481 6.12657L17.5708 5.4354ZM6.375 16.5284H7.375C7.375 16.2044 7.21801 15.9004 6.95378 15.7129L6.375 16.5284ZM6.375 21.75H5.375C5.375 22.3023 5.82272 22.75 6.375 22.75V21.75ZM15.375 21.75V22.75C15.9273 22.75 16.375 22.3023 16.375 21.75H15.375ZM15.375 18.75V17.75C14.8227 17.75 14.375 18.1977 14.375 18.75H15.375ZM18.75 15.125H21V13.125H18.75V15.125ZM21 14.125C21.9412 13.7871 21.9412 13.7871 21.9412 13.7871C21.9412 13.7871 21.9411 13.787 21.9411 13.787C21.9411 13.7868 21.941 13.7867 21.9409 13.7865C21.9408 13.786 21.9406 13.7854 21.9403 13.7846C21.9397 13.7829 21.9388 13.7804 21.9376 13.7772C21.9353 13.7706 21.9318 13.761 21.9272 13.7483C21.9181 13.723 21.9047 13.6856 21.8872 13.6371C21.8522 13.5402 21.8013 13.3991 21.737 13.2219C21.6085 12.8675 21.4269 12.3685 21.214 11.7898C20.7888 10.6335 20.2373 9.15385 19.7362 7.87189L17.8735 8.59994C18.3672 9.86323 18.9133 11.3282 19.3369 12.4801C19.5485 13.0554 19.7291 13.5515 19.8568 13.9036C19.9206 14.0797 19.9712 14.2197 20.0058 14.3156C20.0231 14.3635 20.0364 14.4005 20.0453 14.4254C20.0498 14.4378 20.0532 14.4472 20.0554 14.4535C20.0566 14.4567 20.0574 14.459 20.058 14.4606C20.0583 14.4614 20.0585 14.462 20.0586 14.4623C20.0587 14.4625 20.0587 14.4627 20.0588 14.4628C20.0588 14.4628 20.0588 14.4628 20.0588 14.4629C20.0588 14.4629 20.0588 14.4629 21 14.125ZM19.7805 8.01635C19.5368 6.93391 19.0984 5.92561 18.5046 5.03045L16.838 6.13606C17.3 6.83246 17.6402 7.61556 17.8293 8.45548L19.7805 8.01635ZM18.539 5.08618C18.495 5.00933 18.4108 4.86682 18.2935 4.74424L16.8481 6.12657C16.8255 6.10291 16.8102 6.08391 16.8024 6.07391C16.7942 6.06329 16.7895 6.05641 16.7884 6.05488C16.7869 6.05255 16.7918 6.05968 16.8036 6.08033L18.539 5.08618ZM18.3916 4.86416C16.7675 2.53065 14.0626 1 11 1V3C13.3805 3 15.4839 4.18735 16.7501 6.00665L18.3916 4.86416ZM11 1C6.02943 1 2 5.02944 2 10H4C4 6.13401 7.134 3 11 3V1ZM2 10C2 13.0328 3.50102 15.7149 5.79622 17.3439L6.95378 15.7129C5.16434 14.4429 4 12.3574 4 10H2ZM5.375 16.5284V21.75H7.375V16.5284H5.375ZM6.375 22.75H15.375V20.75H6.375V22.75ZM16.375 21.75V18.75H14.375V21.75H16.375ZM15.375 19.75H15.75V17.75H15.375V19.75ZM15.75 19.75C17.9591 19.75 19.75 17.9591 19.75 15.75H17.75C17.75 16.8546 16.8546 17.75 15.75 17.75V19.75ZM19.75 15.75V14.125H17.75V15.75H19.75Z" fill="#8E8CEE"/>
<path d="M8 10L10 12L14 8" stroke="#8E8CEE" stroke-width="2" stroke-linecap="round" stroke-linejoin="round"/>
</svg>
