<svg width="24" height="24" viewBox="0 0 24 24" fill="none" xmlns="http://www.w3.org/2000/svg">
<path d="M21.542 15.0006L22.496 15.3003L21.542 15.0006ZM20.3957 13.5029C19.6632 13.8223 18.8536 14 18 14V16C19.1339 16 20.2152 15.7635 21.1951 15.3362L20.3957 13.5029ZM18 14C14.6863 14 12 11.3137 12 8H10C10 12.4183 13.5817 16 18 16V14ZM12 8C12 6.29977 12.7059 4.76612 13.8433 3.67314L12.4575 2.23105C10.944 3.6855 10 5.73337 10 8H12ZM12 3C12.2737 3 12.5442 3.01219 12.8112 3.036L12.9889 1.04391C12.6629 1.01483 12.3331 1 12 1V3ZM3 12C3 7.02944 7.02944 3 12 3V1C5.92487 1 1 5.92487 1 12H3ZM12 21C7.02944 21 3 16.9706 3 12H1C1 18.0751 5.92487 23 12 23V21ZM20.588 14.7009C19.4407 18.3529 16.0282 21 12 21V23C16.9267 23 21.0944 19.7619 22.496 15.3003L20.588 14.7009ZM13.8433 3.67314C14.2811 3.25241 14.4079 2.65576 14.2777 2.14783C14.1419 1.61809 13.6943 1.10684 12.9889 1.04391L12.8112 3.036C12.702 3.02626 12.5851 2.97782 12.4913 2.8913C12.4035 2.81042 12.3594 2.71869 12.3404 2.64456C12.305 2.50656 12.3375 2.3464 12.4575 2.23105L13.8433 3.67314ZM21.1951 15.3362C21.0427 15.4027 20.8826 15.3712 20.7689 15.2858C20.7078 15.2399 20.6401 15.164 20.599 15.052C20.555 14.9321 20.5551 14.8056 20.588 14.7009L22.496 15.3003C22.7083 14.6247 22.4075 14.0154 21.9705 13.687C21.5515 13.3721 20.952 13.2603 20.3957 13.5029L21.1951 15.3362Z" fill="#8E8CEE"/>
</svg>
