<svg width="24" height="24" viewBox="0 0 24 24" fill="none" xmlns="http://www.w3.org/2000/svg">
<path d="M20.0002 14C21.0002 12.5 22.0002 10.5 21.9985 8.00333C21.9985 6.41115 21.9985 2 21.9985 2C21.9985 2 17.0002 2 15.0002 2.00002C12.1169 2.00004 9.50024 4 8.00024 5.5C8.00024 5.5 6.34373 7.03093 5.0002 10.5083C3.73742 13.7767 5.0002 19.0083 5.0002 19.0083C5.0002 19.0083 10.5002 20 13.5002 19.0083C17.0398 17.8383 19.0002 15.5 20.0002 14Z" stroke="#8E8CEE" stroke-width="2" stroke-linecap="round" stroke-linejoin="round"/>
<path d="M17.5 6.5L2 22" stroke="#8E8CEE" stroke-width="2" stroke-linecap="round" stroke-linejoin="round"/>
<path d="M15 14H10" stroke="#8E8CEE" stroke-width="2" stroke-linecap="round" stroke-linejoin="round"/>
<path d="M13 11L13 7" stroke="#8E8CEE" stroke-width="2" stroke-linecap="round" stroke-linejoin="round"/>
</svg>
