<svg width="24" height="24" viewBox="0 0 24 24" fill="none" xmlns="http://www.w3.org/2000/svg">
<path d="M21.7099 20.29L3.70994 2.29C3.52164 2.1017 3.26624 1.99591 2.99994 1.99591C2.73364 1.99591 2.47824 2.1017 2.28994 2.29C2.10164 2.47831 1.99585 2.7337 1.99585 3C1.99585 3.2663 2.10164 3.5217 2.28994 3.71L3.99994 5.41V19C3.99994 19.7957 4.31601 20.5587 4.87862 21.1213C5.44123 21.6839 6.20429 22 6.99994 22H16.9999C17.464 21.9985 17.9213 21.8893 18.3361 21.6811C18.7508 21.4728 19.1115 21.1712 19.3899 20.8L20.2899 21.71C20.3829 21.8037 20.4935 21.8781 20.6154 21.9289C20.7372 21.9797 20.8679 22.0058 20.9999 22.0058C21.132 22.0058 21.2627 21.9797 21.3845 21.9289C21.5064 21.8781 21.617 21.8037 21.7099 21.71C21.8037 21.617 21.8781 21.5064 21.9288 21.3846C21.9796 21.2627 22.0057 21.132 22.0057 21C22.0057 20.868 21.9796 20.7373 21.9288 20.6154C21.8781 20.4936 21.8037 20.383 21.7099 20.29ZM16.9999 20H6.99994C6.73472 20 6.48037 19.8946 6.29283 19.7071C6.1053 19.5196 5.99994 19.2652 5.99994 19V7.41L17.9299 19.34C17.8607 19.5317 17.7345 19.6976 17.5682 19.8156C17.402 19.9335 17.2037 19.9979 16.9999 20ZM8.65994 4H11.9999V7C11.9999 7.79565 12.316 8.55871 12.8786 9.12132C13.4412 9.68393 14.2043 10 14.9999 10H17.9999V13.34C17.9999 13.6052 18.1053 13.8596 18.2928 14.0471C18.4804 14.2346 18.7347 14.34 18.9999 14.34C19.2652 14.34 19.5195 14.2346 19.707 14.0471C19.8946 13.8596 19.9999 13.6052 19.9999 13.34V9C19.9999 9 19.9999 9 19.9999 8.94C19.9895 8.84814 19.9694 8.75763 19.9399 8.67V8.58C19.8919 8.47718 19.8277 8.38267 19.7499 8.3L13.7499 2.3C13.6673 2.22222 13.5728 2.15808 13.4699 2.11H13.3799L13.0599 2H8.65994C8.39472 2 8.14037 2.10536 7.95283 2.2929C7.7653 2.48043 7.65994 2.73479 7.65994 3C7.65994 3.26522 7.7653 3.51957 7.95283 3.70711C8.14037 3.89465 8.39472 4 8.65994 4ZM13.9999 5.41L16.5899 8H14.9999C14.7347 8 14.4804 7.89465 14.2928 7.70711C14.1053 7.51957 13.9999 7.26522 13.9999 7V5.41Z" fill="#8E8CEE"/>
</svg>
