<svg width="24" height="25" viewBox="0 0 24 25" fill="none" xmlns="http://www.w3.org/2000/svg">
<path d="M8.19995 13.7C9.21765 11.005 10.9441 8.63474 13.197 6.83944C15.4499 5.04414 18.1458 3.8904 21 3.5C20.6096 6.35418 19.4559 9.05002 17.6606 11.3029C15.8653 13.5559 13.4951 15.2823 10.8 16.3M10.6001 9.5C12.5433 10.3969 14.1032 11.9568 15.0001 13.9M3 21.5V17.5C3 16.7089 3.2346 15.9355 3.67412 15.2777C4.11365 14.6199 4.73836 14.1072 5.46927 13.8045C6.20017 13.5017 7.00444 13.4225 7.78036 13.5769C8.55629 13.7312 9.26902 14.1122 9.82843 14.6716C10.3878 15.231 10.7688 15.9437 10.9231 16.7196C11.0775 17.4956 10.9983 18.2998 10.6955 19.0307C10.3928 19.7616 9.88008 20.3864 9.22228 20.8259C8.56448 21.2654 7.79113 21.5 7 21.5H3Z" stroke="#26262E" stroke-width="2" stroke-linecap="round" stroke-linejoin="round"/>
</svg>
