<svg width="24" height="24" viewBox="0 0 24 24" fill="none" xmlns="http://www.w3.org/2000/svg">
<path d="M21 11.4384L12.49 19.4644C11.4475 20.4476 10.0335 21 8.55912 21C7.08475 21 5.67077 20.4476 4.62823 19.4644C3.58569 18.4811 3 17.1476 3 15.7571C3 14.3665 3.58569 13.033 4.62823 12.0497L13.1382 4.02375C13.8332 3.36825 14.7759 3 15.7588 3C16.7417 3 17.6844 3.36825 18.3794 4.02375C19.0744 4.67924 19.4649 5.56829 19.4649 6.4953C19.4649 7.42231 19.0744 8.31135 18.3794 8.96685L9.86016 16.9928C9.51265 17.3206 9.04132 17.5047 8.54986 17.5047C8.0584 17.5047 7.58708 17.3206 7.23956 16.9928C6.89205 16.6651 6.69682 16.2206 6.69682 15.7571C6.69682 15.2935 6.89205 14.849 7.23956 14.5213L15.1013 7.11537" stroke="#8E8CEE" stroke-width="2" stroke-linecap="round" stroke-linejoin="round"/>
</svg>
