<svg width="24" height="25" viewBox="0 0 24 25" fill="none" xmlns="http://www.w3.org/2000/svg">
<path d="M15.1501 14.2505C13.8668 11.9171 13.4689 11.3338 12.0001 11.3338C10.5312 11.3338 9.97469 12.2147 8.69133 14.5387C7.59231 16.5256 5.37094 16.6912 4.81676 18.3783C4.70359 18.6874 4.64759 19.1681 4.64993 19.5006C4.64993 20.8726 5.56811 21.834 6.74996 21.834C8.21882 21.834 10.25 20.6673 12.0001 20.6673C13.7501 20.6673 15.7813 21.834 17.2502 21.834C18.432 21.834 19.3502 20.8738 19.3502 19.5006C19.3502 19.1681 19.293 18.6874 19.1799 18.3783C18.6257 16.6854 16.2491 16.2374 15.1501 14.2505Z" stroke="#26262E" stroke-width="2"/>
<path d="M21.5529 7.92941C21.4031 7.86605 21.242 7.83352 21.0793 7.83374H21.0618C20.2043 7.84774 19.2417 8.70876 18.7366 10.0108C18.131 11.5683 18.4099 13.1608 19.3642 13.5715C19.5147 13.6357 19.6757 13.6672 19.8379 13.6672C20.7001 13.6672 21.6754 12.8015 22.1841 11.4901C22.7861 9.93261 22.5015 8.34009 21.5529 7.92941Z" stroke="#26262E" stroke-width="2"/>
<path d="M9.05293 9.00043C9.1171 9.00043 9.1801 9.00043 9.2431 8.9876C10.3445 8.83826 11.0316 7.41724 10.7831 5.81187C10.5463 4.29868 9.56161 3.16699 8.52909 3.16699C8.46492 3.16699 8.40192 3.16699 8.33892 3.17983C7.23757 3.32916 6.55039 4.75019 6.79889 6.35555C7.0369 7.86408 8.02158 9.00043 9.0541 9.00043H9.05293Z" stroke="#26262E" stroke-width="2"/>
<path d="M17.1988 6.35555C17.4485 4.75019 16.7613 3.32916 15.6588 3.17983C15.5962 3.17116 15.533 3.16687 15.4698 3.16699C14.4373 3.16699 13.4538 4.29868 13.2181 5.81188C12.9684 7.41724 13.6556 8.83826 14.7581 8.9876C14.8211 8.99577 14.8841 9.00043 14.9471 9.00043C15.9796 9.00043 16.9655 7.86408 17.1988 6.35555Z" stroke="#26262E" stroke-width="2"/>
<path d="M4.63818 13.5715C5.5902 13.1608 5.86787 11.566 5.26353 10.0108C4.75485 8.69943 3.78067 7.83374 2.91965 7.83374C2.75632 7.83374 2.59648 7.86524 2.44481 7.92941C1.49279 8.34008 1.21512 9.93495 1.81947 11.4901C2.32814 12.8015 3.30233 13.6672 4.16334 13.6672C4.32668 13.6672 4.48651 13.6357 4.63818 13.5715Z" stroke="#26262E" stroke-width="2"/>
</svg>
