<svg width="24" height="24" viewBox="0 0 24 24" fill="none" xmlns="http://www.w3.org/2000/svg">
<path d="M14.9381 5C15.9149 5.19057 16.8125 5.66826 17.5162 6.37194C18.2199 7.07561 18.6976 7.97326 18.8881 8.95M14.9381 1C16.9674 1.22544 18.8597 2.13417 20.3044 3.57701C21.749 5.01984 22.6601 6.91101 22.8881 8.94M21.8881 16.92V19.92C21.8892 20.1985 21.8322 20.4742 21.7206 20.7293C21.6091 20.9845 21.4454 21.2136 21.2402 21.4019C21.035 21.5901 20.7927 21.7335 20.5289 21.8227C20.265 21.9119 19.9855 21.9451 19.7081 21.92C16.631 21.5856 13.6751 20.5341 11.0781 18.85C8.66194 17.3147 6.61345 15.2662 5.07812 12.85C3.38809 10.2412 2.33636 7.27099 2.00812 4.18C1.98313 3.90347 2.01599 3.62476 2.10462 3.36162C2.19324 3.09849 2.33569 2.85669 2.52288 2.65162C2.71008 2.44655 2.93792 2.28271 3.19191 2.17052C3.44589 2.05833 3.72046 2.00026 3.99812 2H6.99812C7.48342 1.99522 7.95391 2.16708 8.32188 2.48353C8.68985 2.79999 8.93019 3.23945 8.99812 3.72C9.12474 4.68007 9.35957 5.62273 9.69812 6.53C9.83266 6.88792 9.86178 7.27691 9.78202 7.65088C9.70227 8.02485 9.51698 8.36811 9.24812 8.64L7.97812 9.91C9.40167 12.4135 11.4746 14.4864 13.9781 15.91L15.2481 14.64C15.52 14.3711 15.8633 14.1858 16.2372 14.1061C16.6112 14.0263 17.0002 14.0555 17.3581 14.19C18.2654 14.5286 19.2081 14.7634 20.1681 14.89C20.6539 14.9585 21.0975 15.2032 21.4146 15.5775C21.7318 15.9518 21.9003 16.4296 21.8881 16.92Z" stroke="#8E8CEE" stroke-width="2" stroke-linecap="round" stroke-linejoin="round"/>
</svg>
