<svg width="24" height="24" viewBox="0 0 24 24" fill="none" xmlns="http://www.w3.org/2000/svg">
<path d="M6.75 22H17.25C18.2165 22 19 21.1046 19 20L19 4C19 2.89543 18.2165 2 17.25 2H6.75C5.7835 2 5 2.89543 5 4L5 20C5 21.1046 5.7835 22 6.75 22Z" stroke="#8E8CEE" stroke-width="2" stroke-linecap="round" stroke-linejoin="round"/>
<path d="M12 18.041V18.0002" stroke="#8E8CEE" stroke-width="2" stroke-miterlimit="2.41327" stroke-linecap="round" stroke-linejoin="round" stroke-dasharray="0 1000000"/>
<path d="M13.9995 6.09889C12.991 6.09889 12.4382 6.67152 11.9997 7.09922C11.5613 6.67152 11.0085 6.09889 9.99998 6.09889C8.9915 6.0989 8.0003 6.89915 8 8.29961C8 10.1002 10.3992 11.7007 11.9997 12.9011C13.6003 11.7007 15.9992 10.1002 15.9992 8.29961C15.9992 6.89915 15.008 6.0989 13.9995 6.09889Z" stroke="#8E8CEE" stroke-width="2"/>
</svg>
