<svg width="24" height="25" viewBox="0 0 24 25" fill="none" xmlns="http://www.w3.org/2000/svg">
<path d="M15 11.4996V11.5096M5.17307 8.87765C4.73447 8.54056 4.39762 8.08875 4.19973 7.57218C4.00185 7.05561 3.95065 6.49438 4.05179 5.95053C4.15293 5.40668 4.40247 4.90138 4.77283 4.49048C5.14319 4.07958 5.61994 3.77908 6.15041 3.6222C6.68087 3.46532 7.24438 3.45816 7.77866 3.60151C8.31294 3.74486 8.79718 4.03315 9.17786 4.43451C9.55854 4.83586 9.82084 5.33466 9.93577 5.87576C10.0507 6.41687 10.0138 6.97922 9.82907 7.50065M16 4.49963V8.30263C17.2376 9.01876 18.1799 10.1521 18.658 11.4996H19.999C20.2642 11.4996 20.5186 11.605 20.7061 11.7925C20.8937 11.9801 20.999 12.2344 20.999 12.4996V14.4996C20.999 14.7649 20.8937 15.0192 20.7061 15.2067C20.5186 15.3943 20.2642 15.4996 19.999 15.4996H18.657C18.321 16.4496 17.75 17.2996 16.999 17.9726V19.9996C16.999 20.3975 16.841 20.779 16.5597 21.0603C16.2784 21.3416 15.8968 21.4996 15.499 21.4996C15.1012 21.4996 14.7197 21.3416 14.4384 21.0603C14.157 20.779 13.999 20.3975 13.999 19.9996V19.4166C13.6686 19.472 13.3341 19.4998 12.999 19.4996H8.99901C8.66396 19.4998 8.32947 19.472 7.99901 19.4166V19.9996C7.99901 20.3975 7.84098 20.779 7.55967 21.0603C7.27837 21.3416 6.89684 21.4996 6.49901 21.4996C6.10119 21.4996 5.71966 21.3416 5.43835 21.0603C5.15705 20.779 4.99901 20.3975 4.99901 19.9996V17.9726C4.09298 17.1626 3.45429 16.0965 3.1675 14.9155C2.8807 13.7345 2.95933 12.4942 3.39296 11.3589C3.82659 10.2235 4.59478 9.2466 5.59585 8.55746C6.59692 7.86832 7.78367 7.49944 8.99901 7.49963H11.499L15.999 4.49963H16Z" stroke="#26262E" stroke-width="2" stroke-linecap="round" stroke-linejoin="round"/>
</svg>
