<svg width="24" height="25" viewBox="0 0 24 25" fill="none" xmlns="http://www.w3.org/2000/svg">
<path d="M3.40287 20.5498H20.9991M14.7807 10.0487L19.5024 8.78375C19.7521 8.71163 20.0137 8.69003 20.2719 8.72022C20.5301 8.7504 20.7797 8.83177 21.006 8.95956C21.2324 9.08734 21.431 9.25899 21.5902 9.46445C21.7495 9.66991 21.8661 9.90505 21.9334 10.1561C22.0007 10.4072 22.0172 10.6692 21.982 10.9267C21.9468 11.1843 21.8606 11.4322 21.7285 11.6561C21.5963 11.8799 21.4209 12.0752 21.2124 12.2304C21.0039 12.3856 20.7665 12.4977 20.5142 12.5601L6.35018 16.356L2 11.4486L4.83202 10.69L7.22706 12.0723L10.0591 11.3137L6.40003 5.20977L9.23303 4.4502L14.7807 10.0487Z" stroke="#26262E" stroke-width="2" stroke-linecap="round" stroke-linejoin="round"/>
</svg>
