<svg width="24" height="24" viewBox="0 0 24 24" fill="none" xmlns="http://www.w3.org/2000/svg">
<path d="M20.7641 4.18071L20.7626 4.17659M6.52923 17.4557L3 15.7601L5.08097 13.6814H6.12146H7.16194L9.37048 11.4767L3.58448 5.69708L5.79265 3.49137L13.884 7.16768C13.884 7.16768 15.363 5.69883 16.0948 4.96232C16.8266 4.22581 19.0379 2.02587 20.5064 3.49435C21.9683 4.95626 19.7892 7.14571 19.0471 7.89139L19.0372 7.90136C18.3048 8.63732 16.8288 10.1073 16.8288 10.1073L20.5082 18.1906L18.3001 20.3963L12.4151 14.516L10.2063 16.7224L10.3268 18.9213L8.24578 21L6.52923 17.4557Z" stroke="#8E8CEE" stroke-width="2" stroke-linejoin="round"/>
</svg>
