<svg width="24" height="24" viewBox="0 0 24 24" fill="none" xmlns="http://www.w3.org/2000/svg">
<path d="M20.7644 4.18071L20.7628 4.17659M6.52947 17.4557L3.00024 15.7601L5.08121 13.6814H6.1217H7.16219L9.37072 11.4767L3.58472 5.69708L5.7929 3.49137L13.8843 7.16768C13.8843 7.16768 15.3633 5.69883 16.0951 4.96232C16.8269 4.22581 19.0381 2.02587 20.5066 3.49435C21.9685 4.95626 19.7895 7.14571 19.0473 7.89139L19.0374 7.90136C18.305 8.63732 16.829 10.1073 16.829 10.1073L20.5084 18.1906L18.3003 20.3963L12.4153 14.516L10.2065 16.7224L10.327 18.9213L8.24603 21L6.52947 17.4557Z" stroke="#8E8CEE" stroke-width="2" stroke-linejoin="round"/>
</svg>
