<svg width="24" height="24" viewBox="0 0 24 24" fill="none" xmlns="http://www.w3.org/2000/svg">
<path d="M21.966 17.4179L22.8943 17.0459L22.8885 17.0315L22.8823 17.0173L21.966 17.4179ZM17.3277 6.80891L16.3993 7.18053L16.4051 7.19512L16.4114 7.20951L17.3277 6.80891ZM17.0169 6.52377L17.3186 5.57038L17.3159 5.56952L17.0169 6.52377ZM16.5923 6.57607L16.0662 5.72563L16.0658 5.7259L16.5923 6.57607ZM7.4075 6.57627L7.93391 5.72603L7.93358 5.72583L7.4075 6.57627ZM6.9827 6.52396L6.68368 5.56971L6.68056 5.5707L6.9827 6.52396ZM6.6719 6.80911L7.58817 7.20968L7.59446 7.1953L7.60029 7.18072L6.6719 6.80911ZM2.03392 17.4179L1.11766 17.0173L1.11146 17.0315L1.1057 17.0459L2.03392 17.4179ZM2.20292 17.9826L1.62104 18.7958L1.62111 18.7959L2.20292 17.9826ZM21.797 17.9828L21.2156 17.1692L21.2152 17.1694L21.797 17.9828ZM8.5827 1.68731C8.13386 1.3655 7.50913 1.46847 7.18731 1.9173C6.8655 2.36614 6.96847 2.99087 7.4173 3.31269L8.5827 1.68731ZM16.5827 3.31266C17.0316 2.99082 17.1345 2.36607 16.8127 1.91726C16.4908 1.46844 15.8661 1.3655 15.4173 1.68734L16.5827 3.31266ZM12 12.4213L11.2988 13.1342L12 13.8239L12.7012 13.1342L12 12.4213ZM13.7492 11.5L13.7492 10.5L13.7492 11.5ZM15.4984 13.5079L14.4991 13.4694L14.4984 13.4886V13.5079H15.4984ZM12 17.5L11.4307 18.3221L12 18.7164L12.5693 18.3221L12 17.5ZM10.2508 11.5L10.2508 10.5L10.2508 11.5ZM8.50163 13.5079H9.50163V13.4886L9.50089 13.4694L8.50163 13.5079ZM22.8823 17.0173L18.2439 6.40832L16.4114 7.20951L21.0498 17.8185L22.8823 17.0173ZM18.256 6.4373C18.0874 6.01593 17.7383 5.70322 17.3186 5.57039L16.7151 7.47715C16.5806 7.43458 16.4595 7.33109 16.3993 7.18053L18.256 6.4373ZM17.3159 5.56952C16.9001 5.43923 16.4429 5.49259 16.0662 5.72563L17.1183 7.42651C16.994 7.50342 16.848 7.51881 16.7178 7.47801L17.3159 5.56952ZM16.0658 5.7259C14.3963 6.75982 13.1619 7 12 7V9C13.5369 9 15.1355 8.6545 17.1188 7.42624L16.0658 5.7259ZM12 7C10.8379 7 9.60365 6.75982 7.93391 5.72603L6.8811 7.4265C8.86454 8.65451 10.4629 9 12 9V7ZM7.93358 5.72583C7.55675 5.49272 7.09935 5.43946 6.68368 5.56972L7.28173 7.47821C7.15166 7.51897 7.00586 7.50368 6.88143 7.4267L7.93358 5.72583ZM6.68056 5.5707C6.26186 5.70341 5.91237 6.01565 5.74352 6.43749L7.60029 7.18072C7.53984 7.33175 7.41874 7.43479 7.28485 7.47722L6.68056 5.5707ZM5.75564 6.40853L1.11766 17.0173L2.95019 17.8185L7.58817 7.20968L5.75564 6.40853ZM1.1057 17.0459C0.848598 17.6873 1.07389 18.4044 1.62104 18.7958L2.7848 17.1693C2.96915 17.3012 3.05605 17.5556 2.96214 17.7899L1.1057 17.0459ZM1.62111 18.7959C5.01257 21.222 8.50788 22.5 11.9999 22.5V20.5C9.01591 20.5 5.91885 19.4112 2.78474 17.1692L1.62111 18.7959ZM11.9999 22.5C15.4918 22.5 18.9874 21.2222 22.3789 18.7961L21.2152 17.1694C18.0812 19.4114 14.9839 20.5 11.9999 20.5V22.5ZM22.3785 18.7963C22.927 18.4043 23.1511 17.6865 22.8943 17.0459L21.0378 17.7899C20.9442 17.5564 21.0303 17.3016 21.2156 17.1692L22.3785 18.7963ZM7.4173 3.31269C8.98514 4.43683 10.4444 5.10816 12.0001 5.10816V3.10816C11.0512 3.10816 10.0056 2.70751 8.5827 1.68731L7.4173 3.31269ZM12.0001 5.10816C13.5559 5.10816 15.0151 4.43682 16.5827 3.31266L15.4173 1.68734C13.9946 2.70753 12.9492 3.10816 12.0001 3.10816V5.10816ZM12.7012 13.1342C13.1402 12.7025 13.3398 12.5 13.7492 12.5L13.7492 10.5C12.3943 10.5 11.6269 11.3855 11.2988 11.7083L12.7012 13.1342ZM13.7492 12.5C14.0406 12.5 14.5236 12.8316 14.4991 13.4694L16.4976 13.5463C16.564 11.8219 15.2221 10.5 13.7492 10.5L13.7492 12.5ZM14.4984 13.5079C14.4984 13.9063 14.2046 14.4411 13.5164 15.0916C12.8618 15.7104 12.0641 16.2393 11.4307 16.6779L12.5693 18.3221C13.1469 17.9221 14.0984 17.2936 14.8902 16.5452C15.6484 15.8285 16.4984 14.7866 16.4984 13.5079H14.4984ZM12.7012 11.7083C12.3731 11.3855 11.6057 10.5 10.2508 10.5L10.2508 12.5C10.6602 12.5 10.8598 12.7025 11.2988 13.1342L12.7012 11.7083ZM10.2508 10.5C8.77787 10.5 7.43604 11.8219 7.50237 13.5463L9.50089 13.4694C9.47636 12.8316 9.95942 12.5 10.2508 12.5L10.2508 10.5ZM7.50163 13.5079C7.50163 14.7866 8.3516 15.8285 9.1098 16.5452C9.90164 17.2936 10.8531 17.9221 11.4307 18.3221L12.5693 16.6779C11.9359 16.2393 11.1382 15.7104 10.4836 15.0916C9.79536 14.4411 9.50163 13.9063 9.50163 13.5079H7.50163Z" fill="#8E8CEE"/>
</svg>
