<svg width="24" height="24" viewBox="0 0 24 24" fill="none" xmlns="http://www.w3.org/2000/svg">
<path d="M24.0002 12C24.0002 18.6274 18.6277 24 12.0002 24C5.37283 24 0.000244141 18.6274 0.000244141 12C0.000244141 5.37258 5.37283 0 12.0002 0C18.6277 0 24.0002 5.37258 24.0002 12ZM3.60024 12C3.60024 16.6392 7.36105 20.4 12.0002 20.4C16.6394 20.4 20.4002 16.6392 20.4002 12C20.4002 7.36081 16.6394 3.6 12.0002 3.6C7.36105 3.6 3.60024 7.36081 3.60024 12Z" fill="#F5F6FB"/>
<path d="M12 0C14.3413 2.79195e-08 16.6314 0.684897 18.5883 1.97031C20.5451 3.25573 22.0832 5.08551 23.0131 7.23423C23.9429 9.38294 24.2238 11.7567 23.8213 14.0631C23.4188 16.3696 22.3503 18.5078 20.7476 20.2146L18.1233 17.7502C19.2452 16.5555 19.9931 15.0587 20.2749 13.4442C20.5567 11.8297 20.36 10.1681 19.7091 8.66396C19.0583 7.15985 17.9816 5.87901 16.6118 4.97922C15.242 4.07943 13.6389 3.6 12 3.6V0Z" fill="#8E8CEE"/>
</svg>
