<svg width="24" height="24" viewBox="0 0 24 24" fill="none" xmlns="http://www.w3.org/2000/svg">
<path d="M13.5 12.1765L12.9685 11.3294L13.5 12.1765ZM11 16.5408C11 17.0931 11.4477 17.5408 12 17.5408C12.5523 17.5408 13 17.0931 13 16.5408H11ZM13 16.5C13 15.9477 12.5523 15.5 12 15.5C11.4477 15.5 11 15.9477 11 16.5H13ZM21 12C21 16.9706 16.9706 21 12 21V23C18.0751 23 23 18.0751 23 12H21ZM12 21C7.02944 21 3 16.9706 3 12H1C1 18.0751 5.92487 23 12 23V21ZM3 12C3 7.02944 7.02944 3 12 3V1C5.92487 1 1 5.92487 1 12H3ZM12 3C16.9706 3 21 7.02944 21 12H23C23 5.92487 18.0751 1 12 1V3ZM10 10C10 9.71694 10.1159 9.17831 10.4382 8.73514C10.7261 8.33909 11.1859 8 12 8V6C10.4923 6 9.45215 6.69032 8.82055 7.55898C8.22322 8.38051 8 9.34188 8 10H10ZM12 8C12.8501 8 13.3106 8.32653 13.5827 8.67466C13.8891 9.06656 14 9.54868 14 9.82353H16C16 9.15721 15.7717 8.22755 15.1585 7.44299C14.511 6.61465 13.4716 6 12 6V8ZM14 9.82353C14 10.1241 13.9319 10.3596 13.7976 10.5739C13.6561 10.7993 13.4074 11.054 12.9685 11.3294L14.0315 13.0235C14.645 12.6385 15.1463 12.1874 15.4917 11.6367C15.8442 11.0749 16 10.4641 16 9.82353H14ZM12.9685 11.3294C12.137 11.8511 11.6226 12.4392 11.3284 13.0391C11.0352 13.6373 11 14.1689 11 14.5H13C13 14.3311 13.0166 14.139 13.1242 13.9195C13.231 13.7017 13.4666 13.3779 14.0315 13.0235L12.9685 11.3294ZM13 16.5408V16.5H11V16.5408H13Z" fill="#8E8CEE"/>
</svg>
