<svg width="24" height="24" viewBox="0 0 24 24" fill="none" xmlns="http://www.w3.org/2000/svg">
<path d="M6.32292 9.475H6.6875C7.67708 9.475 8.5625 9.84167 9.34375 10.575C10.1424 11.2917 10.5417 12.1917 10.5417 13.275C10.5417 14.3417 10.1424 15.225 9.34375 15.925C8.5625 16.6083 7.59028 16.95 6.42708 16.95C5.15972 16.95 4.10069 16.4667 3.25 15.5C2.41667 14.5167 2 13.125 2 11.325C2 9.675 2.36458 8.13333 3.09375 6.7C3.84028 5.25 4.74306 4.10833 5.80208 3.275C6.87847 2.425 7.83333 2 8.66667 2C9.22222 2 9.65625 2.15833 9.96875 2.475C10.2812 2.79167 10.4375 3.2 10.4375 3.7C10.4375 4.43333 10.099 4.975 9.42188 5.325C8.50174 5.80833 7.77257 6.375 7.23438 7.025C6.69618 7.675 6.39236 8.49167 6.32292 9.475ZM17.8333 9.475H18.1719C19.1441 9.475 20.0208 9.84167 20.8021 10.575C21.6007 11.2917 22 12.1917 22 13.275C22 14.325 21.6007 15.2083 20.8021 15.925C20.0208 16.6417 19.0486 17 17.8854 17C16.6007 17 15.5417 16.5 14.7083 15.5C13.875 14.5 13.4583 13.1083 13.4583 11.325C13.4583 10.0417 13.6753 8.83333 14.1094 7.7C14.5434 6.56667 15.099 5.58333 15.776 4.75C16.4705 3.9 17.2083 3.23333 17.9896 2.75C18.7882 2.25 19.5 2 20.125 2C20.6979 2 21.1319 2.15833 21.4271 2.475C21.7396 2.775 21.8958 3.18333 21.8958 3.7C21.8958 4.45 21.5573 4.99167 20.8802 5.325C19.9253 5.84167 19.2049 6.41667 18.7188 7.05C18.2326 7.66667 17.9375 8.475 17.8333 9.475Z" fill="#8E8CEE"/>
</svg>
