<svg width="24" height="24" viewBox="0 0 24 24" fill="none" xmlns="http://www.w3.org/2000/svg">
<path d="M3 9C5 4 8.59428 2 11.899 2C16.4219 2 20.4235 4.94289 21.7364 9" stroke="#8E8CEE" stroke-width="2" stroke-linecap="round"/>
<path d="M2 10C2 8.66666 2 4.52288 2 4" stroke="#8E8CEE" stroke-width="2" stroke-linecap="round"/>
<path d="M2 10C3.33334 10 7.47712 10 8 10" stroke="#8E8CEE" stroke-width="2" stroke-linecap="round"/>
<path d="M21 15C19 20 15.4057 22 12.101 22C7.57815 22 3.57648 19.0571 2.26357 15" stroke="#8E8CEE" stroke-width="2" stroke-linecap="round"/>
<path d="M22 14C22 15.3333 22 19.4771 22 20" stroke="#8E8CEE" stroke-width="2" stroke-linecap="round"/>
<path d="M22 14C20.6667 14 16.5229 14 16 14" stroke="#8E8CEE" stroke-width="2" stroke-linecap="round"/>
</svg>
