<svg width="24" height="24" viewBox="0 0 24 24" fill="none" xmlns="http://www.w3.org/2000/svg">
<path d="M21 9C19 4 15.4057 2 12.101 2C7.57815 2 3.57648 4.94289 2.26357 9" stroke="#8E8CEE" stroke-width="2" stroke-linecap="round"/>
<path d="M22 10C22 8.66666 22 4.52288 22 4" stroke="#8E8CEE" stroke-width="2" stroke-linecap="round"/>
<path d="M22 10C20.6667 10 16.5229 10 16 10" stroke="#8E8CEE" stroke-width="2" stroke-linecap="round"/>
<path d="M3 15C5 20 8.59428 22 11.899 22C16.4219 22 20.4235 19.0571 21.7364 15" stroke="#8E8CEE" stroke-width="2" stroke-linecap="round"/>
<path d="M2 14C2 15.3333 2 19.4771 2 20" stroke="#8E8CEE" stroke-width="2" stroke-linecap="round"/>
<path d="M2 14C3.33334 14 7.47712 14 8 14" stroke="#8E8CEE" stroke-width="2" stroke-linecap="round"/>
</svg>
