<svg width="24" height="24" viewBox="0 0 24 24" fill="none" xmlns="http://www.w3.org/2000/svg">
<path d="M18 7.5C19.6569 7.5 21 6.15685 21 4.5C21 2.84315 19.6569 1.5 18 1.5C16.3431 1.5 15 2.84315 15 4.5C15 6.15685 16.3431 7.5 18 7.5Z" stroke="#8E8CEE" stroke-width="2" stroke-linecap="round" stroke-linejoin="round"/>
<path d="M6 14.5C7.65685 14.5 9 13.1569 9 11.5C9 9.84315 7.65685 8.5 6 8.5C4.34315 8.5 3 9.84315 3 11.5C3 13.1569 4.34315 14.5 6 14.5Z" stroke="#8E8CEE" stroke-width="2" stroke-linecap="round" stroke-linejoin="round"/>
<path d="M18 22.5C19.6569 22.5 21 21.1569 21 19.5C21 17.8431 19.6569 16.5 18 16.5C16.3431 16.5 15 17.8431 15 19.5C15 21.1569 16.3431 22.5 18 22.5Z" stroke="#8E8CEE" stroke-width="2" stroke-linecap="round" stroke-linejoin="round"/>
<path d="M9 13.5L15.83 17.48" stroke="#8E8CEE" stroke-width="2" stroke-linecap="round" stroke-linejoin="round"/>
<path d="M15.82 6.5L9 10.48" stroke="#8E8CEE" stroke-width="2" stroke-linecap="round" stroke-linejoin="round"/>
</svg>
