<svg width="24" height="24" viewBox="0 0 24 24" fill="none" xmlns="http://www.w3.org/2000/svg">
<path d="M4.86955 7.84794C4.9446 7.36011 5.36435 7 5.85792 7H18.1421C18.6357 7 19.0554 7.36011 19.1305 7.84794L20.9892 19.9298C20.9964 19.9765 21 20.0237 21 20.071V20.071C21 20.5841 20.5841 21 20.071 21H3.92896C3.41591 21 3 20.5841 3 20.071V20.071C3 20.0237 3.00361 19.9765 3.0108 19.9298L4.86955 7.84794Z" stroke="#8E8CEE" stroke-width="2"/>
<path d="M9 10L9 6C9 4.61929 10 3 12 3C14 3 15 4.61929 15 6L15 10" stroke="#8E8CEE" stroke-width="2" stroke-linecap="round"/>
</svg>
