<svg width="24" height="24" viewBox="0 0 24 24" fill="none" xmlns="http://www.w3.org/2000/svg">
<path d="M22 19V20C22.5523 20 23 19.5523 23 19H22ZM2 19H1C1 19.5523 1.44772 20 2 20V19ZM3 21C3 21.5523 3.44772 22 4 22C4.55228 22 5 21.5523 5 21H3ZM19 21C19 21.5523 19.4477 22 20 22C20.5523 22 21 21.5523 21 21H19ZM21 14V19H23V14H21ZM22 18H2V20H22V18ZM3 19V14H1V19H3ZM3 12C3 11.4477 3.44772 11 4 11V9C2.34315 9 1 10.3431 1 12H3ZM4 11C4.55228 11 5 11.4477 5 12H7C7 10.3431 5.65685 9 4 9V11ZM1 12V15H3V12H1ZM5 12V19H7V12H5ZM19 12C19 11.4477 19.4477 11 20 11V9C18.3431 9 17 10.3431 17 12H19ZM20 11C20.5523 11 21 11.4477 21 12H23C23 10.3431 21.6569 9 20 9V11ZM17 12V19H19V12H17ZM21 12V15H23V12H21ZM5 10V6H3V10H5ZM5 6C5 5.66002 5.11022 5.1278 5.41153 4.7093C5.67614 4.3418 6.12592 4 7 4V2C5.47408 2 4.42386 2.6582 3.78847 3.5407C3.18978 4.3722 3 5.33998 3 6H5ZM7 4H17V2H7V4ZM17 4C17.34 4 17.8722 4.11022 18.2907 4.41153C18.6582 4.67614 19 5.12592 19 6H21C21 4.47408 20.3418 3.42386 19.4593 2.78847C18.6278 2.18978 17.66 2 17 2V4ZM19 6V10H21V6H19ZM6.5 15H17.5V13H6.5V15ZM3 19V21H5V19H3ZM19 19V21H21V19H19Z" fill="#8E8CEE"/>
</svg>
