<svg width="20" height="20" viewBox="0 0 20 20" fill="none" xmlns="http://www.w3.org/2000/svg">
<g clip-path="url(#clip0_44145_9396)">
<path d="M3.125 17.5H16.875" stroke="#91919C" stroke-width="1.8" stroke-linecap="round" stroke-linejoin="round"/>
<path d="M8.93118 10.625L7.54212 4.14062C7.48393 3.86746 7.48751 3.58474 7.55258 3.31313C7.61766 3.04153 7.74259 2.78788 7.91824 2.57074C8.0939 2.3536 8.31585 2.17845 8.56788 2.05808C8.8199 1.9377 9.09564 1.87516 9.37493 1.875H10.6249C10.9043 1.87504 11.1801 1.9375 11.4322 2.05783C11.6844 2.17815 11.9064 2.35329 12.0822 2.57044C12.2579 2.7876 12.3829 3.04128 12.448 3.31294C12.5131 3.58461 12.5167 3.86739 12.4585 4.14062L11.0695 10.625" stroke="#91919C" stroke-width="1.8" stroke-linecap="round" stroke-linejoin="round"/>
<path d="M16.25 10.625H3.75C3.40482 10.625 3.125 10.9048 3.125 11.25V14.375C3.125 14.7202 3.40482 15 3.75 15H16.25C16.5952 15 16.875 14.7202 16.875 14.375V11.25C16.875 10.9048 16.5952 10.625 16.25 10.625Z" stroke="#91919C" stroke-width="1.8" stroke-linecap="round" stroke-linejoin="round"/>
</g>
<defs>
<clipPath id="clip0_44145_9396">
<rect width="20" height="20" fill="white"/>
</clipPath>
</defs>
</svg>
