<svg width="24" height="24" viewBox="0 0 24 24" fill="none" xmlns="http://www.w3.org/2000/svg">
<path d="M11.8879 2L12.0167 2.00001C12.5194 2.0032 12.9685 2.31321 13.1472 2.78039L15.1529 7.84802L20.8316 8.11444C21.9599 8.16174 22.4213 9.57808 21.5351 10.274L17.1015 13.82L18.9427 19.4729C19.2283 20.5443 18.0359 21.4023 17.1015 20.7979L12 17L7 20.7979C6.06506 21.4064 4.86838 20.5464 5.15642 19.4729L6.89854 13.82L2.46488 10.274C1.57872 9.57808 2.04015 8.16173 3.16845 8.11444L8.84706 7.84802L10.8695 2.78039C11.0341 2.35154 11.4284 2.045 11.8879 2Z" stroke="#8E8CEE" stroke-width="2" stroke-linejoin="round"/>
<path d="M11.8879 2L12 2.00001V17L7 20.7979C6.06506 21.4064 4.86838 20.5464 5.15642 19.4729L6.89854 13.82L2.46488 10.274C1.57872 9.57808 2.04015 8.16173 3.16845 8.11444L8.84706 7.84802L10.8695 2.78039C11.0341 2.35154 11.4284 2.045 11.8879 2Z" fill="#8E8CEE"/>
</svg>
