<svg width="24" height="24" viewBox="0 0 24 24" fill="none" xmlns="http://www.w3.org/2000/svg">
<path fill-rule="evenodd" clip-rule="evenodd" d="M24 24C24 24 19.9594 22.6087 16.6911 21.495H2.946C1.32 21.495 0 20.2695 0 18.7598V2.733C0 1.22475 1.32 0 2.946 0H21.0531C22.68 0 23.9991 1.224 23.9991 2.73375V16.5367L24 24ZM3.69231 6.46154C3.69231 5.95174 4.10558 5.53846 4.61538 5.53846H15.6923C16.2021 5.53846 16.6154 5.95174 16.6154 6.46154C16.6154 6.97134 16.2021 7.38462 15.6923 7.38462H4.61538C4.10558 7.38462 3.69231 6.97134 3.69231 6.46154ZM4.61538 10.1538C4.10558 10.1538 3.69231 10.5671 3.69231 11.0769C3.69231 11.5867 4.10558 12 4.61538 12H12C12.5098 12 12.9231 11.5867 12.9231 11.0769C12.9231 10.5671 12.5098 10.1538 12 10.1538H4.61538Z" fill="#8E8CEE"/>
</svg>
