<svg width="24" height="24" viewBox="0 0 24 24" fill="none" xmlns="http://www.w3.org/2000/svg">
<path d="M8.66667 19.7778L7.95956 20.4849L8.66667 21.192L9.37377 20.4849L8.66667 19.7778ZM4.22222 15.3333L3.51512 14.6262L2.80801 15.3333L3.51512 16.0404L4.22222 15.3333ZM22.7071 2.70711C23.0976 2.31658 23.0976 1.68342 22.7071 1.29289C22.3166 0.902369 21.6834 0.902369 21.2929 1.29289L22.7071 2.70711ZM7.15155 18.2627L7.85866 17.5556L6.44444 16.1413L5.73734 16.8484L7.15155 18.2627ZM4.18859 13.8855C3.79806 13.495 3.1649 13.495 2.77437 13.8855C2.38385 14.276 2.38385 14.9092 2.77437 15.2997L4.18859 13.8855ZM8.7003 21.2256C9.09082 21.6161 9.72399 21.6161 10.1145 21.2256C10.505 20.8351 10.505 20.2019 10.1145 19.8114L8.7003 21.2256ZM2.70711 18.3299C2.31658 17.9394 1.68342 17.9394 1.29289 18.3299C0.902369 18.7205 0.902369 19.3536 1.29289 19.7441L2.70711 18.3299ZM4.25586 22.7071C4.64638 23.0976 5.27955 23.0976 5.67007 22.7071C6.06059 22.3166 6.06059 21.6834 5.67007 21.2929L4.25586 22.7071ZM13.5151 14.1886C13.9056 14.5791 14.5388 14.5791 14.9293 14.1886C15.3199 13.7981 15.3199 13.1649 14.9293 12.7744L13.5151 14.1886ZM10.7638 16.9399C11.1543 17.3304 11.7875 17.3304 12.178 16.9399C12.5685 16.5494 12.5685 15.9162 12.178 15.5257L10.7638 16.9399ZM13.1447 6.41081L12.4376 5.7037L13.1447 6.41081ZM13.8519 7.11792L16.8821 10.1481L18.2963 8.73393L15.2661 5.7037L13.8519 7.11792ZM16.8821 10.1481L7.95956 19.0707L9.37377 20.4849L18.2963 11.5624L16.8821 10.1481ZM9.37377 19.0707L4.92933 14.6262L3.51512 16.0404L7.95956 20.4849L9.37377 19.0707ZM4.92933 16.0404L13.8519 7.11792L12.4376 5.7037L3.51512 14.6262L4.92933 16.0404ZM21.2929 1.29289L15.1024 7.48337L16.5166 8.89758L22.7071 2.70711L21.2929 1.29289ZM5.73734 16.8484L2.77437 19.8114L4.18859 21.2256L7.15155 18.2627L5.73734 16.8484ZM2.77437 15.2997L8.7003 21.2256L10.1145 19.8114L4.18859 13.8855L2.77437 15.2997ZM1.29289 19.7441L4.25586 22.7071L5.67007 21.2929L2.70711 18.3299L1.29289 19.7441ZM14.9293 12.7744L12.8658 10.7109L11.4516 12.1251L13.5151 14.1886L14.9293 12.7744ZM12.178 15.5257L10.1145 13.4622L8.7003 14.8764L10.7638 16.9399L12.178 15.5257ZM16.8821 10.1481L16.8821 10.1481L18.2963 11.5624C19.0773 10.7813 19.0773 9.51498 18.2963 8.73393L16.8821 10.1481ZM15.2661 5.7037C14.485 4.92265 13.2187 4.92266 12.4376 5.7037L13.8519 7.11792V7.11792L15.2661 5.7037Z" fill="#8E8CEE"/>
</svg>
