<svg width="24" height="24" viewBox="0 0 24 24" fill="none" xmlns="http://www.w3.org/2000/svg">
<path d="M14.2013 6.80364C14.0181 6.99057 13.9155 7.24189 13.9155 7.50364C13.9155 7.76539 14.0181 8.01671 14.2013 8.20364L15.8013 9.80364C15.9882 9.98687 16.2396 10.0895 16.5013 10.0895C16.7631 10.0895 17.0144 9.98687 17.2013 9.80364L20.9713 6.03364C21.4742 7.14483 21.6264 8.38288 21.4078 9.58279C21.1892 10.7827 20.61 11.8875 19.7476 12.7499C18.8852 13.6124 17.7804 14.1915 16.5805 14.4101C15.3806 14.6287 14.1425 14.4765 13.0313 13.9736L6.12132 20.8836C5.7235 21.2815 5.18393 21.505 4.62132 21.505C4.05871 21.505 3.51914 21.2815 3.12132 20.8836C2.7235 20.4858 2.5 19.9462 2.5 19.3836C2.5 18.821 2.7235 18.2815 3.12132 17.8836L10.0313 10.9736C9.52848 9.86245 9.37624 8.62441 9.59486 7.4245C9.81349 6.22459 10.3926 5.1198 11.255 4.25736C12.1175 3.39493 13.2223 2.81581 14.4222 2.59718C15.6221 2.37856 16.8601 2.53081 17.9713 3.03364L14.2113 6.79364L14.2013 6.80364Z" stroke="#8E8CEE" stroke-width="2" stroke-linecap="round" stroke-linejoin="round"/>
</svg>
