<svg width="24" height="25" viewBox="0 0 24 25" fill="none" xmlns="http://www.w3.org/2000/svg">
<path d="M11.9999 5.18749C10.7917 4.52824 9.09407 3.5 7.49996 3.5C5.13748 3.5 3 4.90286 3 9.12495C3 14.6363 4.18799 18.5861 6.00485 20.979C6.64947 21.8295 8.22108 21.5651 8.8927 20.7135C9.34044 20.1454 9.81406 19.0946 10.3124 17.5624C10.6409 16.695 11.3159 15.8704 11.9999 15.8749C12.6772 15.8749 13.3612 16.704 13.6874 17.5624C14.1858 19.0946 14.6594 20.1442 15.1071 20.7123C15.7788 21.5662 17.3571 21.8295 17.995 20.979C19.8119 18.5861 20.9998 14.6374 20.9998 9.12495C20.9998 4.91749 18.8534 3.5 16.4999 3.5C14.899 3.5 13.2149 4.52487 11.9999 5.18749ZM11.9999 5.18749L13.1249 7.99996L10.8749 10.2499L13.1249 12.4999" stroke="#26262E" stroke-width="2" stroke-linecap="round" stroke-linejoin="round"/>
</svg>
