<svg width="24" height="25" viewBox="0 0 24 25" fill="none" xmlns="http://www.w3.org/2000/svg">
<path d="M6.5 16.5C6.5 17.0304 6.71071 17.5391 7.08579 17.9142C7.46086 18.2893 7.96957 18.5 8.5 18.5C9.03043 18.5 9.53914 18.2893 9.91421 17.9142C10.2893 17.5391 10.5 17.0304 10.5 16.5M6.5 16.5C6.5 15.9696 6.71071 15.4609 7.08579 15.0858C7.46086 14.7107 7.96957 14.5 8.5 14.5C9.03043 14.5 9.53914 14.7107 9.91421 15.0858C10.2893 15.4609 10.5 15.9696 10.5 16.5M6.5 16.5H4.5C3.96957 16.5 3.46086 16.2893 3.08579 15.9142C2.71071 15.5391 2.5 15.0304 2.5 14.5V12C2.5 10.5413 3.07946 9.14236 4.11091 8.11091C5.14236 7.07946 6.54131 6.5 8 6.5H15.5C16.0304 6.5 16.5391 6.71071 16.9142 7.08579C17.2893 7.46086 17.5 7.96957 17.5 8.5V14.5M10.5 16.5H15.5C16.0304 16.5 16.5391 16.2893 16.9142 15.9142C17.2893 15.5391 17.5 15.0304 17.5 14.5M17.5 14.5H21.5" stroke="#26262E" stroke-width="2" stroke-linecap="round" stroke-linejoin="round"/>
</svg>
