<svg width="24" height="24" viewBox="0 0 24 24" fill="none" xmlns="http://www.w3.org/2000/svg">
<circle cx="13.5" cy="10.5" r="8.5" stroke="#8E8CEE" stroke-width="2"/>
<path d="M14 2C10.6307 4.68487 9.38997 9.06588 10.2777 13" stroke="#8E8CEE" stroke-width="2" stroke-linecap="round"/>
<path d="M13 2C18.3333 6.25 18.3333 14.75 13 19" stroke="#8E8CEE" stroke-width="2" stroke-linecap="round"/>
<path d="M6 8C9.33334 8 19.6928 8 21 8" stroke="#8E8CEE" stroke-width="2" stroke-linecap="round"/>
<path d="M6 13C9.33334 13 19.6928 13 21 13" stroke="#8E8CEE" stroke-width="2" stroke-linecap="round"/>
<path d="M12 19.375C12 19.7065 11.8699 20.0245 11.6384 20.2589C11.4069 20.4933 11.0929 20.625 10.7654 20.625H4.46914L2 22V14.25C2 13.9185 2.13007 13.6005 2.3616 13.3661C2.59312 13.1317 2.90714 13 3.23457 13H10.7654C11.0929 13 11.4069 13.1317 11.6384 13.3661C11.8699 13.6005 12 13.9185 12 14.25V19.375Z" fill="white" stroke="#8E8CEE" stroke-width="2" stroke-linecap="round" stroke-linejoin="round"/>
</svg>
