<svg width="24" height="24" viewBox="0 0 24 24" fill="none" xmlns="http://www.w3.org/2000/svg">
<path d="M10.738 3.96274L2.26802 18.1027C2.09339 18.4052 2.00099 18.748 2.00001 19.0973C1.99903 19.4465 2.08951 19.7899 2.26245 20.0933C2.43538 20.3967 2.68474 20.6495 2.98573 20.8266C3.28671 21.0037 3.62882 21.0989 3.97802 21.1027H20.918C21.2672 21.0989 21.6093 21.0037 21.9103 20.8266C22.2113 20.6495 22.4607 20.3967 22.6336 20.0933C22.8065 19.7899 22.897 19.4465 22.896 19.0973C22.8951 18.748 22.8027 18.4052 22.628 18.1027L14.158 3.96274C13.9797 3.66885 13.7287 3.42586 13.4292 3.25723C13.1297 3.08859 12.7918 3 12.448 3C12.1043 3 11.7663 3.08859 11.4668 3.25723C11.1673 3.42586 10.9163 3.66885 10.738 3.96274V3.96274Z" stroke="#8E8CEE" stroke-width="2" stroke-linecap="round" stroke-linejoin="round"/>
</svg>
