<svg width="24" height="24" viewBox="0 0 24 24" fill="none" xmlns="http://www.w3.org/2000/svg">
<rect width="24" height="24" fill="white"/>
<path d="M21.9658 17.4179L22.894 17.0459L22.8883 17.0315L22.8821 17.0173L21.9658 17.4179ZM17.3274 6.80891L16.399 7.18053L16.4049 7.19512L16.4112 7.20951L17.3274 6.80891ZM17.0166 6.52377L17.3184 5.57038L17.3156 5.56952L17.0166 6.52377ZM16.592 6.57607L16.0659 5.72563L16.0655 5.7259L16.592 6.57607ZM7.40726 6.57627L7.93366 5.72603L7.93333 5.72583L7.40726 6.57627ZM6.98246 6.52396L6.68343 5.56971L6.68031 5.5707L6.98246 6.52396ZM6.67166 6.80911L7.58792 7.20968L7.59421 7.1953L7.60005 7.18072L6.67166 6.80911ZM2.03368 17.4179L1.11742 17.0173L1.11122 17.0315L1.10546 17.0459L2.03368 17.4179ZM2.20268 17.9826L1.6208 18.7958L1.62087 18.7959L2.20268 17.9826ZM21.7968 17.9828L21.2153 17.1692L21.215 17.1694L21.7968 17.9828ZM8.58245 1.68731C8.13362 1.3655 7.50888 1.46847 7.18707 1.9173C6.86525 2.36614 6.96822 2.99087 7.41706 3.31269L8.58245 1.68731ZM16.5825 3.31266C17.0313 2.99082 17.1343 2.36607 16.8124 1.91726C16.4906 1.46844 15.8658 1.3655 15.417 1.68734L16.5825 3.31266ZM12.313 15.17C12.8642 15.1351 13.2827 14.6599 13.2478 14.1088C13.2128 13.5576 12.7377 13.1391 12.1865 13.174L12.313 15.17ZM5.35775 10.577C4.94601 10.2089 4.31383 10.2443 3.94575 10.6561C3.57766 11.0678 3.61305 11.7 4.0248 12.0681L5.35775 10.577ZM15.9793 11.1912C15.4314 11.2605 15.0434 11.7609 15.1128 12.3088C15.1821 12.8567 15.6825 13.2447 16.2304 13.1753L15.9793 11.1912ZM19.6831 10.9313C20.0215 10.4948 19.942 9.86668 19.5056 9.52826C19.0691 9.18985 18.441 9.26933 18.1026 9.70579L19.6831 10.9313ZM13.0429 16.501C12.4911 16.4771 12.0245 16.905 12.0006 17.4567C11.9767 18.0085 12.4046 18.4752 12.9564 18.4991L13.0429 16.501ZM21.1397 15.2683C21.564 14.9148 21.6215 14.2843 21.268 13.86C20.9145 13.4356 20.2839 13.3782 19.8596 13.7317L21.1397 15.2683ZM22.8821 17.0173L18.2437 6.40832L16.4112 7.20951L21.0495 17.8185L22.8821 17.0173ZM18.2558 6.4373C18.0871 6.01593 17.7381 5.70322 17.3184 5.57039L16.7149 7.47715C16.5804 7.43458 16.4593 7.33109 16.399 7.18053L18.2558 6.4373ZM17.3156 5.56952C16.8999 5.43923 16.4427 5.49259 16.0659 5.72563L17.1181 7.42651C16.9938 7.50342 16.8478 7.51881 16.7176 7.47801L17.3156 5.56952ZM16.0655 5.7259C14.396 6.75982 13.1617 7 11.9998 7V9C13.5366 9 15.1352 8.6545 17.1185 7.42624L16.0655 5.7259ZM11.9998 7C10.8376 7 9.6034 6.75982 7.93366 5.72603L6.88085 7.4265C8.8643 8.65451 10.4627 9 11.9998 9V7ZM7.93333 5.72583C7.5565 5.49272 7.0991 5.43946 6.68344 5.56972L7.28148 7.47821C7.15141 7.51897 7.00561 7.50368 6.88118 7.4267L7.93333 5.72583ZM6.68031 5.5707C6.26162 5.70341 5.91213 6.01565 5.74327 6.43749L7.60005 7.18072C7.53959 7.33175 7.4185 7.43479 7.28461 7.47722L6.68031 5.5707ZM5.7554 6.40853L1.11742 17.0173L2.94994 17.8185L7.58792 7.20968L5.7554 6.40853ZM1.10546 17.0459C0.848354 17.6873 1.07365 18.4044 1.6208 18.7958L2.78456 17.1693C2.96891 17.3012 3.0558 17.5556 2.9619 17.7899L1.10546 17.0459ZM1.62087 18.7959C5.01232 21.222 8.50764 22.5 11.9996 22.5V20.5C9.01567 20.5 5.91861 19.4112 2.78449 17.1692L1.62087 18.7959ZM11.9996 22.5C15.4916 22.5 18.9871 21.2222 22.3786 18.7961L21.215 17.1694C18.0809 19.4114 14.9837 20.5 11.9996 20.5V22.5ZM22.3783 18.7963C22.9268 18.4043 23.1508 17.6865 22.894 17.0459L21.0376 17.7899C20.944 17.5564 21.03 17.3016 21.2153 17.1692L22.3783 18.7963ZM7.41706 3.31269C8.98489 4.43683 10.4442 5.10816 11.9998 5.10816V3.10816C11.0509 3.10816 10.0053 2.70751 8.58245 1.68731L7.41706 3.31269ZM11.9998 5.10816C13.5557 5.10816 15.0148 4.43682 16.5825 3.31266L15.417 1.68734C13.9943 2.70753 12.9489 3.10816 11.9998 3.10816V5.10816ZM12.1865 13.174C11.1367 13.2405 10.1316 13.1965 9.05692 12.8523C7.98093 12.5077 6.77216 11.8415 5.35775 10.577L4.0248 12.0681C5.6054 13.4811 7.05352 14.3107 8.44685 14.757C9.84149 15.2037 11.1181 15.2457 12.313 15.17L12.1865 13.174ZM16.2304 13.1753C17.5784 13.0048 18.7221 12.1707 19.6831 10.9313L18.1026 9.70579C17.3305 10.7016 16.6155 11.1107 15.9793 11.1912L16.2304 13.1753ZM12.9564 18.4991C15.4902 18.6088 17.9798 17.9007 21.1397 15.2683L19.8596 13.7317C17.0187 16.0983 15.0032 16.5859 13.0429 16.501L12.9564 18.4991Z" fill="#8E8CEE"/>
</svg>
