<svg width="24" height="24" viewBox="0 0 24 24" fill="none" xmlns="http://www.w3.org/2000/svg">
<path d="M21.0377 9.56899C21.1707 10.0798 20.7969 10.4746 20.4102 10.4746H3.58986C3.20315 10.4746 2.82939 10.0798 2.96238 9.569C3.45499 7.67687 4.40251 5.97242 5.7029 4.64857C7.44497 2.87508 9.692 1.91269 12 1.91269C14.3081 1.91269 16.5551 2.87508 18.2971 4.64857C19.5975 5.97242 20.5451 7.67687 21.0377 9.56899Z" stroke="#8E8CEE" stroke-width="2" stroke-linecap="round" stroke-linejoin="round"/>
<path d="M18 19.1936C18 19.9893 17.6839 20.7523 17.1213 21.3149C16.5587 21.8775 15.7956 22.1936 15 22.1936C14.2044 22.1936 13.4413 21.8775 12.8787 21.3149C12.3161 20.7523 12 19.9893 12 19.1936V11.1936" stroke="#8E8CEE" stroke-width="2" stroke-linecap="round" stroke-linejoin="round"/>
</svg>
