<svg width="24" height="24" viewBox="0 0 24 24" fill="none" xmlns="http://www.w3.org/2000/svg">
<path d="M16 21V19C16 17.9391 15.5786 16.9217 14.8284 16.1716C14.0783 15.4214 13.0609 15 12 15H5C3.93913 15 2.92172 15.4214 2.17157 16.1716C1.42143 16.9217 1 17.9391 1 19V21" stroke="#8E8CEE" stroke-width="2" stroke-linecap="round" stroke-linejoin="round"/>
<path d="M9 11C11.2091 11 13 9.20914 13 7C13 4.79086 11.2091 3 9 3C6.79086 3 5 4.79086 5 7C5 9.20914 6.79086 11 9 11Z" stroke="#8E8CEE" stroke-width="2" stroke-linecap="round" stroke-linejoin="round"/>
<path fill-rule="evenodd" clip-rule="evenodd" d="M21 8C21 7.44772 20.5523 7 20 7C19.4477 7 19 7.44772 19 8V10H17C16.4477 10 16 10.4477 16 11C16 11.5523 16.4477 12 17 12H19V14C19 14.5523 19.4477 15 20 15C20.5523 15 21 14.5523 21 14V12H23C23.5523 12 24 11.5523 24 11C24 10.4477 23.5523 10 23 10H21V8Z" fill="#8E8CEE"/>
</svg>
