<svg width="24" height="24" viewBox="0 0 24 24" fill="none" xmlns="http://www.w3.org/2000/svg">
<path d="M6.75 22H17.25C18.2165 22 19 21.1046 19 20L19 4C19 2.89543 18.2165 2 17.25 2H6.75C5.7835 2 5 2.89543 5 4L5 20C5 21.1046 5.7835 22 6.75 22Z" stroke="#8E8CEE" stroke-width="2" stroke-linecap="round" stroke-linejoin="round"/>
<path d="M16 18C16 15.8571 14.5039 15 14.0036 15C14.0036 15 13.003 15.4286 12 15.4286C11.0018 15.4286 10.0012 15 10.0012 15C9.50089 15 8 15.8571 8 18" stroke="#8E8CEE" stroke-width="2" stroke-linecap="round" stroke-linejoin="round"/>
<path d="M11.9722 12.5C12.9387 12.5 13.7222 11.7165 13.7222 10.75C13.7222 9.7835 12.9387 9 11.9722 9C11.0057 9 10.2222 9.7835 10.2222 10.75C10.2222 11.7165 11.0057 12.5 11.9722 12.5Z" stroke="#8E8CEE" stroke-width="2" stroke-linecap="round" stroke-linejoin="round"/>
<path d="M9 5.54102V5.50017" stroke="#8E8CEE" stroke-width="2" stroke-miterlimit="2.41327" stroke-linecap="round" stroke-linejoin="round" stroke-dasharray="0 1000000"/>
<path d="M12 5.54102V5.50017" stroke="#8E8CEE" stroke-width="2" stroke-miterlimit="2.41327" stroke-linecap="round" stroke-linejoin="round" stroke-dasharray="0 1000000"/>
<path d="M15 5.54102V5.50017" stroke="#8E8CEE" stroke-width="2" stroke-miterlimit="2.41327" stroke-linecap="round" stroke-linejoin="round" stroke-dasharray="0 1000000"/>
</svg>
