<svg width="24" height="24" viewBox="0 0 24 24" fill="none" xmlns="http://www.w3.org/2000/svg">
<path d="M12 19C15.866 19 19 15.866 19 12C19 8.13401 15.866 5 12 5C8.13401 5 5 8.13401 5 12C5 15.866 8.13401 19 12 19Z" stroke="#8E8CEE" stroke-width="2" stroke-linecap="round" stroke-linejoin="round"/>
<path d="M12 9V12L13.5 13.5" stroke="#8E8CEE" stroke-width="2" stroke-linecap="round" stroke-linejoin="round"/>
<path d="M16.9779 17.35L16.5912 21.18C16.5414 21.6786 16.2867 22.1422 15.8776 22.4792C15.4684 22.8162 14.9344 23.002 14.3812 23H9.59668C9.04346 23.002 8.50951 22.8162 8.10034 22.4792C7.69116 22.1422 7.43653 21.6786 7.38674 21.18L7 17.35M7.01105 6.65001L7.39779 2.82001C7.44741 2.32309 7.70047 1.8609 8.10731 1.52417C8.51414 1.18744 9.04536 1.00049 9.59668 1.00002H14.4033C14.9565 0.997985 15.4905 1.18381 15.8997 1.52079C16.3088 1.85776 16.5635 2.32137 16.6133 2.82001L17 6.65001" stroke="#8E8CEE" stroke-width="2" stroke-linecap="round" stroke-linejoin="round"/>
</svg>
