<svg width="24" height="24" viewBox="0 0 24 24" fill="none" xmlns="http://www.w3.org/2000/svg">
<path fill-rule="evenodd" clip-rule="evenodd" d="M19.4463 4.04853C17.4775 2.08876 14.8525 1 12.0525 1C6.28625 1 1.59625 5.6686 1.59625 11.4085C1.59625 13.2464 2.0775 15.0319 2.9875 16.6085L1.5 22L7.0475 20.5541C8.57 21.3816 10.2937 21.8171 12.0437 21.8258C17.81 21.8258 22.5 17.1572 22.5 11.4173C22.5 8.63874 21.415 6.02572 19.4375 4.05724L19.4463 4.04853ZM12.0525 20.0577C10.495 20.0577 8.96375 19.6396 7.63375 18.8557L7.31875 18.6728L4.02875 19.5263L4.90375 16.3384L4.7025 16.0075C3.8275 14.6313 3.3725 13.0373 3.3725 11.3998C3.36375 6.63542 7.2575 2.75944 12.0525 2.75944C14.3713 2.75944 16.55 3.66528 18.195 5.29407C19.84 6.93156 20.7412 9.10037 20.7412 11.4085C20.7412 16.1817 16.8388 20.0577 12.0525 20.0577ZM16.8212 13.5774C16.5588 13.4467 15.2725 12.8196 15.0363 12.7325C14.8 12.6454 14.625 12.6018 14.45 12.8631C14.275 13.1244 13.7763 13.708 13.6188 13.8822C13.47 14.0564 13.3125 14.0738 13.0588 13.9432C12.7963 13.8125 11.9563 13.5425 10.9588 12.6541C10.18 11.966 9.655 11.1124 9.50625 10.8511C9.34875 10.5898 9.48875 10.4504 9.62 10.3198C9.7425 10.2066 9.8825 10.0149 10.0138 9.86686C10.145 9.71879 10.1888 9.60556 10.2763 9.43136C10.3638 9.25715 10.32 9.10037 10.25 8.97843C10.18 8.85649 9.66375 7.5674 9.445 7.04479C9.235 6.53961 9.01625 6.60929 8.85875 6.60058C8.71 6.60058 8.535 6.60058 8.36 6.60058C8.185 6.60058 7.905 6.66155 7.66 6.93156C7.42375 7.19287 6.75 7.81999 6.75 9.10037C6.75 10.3808 7.68625 11.6176 7.8175 11.7918C7.94875 11.966 9.66375 14.5877 12.28 15.7113C12.9013 15.9813 13.3912 16.1381 13.7675 16.2601C14.3888 16.4604 14.9663 16.4343 15.4125 16.3646C15.9113 16.2862 16.9613 15.7375 17.18 15.1277C17.3988 14.518 17.3988 14.0041 17.3288 13.8909C17.2588 13.7777 17.0925 13.7167 16.83 13.5861L16.8212 13.5774Z" fill="#8E8CEE"/>
</svg>
