<svg width="24" height="24" viewBox="0 0 24 24" fill="none" xmlns="http://www.w3.org/2000/svg">
<g clip-path="url(#clip0_5_3156)">
<path d="M1 1L23 23" stroke="#8E8CEE" stroke-width="2" stroke-linecap="round" stroke-linejoin="round"/>
<path d="M17 11C17.8191 11.3998 18.585 11.9003 19.28 12.49" stroke="#8E8CEE" stroke-width="2" stroke-linecap="round" stroke-linejoin="round"/>
<path d="M5 12.39C6.48208 11.1508 8.26587 10.3262 10.17 10" stroke="#8E8CEE" stroke-width="2" stroke-linecap="round" stroke-linejoin="round"/>
<path d="M11 5.05169C13.1424 4.87906 15.2976 5.13986 17.337 5.81851C19.3765 6.49717 21.2582 7.57977 22.87 9.00169" stroke="#8E8CEE" stroke-width="2" stroke-linecap="round" stroke-linejoin="round"/>
<path d="M1 8.88C2.38717 7.65385 3.9777 6.67923 5.7 6" stroke="#8E8CEE" stroke-width="2" stroke-linecap="round" stroke-linejoin="round"/>
<path d="M9 16.1087C10.0152 15.3875 11.2297 15 12.475 15C13.7203 15 14.9348 15.3875 15.95 16.1087" stroke="#8E8CEE" stroke-width="2" stroke-linecap="round" stroke-linejoin="round"/>
</g>
<defs>
<clipPath id="clip0_5_3156">
<rect width="24" height="24" fill="white"/>
</clipPath>
</defs>
</svg>
