<svg width="24" height="24" viewBox="0 0 24 24" fill="none" xmlns="http://www.w3.org/2000/svg">
<path d="M17.7305 9.73781C18.0213 9.44769 18.3792 9.23372 18.7724 9.11482C19.1656 8.99592 19.5821 8.97575 19.985 9.05609C20.3878 9.13644 20.7647 9.31483 21.0822 9.57548C21.3997 9.83613 21.6481 10.171 21.8054 10.5505C21.9628 10.93 22.0241 11.3424 21.9841 11.7513C21.9441 12.1601 21.804 12.5528 21.5761 12.8946C21.3482 13.2364 21.0396 13.5168 20.6776 13.711C20.3156 13.9051 19.9113 14.0071 19.5005 14.0078H16" stroke="#8E8CEE" stroke-width="2" stroke-linecap="round" stroke-linejoin="round"/>
<path d="M7.78426 14.876C8.1399 14.5279 8.57748 14.2711 9.05829 14.1284C9.53911 13.9857 10.0483 13.9615 10.541 14.0579C11.0336 14.1544 11.4944 14.3684 11.8827 14.6812C12.2709 14.994 12.5746 15.3958 12.767 15.8512C12.9593 16.3066 13.0344 16.8015 12.9855 17.2921C12.9366 17.7828 12.7652 18.254 12.4866 18.6642C12.2079 19.0743 11.8306 19.4108 11.3879 19.6438C10.9452 19.8768 10.4509 19.9991 9.94855 20H2" stroke="#8E8CEE" stroke-width="2" stroke-linecap="round" stroke-linejoin="round"/>
<path d="M9.02189 4.876C9.36133 4.52786 9.77897 4.27109 10.2379 4.12841C10.6968 3.98573 11.1828 3.96152 11.653 4.05794C12.1232 4.15435 12.563 4.36842 12.9336 4.6812C13.3041 4.99398 13.594 5.39584 13.7776 5.85123C13.9612 6.30662 14.0328 6.80151 13.9861 7.29213C13.9394 7.78276 13.7759 8.25399 13.5099 8.66416C13.244 9.07432 12.8838 9.41078 12.4613 9.64378C12.0388 9.87677 11.567 9.99912 11.0876 10H2" stroke="#8E8CEE" stroke-width="2" stroke-linecap="round" stroke-linejoin="round"/>
<path d="M4 14L2 14" stroke="#8E8CEE" stroke-width="2" stroke-linecap="round"/>
</svg>
