<svg width="24" height="24" viewBox="0 0 24 24" fill="none" xmlns="http://www.w3.org/2000/svg">
<circle cx="12" cy="12" r="10" stroke="#8E8CEE" stroke-width="2"/>
<path d="M12 2V3.9451C12 4.01375 11.9718 4.07937 11.9219 4.12659L11.0723 4.93149C11.0259 4.97548 10.9643 5 10.9004 5H10.1036C10.0372 5 9.97366 5.02634 9.92678 5.07322L9.07322 5.92678C9.02634 5.97366 9 6.03725 9 6.10355V7.75C9 7.88807 8.88807 8 8.75 8H6.25C6.11193 8 6 8.11193 6 8.25V8.90018C6 8.96427 5.97539 9.02591 5.93125 9.07237L5.06875 9.98026C5.02461 10.0267 5 10.0884 5 10.1525V12.75C5 12.8881 4.88807 13 4.75 13H3" stroke="#8E8CEE" stroke-width="2" stroke-linecap="round"/>
<path d="M9 21V17.1545C9 17.0598 8.9465 16.9732 8.8618 16.9309L7.07454 16.0373C7.02615 16.0131 6.98692 15.9738 6.96273 15.9255L6.02639 14.0528C6.00904 14.0181 6 13.9798 6 13.941V13.1036C6 13.0372 6.02634 12.9737 6.07322 12.9268L7.92678 11.0732C7.97366 11.0263 8.03725 11 8.10355 11H8.89645C8.96275 11 9.02634 11.0263 9.07322 11.0732L9.92678 11.9268C9.97366 11.9737 10.0372 12 10.1036 12H11.8964C11.9628 12 12.0263 12.0263 12.0732 12.0732L13.9268 13.9268C13.9737 13.9737 14.0372 14 14.1036 14H15.5991C15.7841 14 15.905 14.1939 15.8236 14.36L15.0255 15.9889C15.0087 16.0232 15 16.0608 15 16.0989V16.75C15 16.8881 14.8881 17 14.75 17H14.1036C14.0372 17 13.9737 17.0263 13.9268 17.0732L13.0732 17.9268C13.0263 17.9737 13 18.0372 13 18.1036V18.8964C13 18.9628 12.9737 19.0263 12.9268 19.0732L12.0732 19.9268C12.0263 19.9737 12 20.0372 12 20.1036V21" stroke="#8E8CEE" stroke-width="2" stroke-linecap="round"/>
<path d="M20 6H15.6667L15 6.7L15 9L17 10H18L19 11V12L21 14" stroke="#8E8CEE" stroke-width="2" stroke-linecap="round"/>
</svg>
