<svg width="28" height="28" viewBox="0 0 28 28" fill="none" xmlns="http://www.w3.org/2000/svg">
<mask id="mask0" mask-type="alpha" maskUnits="userSpaceOnUse" x="3" y="0" width="22" height="28">
<path d="M23.8761 0C14.4485 4.03927 5.77595 19.2529 3.53731 26.0756C3.04003 27.5912 2.60201 29.2504 4.03812 26.6043C4.89889 25.0183 7.02902 22.7858 11.8864 21.9848C15.7724 21.344 17.3995 20.5116 19.8916 17.6795C18.7427 18.0914 17.2587 18.9525 14.0909 17.9656C18.4837 18.3512 21.5108 15.748 22.6934 12.044C19.7931 13.3599 17.3385 12.4392 16.6956 12.1007C20.6519 12.2002 23.9887 9.68393 24.7913 5.49304C25.2591 3.05005 24.5097 0.800979 23.8761 0Z" fill="#6160A2"/>
</mask>
<g mask="url(#mask0)">
<path d="M21.1875 1.45451C12.8431 6.88225 5.56109 19.9077 3.53731 26.0756C3.04003 27.5912 2.60201 29.2504 4.03812 26.6043C4.89889 25.0183 7.02902 22.7858 11.8864 21.9848C15.1146 21.4525 16.784 20.7879 18.6853 18.9545C19.0219 18.63 19.1998 17.9565 18.7553 18.1015C18.24 18.2696 17.709 17.5612 18.205 17.3425C19.7521 16.6603 20.976 15.4887 21.8303 14.0102C22.2446 13.2932 20.7231 12.6796 19.8955 12.7075C18.8859 12.7415 19.6982 11.6399 20.6391 11.2723C21.8973 10.7807 23.0427 10.0842 23.7916 9.26859C24.7617 8.21223 24.48 7.11878 24.7913 5.49304C24.969 4.56516 24.971 3.66526 24.8706 2.86204C24.6464 1.06951 22.7019 0.469502 21.1875 1.45451Z" fill="#6160A2"/>
<path fill-rule="evenodd" clip-rule="evenodd" d="M30.4837 5.72996C30.4837 14.8734 23.1695 22.4039 14.0022 22.4039C4.83493 22.4039 -2.47925 14.8734 -2.47925 5.72996C-2.47925 -3.4135 4.83493 -10.944 14.0022 -10.944C23.1695 -10.944 30.4837 -3.4135 30.4837 5.72996ZM14.0022 18.0289C20.6884 18.0289 26.1087 12.5225 26.1087 5.72996C26.1087 -1.06259 20.6884 -6.56903 14.0022 -6.56903C7.316 -6.56903 1.89575 -1.06259 1.89575 5.72996C1.89575 12.5225 7.316 18.0289 14.0022 18.0289Z" fill="#90DF9B"/>
<path d="M26.1087 5.72995C26.1087 12.5225 20.6884 18.0289 14.0022 18.0289C7.316 18.0289 1.89575 12.5225 1.89575 5.72995C1.89575 -1.06259 7.316 -6.56903 14.0022 -6.56903C20.6884 -6.56903 26.1087 -1.06259 26.1087 5.72995Z" fill="#8E8CEE"/>
</g>
</svg>
