<svg width="80" height="80" viewBox="0 0 80 80" fill="none" xmlns="http://www.w3.org/2000/svg">
<rect width="80" height="80" rx="40" fill="#F7F7FF"/>
<g clip-path="url(#clip0_29215_23269)">
<path d="M54 22H26V32H54V22Z" fill="#8E8CEE"/>
<path d="M54 32H26L20.64 43.2782C20.2239 44.1442 20.0041 45.1128 20 46.0977V50H60V46.0977C59.9992 45.1051 59.7793 44.1284 59.36 43.2556L54 32Z" fill="#E6E5FD"/>
<path d="M24 54H20V56H24V54Z" fill="#8E8CEE"/>
<path d="M60 54H56V56H60V54Z" fill="#8E8CEE"/>
<path d="M24 56H20V58H24V56Z" fill="#8E8CEE"/>
<path d="M60 56H56V58H60V56Z" fill="#8E8CEE"/>
<path d="M45.94 28H34.06C32.9223 28 32 28.9223 32 30.06V33.94C32 35.0777 32.9223 36 34.06 36H45.94C47.0777 36 48 35.0777 48 33.94V30.06C48 28.9223 47.0777 28 45.94 28Z" fill="#FCFCFF"/>
<path d="M60 50H20V54H60V50Z" fill="#8E8CEE"/>
<path d="M60 46H20V50H60V46Z" fill="#B0B1F0"/>
</g>
<defs>
<clipPath id="clip0_29215_23269">
<rect width="48" height="48" fill="white" transform="translate(16 16)"/>
</clipPath>
</defs>
</svg>
