<svg width="152" height="152" viewBox="0 0 152 152" fill="none" xmlns="http://www.w3.org/2000/svg">
<rect width="152" height="152" rx="76" fill="#FAFAFF"/>
<path d="M111.591 69.793H104.01V87.7986H111.591V69.793Z" fill="#B1B0F5"/>
<path d="M111.511 48.336L111.592 83.0339H53.6357C49.4389 83.0339 45.7972 80.1774 44.7818 76.116L44.0508 41.6211H102.698C106.813 41.6211 111.592 43.1374 111.497 48.3224L111.511 48.336Z" fill="#B1B0F5"/>
<path d="M58.1026 33.9844H48.6125C45.5393 33.9844 43.8877 36.1369 44.0366 39.8734L44.1314 77.0083C44.3344 80.3657 47.6919 83.0598 50.2506 83.0598L58.1026 82.5589V33.9844Z" fill="#E6E5FF"/>
<path d="M49.9395 70.9549V70.982C46.7445 71.1445 44.2129 73.7709 44.2129 76.9929C44.2129 80.215 46.758 82.8413 49.9395 83.0038V83.0309H66.9568V70.9414H49.9395V70.9549Z" fill="#B1B0F5"/>
<path d="M107.015 92.1986C109.542 92.1986 111.591 90.1499 111.591 87.6227C111.591 85.0956 109.542 83.0469 107.015 83.0469C104.488 83.0469 102.439 85.0956 102.439 87.6227C102.439 90.1499 104.488 92.1986 107.015 92.1986Z" fill="#8E8CEE"/>
<path d="M107.029 83.0469H96.1113V92.1851H107.029V83.0469Z" fill="#8E8CEE"/>
<path d="M94.0791 62.519C94.0791 54.9966 87.9809 48.8984 80.4585 48.8984C72.936 48.8984 66.8379 54.9966 66.8379 62.519C66.8379 70.0415 72.936 76.1396 80.4585 76.1396C87.9809 76.1396 94.0791 70.0415 94.0791 62.519Z" fill="#E6E5FF"/>
<path d="M74.4961 60.3374H75.821C75.9688 59.5206 76.2081 58.7822 76.5387 58.122C76.8761 57.4549 77.2881 56.8866 77.7748 56.417C78.2683 55.9473 78.8263 55.5866 79.4487 55.3348C80.0781 55.0829 80.7585 54.957 81.49 54.957C82.463 54.957 83.2986 55.1442 83.9968 55.5186C84.7018 55.8861 85.2888 56.3829 85.7579 57.0091L84.7666 58.0709C84.6925 58.1526 84.6148 58.2275 84.5334 58.2955C84.452 58.3568 84.3353 58.3874 84.1835 58.3874C84.0317 58.3874 83.8925 58.3329 83.7659 58.224C83.6462 58.1151 83.5022 57.996 83.3337 57.8667C83.1652 57.7306 82.952 57.6081 82.6943 57.4992C82.4366 57.3903 82.0939 57.3358 81.666 57.3358C80.9277 57.3358 80.3052 57.5877 79.7986 58.0913C79.2989 58.595 78.953 59.3437 78.7607 60.3374H83.7602L83.7786 61.1848C83.7822 61.3481 83.7132 61.5047 83.5715 61.6544C83.4366 61.7973 83.2484 61.8688 83.0069 61.8688H78.5974C78.5927 61.9709 78.5915 62.0764 78.5939 62.1853C78.5961 62.2874 78.5984 62.3929 78.6008 62.5018L78.6102 62.9306H82.823L82.8414 63.778C82.845 63.9413 82.776 64.0979 82.6343 64.2476C82.4994 64.3905 82.3146 64.462 82.08 64.462H78.7988C79.0087 65.5442 79.3713 66.3507 79.8866 66.8816C80.4019 67.4125 81.0287 67.678 81.7671 67.678C82.0776 67.678 82.3426 67.6473 82.5621 67.5861C82.7885 67.5248 82.9801 67.45 83.1369 67.3615C83.3006 67.273 83.4365 67.1777 83.5447 67.0756C83.6527 66.9667 83.7506 66.868 83.8384 66.7795C83.9331 66.6911 84.0212 66.6162 84.1026 66.5549C84.191 66.4937 84.2904 66.4631 84.4008 66.4631C84.4905 66.4631 84.5633 66.4767 84.6191 66.5039C84.6816 66.5243 84.7482 66.572 84.8189 66.6468L86.085 67.7494C85.6251 68.4981 85.02 69.0699 84.2695 69.4646C83.5191 69.8594 82.6504 70.0568 81.6636 70.0568C80.8494 70.0568 80.115 69.924 79.4606 69.6586C78.8129 69.3864 78.2456 69.0052 77.7588 68.5151C77.272 68.0251 76.8693 67.4364 76.5507 66.7489C76.2321 66.0615 75.9981 65.2992 75.8488 64.462H74.5859L74.5526 62.9306H75.6808C75.6723 62.8557 75.6673 62.7843 75.6658 62.7162C75.6643 62.6481 75.6628 62.5767 75.6611 62.5018C75.6588 62.3929 75.6565 62.2874 75.6543 62.1853C75.6589 62.0832 75.6635 61.9777 75.6681 61.8688H74.5295L74.4961 60.3374Z" fill="#8E8CEE"/>
<rect x="36" y="92.2773" width="10.8108" height="22.7027" fill="#8E8CEE"/>
<rect width="80" height="3.24324" transform="matrix(1 0 0 -1 36 118.016)" fill="#E6E5FF"/>
<rect x="53.2969" y="101.945" width="10.8108" height="12.973" fill="#8E8CEE"/>
<rect x="70.5938" y="98.7031" width="10.8108" height="16.2162" fill="#8E8CEE"/>
<rect x="87.8926" y="112.758" width="10.8108" height="2.16216" fill="#B1B0F5"/>
<rect x="105.189" y="112.758" width="10.8108" height="2.16216" fill="#B1B0F5"/>
</svg>
