<svg width="152" height="152" viewBox="0 0 152 152" fill="none" xmlns="http://www.w3.org/2000/svg">
<rect width="152" height="152" rx="76" fill="#FAFAFF"/>
<path d="M118 37.5195H72V87.5195H118V37.5195Z" fill="#B1B0F5"/>
<path d="M73 37.5195H34V87.5195H73V37.5195Z" fill="#B1B0F5"/>
<path d="M114 37.5195H71V87.5195H114V37.5195Z" fill="#E6E5FF"/>
<path d="M74 37.5195H38V87.5195H74V37.5195Z" fill="#E6E5FF"/>
<path d="M107 37.5195H74V87.5195H107V37.5195Z" fill="#FAFAFF"/>
<path d="M42 95.75H105.025C108.323 95.75 110 98.1076 110 101.013V106.487C110 109.392 108.323 111.75 105.025 111.75H42V95.75Z" fill="#8E8CEE"/>
<path d="M42 95.75H71.6437C75.157 95.75 78 98.3298 78 101.518V105.982C78 109.17 75.157 111.75 71.6437 111.75H42V95.75Z" fill="#E6E5FF"/>
<path d="M42 98.75H70.8363C73.1323 98.75 75 100.419 75 102.471V105.029C75 107.081 73.1323 108.75 70.8363 108.75H42V98.75Z" fill="white"/>
<path d="M50 77.75H95.0795C97.7956 77.75 100 79.4023 100 82.6703V90.8297C100 94.0977 97.7956 95.75 95.0795 95.75H50V77.75Z" fill="#B1B0F5"/>
<path d="M50 77.75H76.6435C80.1569 77.75 82.9999 80.6523 82.9999 84.2388V89.2612C82.9999 92.8477 80.1569 95.75 76.6435 95.75H50V77.75Z" fill="#E6E5FF"/>
<path d="M50 80.5762H75.8363C78.1323 80.5762 80 82.5789 80 85.0408V88.1116C80 90.5735 78.1323 92.5762 75.8363 92.5762H50V80.5762Z" fill="white"/>
<path d="M47 37.502V60.502L54.0002 55.2563L61 60.502V37.502H47Z" fill="#8E8CEE"/>
<path d="M79.1967 43.5098H101.803C102.467 43.5098 103 44.1047 103 44.8389V46.1807C103 46.9148 102.467 47.5098 101.803 47.5098H79.1967C78.5333 47.5098 78 46.9148 78 46.1807V44.8389C78 44.1047 78.5333 43.5098 79.1967 43.5098Z" fill="#E6E5FF"/>
<path d="M79.3667 51.5098H93.6333C94.3864 51.5098 95 52.1574 95 52.9447V54.0748C95 54.8748 94.3864 55.5098 93.6333 55.5098H79.3667C78.6136 55.5098 78 54.8621 78 54.0748V52.9447C78 52.1447 78.6136 51.5098 79.3667 51.5098Z" fill="#E6E5FF"/>
</svg>
