<svg width="32" height="32" viewBox="0 0 32 32" fill="none" xmlns="http://www.w3.org/2000/svg">
<path fill-rule="evenodd" clip-rule="evenodd" d="M5.14358 6.66675C3.5844 9.01415 2.66699 11.8885 2.66699 14.9932C2.66699 22.9131 8.63653 29.3334 16.0003 29.3334C23.3641 29.3334 29.3337 22.9131 29.3337 14.9932C29.3337 11.8885 28.4163 9.01415 26.8571 6.66675H5.14358Z" fill="#F5F6FB"/>
<path fill-rule="evenodd" clip-rule="evenodd" d="M2.72863 14.6665C2.68785 15.0924 2.66699 15.5241 2.66699 15.9607C2.66699 23.3461 8.63653 29.3332 16.0003 29.3332C23.3641 29.3332 29.3337 23.3461 29.3337 15.9607C29.3337 15.5241 29.3128 15.0924 29.272 14.6665H2.72863Z" fill="#91919C"/>
<path fill-rule="evenodd" clip-rule="evenodd" d="M16.4796 10.8705C16.7445 10.5988 17.174 10.5988 17.4389 10.8705L22.6667 16.232L20.6318 18.319L22.4406 20.1741L17.9185 24.8118L19.6364 26.8125C19.9013 27.0842 19.9013 27.5247 19.6364 27.7963C19.3715 28.068 18.942 28.068 18.6771 27.7963L16 24.8118L20.522 20.1741L18.7132 18.319L20.7481 16.232L16.4796 11.8543C16.2147 11.5826 16.2147 11.1422 16.4796 10.8705Z" fill="#F5F6FB"/>
<rect x="6.66699" y="26.6667" width="18.6667" height="2.66667" rx="1.33333" fill="#DCDCE4"/>
<path fill-rule="evenodd" clip-rule="evenodd" d="M20.888 5.5385C21.1532 5.26486 21.5832 5.26482 21.8483 5.53846C21.9912 5.68586 22.2786 5.64023 22.472 5.60953C22.6376 5.58324 22.7342 5.5679 22.6119 5.69413L18.3388 10.1035L18.3983 10.0423L16.5876 11.9108L19.2582 14.6666H17.3376L14.667 11.9108L16.4376 10.0837L20.888 5.5385ZM16.4376 10.0837L16.4777 10.0423L16.4182 10.1035L16.4376 10.0837Z" fill="#91919C"/>
<rect x="4" y="4" width="24" height="2.66667" rx="1.33333" fill="#DCDCE4"/>
</svg>
