<svg width="32" height="32" viewBox="0 0 32 32" fill="none" xmlns="http://www.w3.org/2000/svg">
<mask id="mask0_29215_19527" style="mask-type:alpha" maskUnits="userSpaceOnUse" x="2" y="2" width="28" height="28">
<path d="M2.66992 4.00008C2.66992 3.2637 3.26688 2.66675 4.00326 2.66675H27.9969C28.7332 2.66675 29.3302 3.2637 29.3302 4.00008V28.0001C29.3302 28.7365 28.7332 29.3334 27.9969 29.3334H4.00326C3.26688 29.3334 2.66992 28.7365 2.66992 28.0001V4.00008Z" fill="#C4C4C4"/>
</mask>
<g mask="url(#mask0_29215_19527)">
<path d="M14.6472 14.5671L0.847656 0.963925L8.33891 -2.979L14.6472 14.5671Z" fill="#DCDCE4"/>
<path d="M16.7352 16L24.8922 -6.58366L33.2136 -0.196102L16.7352 16Z" fill="#DCDCE4"/>
<path d="M11.4123 15.4311L-4.86559 12.045L-1.29954 5.71678L11.4123 15.4311Z" fill="#DCDCE4"/>
<path d="M16.0878 20.0829L32.0804 24.6297L28.069 30.6853L16.0878 20.0829Z" fill="#DCDCE4"/>
<path d="M14.2338 18.4082L17.8373 34.6394L10.6027 33.9894L14.2338 18.4082Z" fill="#DCDCE4"/>
<path d="M15.6442 14.5672L11.4986 -4.36134L19.928 -3.57972L15.6442 14.5672Z" fill="#91919C"/>
<path d="M15.9013 18.2001L33.8706 10.9487L34.509 19.3902L15.9013 18.2001Z" fill="#91919C"/>
<path d="M12.8945 17.3554L-5.88687 22.1235L-5.38393 13.6729L12.8945 17.3554Z" fill="#91919C"/>
<path d="M13.2762 17.6028L4.15291 32.4829L-0.833276 26.7135L13.2762 17.6028Z" fill="#91919C"/>
</g>
</svg>
