<svg width="80" height="80" viewBox="0 0 80 80" fill="none" xmlns="http://www.w3.org/2000/svg">
<rect width="80" height="80" rx="40" fill="#F7F7FF"/>
<path d="M16 49H64V51.6667C64 54.6122 62.2091 57 60 57H20C17.7909 57 16 54.6122 16 51.6667V49Z" fill="#B1B0F5"/>
<path d="M34 49H46V51C46 52.1046 45.1046 53 44 53H36C34.8954 53 34 52.1046 34 51V49Z" fill="#8E8CEE"/>
<path d="M20 28.8077C20 26.1525 22.2386 24 25 24H55C57.7614 24 60 26.1525 60 28.8077V49H20V28.8077Z" fill="url(#paint0_linear_29215_23296)"/>
<path d="M23 29.75C23 28.2312 24.2685 27 25.8333 27H54.1667C55.7315 27 57 28.2312 57 29.75V49H23V29.75Z" fill="url(#paint1_linear_29215_23296)"/>
<path fill-rule="evenodd" clip-rule="evenodd" d="M45.6485 35.0485C46.1172 34.5799 46.1172 33.8201 45.6485 33.3515C45.1799 32.8828 44.4201 32.8828 43.9515 33.3515L40 37.3029L36.0485 33.3515C35.5799 32.8828 34.8201 32.8828 34.3515 33.3515C33.8828 33.8201 33.8828 34.5799 34.3515 35.0485L38.3029 39L34.3515 42.9515C33.8828 43.4201 33.8828 44.1799 34.3515 44.6485C34.8201 45.1172 35.5799 45.1172 36.0485 44.6485L40 40.6971L43.9515 44.6485C44.4201 45.1172 45.1799 45.1172 45.6485 44.6485C46.1172 44.1799 46.1172 43.4201 45.6485 42.9515L41.6971 39L45.6485 35.0485Z" fill="#8E8CEE"/>
<defs>
<linearGradient id="paint0_linear_29215_23296" x1="43.0337" y1="20.5258" x2="20.0167" y2="49.3865" gradientUnits="userSpaceOnUse">
<stop stop-color="#8F8DEF"/>
<stop offset="0.484375" stop-color="#8F8DEF"/>
<stop offset="0.484475" stop-color="#A3A2F6"/>
</linearGradient>
<linearGradient id="paint1_linear_29215_23296" x1="45.6667" y1="31.5833" x2="37.3977" y2="44.714" gradientUnits="userSpaceOnUse">
<stop stop-color="#D6D6FF"/>
<stop offset="0.578125" stop-color="#D5D5FF"/>
<stop offset="0.578225" stop-color="#E6E5FF"/>
</linearGradient>
</defs>
</svg>
