<svg width="152" height="152" viewBox="0 0 152 152" fill="none" xmlns="http://www.w3.org/2000/svg">
<rect width="152" height="152" rx="76" fill="#FAFAFF"/>
<path d="M107.853 45.5171H100.05C97.0126 37.1998 89.0574 31.2422 79.6887 31.2422C79.5952 31.2422 79.5018 31.2539 79.4083 31.2539H68.4977V34.3845C64.304 36.9311 61.0448 40.8445 59.3393 45.5171H54.5031C50.6365 45.5171 47.4941 48.6595 47.4941 52.5261V115.245H114.862V52.5261C114.862 48.6595 111.72 45.5171 107.853 45.5171Z" fill="#B1B0F5"/>
<path d="M94.4767 45.5171H88.9046C85.9608 37.1998 78.2509 31.2422 69.1626 31.2422C60.0743 31.2422 52.3528 37.1998 49.409 45.5171H44.1476C40.281 45.5171 37.1387 48.6595 37.1387 52.5261V115.245H101.486V52.5261C101.486 48.6595 98.3433 45.5171 94.4767 45.5171Z" fill="#E6E5FF"/>
<path d="M53 99.0078H86V109.523C86 114.208 81.3745 118.008 75.6723 118.008H63.3277C57.6255 118.008 53 114.208 53 109.523V99.0078Z" fill="#B1B0F5"/>
<path d="M70 64.0547H68V96.0547H70V64.0547Z" fill="#B1B0F5"/>
<path d="M73.3164 49.0547H64.6836C63.7522 49.0547 63 49.858 63 50.8525V57.368C63 60.7086 65.2925 63.705 68.409 64.0238C71.991 64.3935 75 61.3972 75 57.6485V50.8525C75 49.858 74.2478 49.0547 73.3164 49.0547Z" fill="#8E8CEE"/>
<path d="M64.3105 96.3453H62.4048V94.6084C62.4048 91.5085 61.1979 88.5865 59 86.4014L60.3467 85.0547C62.9003 87.6083 64.3105 91.0004 64.3105 94.6084V96.3453Z" fill="#B1B0F5"/>
<path d="M54.9107 75.5787L49.5241 80.9654C48.8253 81.6642 48.8253 82.7949 49.5241 83.4936L53.7546 87.7242C55.0505 89.02 56.9562 89.6299 58.7221 89.1217C63.4354 87.7496 64.3628 82.5027 61.4789 79.6188L57.4389 75.5787C56.7402 74.88 55.6095 74.88 54.9107 75.5787Z" fill="#8E8CEE"/>
<path d="M76.1531 96.0547H74V83.707C74 80.0617 75.5933 76.6346 78.4785 74.0547L80 75.4152C77.5167 77.6358 76.1531 80.5751 76.1531 83.707V96.0547Z" fill="#B1B0F5"/>
<path d="M68 74.9378C68 74.9378 59.6139 76.7557 59 66.0547C59 66.0547 67.9869 66.0547 68 74.9378Z" fill="#8E8CEE"/>
<path d="M84.1461 96.0078H54.8539C53.83 96.0078 53 96.8251 53 97.8332V101.168C53 102.176 53 101.995 53 101.995H86V101.168V97.8332C86 96.8251 85.17 96.0078 84.1461 96.0078Z" fill="white"/>
<path d="M76 90.9378C76 90.9378 84.3861 92.7557 85 82.0547C85 82.0547 76.0131 82.0547 76 90.9378Z" fill="#8E8CEE"/>
<path d="M84.6382 63.5697L89.9803 68.8635C90.6732 69.5502 90.6732 70.6614 89.9803 71.3481L85.7847 75.5057C84.4996 76.7792 82.6097 77.3785 80.8585 76.8791C76.1841 75.5307 75.2644 70.3742 78.1244 67.54L82.131 63.5697C82.8239 62.883 83.9453 62.883 84.6382 63.5697Z" fill="#8E8CEE"/>
</svg>
