<svg width="152" height="152" viewBox="0 0 152 152" fill="none" xmlns="http://www.w3.org/2000/svg">
<rect width="152" height="152" rx="76" fill="#FAFAFF"/>
<path d="M66.4214 87.1751L118.452 87.1858C119.258 87.1858 119.785 86.3261 119.398 85.606L102.224 56.3419C101.407 54.8159 99.8169 53.8594 98.0867 53.8594H53.525C51.0962 53.8594 50.6125 56.4494 51.7517 58.5988L66.4214 87.1751Z" fill="#8E8CEE"/>
<path d="M63.8253 87.9782H33.5506C32.7445 87.9782 32.2179 87.1184 32.6048 86.3984L48.5861 55.576C49.1449 54.5228 50.2411 53.8672 51.434 53.8672H83.1699L63.8253 87.9782Z" fill="#8E8CEE"/>
<path d="M67.9414 120.491H36.7751V87.2612L51.1118 57.6372C51.2924 57.2741 51.6535 57.0431 52.0571 57.0431H51.9614C52.3544 57.0431 52.7156 57.2631 52.8961 57.6262L67.9414 87.2722L67.9414 120.502V120.491Z" fill="#E6E5FF"/>
<rect x="67.9414" y="87.1719" width="47.2868" height="33.3157" fill="#B1B0F5"/>
<rect x="45.3711" y="88.2461" width="13.9711" height="16.1205" fill="#B1B0F5"/>
<rect x="85.1348" y="96.8438" width="13.9711" height="23.6434" fill="#8E8CEE"/>
<rect x="95.8828" y="96.8438" width="3.2241" height="23.6434" fill="#E6E5FF"/>
<rect x="51.2832" y="88.2461" width="2.1494" height="16.1205" fill="#E6E5FF"/>
<rect x="45.3711" y="97.3828" width="2.1494" height="13.9711" transform="rotate(-90 45.3711 97.3828)" fill="#E6E5FF"/>
<path d="M65.791 68.9102H101.092L105.555 75.3584H69.6774L65.791 68.9102Z" fill="#6160A2"/>
<path d="M101.784 50.7012C103.446 59.6895 97.3804 68.1807 88.2352 69.667C79.09 71.1532 70.3287 65.0716 68.6663 56.0833C67.0039 47.095 73.0699 38.6038 82.2152 37.1175C91.3604 35.6313 100.122 41.7129 101.784 50.7012Z" fill="#F7F7FF"/>
<path fill-rule="evenodd" clip-rule="evenodd" d="M87.7649 67.124C95.4812 65.87 100.599 58.7055 99.1968 51.1217C97.7941 43.5378 90.4018 38.4065 82.6855 39.6605C74.9692 40.9145 69.851 48.079 71.2536 55.6628C72.6562 63.2467 80.0486 68.3781 87.7649 67.124ZM88.2352 69.667C97.3804 68.1807 103.446 59.6895 101.784 50.7012C100.122 41.7129 91.3604 35.6313 82.2152 37.1175C73.0699 38.6038 67.0039 47.095 68.6663 56.0833C70.3287 65.0716 79.09 71.1532 88.2352 69.667Z" fill="#B1B0F5"/>
<path d="M77.5652 52.3262L79.0224 52.0894C79.039 51.1647 79.1701 50.3097 79.4157 49.5245C79.6676 48.7306 80.0192 48.0319 80.4704 47.4284C80.9293 46.8237 81.4785 46.3272 82.1181 45.939C82.7653 45.5495 83.4911 45.2894 84.2956 45.1587C85.3657 44.9848 86.3182 45.0413 87.153 45.3282C87.994 45.6064 88.7285 46.0479 89.3563 46.6528L88.4559 47.9977C88.3889 48.1008 88.3168 48.1971 88.2396 48.2864C88.1609 48.3684 88.0381 48.4229 87.8711 48.4501C87.7042 48.4772 87.5413 48.4422 87.3826 48.345C87.2315 48.2467 87.0518 48.1414 86.8435 48.0293C86.6337 47.9097 86.3774 47.813 86.0745 47.7393C85.7716 47.6656 85.3849 47.667 84.9144 47.7435C84.1023 47.8754 83.4627 48.2637 82.9956 48.9082C82.536 49.5514 82.2893 50.4367 82.2555 51.564L87.7541 50.6704L87.9258 51.5991C87.959 51.7781 87.911 51.9626 87.782 52.1526C87.6591 52.3339 87.4649 52.4461 87.1993 52.4893L82.3496 53.2775C82.3627 53.3906 82.3803 53.5068 82.4024 53.6262C82.4231 53.7381 82.4444 53.8537 82.4665 53.973L82.5534 54.443L87.1868 53.69L87.3586 54.6186C87.3917 54.7977 87.3437 54.9822 87.2147 55.1722C87.0919 55.3535 86.9015 55.4651 86.6434 55.507L83.0346 56.0935C83.4589 57.2463 84.0018 58.0685 84.6635 58.5603C85.3251 59.0521 86.062 59.232 86.8741 59.1C87.2156 59.0445 87.5016 58.9634 87.732 58.8568C87.9701 58.749 88.1674 58.6324 88.324 58.5071C88.4882 58.3805 88.6207 58.2514 88.7214 58.1198C88.8208 57.9807 88.9108 57.8547 88.9916 57.7417C89.0799 57.6274 89.1634 57.5293 89.242 57.4474C89.3283 57.3642 89.4321 57.3128 89.5535 57.293C89.6522 57.277 89.7347 57.279 89.8009 57.2989C89.8733 57.3102 89.9551 57.3507 90.0462 57.4204L91.6358 58.4068C91.2639 59.3124 90.7005 60.0494 89.9456 60.6177C89.1908 61.186 88.2708 61.5584 87.1855 61.7348C86.2899 61.8803 85.4585 61.8656 84.6913 61.6906C83.9303 61.5069 83.2383 61.1891 82.6153 60.7372C81.9923 60.2852 81.4441 59.7097 80.9708 59.0106C80.4976 58.3114 80.104 57.5149 79.7901 56.6208L78.4012 56.8465L78.0908 55.1682L79.3317 54.9665C79.3089 54.8857 79.2906 54.808 79.2768 54.7334C79.2631 54.6588 79.2486 54.5805 79.2334 54.4985C79.2113 54.3791 79.1899 54.2635 79.1692 54.1516C79.1561 54.0385 79.1423 53.9216 79.1279 53.801L77.8756 54.0046L77.5652 52.3262Z" fill="#8E8CEE"/>
<path d="M66.8006 43.7476L66.7478 43.7461L63.2904 43.4701C62.9988 43.4465 62.7285 43.3083 62.539 43.086C62.3494 42.8637 62.2563 42.5755 62.2799 42.2847C62.3035 41.9939 62.442 41.7244 62.6649 41.5355C62.8879 41.3465 63.177 41.2537 63.4686 41.2773L66.9171 41.553C67.2088 41.5796 67.4783 41.7191 67.6681 41.9416C67.8578 42.164 67.9525 42.4517 67.932 42.743C67.9081 43.0229 67.7775 43.2831 67.567 43.47C67.3566 43.6569 67.0823 43.7562 66.8006 43.7476Z" fill="#8E8CEE"/>
<path d="M69.1755 38.7859C69.0214 38.7809 68.8701 38.7442 68.7309 38.6782C68.5917 38.6121 68.4676 38.5181 68.3666 38.402L64.9557 34.3908C64.8416 34.286 64.751 34.1583 64.6899 34.0162C64.6287 33.8741 64.5983 33.7207 64.6007 33.566C64.6031 33.4114 64.6382 33.259 64.7037 33.1188C64.7692 32.9787 64.8637 32.8539 64.981 32.7526C65.0982 32.6514 65.2356 32.576 65.3841 32.5313C65.5326 32.4867 65.6889 32.4738 65.8427 32.4936C65.9966 32.5133 66.1445 32.5652 66.2769 32.6459C66.4092 32.7266 66.523 32.8342 66.6108 32.9617L70.0214 36.9817C70.1167 37.0904 70.1892 37.217 70.2347 37.3541C70.2801 37.4911 70.2976 37.6359 70.286 37.7798C70.2744 37.9237 70.2341 38.0638 70.1673 38.1919C70.1006 38.3199 70.0087 38.4334 69.8973 38.5255C69.6983 38.7001 69.4405 38.7932 69.1755 38.7859Z" fill="#8E8CEE"/>
<path d="M75.1262 37.172L75.0733 37.1704C74.9292 37.1595 74.7887 37.1202 74.6599 37.0548C74.5311 36.9894 74.4166 36.8992 74.3231 36.7893C74.2295 36.6795 74.1587 36.5523 74.1147 36.415C74.0708 36.2777 74.0546 36.1331 74.067 35.9896L74.3342 32.5509C74.363 32.261 74.5034 31.9936 74.726 31.8049C74.9486 31.6162 75.2359 31.521 75.5275 31.5392C75.8144 31.5679 76.0786 31.7075 76.2634 31.9282C76.4483 32.1489 76.539 32.433 76.5161 32.7196L76.2401 36.158C76.2186 36.4366 76.0915 36.6966 75.8845 36.8849C75.6776 37.0733 75.4064 37.1759 75.1262 37.172V37.172Z" fill="#8E8CEE"/>
</svg>
