<svg width="57" height="69" viewBox="0 0 57 69" fill="none" xmlns="http://www.w3.org/2000/svg">
<path fill-rule="evenodd" clip-rule="evenodd" d="M18.9708 1.10374C19.1586 0.914378 19.4142 0.807861 19.6809 0.807861H49.4293C51.2752 0.807861 53.0438 1.54742 54.3465 2.8611C55.6488 4.17449 56.379 5.95405 56.379 7.80786V61.8079C56.379 63.6617 55.6488 65.4412 54.3465 66.7546C53.0438 68.0683 51.2752 68.8079 49.4293 68.8079H7.78153C5.93563 68.8079 4.16705 68.0683 2.86439 66.7546C1.56202 65.4412 0.831848 63.6617 0.831848 61.8079V19.8079C0.831848 19.5441 0.936052 19.291 1.12177 19.1037L18.9708 1.10374ZM20.0976 2.80786L2.83185 20.2196V61.8079C2.83185 63.1367 3.35536 64.4093 4.28455 65.3464C5.21346 66.2831 6.47153 66.8079 7.78153 66.8079H49.4293C50.7393 66.8079 51.9974 66.2831 52.9263 65.3464C53.8555 64.4093 54.379 63.1366 54.379 61.8079V7.80786C54.379 6.47907 53.8555 5.20639 52.9263 4.26934C51.9974 3.33258 50.7393 2.80786 49.4293 2.80786H20.0976Z" fill="#8E8CEE"/>
<path d="M16.0771 61.808V53.21H18.8191C19.3471 53.21 19.8011 53.262 20.1811 53.366C20.5651 53.47 20.8791 53.618 21.1231 53.81C21.3711 54.002 21.5531 54.238 21.6691 54.518C21.7891 54.794 21.8491 55.106 21.8491 55.454C21.8491 55.666 21.8151 55.87 21.7471 56.066C21.6831 56.262 21.5831 56.444 21.4471 56.612C21.3151 56.78 21.1471 56.93 20.9431 57.062C20.7431 57.194 20.5071 57.302 20.2351 57.386C20.8631 57.51 21.3371 57.736 21.6571 58.064C21.9771 58.392 22.1371 58.824 22.1371 59.36C22.1371 59.724 22.0691 60.056 21.9331 60.356C21.8011 60.656 21.6051 60.914 21.3451 61.13C21.0891 61.346 20.7731 61.514 20.3971 61.634C20.0251 61.75 19.5991 61.808 19.1191 61.808H16.0771ZM17.2411 57.89V60.884H19.1011C19.4331 60.884 19.7171 60.846 19.9531 60.77C20.1931 60.694 20.3891 60.588 20.5411 60.452C20.6971 60.312 20.8111 60.148 20.8831 59.96C20.9551 59.768 20.9911 59.558 20.9911 59.33C20.9911 58.886 20.8331 58.536 20.5171 58.28C20.2051 58.02 19.7311 57.89 19.0951 57.89H17.2411ZM17.2411 57.062H18.7771C19.1051 57.062 19.3891 57.026 19.6291 56.954C19.8691 56.882 20.0671 56.782 20.2231 56.654C20.3831 56.526 20.5011 56.372 20.5771 56.192C20.6531 56.008 20.6911 55.808 20.6911 55.592C20.6911 55.088 20.5391 54.718 20.2351 54.482C19.9311 54.246 19.4591 54.128 18.8191 54.128H17.2411V57.062Z" fill="#8E8CEE"/>
<path d="M28.5767 58.7C28.6327 58.796 28.6807 58.898 28.7207 59.006C28.7647 59.11 28.8067 59.216 28.8467 59.324C28.8867 59.212 28.9287 59.106 28.9727 59.006C29.0167 58.902 29.0667 58.798 29.1227 58.694L32.0327 53.408C32.0847 53.316 32.1387 53.26 32.1947 53.24C32.2507 53.22 32.3307 53.21 32.4347 53.21H33.2927V61.808H32.2727V55.49C32.2727 55.406 32.2747 55.316 32.2787 55.22C32.2827 55.124 32.2887 55.026 32.2967 54.926L29.3507 60.302C29.2507 60.482 29.1107 60.572 28.9307 60.572H28.7627C28.5827 60.572 28.4427 60.482 28.3427 60.302L25.3307 54.908C25.3427 55.012 25.3507 55.114 25.3547 55.214C25.3627 55.314 25.3667 55.406 25.3667 55.49V61.808H24.3467V53.21H25.2047C25.3087 53.21 25.3887 53.22 25.4447 53.24C25.5007 53.26 25.5547 53.316 25.6067 53.408L28.5767 58.7Z" fill="#8E8CEE"/>
<path d="M37.1637 58.592V61.808H36.0057V53.21H38.5437C39.0877 53.21 39.5597 53.274 39.9597 53.402C40.3637 53.526 40.6977 53.704 40.9617 53.936C41.2257 54.168 41.4217 54.448 41.5497 54.776C41.6817 55.104 41.7477 55.47 41.7477 55.874C41.7477 56.274 41.6777 56.64 41.5377 56.972C41.3977 57.304 41.1917 57.59 40.9197 57.83C40.6517 58.07 40.3177 58.258 39.9177 58.394C39.5177 58.526 39.0597 58.592 38.5437 58.592H37.1637ZM37.1637 57.668H38.5437C38.8757 57.668 39.1677 57.624 39.4197 57.536C39.6757 57.448 39.8897 57.326 40.0617 57.17C40.2337 57.01 40.3637 56.82 40.4517 56.6C40.5397 56.38 40.5837 56.138 40.5837 55.874C40.5837 55.326 40.4137 54.898 40.0737 54.59C39.7377 54.282 39.2277 54.128 38.5437 54.128H37.1637V57.668Z" fill="#8E8CEE"/>
<path fill-rule="evenodd" clip-rule="evenodd" d="M41.7273 10.8079C39.1583 10.8079 37.0756 12.8905 37.0756 15.4596C37.0756 18.0286 39.1583 20.1112 41.7273 20.1112C44.2964 20.1112 46.379 18.0286 46.379 15.4596C46.379 12.8905 44.2964 10.8079 41.7273 10.8079ZM35.0756 15.4596C35.0756 11.7859 38.0537 8.80786 41.7273 8.80786C45.4009 8.80786 48.379 11.7859 48.379 15.4596C48.379 19.1332 45.4009 22.1112 41.7273 22.1112C38.0537 22.1112 35.0756 19.1332 35.0756 15.4596Z" fill="#8E8CEE"/>
<path fill-rule="evenodd" clip-rule="evenodd" d="M26.5021 35.6977C23.7684 32.964 19.3362 32.964 16.6026 35.6977L2.49942 49.8009L1.08521 48.3867L15.1884 34.2835C18.7031 30.7688 24.4016 30.7688 27.9163 34.2835L30.3057 36.6729L28.8915 38.0871L26.5021 35.6977Z" fill="#8E8CEE"/>
<path fill-rule="evenodd" clip-rule="evenodd" d="M43.6894 34.281C40.9557 31.5473 36.5235 31.5473 33.7899 34.2809L22.533 45.5377C22.1425 45.9282 21.5093 45.9282 21.1188 45.5377C20.7283 45.1472 20.7283 44.514 21.1188 44.1235L32.3757 32.8667C35.8904 29.352 41.5889 29.352 45.1036 32.8668L55.9224 43.6856C56.3129 44.0761 56.3129 44.7092 55.9224 45.0998C55.5318 45.4903 54.8987 45.4903 54.5082 45.0998L43.6894 34.281Z" fill="#8E8CEE"/>
<path fill-rule="evenodd" clip-rule="evenodd" d="M18.2658 14.2607V1.80786H20.2658V14.2607C20.2658 16.1558 19.5638 17.9861 18.2948 19.3458C17.0236 20.7078 15.2841 21.4871 13.4545 21.4871H1.83185V19.4871H13.4545C14.7074 19.4871 15.9242 18.9545 16.8327 17.9811C17.7433 17.0054 18.2658 15.6682 18.2658 14.2607Z" fill="#8E8CEE"/>
</svg>
