<svg width="57" height="69" viewBox="0 0 57 69" fill="none" xmlns="http://www.w3.org/2000/svg">
<path fill-rule="evenodd" clip-rule="evenodd" d="M18.698 1.10374C18.8858 0.914378 19.1414 0.807861 19.4081 0.807861H49.1565C51.0024 0.807861 52.771 1.54742 54.0736 2.8611C55.376 4.17449 56.1062 5.95405 56.1062 7.80786V61.8079C56.1062 63.6617 55.376 65.4412 54.0736 66.7546C52.771 68.0683 51.0024 68.8079 49.1565 68.8079H7.50871C5.6628 68.8079 3.89422 68.0683 2.59157 66.7546C1.28919 65.4412 0.559021 63.6617 0.559021 61.8079V19.8079C0.559021 19.5441 0.663225 19.291 0.848943 19.1037L18.698 1.10374ZM19.8248 2.80786L2.55902 20.2196V61.8079C2.55902 63.1367 3.08253 64.4093 4.01172 65.3464C4.94063 66.2831 6.1987 66.8079 7.50871 66.8079H49.1565C50.4665 66.8079 51.7246 66.2831 52.6535 65.3464C53.5827 64.4093 54.1062 63.1366 54.1062 61.8079V7.80786C54.1062 6.47907 53.5827 5.20639 52.6535 4.26934C51.7246 3.33258 50.4665 2.80786 49.1565 2.80786H19.8248Z" fill="#90DF9B"/>
<path d="M18.3345 57.4158C18.3345 58.0598 18.2325 58.6458 18.0285 59.1738C17.8245 59.7018 17.5365 60.1538 17.1645 60.5298C16.7925 60.9058 16.3465 61.1978 15.8265 61.4058C15.3065 61.6098 14.7305 61.7118 14.0985 61.7118H10.8825V53.1138H14.0985C14.7305 53.1138 15.3065 53.2178 15.8265 53.4258C16.3465 53.6298 16.7925 53.9218 17.1645 54.3018C17.5365 54.6778 17.8245 55.1298 18.0285 55.6578C18.2325 56.1858 18.3345 56.7718 18.3345 57.4158ZM17.1405 57.4158C17.1405 56.8878 17.0685 56.4158 16.9245 55.9998C16.7805 55.5838 16.5765 55.2318 16.3125 54.9438C16.0485 54.6558 15.7285 54.4358 15.3525 54.2838C14.9765 54.1318 14.5585 54.0558 14.0985 54.0558H12.0525V60.7698H14.0985C14.5585 60.7698 14.9765 60.6938 15.3525 60.5418C15.7285 60.3898 16.0485 60.1718 16.3125 59.8878C16.5765 59.5998 16.7805 59.2478 16.9245 58.8318C17.0685 58.4158 17.1405 57.9438 17.1405 57.4158Z" fill="#90DF9B"/>
<path d="M28.4037 57.4158C28.4037 58.0598 28.3017 58.6518 28.0977 59.1918C27.8937 59.7278 27.6057 60.1898 27.2337 60.5778C26.8617 60.9658 26.4137 61.2678 25.8897 61.4838C25.3697 61.6958 24.7937 61.8018 24.1617 61.8018C23.5297 61.8018 22.9537 61.6958 22.4337 61.4838C21.9137 61.2678 21.4677 60.9658 21.0957 60.5778C20.7237 60.1898 20.4357 59.7278 20.2317 59.1918C20.0277 58.6518 19.9257 58.0598 19.9257 57.4158C19.9257 56.7718 20.0277 56.1818 20.2317 55.6458C20.4357 55.1058 20.7237 54.6418 21.0957 54.2538C21.4677 53.8618 21.9137 53.5578 22.4337 53.3418C22.9537 53.1258 23.5297 53.0178 24.1617 53.0178C24.7937 53.0178 25.3697 53.1258 25.8897 53.3418C26.4137 53.5578 26.8617 53.8618 27.2337 54.2538C27.6057 54.6418 27.8937 55.1058 28.0977 55.6458C28.3017 56.1818 28.4037 56.7718 28.4037 57.4158ZM27.2097 57.4158C27.2097 56.8878 27.1377 56.4138 26.9937 55.9938C26.8497 55.5738 26.6457 55.2198 26.3817 54.9318C26.1177 54.6398 25.7977 54.4158 25.4217 54.2598C25.0457 54.1038 24.6257 54.0258 24.1617 54.0258C23.7017 54.0258 23.2837 54.1038 22.9077 54.2598C22.5317 54.4158 22.2097 54.6398 21.9417 54.9318C21.6777 55.2198 21.4737 55.5738 21.3297 55.9938C21.1857 56.4138 21.1137 56.8878 21.1137 57.4158C21.1137 57.9438 21.1857 58.4178 21.3297 58.8378C21.4737 59.2538 21.6777 59.6078 21.9417 59.8998C22.2097 60.1878 22.5317 60.4098 22.9077 60.5658C23.2837 60.7178 23.7017 60.7938 24.1617 60.7938C24.6257 60.7938 25.0457 60.7178 25.4217 60.5658C25.7977 60.4098 26.1177 60.1878 26.3817 59.8998C26.6457 59.6078 26.8497 59.2538 26.9937 58.8378C27.1377 58.4178 27.2097 57.9438 27.2097 57.4158Z" fill="#90DF9B"/>
<path d="M36.5519 59.9358C36.6159 59.9358 36.6739 59.9618 36.7259 60.0138L37.1819 60.5118C36.8299 60.9198 36.4019 61.2378 35.8979 61.4658C35.3979 61.6938 34.7939 61.8078 34.0859 61.8078C33.4659 61.8078 32.9039 61.7018 32.3999 61.4898C31.8959 61.2738 31.4659 60.9738 31.1099 60.5898C30.7539 60.2018 30.4779 59.7378 30.2819 59.1978C30.0859 58.6578 29.9879 58.0638 29.9879 57.4158C29.9879 56.7678 30.0919 56.1738 30.2999 55.6338C30.5119 55.0938 30.8079 54.6298 31.1879 54.2418C31.5679 53.8538 32.0219 53.5538 32.5499 53.3418C33.0819 53.1258 33.6679 53.0178 34.3079 53.0178C34.9399 53.0178 35.4839 53.1158 35.9399 53.3118C36.3999 53.5078 36.8079 53.7738 37.1639 54.1098L36.7859 54.6438C36.7579 54.6838 36.7259 54.7178 36.6899 54.7458C36.6539 54.7698 36.6019 54.7818 36.5339 54.7818C36.4819 54.7818 36.4259 54.7638 36.3659 54.7278C36.3099 54.6878 36.2419 54.6398 36.1619 54.5838C36.0819 54.5278 35.9879 54.4678 35.8799 54.4038C35.7719 54.3398 35.6439 54.2798 35.4959 54.2238C35.3479 54.1678 35.1759 54.1218 34.9799 54.0858C34.7839 54.0458 34.5579 54.0258 34.3019 54.0258C33.8419 54.0258 33.4199 54.1058 33.0359 54.2658C32.6559 54.4218 32.3279 54.6458 32.0519 54.9378C31.7759 55.2298 31.5599 55.5858 31.4039 56.0058C31.2519 56.4258 31.1759 56.8958 31.1759 57.4158C31.1759 57.9518 31.2519 58.4298 31.4039 58.8498C31.5599 59.2698 31.7699 59.6258 32.0339 59.9178C32.3019 60.2058 32.6179 60.4258 32.9819 60.5778C33.3459 60.7298 33.7379 60.8058 34.1579 60.8058C34.4139 60.8058 34.6439 60.7918 34.8479 60.7638C35.0519 60.7318 35.2399 60.6838 35.4119 60.6198C35.5879 60.5558 35.7499 60.4758 35.8979 60.3798C36.0499 60.2798 36.2019 60.1618 36.3539 60.0258C36.4219 59.9658 36.4879 59.9358 36.5519 59.9358Z" fill="#90DF9B"/>
<path d="M41.2047 57.2958L38.3667 53.1138H39.5247C39.6087 53.1138 39.6707 53.1278 39.7107 53.1558C39.7507 53.1838 39.7867 53.2238 39.8187 53.2758L42.0627 56.7198C42.0907 56.6358 42.1327 56.5438 42.1887 56.4438L44.3067 53.2998C44.3427 53.2438 44.3807 53.1998 44.4207 53.1678C44.4647 53.1318 44.5167 53.1138 44.5767 53.1138H45.6867L42.8367 57.2418L45.7827 61.7118H44.6307C44.5427 61.7118 44.4727 61.6898 44.4207 61.6458C44.3727 61.5978 44.3327 61.5458 44.3007 61.4898L41.9967 57.8838C41.9687 57.9678 41.9327 58.0478 41.8887 58.1238L39.6447 61.4898C39.6087 61.5458 39.5667 61.5978 39.5187 61.6458C39.4747 61.6898 39.4107 61.7118 39.3267 61.7118H38.2467L41.2047 57.2958Z" fill="#90DF9B"/>
<path d="M16.058 27.137C16.058 26.5847 16.5058 26.137 17.058 26.137H39.3106C39.8629 26.137 40.3106 26.5847 40.3106 27.137C40.3106 27.6892 39.8629 28.137 39.3106 28.137H17.058C16.5058 28.137 16.058 27.6892 16.058 27.137Z" fill="#90DF9B"/>
<path d="M16.058 32.137C16.058 31.5847 16.5058 31.137 17.058 31.137H30.3106C30.8629 31.137 31.3106 31.5847 31.3106 32.137C31.3106 32.6892 30.8629 33.137 30.3106 33.137H17.058C16.5058 33.137 16.058 32.6892 16.058 32.137Z" fill="#90DF9B"/>
<path d="M16.058 37.137C16.058 36.5847 16.5058 36.137 17.058 36.137H39.3106C39.8629 36.137 40.3106 36.5847 40.3106 37.137C40.3106 37.6892 39.8629 38.137 39.3106 38.137H17.058C16.5058 38.137 16.058 37.6892 16.058 37.137Z" fill="#90DF9B"/>
<path d="M16.058 42.137C16.058 41.5847 16.5058 41.137 17.058 41.137H30.3106C30.8629 41.137 31.3106 41.5847 31.3106 42.137C31.3106 42.6892 30.8629 43.137 30.3106 43.137H17.058C16.5058 43.137 16.058 42.6892 16.058 42.137Z" fill="#90DF9B"/>
<path fill-rule="evenodd" clip-rule="evenodd" d="M17.993 14.2607V1.80786H19.993V14.2607C19.993 16.1558 19.291 17.9861 18.0219 19.3458C16.7507 20.7078 15.0113 21.4871 13.1817 21.4871H1.55902V19.4871H13.1817C14.4346 19.4871 15.6514 18.9545 16.5598 17.9811C17.4705 17.0054 17.993 15.6682 17.993 14.2607Z" fill="#90DF9B"/>
</svg>
