<svg width="18" height="22" viewBox="0 0 18 22" fill="none" xmlns="http://www.w3.org/2000/svg">
<path d="M14.8272 21H2.72839C2.27 21 1.83037 20.8084 1.50624 20.4675C1.1821 20.1265 1 19.664 1 19.1818V6.45455L6.18518 1H14.8272C15.2856 1 15.7252 1.19156 16.0493 1.53253C16.3735 1.87351 16.5556 2.33597 16.5556 2.81818V19.1818C16.5556 19.664 16.3735 20.1265 16.0493 20.4675C15.7252 20.8084 15.2856 21 14.8272 21Z" stroke="#E55454" stroke-width="2" stroke-linejoin="round"/>
<path d="M6.0646 1V4.77358C6.0646 5.27399 5.88674 5.75391 5.57014 6.10775C5.25354 6.46159 4.82414 6.66038 4.3764 6.66038H1" stroke="#E55454" stroke-width="2" stroke-linejoin="round"/>
</svg>
