<svg width="57" height="69" viewBox="0 0 57 69" fill="none" xmlns="http://www.w3.org/2000/svg">
<path fill-rule="evenodd" clip-rule="evenodd" d="M18.8104 1.10374C18.9981 0.914378 19.2538 0.807861 19.5204 0.807861H49.2689C51.1148 0.807861 52.8834 1.54742 54.186 2.8611C55.4884 4.17449 56.2186 5.95405 56.2186 7.80786V61.8079C56.2186 63.6617 55.4884 65.4412 54.186 66.7546C52.8834 68.0683 51.1148 68.8079 49.2689 68.8079H7.62107C5.77517 68.8079 4.00659 68.0683 2.70393 66.7546C1.40156 65.4412 0.671387 63.6617 0.671387 61.8079V19.8079C0.671387 19.5441 0.775591 19.291 0.961309 19.1037L18.8104 1.10374ZM19.9371 2.80786L2.67139 20.2196V61.8079C2.67139 63.1367 3.1949 64.4093 4.12409 65.3464C5.05299 66.2831 6.31106 66.8079 7.62107 66.8079H49.2689C50.5789 66.8079 51.8369 66.2831 52.7659 65.3464C53.695 64.4093 54.2186 63.1366 54.2186 61.8079V7.80786C54.2186 6.47907 53.695 5.20639 52.7659 4.26934C51.8369 3.33258 50.5789 2.80786 49.2689 2.80786H19.9371Z" fill="#E55454"/>
<path fill-rule="evenodd" clip-rule="evenodd" d="M28.4449 31.8079C23.4744 31.8079 19.4449 35.8373 19.4449 40.8079C19.4449 45.7784 23.4744 49.8079 28.4449 49.8079C33.4155 49.8079 37.4449 45.7784 37.4449 40.8079C37.4449 35.8373 33.4155 31.8079 28.4449 31.8079ZM17.4449 40.8079C17.4449 34.7327 22.3698 29.8079 28.4449 29.8079C34.5201 29.8079 39.4449 34.7327 39.4449 40.8079C39.4449 46.883 34.5201 51.8079 28.4449 51.8079C22.3698 51.8079 17.4449 46.883 17.4449 40.8079Z" fill="#E55454"/>
<path fill-rule="evenodd" clip-rule="evenodd" d="M32.1521 37.1008C32.5426 37.4913 32.5426 38.1244 32.1521 38.515L26.1521 44.515C25.7615 44.9055 25.1284 44.9055 24.7378 44.515C24.3473 44.1244 24.3473 43.4913 24.7378 43.1008L30.7378 37.1008C31.1284 36.7102 31.7615 36.7102 32.1521 37.1008Z" fill="#E55454"/>
<path fill-rule="evenodd" clip-rule="evenodd" d="M24.7378 37.1008C25.1284 36.7102 25.7615 36.7102 26.1521 37.1008L32.1521 43.1008C32.5426 43.4913 32.5426 44.1244 32.1521 44.515C31.7615 44.9055 31.1284 44.9055 30.7378 44.515L24.7378 38.515C24.3473 38.1244 24.3473 37.4913 24.7378 37.1008Z" fill="#E55454"/>
<path fill-rule="evenodd" clip-rule="evenodd" d="M18.1053 14.2607V1.80786H20.1053V14.2607C20.1053 16.1558 19.4033 17.9861 18.1343 19.3458C16.8631 20.7078 15.1236 21.4871 13.294 21.4871H1.67139V19.4871H13.294C14.5469 19.4871 15.7637 18.9545 16.6722 17.9811C17.5828 17.0054 18.1053 15.6682 18.1053 14.2607Z" fill="#E55454"/>
</svg>
