<svg width="57" height="69" viewBox="0 0 57 69" fill="none" xmlns="http://www.w3.org/2000/svg">
<path d="M49.4951 67.2263H7.84733C6.26937 67.2263 4.75605 66.5942 3.64027 65.469C2.52448 64.3437 1.89764 62.8176 1.89764 61.2263V19.2263L19.7467 1.22632H49.4951C51.0731 1.22632 52.5864 1.85846 53.7022 2.98368C54.818 4.1089 55.4448 5.63502 55.4448 7.22632V61.2263C55.4448 62.8176 54.818 64.3437 53.7022 65.469C52.5864 66.5942 51.0731 67.2263 49.4951 67.2263Z" stroke="#8E8CEE" stroke-width="2" stroke-linejoin="round"/>
<path d="M21.9685 61.1303H20.7985V57.2183H16.1665V61.1303H14.9965V52.5323H16.1665V56.3663H20.7985V52.5323H21.9685V61.1303Z" fill="#8E8CEE"/>
<path d="M29.8648 52.5323V53.4803H25.7368V56.3363H29.0788V57.2483H25.7368V60.1823H29.8648V61.1303H24.5668V52.5323H29.8648Z" fill="#8E8CEE"/>
<path d="M33.4194 61.1303H32.2554V52.5323H33.4194V61.1303Z" fill="#8E8CEE"/>
<path d="M42.2791 59.3543C42.3431 59.3543 42.4011 59.3803 42.4531 59.4323L42.9091 59.9303C42.5571 60.3383 42.1291 60.6563 41.6251 60.8843C41.1251 61.1123 40.5211 61.2263 39.8131 61.2263C39.1931 61.2263 38.6311 61.1203 38.1271 60.9083C37.6231 60.6923 37.1931 60.3923 36.8371 60.0083C36.4811 59.6203 36.2051 59.1563 36.0091 58.6163C35.8131 58.0763 35.7151 57.4823 35.7151 56.8343C35.7151 56.1863 35.8191 55.5923 36.0271 55.0523C36.2391 54.5123 36.5351 54.0483 36.9151 53.6603C37.2951 53.2723 37.7491 52.9723 38.2771 52.7603C38.8091 52.5443 39.3951 52.4363 40.0351 52.4363C40.6671 52.4363 41.2111 52.5343 41.6671 52.7303C42.1271 52.9263 42.5351 53.1923 42.8911 53.5283L42.5131 54.0623C42.4851 54.1023 42.4531 54.1363 42.4171 54.1643C42.3811 54.1883 42.3291 54.2003 42.2611 54.2003C42.2091 54.2003 42.1531 54.1823 42.0931 54.1463C42.0371 54.1063 41.9691 54.0583 41.8891 54.0023C41.8091 53.9463 41.7151 53.8863 41.6071 53.8223C41.4991 53.7583 41.3711 53.6983 41.2231 53.6423C41.0751 53.5863 40.9031 53.5403 40.7071 53.5043C40.5111 53.4643 40.2851 53.4443 40.0291 53.4443C39.5691 53.4443 39.1471 53.5243 38.7631 53.6843C38.3831 53.8403 38.0551 54.0643 37.7791 54.3563C37.5031 54.6483 37.2871 55.0043 37.1311 55.4243C36.9791 55.8443 36.9031 56.3143 36.9031 56.8343C36.9031 57.3703 36.9791 57.8483 37.1311 58.2683C37.2871 58.6883 37.4971 59.0443 37.7611 59.3363C38.0291 59.6243 38.3451 59.8443 38.7091 59.9963C39.0731 60.1483 39.4651 60.2243 39.8851 60.2243C40.1411 60.2243 40.3711 60.2103 40.5751 60.1823C40.7791 60.1503 40.9671 60.1023 41.1391 60.0383C41.3151 59.9743 41.4771 59.8943 41.6251 59.7983C41.7771 59.6983 41.9291 59.5803 42.0811 59.4443C42.1491 59.3843 42.2151 59.3543 42.2791 59.3543Z" fill="#8E8CEE"/>
<circle cx="41.7931" cy="14.878" r="5.65169" stroke="#8E8CEE" stroke-width="2" stroke-linecap="round"/>
<path d="M1.85809 48.5122L15.9613 34.409C19.0854 31.2849 24.1508 31.2849 27.275 34.4091L29.6643 36.7984" stroke="#8E8CEE" stroke-width="2"/>
<path d="M21.8917 44.249L33.1486 32.9923C36.2728 29.8681 41.3381 29.8681 44.4623 32.9923L55.2811 43.8111" stroke="#8E8CEE" stroke-width="2" stroke-linecap="round"/>
<path d="M19.3316 1.22632V13.6791C19.3316 15.3305 18.7193 16.9142 17.6295 18.0819C16.5397 19.2496 15.0615 19.9056 13.5203 19.9056H1.89764" stroke="#8E8CEE" stroke-width="2" stroke-linejoin="round"/>
</svg>
