<svg width="57" height="69" viewBox="0 0 57 69" fill="none" xmlns="http://www.w3.org/2000/svg">
<path fill-rule="evenodd" clip-rule="evenodd" d="M19.0294 1.10374C19.2171 0.914378 19.4728 0.807861 19.7394 0.807861H49.4879C51.3338 0.807861 53.1023 1.54742 54.405 2.8611C55.7074 4.17449 56.4375 5.95405 56.4375 7.80786V61.8079C56.4375 63.6617 55.7074 65.4412 54.405 66.7546C53.1023 68.0683 51.3338 68.8079 49.4879 68.8079H7.84007C5.99416 68.8079 4.22558 68.0683 2.92293 66.7546C1.62055 65.4412 0.890381 63.6617 0.890381 61.8079V19.8079C0.890381 19.5441 0.994585 19.291 1.1803 19.1037L19.0294 1.10374ZM20.1561 2.80786L2.89038 20.2196V61.8079C2.89038 63.1367 3.41389 64.4093 4.34308 65.3464C5.27199 66.2831 6.53006 66.8079 7.84007 66.8079H49.4879C50.7979 66.8079 52.0559 66.2831 52.9848 65.3464C53.914 64.4093 54.4375 63.1366 54.4375 61.8079V7.80786C54.4375 6.47907 53.914 5.20639 52.9848 4.26934C52.0559 3.33258 50.7979 2.80786 49.4879 2.80786H20.1561Z" fill="#8E8CEE"/>
<path d="M18.1596 58.7418C18.1596 59.2218 18.0996 59.6518 17.9796 60.0318C17.8636 60.4118 17.6896 60.7338 17.4576 60.9978C17.2296 61.2578 16.9476 61.4578 16.6116 61.5978C16.2756 61.7378 15.8896 61.8078 15.4536 61.8078C15.0656 61.8078 14.6616 61.7518 14.2416 61.6398C14.2496 61.5238 14.2596 61.4098 14.2716 61.2978C14.2836 61.1818 14.2956 61.0678 14.3076 60.9558C14.3156 60.8878 14.3396 60.8338 14.3796 60.7938C14.4236 60.7498 14.4876 60.7278 14.5716 60.7278C14.6436 60.7278 14.7396 60.7458 14.8596 60.7818C14.9796 60.8178 15.1396 60.8358 15.3396 60.8358C15.6036 60.8358 15.8376 60.7958 16.0416 60.7158C16.2496 60.6358 16.4236 60.5118 16.5636 60.3438C16.7076 60.1758 16.8156 59.9618 16.8876 59.7018C16.9636 59.4378 17.0016 59.1258 17.0016 58.7658V53.1138H18.1596V58.7418Z" fill="#8E8CEE"/>
<path d="M22.0357 58.4958V61.7118H20.8777V53.1138H23.4157C23.9597 53.1138 24.4317 53.1778 24.8317 53.3058C25.2357 53.4298 25.5697 53.6078 25.8337 53.8398C26.0977 54.0718 26.2937 54.3518 26.4217 54.6798C26.5537 55.0078 26.6197 55.3738 26.6197 55.7778C26.6197 56.1778 26.5497 56.5438 26.4097 56.8758C26.2697 57.2078 26.0637 57.4938 25.7917 57.7338C25.5237 57.9738 25.1897 58.1618 24.7897 58.2978C24.3897 58.4298 23.9317 58.4958 23.4157 58.4958H22.0357ZM22.0357 57.5718H23.4157C23.7477 57.5718 24.0397 57.5278 24.2917 57.4398C24.5477 57.3518 24.7617 57.2298 24.9337 57.0738C25.1057 56.9138 25.2357 56.7238 25.3237 56.5038C25.4117 56.2838 25.4557 56.0418 25.4557 55.7778C25.4557 55.2298 25.2857 54.8018 24.9457 54.4938C24.6097 54.1858 24.0997 54.0318 23.4157 54.0318H22.0357V57.5718Z" fill="#8E8CEE"/>
<path d="M33.8916 53.1138V54.0618H29.7636V56.9178H33.1056V57.8298H29.7636V60.7638H33.8916V61.7118H28.5936V53.1138H33.8916Z" fill="#8E8CEE"/>
<path d="M39.9003 60.8658C40.1323 60.8658 40.3443 60.8558 40.5363 60.8358C40.7323 60.8118 40.9163 60.7778 41.0883 60.7338C41.2603 60.6898 41.4223 60.6378 41.5743 60.5778C41.7263 60.5138 41.8783 60.4418 42.0303 60.3618V58.4658H40.6983C40.6223 58.4658 40.5603 58.4438 40.5123 58.3998C40.4683 58.3558 40.4463 58.3018 40.4463 58.2378V57.5778H43.0863V60.8778C42.8703 61.0338 42.6443 61.1698 42.4083 61.2858C42.1763 61.4018 41.9263 61.4998 41.6583 61.5798C41.3943 61.6558 41.1103 61.7118 40.8063 61.7478C40.5023 61.7878 40.1723 61.8078 39.8163 61.8078C39.1923 61.8078 38.6203 61.7018 38.1003 61.4898C37.5803 61.2738 37.1323 60.9738 36.7563 60.5898C36.3803 60.2018 36.0863 59.7378 35.8743 59.1978C35.6663 58.6578 35.5623 58.0638 35.5623 57.4158C35.5623 56.7598 35.6643 56.1618 35.8683 55.6218C36.0763 55.0818 36.3703 54.6198 36.7503 54.2358C37.1343 53.8478 37.5963 53.5478 38.1363 53.3358C38.6803 53.1238 39.2883 53.0178 39.9603 53.0178C40.3003 53.0178 40.6163 53.0438 40.9083 53.0958C41.2003 53.1438 41.4703 53.2158 41.7183 53.3118C41.9703 53.4038 42.2023 53.5178 42.4143 53.6538C42.6263 53.7858 42.8243 53.9358 43.0083 54.1038L42.6783 54.6318C42.6103 54.7398 42.5223 54.7938 42.4143 54.7938C42.3503 54.7938 42.2803 54.7718 42.2043 54.7278C42.1043 54.6718 41.9923 54.6038 41.8683 54.5238C41.7443 54.4438 41.5923 54.3678 41.4123 54.2958C41.2363 54.2198 41.0263 54.1558 40.7823 54.1038C40.5423 54.0518 40.2563 54.0258 39.9243 54.0258C39.4403 54.0258 39.0023 54.1058 38.6103 54.2658C38.2183 54.4218 37.8843 54.6478 37.6083 54.9438C37.3323 55.2358 37.1203 55.5918 36.9723 56.0118C36.8243 56.4278 36.7503 56.8958 36.7503 57.4158C36.7503 57.9598 36.8263 58.4458 36.9783 58.8738C37.1343 59.2978 37.3523 59.6578 37.6323 59.9538C37.9123 60.2498 38.2443 60.4758 38.6283 60.6318C39.0123 60.7878 39.4363 60.8658 39.9003 60.8658Z" fill="#8E8CEE"/>
<path fill-rule="evenodd" clip-rule="evenodd" d="M26.5606 35.6977C23.8269 32.964 19.3948 32.964 16.6611 35.6977L2.55795 49.8009L1.14374 48.3867L15.2469 34.2835C18.7616 30.7688 24.4601 30.7688 27.9748 34.2835L30.3642 36.6729L28.95 38.0871L26.5606 35.6977Z" fill="#8E8CEE"/>
<path fill-rule="evenodd" clip-rule="evenodd" d="M43.7479 34.281C41.0142 31.5473 36.5821 31.5473 33.8484 34.2809L22.5916 45.5377C22.201 45.9282 21.5679 45.9282 21.1774 45.5377C20.7868 45.1472 20.7868 44.514 21.1774 44.1235L32.4342 32.8667C35.9489 29.352 41.6474 29.352 45.1621 32.8668L55.9809 43.6856C56.3714 44.0761 56.3714 44.7092 55.9809 45.0998C55.5904 45.4903 54.9572 45.4903 54.5667 45.0998L43.7479 34.281Z" fill="#8E8CEE"/>
<path fill-rule="evenodd" clip-rule="evenodd" d="M18.3243 14.2607V1.80786H20.3243V14.2607C20.3243 16.1558 19.6223 17.9861 18.3533 19.3458C17.0821 20.7078 15.3426 21.4871 13.513 21.4871H1.89038V19.4871H13.513C14.7659 19.4871 15.9827 18.9545 16.8912 17.9811C17.8018 17.0054 18.3243 15.6682 18.3243 14.2607Z" fill="#8E8CEE"/>
<path fill-rule="evenodd" clip-rule="evenodd" d="M41.7858 10.8079C39.2168 10.8079 37.1342 12.8905 37.1342 15.4596C37.1342 18.0286 39.2168 20.1112 41.7858 20.1112C44.3549 20.1112 46.4375 18.0286 46.4375 15.4596C46.4375 12.8905 44.3549 10.8079 41.7858 10.8079ZM35.1342 15.4596C35.1342 11.7859 38.1122 8.80786 41.7858 8.80786C45.4595 8.80786 48.4375 11.7859 48.4375 15.4596C48.4375 19.1332 45.4595 22.1112 41.7858 22.1112C38.1122 22.1112 35.1342 19.1332 35.1342 15.4596Z" fill="#8E8CEE"/>
</svg>
