<svg width="57" height="69" viewBox="0 0 57 69" fill="none" xmlns="http://www.w3.org/2000/svg">
<path fill-rule="evenodd" clip-rule="evenodd" d="M19.01 1.10374C19.1977 0.914378 19.4534 0.807861 19.72 0.807861H49.4685C51.3144 0.807861 53.0829 1.54742 54.3856 2.8611C55.688 4.17449 56.4181 5.95405 56.4181 7.80786V61.8079C56.4181 63.6617 55.688 65.4412 54.3856 66.7546C53.0829 68.0683 51.3144 68.8079 49.4685 68.8079H7.82066C5.97476 68.8079 4.20617 68.0683 2.90352 66.7546C1.60114 65.4412 0.870972 63.6617 0.870972 61.8079V19.8079C0.870972 19.5441 0.975176 19.291 1.16089 19.1037L19.01 1.10374ZM20.1367 2.80786L2.87097 20.2196V61.8079C2.87097 63.1367 3.39448 64.4093 4.32367 65.3464C5.25258 66.2831 6.51065 66.8079 7.82066 66.8079H49.4685C50.7785 66.8079 52.0365 66.2831 52.9654 65.3464C53.8946 64.4093 54.4181 63.1366 54.4181 61.8079V7.80786C54.4181 6.47907 53.8946 5.20639 52.9654 4.26934C52.0365 3.33258 50.7785 2.80786 49.4685 2.80786H20.1367Z" fill="#90DF9B"/>
<path fill-rule="evenodd" clip-rule="evenodd" d="M41.7664 10.8079C39.1974 10.8079 37.1147 12.8905 37.1147 15.4596C37.1147 18.0286 39.1974 20.1112 41.7664 20.1112C44.3355 20.1112 46.4181 18.0286 46.4181 15.4596C46.4181 12.8905 44.3355 10.8079 41.7664 10.8079ZM35.1147 15.4596C35.1147 11.7859 38.0928 8.80786 41.7664 8.80786C45.4401 8.80786 48.4181 11.7859 48.4181 15.4596C48.4181 19.1332 45.4401 22.1112 41.7664 22.1112C38.0928 22.1112 35.1147 19.1332 35.1147 15.4596Z" fill="#90DF9B"/>
<path d="M17.7522 58.4958V61.7118H16.5942V53.1138H19.1322C19.6762 53.1138 20.1482 53.1778 20.5482 53.3058C20.9522 53.4298 21.2862 53.6078 21.5502 53.8398C21.8142 54.0718 22.0102 54.3518 22.1382 54.6798C22.2702 55.0078 22.3362 55.3738 22.3362 55.7778C22.3362 56.1778 22.2662 56.5438 22.1262 56.8758C21.9862 57.2078 21.7802 57.4938 21.5082 57.7338C21.2402 57.9738 20.9062 58.1618 20.5062 58.2978C20.1062 58.4298 19.6482 58.4958 19.1322 58.4958H17.7522ZM17.7522 57.5718H19.1322C19.4642 57.5718 19.7562 57.5278 20.0082 57.4398C20.2642 57.3518 20.4782 57.2298 20.6502 57.0738C20.8222 56.9138 20.9522 56.7238 21.0402 56.5038C21.1282 56.2838 21.1722 56.0418 21.1722 55.7778C21.1722 55.2298 21.0022 54.8018 20.6622 54.4938C20.3262 54.1858 19.8162 54.0318 19.1322 54.0318H17.7522V57.5718Z" fill="#90DF9B"/>
<path d="M24.9101 53.1138C25.0141 53.1138 25.0901 53.1278 25.1381 53.1558C25.1901 53.1798 25.2481 53.2318 25.3121 53.3118L30.2921 59.7918C30.2801 59.6878 30.2721 59.5878 30.2681 59.4918C30.2641 59.3918 30.2621 59.2958 30.2621 59.2038V53.1138H31.2821V61.7118H30.6941C30.6021 61.7118 30.5241 61.6958 30.4601 61.6638C30.4001 61.6318 30.3401 61.5778 30.2801 61.5018L25.3061 55.0278C25.3141 55.1278 25.3201 55.2258 25.3241 55.3218C25.3281 55.4178 25.3301 55.5058 25.3301 55.5858V61.7118H24.3101V53.1138H24.9101Z" fill="#90DF9B"/>
<path d="M37.7144 60.8658C37.9464 60.8658 38.1584 60.8558 38.3504 60.8358C38.5464 60.8118 38.7304 60.7778 38.9024 60.7338C39.0744 60.6898 39.2364 60.6378 39.3884 60.5778C39.5404 60.5138 39.6924 60.4418 39.8444 60.3618V58.4658H38.5124C38.4364 58.4658 38.3744 58.4438 38.3264 58.3998C38.2824 58.3558 38.2604 58.3018 38.2604 58.2378V57.5778H40.9004V60.8778C40.6844 61.0338 40.4584 61.1698 40.2224 61.2858C39.9904 61.4018 39.7404 61.4998 39.4724 61.5798C39.2084 61.6558 38.9244 61.7118 38.6204 61.7478C38.3164 61.7878 37.9864 61.8078 37.6304 61.8078C37.0064 61.8078 36.4344 61.7018 35.9144 61.4898C35.3944 61.2738 34.9464 60.9738 34.5704 60.5898C34.1944 60.2018 33.9004 59.7378 33.6884 59.1978C33.4804 58.6578 33.3764 58.0638 33.3764 57.4158C33.3764 56.7598 33.4784 56.1618 33.6824 55.6218C33.8904 55.0818 34.1844 54.6198 34.5644 54.2358C34.9484 53.8478 35.4104 53.5478 35.9504 53.3358C36.4944 53.1238 37.1024 53.0178 37.7744 53.0178C38.1144 53.0178 38.4304 53.0438 38.7224 53.0958C39.0144 53.1438 39.2844 53.2158 39.5324 53.3118C39.7844 53.4038 40.0164 53.5178 40.2284 53.6538C40.4404 53.7858 40.6384 53.9358 40.8224 54.1038L40.4924 54.6318C40.4244 54.7398 40.3364 54.7938 40.2284 54.7938C40.1644 54.7938 40.0944 54.7718 40.0184 54.7278C39.9184 54.6718 39.8064 54.6038 39.6824 54.5238C39.5584 54.4438 39.4064 54.3678 39.2264 54.2958C39.0504 54.2198 38.8404 54.1558 38.5964 54.1038C38.3564 54.0518 38.0704 54.0258 37.7384 54.0258C37.2544 54.0258 36.8164 54.1058 36.4244 54.2658C36.0324 54.4218 35.6984 54.6478 35.4224 54.9438C35.1464 55.2358 34.9344 55.5918 34.7864 56.0118C34.6384 56.4278 34.5644 56.8958 34.5644 57.4158C34.5644 57.9598 34.6404 58.4458 34.7924 58.8738C34.9484 59.2978 35.1664 59.6578 35.4464 59.9538C35.7264 60.2498 36.0584 60.4758 36.4424 60.6318C36.8264 60.7878 37.2504 60.8658 37.7144 60.8658Z" fill="#90DF9B"/>
<path fill-rule="evenodd" clip-rule="evenodd" d="M26.5412 35.6977C23.8075 32.964 19.3754 32.964 16.6417 35.6977L2.53854 49.8009L1.12433 48.3867L15.2275 34.2835C18.7422 30.7688 24.4407 30.7688 27.9554 34.2835L30.3448 36.6729L28.9306 38.0871L26.5412 35.6977Z" fill="#90DF9B"/>
<path fill-rule="evenodd" clip-rule="evenodd" d="M43.7285 34.281C40.9948 31.5473 36.5627 31.5473 33.829 34.2809L22.5722 45.5377C22.1816 45.9282 21.5485 45.9282 21.1579 45.5377C20.7674 45.1472 20.7674 44.514 21.1579 44.1235L32.4148 32.8667C35.9295 29.352 41.628 29.352 45.1427 32.8668L55.9615 43.6856C56.352 44.0761 56.352 44.7092 55.9615 45.0998C55.571 45.4903 54.9378 45.4903 54.5473 45.0998L43.7285 34.281Z" fill="#90DF9B"/>
<path fill-rule="evenodd" clip-rule="evenodd" d="M18.3049 14.2607V1.80786H20.3049V14.2607C20.3049 16.1558 19.6029 17.9861 18.3339 19.3458C17.0627 20.7078 15.3232 21.4871 13.4936 21.4871H1.87097V19.4871H13.4936C14.7465 19.4871 15.9633 18.9545 16.8718 17.9811C17.7824 17.0054 18.3049 15.6682 18.3049 14.2607Z" fill="#90DF9B"/>
</svg>
