<svg width="56" height="69" viewBox="0 0 56 69" fill="none" xmlns="http://www.w3.org/2000/svg">
<path fill-rule="evenodd" clip-rule="evenodd" d="M18.1418 1.10374C18.3296 0.914378 18.5852 0.807861 18.8519 0.807861H48.6004C50.4463 0.807861 52.2148 1.54742 53.5175 2.8611C54.8199 4.17449 55.55 5.95405 55.55 7.80786V61.8079C55.55 63.6617 54.8199 65.4412 53.5175 66.7546C52.2148 68.0683 50.4463 68.8079 48.6004 68.8079H6.95255C5.10665 68.8079 3.33807 68.0683 2.03541 66.7546C0.733037 65.4412 0.00286865 63.6617 0.00286865 61.8079V19.8079C0.00286865 19.5441 0.107073 19.291 0.292791 19.1037L18.1418 1.10374ZM19.2686 2.80786L2.00287 20.2196V61.8079C2.00287 63.1367 2.52638 64.4093 3.45557 65.3464C4.38448 66.2831 5.64255 66.8079 6.95255 66.8079H48.6004C49.9104 66.8079 51.1684 66.2831 52.0973 65.3464C53.0265 64.4093 53.55 63.1366 53.55 61.8079V7.80786C53.55 6.47907 53.0265 5.20639 52.0973 4.26934C51.1684 3.33258 49.9104 2.80786 48.6004 2.80786H19.2686Z" fill="#8E8CEE"/>
<path d="M15.5019 27.137C15.5019 26.5847 15.9496 26.137 16.5019 26.137H38.7545C39.3068 26.137 39.7545 26.5847 39.7545 27.137C39.7545 27.6892 39.3068 28.137 38.7545 28.137H16.5019C15.9496 28.137 15.5019 27.6892 15.5019 27.137Z" fill="#8E8CEE"/>
<path d="M15.5019 32.137C15.5019 31.5847 15.9496 31.137 16.5019 31.137H29.7545C30.3068 31.137 30.7545 31.5847 30.7545 32.137C30.7545 32.6892 30.3068 33.137 29.7545 33.137H16.5019C15.9496 33.137 15.5019 32.6892 15.5019 32.137Z" fill="#8E8CEE"/>
<path d="M15.5019 37.137C15.5019 36.5847 15.9496 36.137 16.5019 36.137H38.7545C39.3068 36.137 39.7545 36.5847 39.7545 37.137C39.7545 37.6892 39.3068 38.137 38.7545 38.137H16.5019C15.9496 38.137 15.5019 37.6892 15.5019 37.137Z" fill="#8E8CEE"/>
<path d="M15.5019 42.137C15.5019 41.5847 15.9496 41.137 16.5019 41.137H29.7545C30.3068 41.137 30.7545 41.5847 30.7545 42.137C30.7545 42.6892 30.3068 43.137 29.7545 43.137H16.5019C15.9496 43.137 15.5019 42.6892 15.5019 42.137Z" fill="#8E8CEE"/>
<path d="M21.9305 57.4158C21.9305 58.0598 21.8285 58.6458 21.6245 59.1738C21.4205 59.7018 21.1325 60.1538 20.7605 60.5298C20.3885 60.9058 19.9425 61.1978 19.4225 61.4058C18.9025 61.6098 18.3265 61.7118 17.6945 61.7118H14.4785V53.1138H17.6945C18.3265 53.1138 18.9025 53.2178 19.4225 53.4258C19.9425 53.6298 20.3885 53.9218 20.7605 54.3018C21.1325 54.6778 21.4205 55.1298 21.6245 55.6578C21.8285 56.1858 21.9305 56.7718 21.9305 57.4158ZM20.7365 57.4158C20.7365 56.8878 20.6645 56.4158 20.5205 55.9998C20.3765 55.5838 20.1725 55.2318 19.9085 54.9438C19.6445 54.6558 19.3245 54.4358 18.9485 54.2838C18.5725 54.1318 18.1545 54.0558 17.6945 54.0558H15.6485V60.7698H17.6945C18.1545 60.7698 18.5725 60.6938 18.9485 60.5418C19.3245 60.3898 19.6445 60.1718 19.9085 59.8878C20.1725 59.5998 20.3765 59.2478 20.5205 58.8318C20.6645 58.4158 20.7365 57.9438 20.7365 57.4158Z" fill="#8E8CEE"/>
<path d="M31.9997 57.4158C31.9997 58.0598 31.8977 58.6518 31.6937 59.1918C31.4897 59.7278 31.2017 60.1898 30.8297 60.5778C30.4577 60.9658 30.0097 61.2678 29.4857 61.4838C28.9657 61.6958 28.3897 61.8018 27.7577 61.8018C27.1257 61.8018 26.5497 61.6958 26.0297 61.4838C25.5097 61.2678 25.0637 60.9658 24.6917 60.5778C24.3197 60.1898 24.0317 59.7278 23.8277 59.1918C23.6237 58.6518 23.5217 58.0598 23.5217 57.4158C23.5217 56.7718 23.6237 56.1818 23.8277 55.6458C24.0317 55.1058 24.3197 54.6418 24.6917 54.2538C25.0637 53.8618 25.5097 53.5578 26.0297 53.3418C26.5497 53.1258 27.1257 53.0178 27.7577 53.0178C28.3897 53.0178 28.9657 53.1258 29.4857 53.3418C30.0097 53.5578 30.4577 53.8618 30.8297 54.2538C31.2017 54.6418 31.4897 55.1058 31.6937 55.6458C31.8977 56.1818 31.9997 56.7718 31.9997 57.4158ZM30.8057 57.4158C30.8057 56.8878 30.7337 56.4138 30.5897 55.9938C30.4457 55.5738 30.2417 55.2198 29.9777 54.9318C29.7137 54.6398 29.3937 54.4158 29.0177 54.2598C28.6417 54.1038 28.2217 54.0258 27.7577 54.0258C27.2977 54.0258 26.8797 54.1038 26.5037 54.2598C26.1277 54.4158 25.8057 54.6398 25.5377 54.9318C25.2737 55.2198 25.0697 55.5738 24.9257 55.9938C24.7817 56.4138 24.7097 56.8878 24.7097 57.4158C24.7097 57.9438 24.7817 58.4178 24.9257 58.8378C25.0697 59.2538 25.2737 59.6078 25.5377 59.8998C25.8057 60.1878 26.1277 60.4098 26.5037 60.5658C26.8797 60.7178 27.2977 60.7938 27.7577 60.7938C28.2217 60.7938 28.6417 60.7178 29.0177 60.5658C29.3937 60.4098 29.7137 60.1878 29.9777 59.8998C30.2417 59.6078 30.4457 59.2538 30.5897 58.8378C30.7337 58.4178 30.8057 57.9438 30.8057 57.4158Z" fill="#8E8CEE"/>
<path d="M40.1479 59.9358C40.2119 59.9358 40.2699 59.9618 40.3219 60.0138L40.7779 60.5118C40.4259 60.9198 39.9979 61.2378 39.4939 61.4658C38.9939 61.6938 38.3899 61.8078 37.6819 61.8078C37.0619 61.8078 36.4999 61.7018 35.9959 61.4898C35.4919 61.2738 35.0619 60.9738 34.7059 60.5898C34.3499 60.2018 34.0739 59.7378 33.8779 59.1978C33.6819 58.6578 33.5839 58.0638 33.5839 57.4158C33.5839 56.7678 33.6879 56.1738 33.8959 55.6338C34.1079 55.0938 34.4039 54.6298 34.7839 54.2418C35.1639 53.8538 35.6179 53.5538 36.1459 53.3418C36.6779 53.1258 37.2639 53.0178 37.9039 53.0178C38.5359 53.0178 39.0799 53.1158 39.5359 53.3118C39.9959 53.5078 40.4039 53.7738 40.7599 54.1098L40.3819 54.6438C40.3539 54.6838 40.3219 54.7178 40.2859 54.7458C40.2499 54.7698 40.1979 54.7818 40.1299 54.7818C40.0779 54.7818 40.0219 54.7638 39.9619 54.7278C39.9059 54.6878 39.8379 54.6398 39.7579 54.5838C39.6779 54.5278 39.5839 54.4678 39.4759 54.4038C39.3679 54.3398 39.2399 54.2798 39.0919 54.2238C38.9439 54.1678 38.7719 54.1218 38.5759 54.0858C38.3799 54.0458 38.1539 54.0258 37.8979 54.0258C37.4379 54.0258 37.0159 54.1058 36.6319 54.2658C36.2519 54.4218 35.9239 54.6458 35.6479 54.9378C35.3719 55.2298 35.1559 55.5858 34.9999 56.0058C34.8479 56.4258 34.7719 56.8958 34.7719 57.4158C34.7719 57.9518 34.8479 58.4298 34.9999 58.8498C35.1559 59.2698 35.3659 59.6258 35.6299 59.9178C35.8979 60.2058 36.2139 60.4258 36.5779 60.5778C36.9419 60.7298 37.3339 60.8058 37.7539 60.8058C38.0099 60.8058 38.2399 60.7918 38.4439 60.7638C38.6479 60.7318 38.8359 60.6838 39.0079 60.6198C39.1839 60.5558 39.3459 60.4758 39.4939 60.3798C39.6459 60.2798 39.7979 60.1618 39.9499 60.0258C40.0179 59.9658 40.0839 59.9358 40.1479 59.9358Z" fill="#8E8CEE"/>
<path fill-rule="evenodd" clip-rule="evenodd" d="M17.4368 14.2607V1.80786H19.4368V14.2607C19.4368 16.1558 18.7348 17.9861 17.4658 19.3458C16.1946 20.7078 14.4551 21.4871 12.6255 21.4871H1.00287V19.4871H12.6255C13.8784 19.4871 15.0952 18.9545 16.0037 17.9811C16.9143 17.0054 17.4368 15.6682 17.4368 14.2607Z" fill="#8E8CEE"/>
</svg>
