<svg width="56" height="69" viewBox="0 0 56 69" fill="none" xmlns="http://www.w3.org/2000/svg">
<path fill-rule="evenodd" clip-rule="evenodd" d="M18.2542 1.10374C18.4419 0.914378 18.6976 0.807861 18.9642 0.807861H48.7127C50.5586 0.807861 52.3271 1.54742 53.6298 2.8611C54.9322 4.17449 55.6623 5.95405 55.6623 7.80786V61.8079C55.6623 63.6617 54.9322 65.4412 53.6298 66.7546C52.3271 68.0683 50.5586 68.8079 48.7127 68.8079H7.06486C5.21896 68.8079 3.45038 68.0683 2.14772 66.7546C0.845342 65.4412 0.115173 63.6617 0.115173 61.8079V19.8079C0.115173 19.5441 0.219378 19.291 0.405096 19.1037L18.2542 1.10374ZM19.3809 2.80786L2.11517 20.2196V61.8079C2.11517 63.1367 2.63868 64.4093 3.56787 65.3464C4.49678 66.2831 5.75485 66.8079 7.06486 66.8079H48.7127C50.0227 66.8079 51.2807 66.2831 52.2096 65.3464C53.1388 64.4093 53.6623 63.1366 53.6623 61.8079V7.80786C53.6623 6.47907 53.1388 5.20639 52.2096 4.26934C51.2807 3.33258 50.0227 2.80786 48.7127 2.80786H19.3809Z" fill="#8E8CEE"/>
<path fill-rule="evenodd" clip-rule="evenodd" d="M17.5491 14.2607V1.80786H19.5491V14.2607C19.5491 16.1558 18.8471 17.9861 17.5781 19.3458C16.3069 20.7078 14.5674 21.4871 12.7378 21.4871H1.11517V19.4871H12.7378C13.9907 19.4871 15.2075 18.9545 16.116 17.9811C17.0266 17.0054 17.5491 15.6682 17.5491 14.2607Z" fill="#8E8CEE"/>
</svg>
