<svg width="57" height="69" viewBox="0 0 57 69" fill="none" xmlns="http://www.w3.org/2000/svg">
<path fill-rule="evenodd" clip-rule="evenodd" d="M18.9902 1.10374C19.178 0.914378 19.4336 0.807861 19.7003 0.807861H49.4487C51.2946 0.807861 53.0632 1.54742 54.3659 2.8611C55.6683 4.17449 56.3984 5.95405 56.3984 7.80786V61.8079C56.3984 63.6617 55.6683 65.4412 54.3659 66.7546C53.0632 68.0683 51.2946 68.8079 49.4487 68.8079H7.80094C5.95504 68.8079 4.18646 68.0683 2.8838 66.7546C1.58143 65.4412 0.851257 63.6617 0.851257 61.8079V19.8079C0.851257 19.5441 0.955462 19.291 1.14118 19.1037L18.9902 1.10374ZM20.117 2.80786L2.85126 20.2196V61.8079C2.85126 63.1367 3.37477 64.4093 4.30396 65.3464C5.23286 66.2831 6.49094 66.8079 7.80094 66.8079H49.4487C50.7588 66.8079 52.0168 66.2831 52.9457 65.3464C53.8749 64.4093 54.3984 63.1366 54.3984 61.8079V7.80786C54.3984 6.47907 53.8749 5.20639 52.9457 4.26934C52.0168 3.33258 50.7588 2.80786 49.4487 2.80786H20.117Z" fill="#90DF9B"/>
<path d="M21.8371 58.7418C21.8371 59.2218 21.7771 59.6518 21.6571 60.0318C21.5411 60.4118 21.3671 60.7338 21.1351 60.9978C20.9071 61.2578 20.6251 61.4578 20.2891 61.5978C19.9531 61.7378 19.5671 61.8078 19.1311 61.8078C18.7431 61.8078 18.3391 61.7518 17.9191 61.6398C17.9271 61.5238 17.9371 61.4098 17.9491 61.2978C17.9611 61.1818 17.9731 61.0678 17.9851 60.9558C17.9931 60.8878 18.0171 60.8338 18.0571 60.7938C18.1011 60.7498 18.1651 60.7278 18.2491 60.7278C18.3211 60.7278 18.4171 60.7458 18.5371 60.7818C18.6571 60.8178 18.8171 60.8358 19.0171 60.8358C19.2811 60.8358 19.5151 60.7958 19.7191 60.7158C19.9271 60.6358 20.1011 60.5118 20.2411 60.3438C20.3851 60.1758 20.4931 59.9618 20.5651 59.7018C20.6411 59.4378 20.6791 59.1258 20.6791 58.7658V53.1138H21.8371V58.7418Z" fill="#90DF9B"/>
<path d="M25.7131 58.4958V61.7118H24.5551V53.1138H27.0931C27.6371 53.1138 28.1091 53.1778 28.5091 53.3058C28.9131 53.4298 29.2471 53.6078 29.5111 53.8398C29.7751 54.0718 29.9711 54.3518 30.0991 54.6798C30.2311 55.0078 30.2971 55.3738 30.2971 55.7778C30.2971 56.1778 30.2271 56.5438 30.0871 56.8758C29.9471 57.2078 29.7411 57.4938 29.4691 57.7338C29.2011 57.9738 28.8671 58.1618 28.4671 58.2978C28.0671 58.4298 27.6091 58.4958 27.0931 58.4958H25.7131ZM25.7131 57.5718H27.0931C27.4251 57.5718 27.7171 57.5278 27.9691 57.4398C28.2251 57.3518 28.4391 57.2298 28.6111 57.0738C28.7831 56.9138 28.9131 56.7238 29.0011 56.5038C29.0891 56.2838 29.1331 56.0418 29.1331 55.7778C29.1331 55.2298 28.9631 54.8018 28.6231 54.4938C28.2871 54.1858 27.7771 54.0318 27.0931 54.0318H25.7131V57.5718Z" fill="#90DF9B"/>
<path d="M36.105 60.8658C36.337 60.8658 36.549 60.8558 36.741 60.8358C36.937 60.8118 37.121 60.7778 37.293 60.7338C37.465 60.6898 37.627 60.6378 37.779 60.5778C37.931 60.5138 38.083 60.4418 38.235 60.3618V58.4658H36.903C36.827 58.4658 36.765 58.4438 36.717 58.3998C36.673 58.3558 36.651 58.3018 36.651 58.2378V57.5778H39.291V60.8778C39.075 61.0338 38.849 61.1698 38.613 61.2858C38.381 61.4018 38.131 61.4998 37.863 61.5798C37.599 61.6558 37.315 61.7118 37.011 61.7478C36.707 61.7878 36.377 61.8078 36.021 61.8078C35.397 61.8078 34.825 61.7018 34.305 61.4898C33.785 61.2738 33.337 60.9738 32.961 60.5898C32.585 60.2018 32.291 59.7378 32.079 59.1978C31.871 58.6578 31.767 58.0638 31.767 57.4158C31.767 56.7598 31.869 56.1618 32.073 55.6218C32.281 55.0818 32.575 54.6198 32.955 54.2358C33.339 53.8478 33.801 53.5478 34.341 53.3358C34.885 53.1238 35.493 53.0178 36.165 53.0178C36.505 53.0178 36.821 53.0438 37.113 53.0958C37.405 53.1438 37.675 53.2158 37.923 53.3118C38.175 53.4038 38.407 53.5178 38.619 53.6538C38.831 53.7858 39.029 53.9358 39.213 54.1038L38.883 54.6318C38.815 54.7398 38.727 54.7938 38.619 54.7938C38.555 54.7938 38.485 54.7718 38.409 54.7278C38.309 54.6718 38.197 54.6038 38.073 54.5238C37.949 54.4438 37.797 54.3678 37.617 54.2958C37.441 54.2198 37.231 54.1558 36.987 54.1038C36.747 54.0518 36.461 54.0258 36.129 54.0258C35.645 54.0258 35.207 54.1058 34.815 54.2658C34.423 54.4218 34.089 54.6478 33.813 54.9438C33.537 55.2358 33.325 55.5918 33.177 56.0118C33.029 56.4278 32.955 56.8958 32.955 57.4158C32.955 57.9598 33.031 58.4458 33.183 58.8738C33.339 59.2978 33.557 59.6578 33.837 59.9538C34.117 60.2498 34.449 60.4758 34.833 60.6318C35.217 60.7878 35.641 60.8658 36.105 60.8658Z" fill="#90DF9B"/>
<path fill-rule="evenodd" clip-rule="evenodd" d="M26.5215 35.6977C23.7878 32.964 19.3557 32.964 16.622 35.6977L2.51883 49.8009L1.10461 48.3867L15.2078 34.2835C18.7225 30.7688 24.421 30.7688 27.9357 34.2835L30.3251 36.6729L28.9109 38.0871L26.5215 35.6977Z" fill="#90DF9B"/>
<path fill-rule="evenodd" clip-rule="evenodd" d="M43.7088 34.281C40.9751 31.5473 36.543 31.5473 33.8093 34.2809L22.5524 45.5377C22.1619 45.9282 21.5288 45.9282 21.1382 45.5377C20.7477 45.1472 20.7477 44.514 21.1382 44.1235L32.3951 32.8667C35.9098 29.352 41.6083 29.352 45.123 32.8668L55.9418 43.6856C56.3323 44.0761 56.3323 44.7092 55.9418 45.0998C55.5513 45.4903 54.9181 45.4903 54.5276 45.0998L43.7088 34.281Z" fill="#90DF9B"/>
<path fill-rule="evenodd" clip-rule="evenodd" d="M18.2852 14.2607V1.80786H20.2852V14.2607C20.2852 16.1558 19.5832 17.9861 18.3142 19.3458C17.043 20.7078 15.3035 21.4871 13.4739 21.4871H1.85126V19.4871H13.4739C14.7268 19.4871 15.9436 18.9545 16.8521 17.9811C17.7627 17.0054 18.2852 15.6682 18.2852 14.2607Z" fill="#90DF9B"/>
<path fill-rule="evenodd" clip-rule="evenodd" d="M41.7467 10.8079C39.1777 10.8079 37.095 12.8905 37.095 15.4596C37.095 18.0286 39.1777 20.1112 41.7467 20.1112C44.3158 20.1112 46.3984 18.0286 46.3984 15.4596C46.3984 12.8905 44.3158 10.8079 41.7467 10.8079ZM35.095 15.4596C35.095 11.7859 38.0731 8.80786 41.7467 8.80786C45.4204 8.80786 48.3984 11.7859 48.3984 15.4596C48.3984 19.1332 45.4204 22.1112 41.7467 22.1112C38.0731 22.1112 35.095 19.1332 35.095 15.4596Z" fill="#90DF9B"/>
</svg>
