<svg width="56" height="69" viewBox="0 0 56 69" fill="none" xmlns="http://www.w3.org/2000/svg">
<path fill-rule="evenodd" clip-rule="evenodd" d="M18.5857 1.10374C18.7735 0.914378 19.0291 0.807861 19.2958 0.807861H49.0442C50.8901 0.807861 52.6587 1.54742 53.9613 2.8611C55.2637 4.17449 55.9939 5.95405 55.9939 7.80786V61.8079C55.9939 63.6617 55.2637 65.4412 53.9613 66.7546C52.6587 68.0683 50.8901 68.8079 49.0442 68.8079H7.3964C5.5505 68.8079 3.78192 68.0683 2.47926 66.7546C1.17689 65.4412 0.446716 63.6617 0.446716 61.8079V19.8079C0.446716 19.5441 0.550921 19.291 0.736639 19.1037L18.5857 1.10374ZM19.7125 2.80786L2.44672 20.2196V61.8079C2.44672 63.1367 2.97023 64.4093 3.89942 65.3464C4.82832 66.2831 6.08639 66.8079 7.3964 66.8079H49.0442C50.3542 66.8079 51.6123 66.2831 52.5412 65.3464C53.4704 64.4093 53.9939 63.1366 53.9939 61.8079V7.80786C53.9939 6.47907 53.4704 5.20639 52.5412 4.26934C51.6123 3.33258 50.3542 2.80786 49.0442 2.80786H19.7125Z" fill="#8E8CEE"/>
<path d="M18.1037 58.592V61.808H16.9457V53.21H19.4837C20.0277 53.21 20.4997 53.274 20.8997 53.402C21.3037 53.526 21.6377 53.704 21.9017 53.936C22.1657 54.168 22.3617 54.448 22.4897 54.776C22.6217 55.104 22.6877 55.47 22.6877 55.874C22.6877 56.274 22.6177 56.64 22.4777 56.972C22.3377 57.304 22.1317 57.59 21.8597 57.83C21.5917 58.07 21.2577 58.258 20.8577 58.394C20.4577 58.526 19.9997 58.592 19.4837 58.592H18.1037ZM18.1037 57.668H19.4837C19.8157 57.668 20.1077 57.624 20.3597 57.536C20.6157 57.448 20.8297 57.326 21.0017 57.17C21.1737 57.01 21.3037 56.82 21.3917 56.6C21.4797 56.38 21.5237 56.138 21.5237 55.874C21.5237 55.326 21.3537 54.898 21.0137 54.59C20.6777 54.282 20.1677 54.128 19.4837 54.128H18.1037V57.668Z" fill="#8E8CEE"/>
<path d="M32.1137 57.512C32.1137 58.156 32.0117 58.742 31.8077 59.27C31.6037 59.798 31.3157 60.25 30.9437 60.626C30.5717 61.002 30.1257 61.294 29.6057 61.502C29.0857 61.706 28.5097 61.808 27.8777 61.808H24.6617V53.21H27.8777C28.5097 53.21 29.0857 53.314 29.6057 53.522C30.1257 53.726 30.5717 54.018 30.9437 54.398C31.3157 54.774 31.6037 55.226 31.8077 55.754C32.0117 56.282 32.1137 56.868 32.1137 57.512ZM30.9197 57.512C30.9197 56.984 30.8477 56.512 30.7037 56.096C30.5597 55.68 30.3557 55.328 30.0917 55.04C29.8277 54.752 29.5077 54.532 29.1317 54.38C28.7557 54.228 28.3377 54.152 27.8777 54.152H25.8317V60.866H27.8777C28.3377 60.866 28.7557 60.79 29.1317 60.638C29.5077 60.486 29.8277 60.268 30.0917 59.984C30.3557 59.696 30.5597 59.344 30.7037 58.928C30.8477 58.512 30.9197 58.04 30.9197 57.512Z" fill="#8E8CEE"/>
<path d="M39.4948 53.21V54.158H35.3668V57.164H38.8948V58.112H35.3668V61.808H34.1968V53.21H39.4948Z" fill="#8E8CEE"/>
<path d="M16.5119 45.0107C15.3078 45.0107 14.5497 44.1633 14.2821 43.5836C14.0145 43.1376 13.2563 41.4875 15.3524 39.3469C16.2443 38.4103 17.939 36.7156 22.3095 35.2439C22.8893 34.0398 23.5137 32.7019 24.1826 31.3194C24.8962 29.7585 25.4759 28.4206 25.9219 27.2165C24.138 24.3623 23.8258 22.2662 23.8704 19.9026C23.915 17.2267 25.6989 16.5132 26.6354 16.5132C26.68 16.5132 29.2221 16.6024 29.4005 20.4823C29.4451 21.9094 29.2221 23.5595 27.9288 26.9935C28.8207 28.3314 30.0694 29.8477 31.6303 31.587C32.1655 32.2113 32.7006 32.7465 33.1466 33.2371C33.5926 33.2371 34.0385 33.1925 34.4845 33.1925C38.3199 33.1925 40.2375 34.0398 41.0403 34.5304C42.735 35.6007 42.6458 37.2954 42.3336 38.0089C42.1106 38.5887 41.2633 39.659 39.5686 39.659C39.1672 39.659 38.7212 39.6144 38.2753 39.4806C36.8482 39.0793 35.7778 38.4995 32.4777 35.0655C30.9614 35.1993 29.2667 35.4223 27.4828 35.7791C26.1003 36.0467 24.7624 36.3589 23.6029 36.7156C19.9459 43.8066 18.2512 44.5201 17.716 44.7431C17.3147 44.9215 16.9133 45.0107 16.5119 45.0107ZM21.0608 37.6076C18.4296 38.7225 17.2701 39.882 16.6011 40.5956C15.3078 41.9335 15.7538 42.647 15.7538 42.647L15.8876 42.7808V42.8254C15.8876 42.87 16.1106 43.2268 16.5119 43.2268C16.6457 43.2268 16.8241 43.1822 17.0025 43.093C17.3593 42.9592 18.608 42.1119 21.0608 37.6076ZM34.8413 34.9763C37.0711 37.2508 37.8293 37.5184 38.7212 37.7414C39.0334 37.8306 39.301 37.8752 39.5686 37.8752C40.4159 37.8752 40.6389 37.3846 40.6389 37.34C40.7281 37.117 40.8619 36.4926 40.1037 36.0021C39.5686 35.7345 38.0969 35.0209 34.8413 34.9763ZM24.7178 34.4412L24.6732 34.5304C25.4313 34.352 26.2787 34.129 27.126 33.9952C28.4193 33.7276 29.7126 33.5492 30.9168 33.4154L30.8722 33.3709C30.6938 33.1925 30.5154 33.0141 30.337 32.7911C29.0437 31.4086 28.018 30.1153 27.1706 29.0003L27.126 29.0449C26.7246 29.9815 26.3233 30.9626 25.8327 32.0775C25.4313 32.8803 25.03 33.683 24.7178 34.4412ZM26.5908 18.2525C26.3233 18.2971 25.6989 18.4755 25.6543 19.858C25.6097 21.3297 25.6989 22.846 26.7246 24.942C27.572 22.4 27.6166 21.3297 27.6166 20.4823C27.5274 18.6092 26.7246 18.2971 26.5908 18.2525Z" fill="#8E8CEE"/>
<path fill-rule="evenodd" clip-rule="evenodd" d="M17.8807 14.2607V1.80786H19.8807V14.2607C19.8807 16.1558 19.1787 17.9861 17.9096 19.3458C16.6384 20.7078 14.899 21.4871 13.0694 21.4871H1.44672V19.4871H13.0694C14.3223 19.4871 15.5391 18.9545 16.4475 17.9811C17.3582 17.0054 17.8807 15.6682 17.8807 14.2607Z" fill="#8E8CEE"/>
</svg>
