<svg width="80" height="80" viewBox="0 0 80 80" fill="none" xmlns="http://www.w3.org/2000/svg">
<path d="M13.7 3.70001C13.3 4.00001 13.5 5.10001 14.1 6.20001C14.7 7.30001 14.9 9.20001 14.6 10.5C14.1 12.3 15.3 14.4 19.3 19.7C22.2 23.4 25.6 28 26.9 29.8L29.2 33L23 39.7C19.7 43.4 17.1 46.9 17.4 47.6C17.7 48.3 17.2 49.4 16.4 50C14.8 51.4 14.5 54 16.1 54C17.5 54 23.6 49.5 29 44.4L33.5 40.1L41 51.3C49.2 63.6 53.7 69 55.8 69C56.6 69 56.8 68.5 56.4 67.7C56 67.1 57.8 68.9 60.5 71.8C63.1 74.7 65.5 76.9 65.7 76.6C65.9 76.4 65.2 74.4 64.1 72.1C62.9 69.9 62 67.2 62 66.2C62 63.3 54.5 47.6 48.9 39C46.2 34.8 44 31 44 30.6C44 30.2 46.2 27.3 48.9 24.2C54.3 17.9 59 11.2 59 9.80001C59 9.30001 57.7 9.10001 56 9.50001C54.2 9.90001 50.5 12.7 46.4 17.1C42.7 20.9 39.4 24 39.1 24C38.8 24 36.3 20.7 33.6 16.8C30.9 12.9 27.9 9.50001 27 9.30001C26 9.00001 24.3 7.60001 23.2 6.10001C21.7 4.10001 20.3 3.30001 17.7 3.20001C15.8 3.10001 14 3.30001 13.7 3.70001Z" fill="#8E8CEE"/>
</svg>
