<svg width="90" height="66" viewBox="0 0 90 66" fill="none" xmlns="http://www.w3.org/2000/svg">
<path fill-rule="evenodd" clip-rule="evenodd" d="M45 0C37.9976 0 30.9572 2.64966 25.6182 7.94665C21.6477 11.8859 19.2407 16.7726 18.2201 21.8685C7.85944 23.8626 0 32.8399 0 43.6762C0 55.9706 10.1084 65.9997 22.5 65.9997H56.656C56.6837 66.0001 56.7114 66.0001 56.7391 65.9997H57.2609C57.2886 66.0001 57.3163 66.0001 57.344 65.9997H70.4348C81.2231 65.9997 90 57.2917 90 46.5881C90 36.486 82.1561 28.2623 72.2079 27.3583C72.2539 20.3322 69.7386 13.2916 64.3512 7.94665C59.0169 2.65398 52.0024 0 45 0ZM57.2609 60.1762H56.7391C56.7114 60.1758 56.6838 60.1758 56.6561 60.1762H22.5C13.2807 60.1762 5.86957 52.8233 5.86957 43.6762C5.86957 35.0382 12.4909 28.0009 20.9715 27.237C21.6366 27.1727 22.2596 26.8852 22.7377 26.4219C23.2157 25.9587 23.5201 25.3474 23.6005 24.6892C24.1405 20.074 26.1989 15.5901 29.7758 12.0413C33.9878 7.86248 39.4844 5.8235 45 5.8235C50.5156 5.8235 55.9776 7.85816 60.1936 12.0413C65.0657 16.8751 67.1274 23.4426 66.3689 29.7241C66.317 30.1333 66.3533 30.5488 66.4754 30.9431C66.5975 31.3373 66.8026 31.7014 67.0772 32.0111C67.3518 32.3208 67.6895 32.5691 68.0681 32.7395C68.4466 32.91 68.8574 32.9987 69.2731 32.9998H70.4348C78.0729 32.9998 84.1304 39.0097 84.1304 46.5881C84.1304 54.1663 78.0729 60.1762 70.4348 60.1762H57.3439C57.3162 60.1758 57.2886 60.1758 57.2609 60.1762ZM32.7678 30.7678C31.7915 29.7915 31.7915 28.2085 32.7678 27.2322C33.7441 26.2559 35.327 26.2559 36.3033 27.2322L44.0355 34.9645L52.2322 26.7678C53.2085 25.7915 54.7915 25.7915 55.7678 26.7678C56.7441 27.7441 56.7441 29.327 55.7678 30.3033L47.5711 38.5L55.3952 46.3241C56.3715 47.3004 56.3715 48.8833 55.3952 49.8596C54.4189 50.836 52.836 50.836 51.8596 49.8596L44.0355 42.0355L36.6759 49.3952C35.6996 50.3715 34.1167 50.3715 33.1404 49.3952C32.164 48.4189 32.164 46.836 33.1404 45.8596L40.5 38.5L32.7678 30.7678Z" fill="#E55566"/>
</svg>
