<svg width="90" height="73" viewBox="0 0 90 73" fill="none" xmlns="http://www.w3.org/2000/svg">
<path d="M45 0C37.9976 0 30.9572 2.67062 25.6182 8.00951C21.6477 11.9799 19.2407 16.9053 18.2201 22.0414C7.85945 24.0513 0 33.0997 0 44.0217C0 56.4134 10.1084 66.5218 22.5 66.5218H33.2609C33.6498 66.5273 34.0359 66.4555 34.3968 66.3104C34.7576 66.1654 35.0861 65.9501 35.3631 65.677C35.64 65.404 35.8599 65.0786 36.01 64.7198C36.1602 64.361 36.2375 63.9759 36.2375 63.587C36.2375 63.1981 36.1602 62.813 36.01 62.4542C35.8599 62.0954 35.64 61.7701 35.3631 61.497C35.0861 61.2239 34.7576 61.0086 34.3968 60.8636C34.0359 60.7186 33.6498 60.6467 33.2609 60.6522H22.5C13.2807 60.6522 5.86957 53.2412 5.86957 44.0217C5.86957 35.3154 12.4909 28.2224 20.9715 27.4524C21.6366 27.3876 22.2596 27.0978 22.7377 26.6309C23.2157 26.164 23.5201 25.5479 23.6005 24.8845C24.1405 20.2328 26.1989 15.7134 29.7758 12.1365C33.9878 7.92468 39.4844 5.86957 45 5.86957C50.5156 5.86957 55.9776 7.92032 60.1936 12.1365C65.0657 17.0086 67.1274 23.628 66.3689 29.9592C66.317 30.3717 66.3533 30.7905 66.4754 31.1879C66.5975 31.5852 66.8026 31.9522 67.0772 32.2643C67.3518 32.5765 67.6895 32.8267 68.0681 32.9985C68.4466 33.1703 68.8574 33.2597 69.2731 33.2609H70.4348C78.0729 33.2609 84.1304 39.3183 84.1304 46.9566C84.1304 54.5947 78.0729 60.6522 70.4348 60.6522H56.7391C56.3502 60.6467 55.9641 60.7186 55.6032 60.8636C55.2424 61.0086 54.9139 61.2239 54.6369 61.497C54.36 61.7701 54.1401 62.0954 53.99 62.4542C53.8398 62.813 53.7626 63.1981 53.7626 63.587C53.7626 63.9759 53.8398 64.361 53.99 64.7198C54.1401 65.0786 54.36 65.404 54.6369 65.677C54.9139 65.9501 55.2424 66.1654 55.6032 66.3104C55.9641 66.4555 56.3502 66.5273 56.7391 66.5218H70.4348C81.2231 66.5218 90 57.7449 90 46.9566C90 36.7746 82.1561 28.4859 72.2079 27.5747C72.2539 20.4931 69.7385 13.3968 64.3512 8.00951C59.0169 2.67498 52.0024 0 45 0ZM45 33.2609C44.0215 33.2609 43.5041 33.5757 43.013 34.0251L32.2521 43.8077C31.0095 44.9609 31.0313 46.8324 32.0686 47.9654C33.1059 49.0983 35.0881 49.1803 36.2262 48.1488L42.0652 42.8295V69.4566C42.0652 71.0774 43.3789 72.3914 45 72.3914C46.6212 72.3914 47.9348 71.0774 47.9348 69.4566V42.8295L53.7738 48.1488C54.912 49.1803 56.8342 49.0405 57.9314 47.9654C59.0876 46.8324 58.8758 44.8505 57.7479 43.8077L46.987 34.0251C46.4057 33.4929 45.9785 33.2609 45 33.2609Z" fill="#8E8CEE"/>
</svg>
