<svg width="90" height="66" viewBox="0 0 90 66" fill="none" xmlns="http://www.w3.org/2000/svg">
<path d="M45 0C37.9976 0 30.9572 2.64966 25.6182 7.94665C21.6477 11.8859 19.2407 16.7726 18.2201 21.8685C7.85944 23.8626 0 32.8399 0 43.6762C0 55.9706 10.1084 65.9997 22.5 65.9997H57.2609C57.6498 66.0052 58.0359 65.9339 58.3968 65.79C58.7576 65.6461 59.0861 65.4325 59.3631 65.1616C59.64 64.8907 59.8599 64.5678 60.01 64.2119C60.1602 63.8559 60.2375 63.4738 60.2375 63.088C60.2375 62.7021 60.1602 62.3201 60.01 61.9641C59.8599 61.6081 59.64 61.2853 59.3631 61.0143C59.0861 60.7434 58.7576 60.5298 58.3968 60.3859C58.0359 60.242 57.6498 60.1708 57.2609 60.1762H22.5C13.2807 60.1762 5.86957 52.8233 5.86957 43.6762C5.86957 35.0382 12.4909 28.0009 20.9715 27.237C21.6366 27.1727 22.2596 26.8852 22.7377 26.4219C23.2157 25.9587 23.5201 25.3474 23.6005 24.6892C24.1405 20.074 26.1989 15.5901 29.7758 12.0413C33.9878 7.86248 39.4844 5.8235 45 5.8235C50.5156 5.8235 55.9776 7.85816 60.1936 12.0413C65.0657 16.8751 67.1274 23.4426 66.3689 29.7241C66.317 30.1333 66.3533 30.5488 66.4754 30.9431C66.5975 31.3373 66.8026 31.7014 67.0772 32.0111C67.3518 32.3208 67.6895 32.5691 68.0681 32.7395C68.4466 32.91 68.8574 32.9987 69.2731 32.9998H70.4348C78.0729 32.9998 84.1304 39.0097 84.1304 46.5881C84.1304 54.1663 78.0729 60.1762 70.4348 60.1762H56.7391C56.3502 60.1708 55.9641 60.242 55.6032 60.3859C55.2424 60.5298 54.9139 60.7434 54.6369 61.0143C54.36 61.2853 54.1401 61.6081 53.99 61.9641C53.8398 62.3201 53.7626 62.7021 53.7626 63.088C53.7626 63.4738 53.8398 63.8559 53.99 64.2119C54.1401 64.5678 54.36 64.8907 54.6369 65.1616C54.9139 65.4325 55.2424 65.6461 55.6032 65.79C55.9641 65.9339 56.3502 66.0052 56.7391 65.9997H70.4348C81.2231 65.9997 90 57.2917 90 46.5881C90 36.486 82.1561 28.2623 72.2079 27.3583C72.2539 20.3322 69.7386 13.2916 64.3512 7.94665C59.0169 2.65398 52.0024 0 45 0Z" fill="#8E8CEE"/>
<path fill-rule="evenodd" clip-rule="evenodd" d="M59.7678 28.0107C60.7441 28.9793 60.7441 30.5498 59.7678 31.5185L38.2043 52.9127C37.8144 53.2995 37.1856 53.2995 36.7957 52.9127L26.7322 42.9282C25.7559 41.9595 25.7559 40.3891 26.7322 39.4204C27.7085 38.4518 29.2915 38.4518 30.2678 39.4204L37.5 46.5959L56.2322 28.0107C57.2085 27.042 58.7915 27.042 59.7678 28.0107Z" fill="#8E8CEE"/>
</svg>
